<svg id="Layer_1" data-name="Layer 1" xmlns="http://www.w3.org/2000/svg" viewBox="0 0 391.4 368.06"><defs><style>.cls-1{fill:#fff;}.cls-2{fill:#ec1c24;}</style></defs><title>Ambiente climatizado</title><path class="cls-1" d="M216.41,21.59c2.26.53,4.53,1,6.76,1.61,20.74,5.68,34.57,23.89,34.59,45.78q.08,62.94,0,125.88c0,4.67.08,9.35,0,14a4.63,4.63,0,0,0,1.92,4c20.18,17.32,29.35,39.36,27.4,65.82-2.43,33-29,62.12-61.64,67.92-41.46,7.37-80.33-18.12-88.86-59.3-6-29.1,3-53.85,25.13-73.69a7.44,7.44,0,0,0,2.82-6.2q-.1-68.85,0-137.68c0-19.1,8.36-33.37,24.92-42.84,5-2.88,10.67-3.94,16.2-5.34ZM245,140.5v-2.87c0-22.94.12-45.89,0-68.84-.1-13.26-5.87-23.64-17.52-30.11s-23.34-6-34.47,1-15.86,17.68-15.84,30.79c.1,47.06,0,94.13.1,141.19a10.91,10.91,0,0,1-4.79,9.66,63.4,63.4,0,0,0-19,77.21c12.55,26.91,42.66,42.09,71.37,35.13,25.58-6.2,42.37-22.45,48.07-48.17,5.79-26.12-2.84-47.91-23.77-64.63-2.83-2.26-4.19-4.65-4.18-8.33C245.09,188.52,245,164.51,245,140.5Z"/><path class="cls-1" d="M119.47,83.47c-5.84,0-11.69,0-17.53,0-4.15,0-6.94-2.57-7-6.23s2.71-6.44,6.81-6.47q17.85-.12,35.7,0a6.41,6.41,0,0,1,6.7,6.6c-.15,3.52-2.91,6-6.84,6.08C131.37,83.51,125.42,83.47,119.47,83.47Z"/><path class="cls-1" d="M119.57,197.65c-5.84,0-11.68,0-17.53,0-4.23,0-7-2.45-7.08-6.11s2.67-6.55,7-6.59q17.52-.12,35.05,0c4.34,0,7.21,2.82,7.13,6.53s-2.94,6.15-7.39,6.17C131,197.67,125.31,197.65,119.57,197.65Z"/><path class="cls-1" d="M119.55,140.67c-6,0-11.9.06-17.84,0-3,0-5.38-1.35-6.38-4.35a6.07,6.07,0,0,1,1.93-6.91,6.28,6.28,0,0,1,4.43-1.45c11.89,0,23.79,0,35.69,0,3.94,0,6.68,2.61,6.78,6.13s-2.67,6.46-6.76,6.55C131.45,140.77,125.5,140.67,119.55,140.67Z"/><path class="cls-1" d="M128.76,99.35c3,0,5.94-.08,8.91,0a6.34,6.34,0,1,1,.12,12.67c-6,.13-12.09.12-18.13,0a6.36,6.36,0,0,1-6.48-6.45c.06-3.52,2.79-6.13,6.67-6.24C122.82,99.29,125.79,99.35,128.76,99.35Z"/><path class="cls-1" d="M128.91,156.49c3,0,5.94-.11,8.9,0a6.28,6.28,0,0,1,6.35,6.21,6.2,6.2,0,0,1-6.21,6.35q-9.21.3-18.43,0a6.2,6.2,0,0,1-6.34-6.53c.14-3.44,2.69-5.9,6.51-6.05,3.07-.12,6.14,0,9.22,0Z"/><path class="cls-2" d="M204.77,157.5V79.76c0-1,0-1.91,0-2.87.16-4,2.62-6.66,6.16-6.75s6.2,2.58,6.53,6.48c.08,1,0,2.12,0,3.18q0,78.69,0,157.38c0,2.66.74,3.72,3.34,4.54,14.66,4.6,24,19.77,21.51,34.52-2.67,15.85-15.85,27.17-31.45,27A31.6,31.6,0,0,1,180,276.41,31.24,31.24,0,0,1,201.8,241.6c2.41-.73,3-1.73,3-4.14C204.74,210.81,204.77,184.15,204.77,157.5Zm6.36,95.42a18.8,18.8,0,1,0,18.73,18.79A18.8,18.8,0,0,0,211.13,252.92Z"/></svg>