<svg id="Layer_1" data-name="Layer 1" xmlns="http://www.w3.org/2000/svg" viewBox="0 0 391.4 368.06"><defs><style>.cls-1{fill:#fff;}.cls-2{fill:#ec1c24;}</style></defs><title>Baños</title><path class="cls-1" d="M187.55,57.65c-2.27-11.15-11.19-18.38-22.73-18.4q-35.37-.07-70.76,0h-28a11.09,11.09,0,0,0-1.65.07,4.69,4.69,0,0,0-4.46,4.56c-.24,2.66.92,4.42,3.52,5.38a8.8,8.8,0,0,0,3.37.35h37.1q30.24,0,60.45,0c8,0,13.21,5,13.21,12.86q0,122.62,0,245.26c0,7.73-5.14,12.93-12.77,12.94q-37.22,0-74.42,0H44.58a12.31,12.31,0,0,1-8.1-2.73c-3.31-2.67-4.78-6.25-4.78-11.59q.06-96.27,0-192.52V67.06c0-.92,0-1.87-.06-2.78a4.94,4.94,0,0,0-3-4.26c-2.6-1.22-4.73-.36-7.3,3V312a1.38,1.38,0,0,1,.4.6C25.85,325.7,33.07,331,46.7,331H63.38q50,0,100.08,0c15.11,0,24.5-9.4,24.51-24.5q0-121.43,0-242.84A30.83,30.83,0,0,0,187.55,57.65Z"/><path class="cls-1" d="M373.77,64c0-15.27-9.44-24.76-24.64-24.77H300.08l-68.42,0a30.6,30.6,0,0,0-6.37.49c-11,2.38-18.07,11.42-18.08,23q0,44.49,0,89V219q0,44.17,0,88.34c0,13.9,9.58,23.63,23.25,23.65,30.76.07,62,0,92.29,0h26.92c2.85,0,6.27-.89,6.31-5.08,0-3.31-2.19-5.18-6.23-5.27-.63,0-1.28,0-1.91,0H232c-9.69,0-14.4-4.73-14.4-14.47V161.82q0-49.26,0-98.51c0-8.85,4.89-13.72,13.75-13.72q59.24,0,118.51,0c3.54,0,6.08.7,8.26,2.26,3.68,2.66,5.39,6.48,5.39,12q-.06,90.12,0,180.23v46.07c0,.8,0,1.6,0,2.4.14,3.38,2.17,5.58,5.24,5.54,2.9,0,4.9-2.18,5.08-5.41,0-.56,0-1.12,0-1.69V64Z"/><path class="cls-2" d="M72.13,221.81c2.65,1.08,3.16,2.64,3.15,5-.09,15.67-.12,28.83,0,42.13A22.34,22.34,0,0,0,94.79,291a80.6,80.6,0,0,0,18.45.17c12.26-1.2,20.66-10.39,20.89-22.89.11-5.65.06-11.4,0-17V251a7,7,0,0,0-1.74-5,4.77,4.77,0,0,0-3.42-1.28c-3.15,0-5.14,2.48-5.18,6.4,0,2.76,0,5.51,0,8.28s0,5.53,0,8.29c-.08,8.14-5,13.1-13.18,13.3-3.69.09-7.44.05-11.08,0-9-.09-13.91-5.06-13.92-14q0-10.52,0-21,0-13.14,0-26.29c0-4.38-1.41-6-5.79-6.6-7.76-1.09-11.89-5.73-12-13.42-.07-8.14-.08-16.61,0-25.92.07-8.47,5.16-13.54,13.64-13.55q23.15-.06,46.28,0c8.74,0,13.78,5,13.82,13.72q0,12.62,0,25.22c0,8.24-4,12.82-12.1,14-3.78.54-5.88,2.65-5.6,5.63.29,3.2,2.84,5,6.74,4.66a22.81,22.81,0,0,0,21.28-22.59c.13-8.41.08-17,0-25.24v-2c-.08-13.85-9.79-23.6-23.63-23.72-5.4,0-10.8,0-16.19,0h-7.29c-2.59,0-5.26,0-7.9,0l-7.07,0c-3.06,0-6.15,0-9.2.05-13.14.17-22.87,9.76-23.14,22.82-.23,10.79-.23,19.67,0,27.93C57.81,210.84,62.73,218,72.13,221.81Z"/><path class="cls-2" d="M273,168.72c1.86-5.5,6.1-8.46,12.26-8.56,2.93,0,6,0,10,0,6.8.07,10.82,3,13,9.42,1.85,5.4,3.65,10.81,5.45,16.22l6,17.87q4.56,13.71,9.16,27.39c1.17,3.49,3.8,5.16,6.68,4.18,3.13-1,4.25-3.77,3.07-7.53-.45-1.45-.94-2.88-1.42-4.32l-6.05-18.15c-4.32-13-8.79-26.45-13.26-39.65-3.35-9.87-11.28-15.62-21.78-15.78h-.27c-3.87,0-7.87-.12-11.77.05-8.87.35-15.46,4.54-19.59,12.47a40.11,40.11,0,0,0-2.39,6.18l-4.36,13c-5.13,15.28-10.42,31.07-15.52,46.64a19.4,19.4,0,0,0,1.53,16A17.76,17.76,0,0,0,256,252.57a39.81,39.81,0,0,0,8.33.32l.47,0h.26a3.31,3.31,0,0,1,2.46.77,3.46,3.46,0,0,1,.78,2.7c-.13,5.95-.13,11.26,0,16.21.25,10.22,7.16,17.72,17.19,18.66a52.64,52.64,0,0,0,10.2,0c9.76-1,16.36-8,16.81-17.9.12-2.74.09-5.54.06-8.24q0-1.9,0-3.81a.75.75,0,0,1,0-.26v-3.44c0-2.8,0-5.6,0-8.38-.05-4.12-1.83-6.44-5-6.54a4.74,4.74,0,0,0-3.5,1.25,7.18,7.18,0,0,0-1.86,5.26c0,4.39,0,8.78,0,13.16v5.49c0,5.63-.37,9-2.35,11s-5.33,2.3-11.21,2.22c-6.95-.08-9.93-3.05-10-10q0-5.62,0-11.23,0-5.1,0-10.2c0-5.36-1.63-7-6.91-7-1.48,0-3,0-4.43,0-2.51,0-5.11,0-7.68-.05a8.43,8.43,0,0,1-6.81-3.42,8,8,0,0,1-.91-7.24C258.78,210.92,265.87,189.67,273,168.72Z"/><path class="cls-1" d="M291.13,127.63c-4,.41-6.07,2.42-5.77,5.66.27,3.05,2.7,4.76,6.45,4.67a29.52,29.52,0,1,0-7.12-58.45c-13.61,2.6-24.21,15.54-23.64,28.85.12,2.91,1.86,4.91,4.55,5.21a5.07,5.07,0,0,0,5.56-4.11,12.06,12.06,0,0,0,.24-2l.05-.66a18.85,18.85,0,0,1,8.43-14.28,19.16,19.16,0,0,1,29.61,18.08C308.47,119.93,301.27,126.6,291.13,127.63Z"/><path class="cls-1" d="M105.31,89.18a4.94,4.94,0,0,0,4.51-5.2,5,5,0,0,0-4.8-5,7,7,0,0,0-.79,0,25.27,25.27,0,0,0-3.34.3l-.52.07c-15.37,2-26.37,16-25,32,1.23,14.8,14.33,26.68,29.3,26.68h.42c15.54-.24,28.57-12.83,29-28,0,0,0-.06,0-.08a5.68,5.68,0,0,0-1.78-5.4,5.19,5.19,0,0,0-5.1-.78c-2.63.93-3.3,3.12-3.53,6.36a19,19,0,0,1-18.5,17.58h-.6A19.53,19.53,0,0,1,85.71,111,19.27,19.27,0,0,1,99.79,90a24.32,24.32,0,0,1,3.44-.54C103.93,89.37,104.63,89.3,105.31,89.18Z"/></svg>