<svg id="Layer_1" data-name="Layer 1" xmlns="http://www.w3.org/2000/svg" viewBox="0 0 391.4 368.06"><defs><style>.cls-1{fill:#ec1c24;}.cls-2{fill:#fff;}</style></defs><title>Cafeteria</title><path class="cls-1" d="M192.59,78.35c7.31,4.93,7.26,10,6.33,17.85-.55,4.56-3.52,7.86-6.4,11.06l-1,1.1c-2.88,3.25-2.82,5.82.22,9.15a4.26,4.26,0,0,0,3.15,1.29H195a7.29,7.29,0,0,0,5.08-2.26c1-1.07,2-2.25,3-3.4l.77-.92c7-8.35,9.13-18,6.38-29.46-1.68-7-6.69-11.37-11.85-15.05a14.21,14.21,0,0,1-6.27-11.57c-.34-6.14,1.86-11.66,6.54-16.41a8.74,8.74,0,0,0,2.83-7.21,6.67,6.67,0,0,0-3.79-4.76h-3.92c-2.35,1.27-3.87,3.35-5.48,5.55-.47.64-.94,1.28-1.43,1.89-6.24,7.91-8.23,17.22-5.89,27.66C182.31,68.92,186.12,74,192.59,78.35Z"/><path class="cls-2" d="M330.9,211.63c1-4.52-1.12-8.19-3-11.43-5.94-10.08-15.3-15.29-27.81-15.48-7-.1-14.26-.08-21.42,0a3.61,3.61,0,0,1-2.57-.7,3.46,3.46,0,0,1-.73-2.56c.09-7.76.07-15.64.06-23.27V152.4c0-5.2-1.67-7.26-6.61-8.14a9,9,0,0,0-1.74,0l-.87,0H178.26a.69.69,0,0,1-.25,0H88.5c-4,0-6.71,1.48-7.88,4.42a4.39,4.39,0,0,0,.06,2.7,9.19,9.19,0,0,1,.29,2c-.09,42.2-.08,85.1-.07,126.59v6.66c0,1,0,2-.09,3a42.27,42.27,0,0,0,0,4.91,50.14,50.14,0,0,0,20.31,35.71c9,6.54,18,9.73,27.59,9.76q34.91.06,69.79,0l27.92,0a34.83,34.83,0,0,0,7-.53c9.78-2,17.47-5.57,23.51-10.89,11.9-10.46,17.93-23.22,17.92-37.91a3.81,3.81,0,0,1,.8-2.88,4,4,0,0,1,2.78-.74c6.75.16,13.63.12,20.27.07h1.45c3.78,0,8.69-.33,13.11-2.43,12.35-5.83,18.64-16,18.7-30.08q0-7.92,0-15.83c0-7.18,0-14.37.05-21.54a7,7,0,0,0-.61-2.48A5.65,5.65,0,0,1,330.9,211.63Zm-67.46,11.75q0,31.47-.06,62.94c0,8.34-1.68,15.65-4.94,21.7a35.73,35.73,0,0,1-14.15,14.69,42.53,42.53,0,0,1-21.15,5.39h-.27c-14.2-.08-28.65-.08-42.62-.06-17,0-34.47,0-51.71-.11-10.35-.09-19.54-4.81-27.35-14a38.85,38.85,0,0,1-8-16.76,31.94,31.94,0,0,1-.48-8c0-.73,0-1.47.05-2.21.1-19.9.09-40.13.08-59.7V160.52a4.77,4.77,0,0,0-.69-3.14.77.77,0,0,1,.63-1.18h33q66.65,0,133.32,0h0a4.68,4.68,0,0,1,3.39.93c.67.67,1,1.67.95,3.36Q263.41,191.91,263.44,223.38Zm56.55,32c-.05,6.59-2.32,11.79-6.73,15.45a18.41,18.41,0,0,1-11.89,4.31c-2.81,0-5.62,0-8.43,0-4.47,0-9.08,0-13.61.07H279a3.79,3.79,0,0,1-2.81-.82c-.62-.61-.87-1.53-.85-3.06.11-8.62.09-17.39.07-25.87,0-3.21,0-6.42,0-9.64v-9.28c0-8.85,0-17.69,0-26.53a3.47,3.47,0,0,1,.73-2.65,3.53,3.53,0,0,1,2.51-.72c3.24.06,6.54,0,9.73,0,4.23,0,8.63-.06,12.94.11,9.77.38,16.73,6.32,18.16,15.5a44.68,44.68,0,0,1,.57,7l0,4.16C320,233.87,320.07,244.71,320,255.36Z"/><path class="cls-1" d="M152.7,91.35a8,8,0,0,1,2.49,5.89c.24,4.44-1.95,7.73-4.08,10.92l-.2.31a5.67,5.67,0,0,0-.84,4.46,6.78,6.78,0,0,0,3.29,4.26c1.38.78,5.88-.48,7.23-2.45.51-.75,1.06-1.46,1.61-2.16,6.38-8.18,7.6-22.23-1.58-30.67-5.74-5.29-6.06-10.13-1.08-16.7,1.27-1.68,2.31-3.23,2-5.25a.87.87,0,0,1,0-.23,4.26,4.26,0,0,0-2.65-4.94,8.13,8.13,0,0,0-3.31-.83,5,5,0,0,0-3.3,1.23c-2.07,1.72-3.32,4-4.64,6.41-.4.74-.81,1.47-1.24,2.19a10.09,10.09,0,0,0-1,4.15,15.25,15.25,0,0,1-.64,3.39,9.52,9.52,0,0,0-.47,4.9C145.17,82,147.93,86.9,152.7,91.35Z"/></svg>