<svg id="Layer_1" data-name="Layer 1" xmlns="http://www.w3.org/2000/svg" viewBox="0 0 391.4 368.06"><defs><style>.cls-1{fill:#fff;}.cls-2{fill:#ec1c24;}</style></defs><title>Cocina</title><path class="cls-1" d="M355.2,181.35h0q-118.47.06-236.93,0H34.63c-5.24,0-6.76,1.49-6.76,6.65v52.66q0,52.65,0,105.31c0,3.58,1.1,5.53,3.79,6.72H358.19A7.55,7.55,0,0,0,362,348.9V185.33C360.88,182.5,358.9,181.35,355.2,181.35ZM37.31,195.86h0A5.14,5.14,0,0,1,38.47,192a5.09,5.09,0,0,1,3.75-1.19c48.81.08,96.85.08,142.77,0a4.85,4.85,0,0,1,3.7,1.19,5.43,5.43,0,0,1,1.17,3.94c-.09,23.44-.09,41.33,0,58,0,1.6-.14,3.25-1.31,4.42a5.78,5.78,0,0,1-4.21,1.31c-18.08-.1-35.85-.09-54-.08H97.58c-21.12,0-38.53,0-54.77.07a5.78,5.78,0,0,1-4.27-1.27,5.65,5.65,0,0,1-1.26-4.2C37.41,237,37.42,219,37.31,195.86ZM188.64,342h0a5.14,5.14,0,0,1-3.91,1.26h-.43c-18.22-.08-36.72-.08-54.13-.06H97.09c-17.57,0-36.24,0-54.54.07a5.49,5.49,0,0,1-4-1.23A5.54,5.54,0,0,1,37.3,338c.11-21.4.11-42.81,0-63.61a5.54,5.54,0,0,1,1.24-4.08A5.51,5.51,0,0,1,42.59,269c47.53.09,95.22.09,141.81,0a5.67,5.67,0,0,1,4.2,1.29,5.86,5.86,0,0,1,1.28,4.31c-.12,24.06-.12,44.17,0,63.29A5.58,5.58,0,0,1,188.64,342Zm10.59-146.39a4.9,4.9,0,0,1,1.14-3.64,5,5,0,0,1,3.73-1.19c47.6.07,95.89.06,143.5,0a5,5,0,0,1,3.75,1.2,5.14,5.14,0,0,1,1.14,3.9c-.15,9.78-.15,18.28,0,26a5.21,5.21,0,0,1-1.17,3.93,5.41,5.41,0,0,1-4,1.23q-24.54-.09-49.07-.06H248.16c-14.19,0-28.89,0-43.33.08a5.9,5.9,0,0,1-4.35-1.33c-1.16-1.18-1.3-2.84-1.26-4.44C199.37,213.72,199.37,205.56,199.23,195.65Zm152,146.43a5.51,5.51,0,0,1-4,1.22c-16.47-.07-33.84-.1-54.73-.06H251.92c-15.88,0-31.7,0-47.53.06a5.55,5.55,0,0,1-4-1.21,5.32,5.32,0,0,1-1.21-3.92c.09-32.05.09-64.56,0-96.61a4.41,4.41,0,0,1,5.16-5.12c50.08.06,96.8.06,142.84,0a4.5,4.5,0,0,1,5.28,5.32c-.1,32.46-.1,64.85,0,96.3A5.44,5.44,0,0,1,351.28,342.08Z"/><path class="cls-1" d="M356.9,99.91,338,87.5,334,84.82Q319,75,304,65.15a7,7,0,0,1-3.53-6.59c.12-9.9.09-19.87.06-29.51V25.27c0-5.12-1.6-6.69-6.8-6.7H257.79c-5.89,0-7.24,1.35-7.26,7.2v3.66c0,10.85,0,19.89.06,29.3a6.89,6.89,0,0,1-3.41,6.35q-11,7.29-22,14.63l-2.59,1.72c-9.47,6.32-19.27,12.85-28.95,19.22-2.82,1.86-3.94,3.92-3.84,7.13s.08,6.66.06,9.9V119c0,1.55,0,3.1,0,4.66,0,5.75,1.47,7.15,7.33,7.15H257q48.76,0,97.52,0c4,0,6.15-1.07,7.49-3.69V104.39A18.35,18.35,0,0,0,356.9,99.91ZM260,32a3.43,3.43,0,0,1,3.64-4l.23,0c8.53.06,16.07.06,23.1,0h.2a4.11,4.11,0,0,1,2.9,1,4.15,4.15,0,0,1,1,3.15C291,35.07,291,38,291,40.8v7c0,2.75,0,5.58,0,8.36a4.38,4.38,0,0,1-1,3.38A4.26,4.26,0,0,1,287,60.64c-6.78-.07-14-.08-22.82,0H264a4.1,4.1,0,0,1-2.93-1.06A4.32,4.32,0,0,1,260,56.4C260.06,48.47,260.06,40.27,260,32Zm92.47,82.37c-.3,6.15-1.15,6.93-7.58,6.93H259.09c-17.69,0-36,0-53.94.08-4.19,0-5.79-1.54-6-5.67-.27-5.23,1.46-8.54,6-11.45,13.35-8.57,26.69-17.55,39.61-26.22l8.93-6a11.42,11.42,0,0,1,6.48-2h.08c10.15.08,20.46.08,30.62,0a11.24,11.24,0,0,1,6.56,2l3.35,2.22C316.16,84.47,332.09,95,348,105.34c3.34,2.17,4.69,4.7,4.51,8.46Z"/><path class="cls-2" d="M329.87,253.61c-6-.24-11.45-.23-16.65,0-2.1.1-3.58,2.33-3.63,4.34a4.72,4.72,0,0,0,3.43,4.56,17.16,17.16,0,0,0,6.17.33,4.55,4.55,0,0,1,3.7,1,5,5,0,0,1,1.23,3.85c-.09,15.26-.09,31,0,46.83a5,5,0,0,1-1.14,3.73,4.84,4.84,0,0,1-3.57,1.16c-27-.08-56-.08-86.13,0a4.19,4.19,0,0,1-4.84-4.83c.1-18.14.1-33,0-46.83A5,5,0,0,1,229.6,264a5.27,5.27,0,0,1,3.93-1.14c7.67.1,15.49.07,23.07,0h2.29a15.9,15.9,0,0,0,4.09-.45,4.54,4.54,0,0,0,3.19-4.58,4.66,4.66,0,0,0-3.76-4.28,18,18,0,0,0-3-.16H226.11c-5.9,0-7.09,1.22-7.1,7.24v60.71c0,6.23,1.29,7.49,7.61,7.49h99.63c5.8,0,7.3-1.49,7.3-7.22v-61a11.91,11.91,0,0,0-.41-3.94C332.48,254.69,331.38,253.68,329.87,253.61Z"/><path class="cls-2" d="M284.51,254.58a4.49,4.49,0,0,0-1.32,3.28,4.56,4.56,0,0,0,4.64,4.61h.05a4.68,4.68,0,0,0,4.75-4.52,4.47,4.47,0,0,0-1.23-3.22,4.67,4.67,0,0,0-3.32-1.45l-.16-.62h0v.61A4.78,4.78,0,0,0,284.51,254.58Z"/><path class="cls-2" d="M148.73,286.69H125.51q-24.65,0-49.29,0a17.39,17.39,0,0,0-4.11.42,4.57,4.57,0,0,0-3.25,4.55A4.65,4.65,0,0,0,72.53,296a22,22,0,0,0,3.62.2c7.25,0,14.49,0,21.76,0h50.78c4.44,0,6.7-1.58,6.72-4.67C155.43,287.41,151.24,286.73,148.73,286.69Z"/><path class="cls-2" d="M75.51,216.54H98.72q24.65,0,49.29,0a18.2,18.2,0,0,0,4.13-.39,4.59,4.59,0,0,0,3.25-4.56,4.53,4.53,0,0,0-3.65-4.27,23.68,23.68,0,0,0-4-.24c-7.12,0-14.23,0-21.37,0H97.36q-10.9,0-21.77,0c-4.46,0-6.73,1.58-6.76,4.67C68.79,215.61,72.44,216.49,75.51,216.54Z"/><path class="cls-1" d="M236.24,214.37h0a5,5,0,0,0,3.53-1.45,4.43,4.43,0,0,0,1.33-3.21,4.67,4.67,0,0,0-4.76-4.57,4.55,4.55,0,0,0-4.67,4.57A4.72,4.72,0,0,0,233,213.1,4.47,4.47,0,0,0,236.24,214.37Z"/><path class="cls-1" d="M275.78,214.46h.06a4.74,4.74,0,0,0,3.39-1.43,4.57,4.57,0,0,0-3.4-7.81,4.4,4.4,0,0,0-4.63,4.55A4.58,4.58,0,0,0,275.78,214.46Z"/><path class="cls-1" d="M315.37,214.42a4.94,4.94,0,0,0,3.21-1.24,4.71,4.71,0,0,0,1.42-3.35,4.43,4.43,0,0,0-4.52-4.61c-2.86,0-4.69,1.71-4.78,4.36a4.63,4.63,0,0,0,1.21,3.4A4.83,4.83,0,0,0,315.37,214.42Z"/></svg>