<svg id="Layer_1" data-name="Layer 1" xmlns="http://www.w3.org/2000/svg" viewBox="0 0 391.4 368.06"><defs><style>.cls-1{fill:#fff;}.cls-2{fill:#ec1c24;}</style></defs><title>Estacionamiento</title><path class="cls-1" d="M345.28,19.82q-43,0-85.9,0c-10.19,0-16.53,6.3-16.54,16.45q0,43.11,0,86.24c0,9.89,6.42,16.3,16.32,16.34l5.24,0c9.36,0,19,.08,28.54-.09,1.5,0,3,.09,4,1.09s1.16,2.53,1.16,4q-.14,79.4-.08,158.78V335.6a8.68,8.68,0,0,0,0,1,3.16,3.16,0,0,1-.64,2.52,3.07,3.07,0,0,1-2.4.86h0c-9.52-.06-19.05,0-28.56,0H264.6a2.9,2.9,0,0,1-2.26-.81A2.58,2.58,0,0,1,262,337a40.24,40.24,0,0,0,.54-10.09c0-1.6-.09-3.21-.05-4.8.14-5.77.66-6.3,6.23-6.58,2.92-.14,4.76-1.76,4.81-4.24s-1.84-4.28-4.94-4.39c-.6,0-1.21,0-1.83,0H39.4c-.72,0-1.43,0-2.13.05a4.29,4.29,0,0,0-4.17,4.2c-.05,2.4,1.68,4.16,4.3,4.38a10.93,10.93,0,0,0,2.49,0,7.09,7.09,0,0,1,1-.07,3.31,3.31,0,0,1,2.3.77,4.16,4.16,0,0,1,1,3.33c-.18,4.55-.11,9.09,0,13.72A15.39,15.39,0,0,0,59.39,348.6c3.42.07,7,.07,11,0a15.33,15.33,0,0,0,15.48-15.48c.07-4.38.13-9.05,0-13.73a4,4,0,0,1,.83-3,4.07,4.07,0,0,1,3-.94h0q63.63.1,127.29,0c.91.14,2.12.1,2.93.93a4.15,4.15,0,0,1,.84,3.11c-.12,4.58-.08,9.13,0,13.4.11,9.08,6.66,15.68,15.58,15.7q41.14.07,82.29,0h15.68c3.4,0,5.4-1.54,5.46-4.22a3.84,3.84,0,0,0-1-2.9,6.21,6.21,0,0,0-4.52-1.51h-1.86c-7.08,0-14.39-.06-21.58,0a3.43,3.43,0,0,1-4.14-4q.09-96.6,0-193.19a4.21,4.21,0,0,1,.95-3.09,4.35,4.35,0,0,1,3.18-.92c10.73.09,21.46.07,32.19.05h2.3c10.25,0,16.62-6.43,16.62-16.73q0-42.78,0-85.55C361.87,26.24,355.51,19.82,345.28,19.82Zm-268,306.52c0,2.12,0,4.25,0,6.37-.08,4.48-2.67,7.11-7.11,7.23-1.81.05-3.55.08-5.25.08s-3.46,0-5.13-.08c-4.15-.13-6.8-2.69-6.92-6.7-.07-2.59-.06-5.18,0-7.77,0-2.23,0-4.45,0-6.68a3.33,3.33,0,0,1,.8-2.53,3.53,3.53,0,0,1,2.64-.79c2.09.06,4.19.06,6.29,0h5.19c2,0,4,0,6,0a3.68,3.68,0,0,1,2.81.79,3.57,3.57,0,0,1,.83,2.7C77.2,321.42,77.21,323.88,77.23,326.34Zm176.82-2c-.1,1-.19,2.09-.19,3,0,5.76-.06,8.85-1.88,10.68s-4.9,1.9-10.64,1.9c-5.07,0-8.27-.09-10.08-1.93s-1.88-4.93-1.83-9.87a29.14,29.14,0,0,0-.26-3.43c-.37-3.15-.75-6.41,1.37-8.29,1.81-1.61,4.92-1.27,7.93-.95a33.17,33.17,0,0,0,3.46.27h.17a24.22,24.22,0,0,0,3.24-.33c2.89-.4,5.88-.84,7.66,1.21C254.57,318.45,254.3,321.45,254.05,324.35Zm99.18-202.56c0,6-2.38,8.41-8.47,8.42H259.89c-6,0-8.41-2.39-8.41-8.47q0-42.43,0-84.87c0-6,2.38-8.41,8.47-8.41H314.5q15.15,0,30.32,0c6.05,0,8.41,2.38,8.41,8.46Q353.25,79.35,353.23,121.79Z"/><path class="cls-1" d="M33.2,289.58c0,2.37,1.66,3.79,4.37,3.8,16.38.06,30.7.06,43.8,0,2.77,0,4.36-1.62,4.47-4.51.09-2.28.07-4.57,0-6.86l0-2.4c0-10.56-6.31-16.88-16.8-16.91H43.69a1.19,1.19,0,0,1-.94-.46,1.15,1.15,0,0,1-.22-1c1.3-5.35,4.6-9.3,10.39-12.43,6.86-3.69,14.34-5.26,21.4-6.41,17.52-2.83,35.21-3.5,51.72-3.79,33.61-.58,68.37-1.19,102.83,2.42,8,.83,16.45,2.1,24.42,5.75,5.4,2.48,8.8,6,10.41,10.81.5,1.49.88,2.93.06,4s-2.39,1.21-3.65,1.16c-3.71-.1-7.45-.14-11.18-.14-4.11,0-8.21,0-12.23.09h-.35c-8.91.09-15.47,6.69-15.59,15.69,0,3.33-.06,6.65,0,10s1.61,5,5,5q21.38.09,42.76,0c3.44,0,5-1.55,5-5l0-2.52c.05-7,.11-14.17-.07-21.25-.34-13.7-6.27-22-19.21-26.84a7.44,7.44,0,0,1-4.89-5.17c-6.35-19.46-11.6-35.23-16.53-49.65-2.9-8.53-9-13.86-17.62-15.39-11.87-2.12-23.89-2.9-35.18-3.52a493.51,493.51,0,0,0-84.15,2.72C83.85,168.18,76.57,174,73,185c-2.85,8.83-5.8,17.64-8.75,26.44-2.48,7.42-5,14.84-7.39,22.27a9,9,0,0,1-5.63,6.2c-10.88,4.5-16.69,11.67-17.77,21.89a169.23,169.23,0,0,0-.39,21.7C33.12,285.54,33.17,287.56,33.2,289.58Zm230.57-6.24c-1.4,1.43-3.74,1.43-8.4,1.43H243c-3.35,0-6.71,0-10.07,0h-.18c-2.33,0-3.36-1-3.43-3.45-.12-4.11.43-6.4,1.88-7.9s3.73-2.11,7.83-2.11h6c5.37,0,10.73,0,16.1,0,2-.06,3.76.39,3.84,3.57C265.09,279.64,265.15,281.92,263.77,283.34ZM67.09,230.16c2.43-7.17,4.81-14.35,7.19-21.53q3.8-11.44,7.65-22.87c2-5.91,6.53-9.33,13.45-10.17A481.3,481.3,0,0,1,152.94,172a464.84,464.84,0,0,1,58.25,3.62c7.16.85,11.73,4.58,13.95,11.41,3.45,10.54,7,21.07,10.55,31.74l4.37,13.06a1.2,1.2,0,0,1-.21,1.14,1.25,1.25,0,0,1-1.08.43c-34.93-4.52-70.19-4-104.3-3.55l-5.42.07c-17.83.24-38.53.81-58.5,4.47a8.47,8.47,0,0,1-1.48.16,2.44,2.44,0,0,1-1.94-.74C66.3,232.79,66.67,231.39,67.09,230.16ZM42.9,272.74c1.37-1.4,3.63-1.4,8.13-1.4h5.58q6.38,0,12.73,0a8.36,8.36,0,0,1,7.07,3.77,8.62,8.62,0,0,1,.68,8.09,2.64,2.64,0,0,1-3,1.57,1.67,1.67,0,0,1-.4,0c-3.54,0-7.08,0-10.62,0l-7.64,0c-3.34,0-6.67-.05-10,.05h-.27a3.52,3.52,0,0,1-2.51-.81,4,4,0,0,1-.95-2.91C41.57,276.4,41.52,274.14,42.9,272.74Z"/><path class="cls-2" d="M180.34,262.7c-6.17,0-12.33,0-18.49,0h-8.18a.85.85,0,0,1-.23,0c-3,0-5.93,0-8.89,0s-5.88,0-8.85,0c-3.63,0-7.27,0-10.87.1-13.69.3-25.6,12.28-25.5,25.63,0,2.93,1.57,4.85,4,5s4.28-1.62,4.58-4.43c1.25-11.69,7.88-17.62,19.71-17.62h51.4c11.69,0,18.28,6,19.62,17.7.3,2.65,2,4.35,4.3,4.35h.08c2.49-.05,4.19-2,4.22-4.76a17.81,17.81,0,0,0-.25-3.22C204.73,271.7,194.25,262.79,180.34,262.7Z"/><path class="cls-2" d="M286.15,102V84.15a1.19,1.19,0,0,1,1.19-1.2h32.38V74.72H287.34a1.19,1.19,0,0,1-1.19-1.19V56.12a1.19,1.19,0,0,1,1.19-1.19H324V46.8H276.78v64.55H324.5v-8.12H287.34A1.19,1.19,0,0,1,286.15,102Z"/></svg>