<svg id="SvgjsSvg1001" width="288" height="288" xmlns="http://www.w3.org/2000/svg" version="1.1" xmlns:xlink="http://www.w3.org/1999/xlink" xmlns:svgjs="http://svgjs.com/svgjs"><defs id="SvgjsDefs1002"></defs><g id="SvgjsG1008" transform="matrix(0.9167,0,0,0.9167,11.995200000000011,11.995200000000011)"><svg xmlns="http://www.w3.org/2000/svg" width="288" height="288" fill="#FFF" viewBox="0 0 24 24"><path fill="none" d="M0 0h24v24H0V0z"></path><path d="M20.57 14.86L22 13.43 20.57 12 17 15.57 8.43 7 12 3.43 10.57 2 9.14 3.43 7.71 2 5.57 4.14 4.14 2.71 2.71 4.14l1.43 1.43L2 7.71l1.43 1.43L2 10.57 3.43 12 7 8.43 15.57 17 12 20.57 13.43 22l1.43-1.43L16.29 22l2.14-2.14 1.43 1.43 1.43-1.43-1.43-1.43L22 16.29l-1.43-1.43z" fill="#999999" class="color000 svgShape"></path></svg></g></svg>