<svg id="Layer_1" data-name="Layer 1" xmlns="http://www.w3.org/2000/svg" viewBox="0 0 117.96 228.11"><defs><style>.cls-1{fill:#ec1c24;}</style></defs><title>Flecha vertical</title><path class="cls-1" d="M64.3,18.51c-.07-.29.7-.19.84-.23C65,18.77,64.1,18.5,64.3,18.51Z"/><polygon class="cls-1" points="62.54 23.32 62.85 23.24 62.08 23.95 62.54 23.32"/><path class="cls-1" d="M62.55,27.82c-1.31-.43.22-1.63-.25-2.43l-.3-.13,1.06-.36C62.89,25.87,62.19,27.13,62.55,27.82Z"/><path class="cls-1" d="M65.41,30.22c-.52-.15-.45.52-.17-.56l.13.1A2.38,2.38,0,0,0,65.41,30.22Z"/><path class="cls-1" d="M65.37,29.76c0-.47.44.31,0,0Z"/><path class="cls-1" d="M65.08,32l.46-.63c.3.13.37.69.59.48C65.88,32.44,65.58,32.31,65.08,32Z"/><path class="cls-1" d="M64.12,32.54l.19-.32C64.44,32.27,64.48,32.36,64.12,32.54Z"/><path class="cls-1" d="M64.72,31.53l-.41.69c-.21-.09-.64-.1.15-.32C64.07,32,64.44,31.82,64.72,31.53Z"/><path class="cls-1" d="M64.52,31.14c-.29-.35-.47-.8-.92-.17C63.78,29.77,64.71,30,64.52,31.14Z"/><path class="cls-1" d="M61.19,28.05l-.39-.47.45-.4C61,27.38,61.6,28.08,61.19,28.05Z"/><path class="cls-1" d="M65.76,35.83a6,6,0,0,1-1.1-.25l.32-.46C65.17,35.35,65.35,35.8,65.76,35.83Z"/><path class="cls-1" d="M64.66,35.58l-.48.69C64.12,35.65,64.35,35.54,64.66,35.58Z"/><polygon class="cls-1" points="62.66 32.65 63.67 31.52 62.64 32.87 62.66 32.65"/><polygon class="cls-1" points="65.8 38.47 66.45 38.08 65.47 38.77 65.8 38.47"/><path class="cls-1" d="M65.68,40.22c.54-.29.91.39,1.25.09a2.66,2.66,0,0,1-1,1.24C66.18,41.16,66.12,40.75,65.68,40.22Z"/><path class="cls-1" d="M65.35,42.16a4.23,4.23,0,0,1,.6-.61A1.81,1.81,0,0,1,65.35,42.16Z"/><path class="cls-1" d="M64.31,37.44a1.21,1.21,0,0,1,.8.55l-.78-.28C64.32,37.63,64.32,37.54,64.31,37.44Z"/><path class="cls-1" d="M64.3,37.7h0c0,.3,0,.5,0,.59C64.36,38.23,64.34,38.05,64.3,37.7Z"/><path class="cls-1" d="M64.31,37.37v.07C64.24,37.42,64.21,37.4,64.31,37.37Z"/><path class="cls-1" d="M63.37,34.46c-.44.4-.92,1.25-1.59.43C62.32,34.6,62.71,35.07,63.37,34.46Z"/><path class="cls-1" d="M63.32,37l-.18-.73c.21,0,.52.14.73-.06Z"/><polygon class="cls-1" points="63.07 37.4 63.32 37.04 63.39 37.31 63.07 37.4"/><path class="cls-1" d="M64.61,40.91A1.55,1.55,0,0,0,64.18,42a3.8,3.8,0,0,1-.24-1.26C64.19,40.64,64.64,40.46,64.61,40.91Z"/><path class="cls-1" d="M64.39,39.35l0,.07C64.28,39.38,64.26,39.34,64.39,39.35Z"/><path class="cls-1" d="M64.19,45.81,64,45.75l.14,0Z"/><path class="cls-1" d="M63.8,40.63c-.16-.32,0-.5.28-.68a2.56,2.56,0,0,0-.14.75C63.83,40.72,63.76,40.73,63.8,40.63Z"/><path class="cls-1" d="M65,43.24a3.32,3.32,0,0,1-.44-.55C64.79,42.85,65.18,43.18,65,43.24Z"/><path class="cls-1" d="M64.56,39.53l0-.05C64.77,39.58,64.68,39.57,64.56,39.53Z"/><path class="cls-1" d="M64.56,39.53a2.19,2.19,0,0,1-.48.42,1.87,1.87,0,0,1,.26-.53Z"/><path class="cls-1" d="M59.12,47c.73-.06,1.41-.89.62-1.6.55-.7,3-.24,4.3.37-.32,0-.61,0-1,.74-.4-.25-.94-1.6-1.6-1-.38,1,.26.79.65,1.25-.91-.39-1.33,1.22-2.67,1l.47-.84C59.64,46.91,59.31,47.21,59.12,47Z"/><path class="cls-1" d="M64,44.37l.09-.3c.13.34.42.58,1,1-.36.5-.63.6-.87.63l-.1-1.46Z"/><path class="cls-1" d="M64.06,42.73c-.79.24-1.13,1-2,.51,0-.87.66-.61,1-1.13-.2,1.41.44-.41.89.61a2.13,2.13,0,0,0,.21-.76,4.5,4.5,0,0,0,.36.73l0,0h0c-.1-.06-.16-.08-.11,0a0,0,0,0,0,0,0,2.27,2.27,0,0,0-.3.06c.16.41.2.07.3-.06l.12,0h0l-.44,1.41A2.91,2.91,0,0,1,64.06,42.73Z"/><path class="cls-1" d="M60.07,35.64a.29.29,0,0,0,.19,0C60.16,35.78,60.09,35.82,60.07,35.64Z"/><path class="cls-1" d="M60.55,36.23c.11-.11.43-.19.35-.53-.24-.29-.38,0-.64,0,.21-.2.57-.7,1-.07l-.11.1c.28.57,1.27,1.3,1.38,1.2A7.21,7.21,0,0,1,60.55,36.23Z"/><path class="cls-1" d="M62.1,39.52l-.39,1.18L61,40.1l.42,0C61.28,39.46,61.79,39.6,62.1,39.52Z"/><polygon class="cls-1" points="64.58 45.95 65.42 45.79 64.24 46.47 64.58 45.95"/><polygon class="cls-1" points="64.48 47.48 65.21 47.42 64.77 47.82 64.48 47.48"/><path class="cls-1" d="M55.41,133.76l-.2.34A1,1,0,0,1,55.41,133.76Z"/><path class="cls-1" d="M55.36,131.25l.36-.06C55.53,131.31,55.38,131.36,55.36,131.25Z"/><path class="cls-1" d="M64.4,85c.68.5,1.74,1.06.92,1l-.8-.15A.82.82,0,0,0,64.4,85Z"/><path class="cls-1" d="M59.62,110.74l-.25-.14.77-.34C60,110.4,59.8,110.57,59.62,110.74Z"/><path class="cls-1" d="M56.3,111.1l.52.66A2.17,2.17,0,0,1,56.3,111.1Z"/><path class="cls-1" d="M54.56,147.43l-.81.4C53.75,147.2,54.16,147.48,54.56,147.43Z"/><path class="cls-1" d="M64.19,63.13a2.42,2.42,0,0,1,.48,1.09C64.21,63.7,63.52,63.27,64.19,63.13Z"/><path class="cls-1" d="M63.92,132.77a.6.6,0,0,1-.49.3C63.57,132.85,63.72,132.73,63.92,132.77Z"/><path class="cls-1" d="M64.67,65.47a2.11,2.11,0,0,1-.19-.23,1.91,1.91,0,0,0,.19-1C65,64.61,65.22,65.05,64.67,65.47Z"/><path class="cls-1" d="M55.23,197a.94.94,0,0,0,.09.12C55.22,197.13,55.21,197.08,55.23,197Z"/><path class="cls-1" d="M63.31,211.45a2.52,2.52,0,0,0,.06-.6C63.43,211,63.42,211.14,63.31,211.45Z"/><path class="cls-1" d="M64.83,53.63c0-.33.09-.05,0,0Z"/><path class="cls-1" d="M61.66,52.05a.64.64,0,0,1-.39.13A.79.79,0,0,0,61.66,52.05Z"/><path class="cls-1" d="M59.68,68.7v0C59.53,68.64,59.56,68.65,59.68,68.7Z"/><path class="cls-1" d="M64.47,53.14a1.52,1.52,0,0,1,.24.41A1.3,1.3,0,0,1,64.47,53.14Z"/><path class="cls-1" d="M64.85,53.2a2.55,2.55,0,0,1-.08-.28C64.9,52.88,65,52.92,64.85,53.2Z"/><path class="cls-1" d="M64.79,54.08a1.55,1.55,0,0,0-.08-.53c.05.07.09.09.12.08S64.8,53.86,64.79,54.08Z"/><path class="cls-1" d="M57.37,170.44s0,.05.08.07C57.12,170.84,57.17,170.69,57.37,170.44Z"/><path class="cls-1" d="M56.08,93.47l0,0,0,0Z"/><path class="cls-1" d="M55.48,94.63c1-.49.88-.78.67-1.15l2.31.38Z"/><path class="cls-1" d="M55.33,138.78c1.06,1.08-.27,2.09-.93,2.67.36.41,1.89-.32,1.47.85C55.38,144,54,142,53.75,143l1.29.72c-1,1.27-.1,2.21.06,3.28a.72.72,0,0,1-.37.42c.56,1.14-1.27,2.38-.85,3.24.27-.2.82.49,1.13.59l-.8,1.55c.34-.69,1.09-.66,1.81-.78-.07.48-.48.71-.58,1,.26-.2.53-.41.87-.15l-1.24,1.62a.79.79,0,0,1-.21-.44c0,.41-.47,1.29.13,1.87.29-.06.56-.26.85-.31-.82-.48-.12-.76.44-1-.13,1.12.19.28.72.82,0,.79-1,1.11-1.65.9.29.89.48,1.18-.27,2.09l1-.18-.32.84L57,158.4c.69,1.61-1.74.3-1.17,2.08h.89c-.34.68-1.84.92-.77,1.45-.54.66-1.26-1.14-1.44.42a2.8,2.8,0,0,1,1,1.32c-.4.5-1.05-.38-.93-.7-.42,2.36,3,1.47,1.87,3.58-.64-.73-1.72.6-1.69-1.11-.53.82,1.29,1.61.32,2.46l1.13-.56c0,.31-.39.65-.53.82l.88-.07c-1.54,1.05.73,2-1.28,2.58,1.58-.43-.1.79.52,1.2,1.12-.86,0-2.48,1.44-2.59.44.4-.28.76.15,1.15a2.71,2.71,0,0,1,.9-.77c.83,1.33-.88,2.09-1.26,2.89l.34-1.42c-1.47.11-.25.64-1.4,1,.79.71-.35,1.27.13,1.85,0-.15.14-.16.13-.32,0,1.56,2.34,2,2.39,2.61s-.61,1.75-1.23,1.33c-.41.5.44-2.06-1.46-1.17,2.19.89-.82,1.82.68,3.75.78-.84,1.23.5,1.82-.25-.18.92-.5,1-1.12,1.36l.68.28c-1.53,1.2-1.36.28-2.18,2.1.54-.61,1,.73,1.48.27a1.64,1.64,0,0,1-.57,1.36l.09-.06c-.35,1.84.87,1.51.1,3.19l-.41-.17c-1.11,2.2-.39,5-.9,7.25l-.34-.8c.21.24-.66,1.54,0,2.24,0-.14.22-.38.17-.51.46,0,1.15.29,1.26.84l-.7.21.54.22c0,.83-1-.24-1,.59,2,.49.27,3.59,2,4.31-1.46.57-.21-1.58-1.53-1,.21.26.49.37.61.91l-.88-.18c.5,2.52,1.25,3.48,1.06,5.73l.19-.09c.34.8.18,1.23-.58,1.59.41.16.62-.41,1-.1-2.24,1.41,1.65,2.81.08,3.67,1.77-.11,3.46,1.73,4.83,1l-.21.58c1.17-.19,0-1.81,1.25-2.14l-1.22-1.83c.44.06,1.09-.24,1.24,0,0-.45.09-.84.72-.25-3-4.35-.1-8.82-1.68-13.1.11-.29.52-.13.79,0-1.13-.78.59-.75.75-1.18l-1.63-1.16c.49-.47,1-.1,1.31-.13.32-2.19-1.26-4.32-.3-6.09-.58-.56-1.31.14-1.51-.61,1.68,1,.79-2.16,2-1.52-1.78-.72-.38-2.68-2.85-2.35-.15-.89,1.05-.74,1.27-.48a3.08,3.08,0,0,1,.67-2.71c-.58-.57.62-4.72-1.25-5.65,1.21.63.63,0,1.15-.65l1.07.55-.11-1.36c.1-.28,0-.36,0-.36-.06-.23-.62.06-.89-.53-.06-.92.52-1,1.07-1.48l.16.14.1-.63c0-.46-1.06,1.64-1.61.13.3,0,1.7-.91.94-1.31.05.77-.69.67-1,.39l-.08-1.08,1.35.35c-.07-3.09-1-6.31-1-9.62-1.18.05-.06-2.34-1.8-2l.17.13c-.17.81-1.37-.24-1.18-.9.55.69,1.74-1.24,2,.44l.82-1.3c3.34-.72-.28-3.46.8-5.43a.65.65,0,0,1-.41.19c1.06-1.75-.9-3.92-.37-4.32l-.92-.16c1.41-1.49,1.53-1.67,1-3.45-.15,0-.41.23-.6-.06.67-.43,1.35-.86,1.16-2.08l-.28.05.15-1.91c-2.82,0,1.72-3.27-1.34-3.84.83-.37,1.09-1.77,1.48-2.39a.71.71,0,0,1-.38-.15c1.52-.73-.47-2.11-.3-2.93.36-.53.84-.3,1.33-.07-1.21-1,1.33-2.89.83-3.27-.12-.77-1.09-.29-1.71-.5.27-1.14,2.55.2,1.43-1.33-.12.17-.22.5-.39.37-.24-.58-3.48-1.63-2.83-2.21l.51.39c.73-1.07-2.3-2.52-.4-2.7l.89.1c-1.17-1.83.35-.77-.68-2.64l-.15,0c.17-.81-.93-1.25.49-1.65l.19.28a7.94,7.94,0,0,0-.06-2.12c.13-.12.35-.62,0-.76,1.18,0,.54-2.38.47-2.84-.17.81-.68.43-1.16.2,1-.48,1.07-.81.37-1.48,1.47-.09,3-.22,3.13-1.53-.22.2-.35.52-.65.39s0-.44.14-.54c-.31-.13-.54.29-1,.14,1.4-.88.1-1.52.6-2.8-.45.4-.73,0-1.24-.09,1.67-.1-1.45-1.75.7-1.27-1.29-2.51-.09-6.36-1.48-7.34-.61-.26.37-1,.4-1.4l-.73.06c1.33-1.22.49-1,1.83-2.39-.87.6-1.27.35-2-.25l1.52-1L62,91.59c.44-.4.27-.85.09-1.3,0,.21-.11.09-.32.08,1.57-.21,1.39-2,2.13-2.25-1.53-.44.39-1.18-1-1.51a2.05,2.05,0,0,0,.53-.53c.67.21,1.42.29,1.09-.11a.32.32,0,0,0,0-.09l-.89-.18A2.93,2.93,0,0,0,64,84.61a1.62,1.62,0,0,0,.44.42,5.26,5.26,0,0,0-.44-.49.66.66,0,0,0,0-.15.12.12,0,0,0,0,.09.57.57,0,0,1,0-.86c-1.37-1.42,1.86-3.15,0-4.72.2.24.28.57,0,.66.09-1.31-1.18-2.61-.5-3.44l.83.06a5.75,5.75,0,0,0,.58-2.47l.94,0c-.34-1.13,1.17-3.54-.76-4.23.74-.27-.22-1.55,0-2.19l-.72-.16a2.44,2.44,0,0,1,.23-1.85c-1.5-1.69,0-3.25-.12-4.73h-.21l.51-1.5c-.65.39.45-.29.27-.74a1.57,1.57,0,0,0-.3-1.82l0-.95c-.48,1.06-1-.08-1.86-.14l.66-.61c-.4-.24-.65.4-.82-.05.44-.41.41-1.62,1.27-2a1.33,1.33,0,0,1,.57.39c0,.05,0,.05,0,0l0,0,0,0a2,2,0,0,1,.33-.17c-.19-.76.16-.48.53-.45-1.3-.86-.42-1.35-1.94-2,1.71.9,0-2,1.64-1.41-1.31-.65-.06-.44-1.18-.85.36.9-.84,1.8-1.41,2.53L61.62,50c-1.48.47.56,1.61.05,2,.35-.29,0-.93-.33-.95l1.14.19c.45,1-.44,1.83-1,2.56-.37-.69-.68.83-1.48.33l.14-.54c-.4-.25-.74.28-1.08.58.83,1.71.11,4.83,1,5.44-.29-.34,0-1,.29-1.29l.47.8c0-.65-1-1.16-.59-2.12.72.16,1.7-.54,2.69.19,1.13,1.84-1.87,1.51-1.6,3.72-.22.21,1.18-.46.79.72a4.61,4.61,0,0,1-3.91,2.57c.45-.63,1.37-1.88.24-2.07-.46.62-.74,1.7-1.47,1.76,1.31.64.39-1.18,1.48-.33,0,.43-.46.62-.68.82.54-.29.91.4,1.21.53,0,1.42.59,2.23.7,3.75a2.09,2.09,0,0,0,.93.21c-.36.74-2.32,1.8-3.13,1.52,0,.87.56.92.2,1.66-1.17-1.18.2.24-1.06.36-.15.76.61.27.9.62a1.91,1.91,0,0,1-.89.44c.95.47,2.49-.9,3.6-.35a11.32,11.32,0,0,1,2.05,2.12A17.7,17.7,0,0,1,55.42,75c-.74,0,.78.71.86,1,1.19,1-.93,1.47-.46,2.27l.67-.61c.3.13-.09,1.31-.52,1.5.42,0,2.13-.61,2.63-.25.22,1.44-2.07,2.81-3.31,2.72l1.29-2.21c-1-.08-1,1.57-2.28,1.48l.37,2c0-.26.32-1,.89-.73-.05.87.18.45.67,1a38.13,38.13,0,0,1,6.28-3.48l-.7,1,.61.27c-.82,1.36-4.87,2.6-5.93,3,.26.78,2.47.51,2.9.32.11,1.55-3.13,1.53-2.81,3.08l-.49-.58c-.2.37.24,1.7-.16,1.56.58.31,2,.59,2.34.25L56.2,90.08c.22-.21,2-.07,2.31-.16.06.55-2,.94-2.34.59,1.28,1.08.58.82,2.08,1.69-.12.32-1.88,0-2.07-.26a1.22,1.22,0,0,0-.06,1.49c.76-1.19,4-.33,5.32-.55l-5.28,2.57a19.36,19.36,0,0,1,2.21-.28c-1.57.22-1.78,3.16-1.56,4.6v-.22c.54-.29,1,1,.43,1.46.32-.09.22-.2.24-.42,1.18,1-2.39,1.25-1,2.23-.15-.89.48-1.07,1.1-1-.57.73,0,2.41-1.8,2.06.39.47.16.89,1.09.85l-1.1,1.79c.19-.13.74-.25.86.27-.24-1,1.48-2,.27-2.5,1.15,0,1.76.35,2.72-.13-.54,1.94-2.49,3-3.82,4.22l.83,1.7-.53.08,1.32.29c-.3.21-.56.35-.44.39a.8.8,0,0,0,.49-.09.88.88,0,0,1-.32.42,4.68,4.68,0,0,0,2.2-.55l-.73-.47c.66-.34,1.35-.58,1.78-.11a2.78,2.78,0,0,0-.28.24c.49-.22.9-.35,1.09-.19l-.63,1.3c-.18-.15-.56-.37-1-.63-.87.82-1.92,1.75-2.8,1l.77,1a7.78,7.78,0,0,0-2,2.38c.46.08.85-.3,1.18,0-1.47,1,1.73,2.53.43,2.76-.32.83-1.14.34-1.5.88.14,0,.43-.08.46.07l-.95.64c.34.25.66-.59,1.06.13-.7,1.21-1.19,1.93-.73,3-.23,1.44-1.88-.62-1.69.6.77.18,1.68.34,1.8,1.1-.53.4-1.13.35-1.48,1l1.19,0c-.06.64-.27,1.14.62,1.15-.51.52-.42.87-.23,1.14-.62,1-2.39-.7-2.86-.93.89,1,.37,1.6,1.8,2.14l.31-.84c1.47,1.79-1.67,1.7.84,2.52-.1-.61.53-1.34,1.18-1l-.6.88c.31.11.22-.5.57-.1a7.39,7.39,0,0,1-1.26,1h.08l-.2,1.6a.22.22,0,1,1,.43-.07l-.62,1c.3-.32.67,0,.86.48.36,1.35-2.66,1.08-1.46,2.13,0-.16.12-.18.1-.34l.53.54c-2.51.12-.26,3.18-2.77,3.3,1,.76.61,0,1.79-.94l.72.82C55.28,139.42,55.09,139.14,55.33,138.78Zm.19-10.37c-.53-.17,0-.65.24-.88C56.05,127.93,56.54,128.14,55.52,128.41Zm2.57-18.71c-.34-.31-.48-.58-.19-.76A.76.76,0,0,1,58.09,109.7Zm6-52.49,0,0C64.27,57.55,64.41,57.73,64.06,57.21Zm-.15-.58c-.06-.28,0-.53.18-.6a.32.32,0,0,0-.37,0C63.52,56.41,63.68,56.55,63.91,56.63Zm-.77,117.06.23.21C63.11,174,62.88,174.17,63.14,173.69Z"/><path class="cls-1" d="M56.68,111.05a1.38,1.38,0,0,0,.49.1A.34.34,0,0,1,56.68,111.05Z"/><path class="cls-1" d="M54.72,147.35s0,0,0,0l-.17,0Z"/><path class="cls-1" d="M56.17,73.08a1,1,0,0,0,.46.43C56.41,73.53,56.22,73.42,56.17,73.08Z"/><path class="cls-1" d="M65.23,50.27,65,51c0-.34-.15-.46-.29-.63C64.92,50.36,65.22,50.49,65.23,50.27Z"/><path class="cls-1" d="M59.72,44.17c.11-.1,0-.22.12-.32l.42,0C60.23,44.32,59.9,44.62,59.72,44.17Z"/><path class="cls-1" d="M62.27,49.62c-.75-.06-.49-.5-.35-1a.14.14,0,0,0,0,.09C63,48.57,62.62,49.1,62.27,49.62Z"/><path class="cls-1" d="M61.94,48.52a.9.9,0,0,0,0-.46C62.38,48,62.05,48.25,61.94,48.52Z"/><path class="cls-1" d="M64.22,54.69c-.2-.23,1-.14.65-.28C65.82,54.15,63.72,56,64.22,54.69Z"/><polygon class="cls-1" points="59.8 49.22 60.73 49.4 59.98 49.67 59.8 49.22"/><path class="cls-1" d="M60.48,53.11l-.25-.79a.34.34,0,0,0,.31-.21C60.57,52.6,60.76,53.13,60.48,53.11Z"/><path class="cls-1" d="M60.54,52.11a.77.77,0,0,1,.16-.63A1.57,1.57,0,0,1,60.54,52.11Z"/><polygon class="cls-1" points="59.53 50.3 59.72 50.53 59.79 51.08 59.53 50.3"/><path class="cls-1" d="M60.66,61.56l-.26.86c-.32.09-.51-.14-.39-.46S60.36,61.43,60.66,61.56Z"/><path class="cls-1" d="M58.13,59c.19.23.4.25.7.38l-1.15,0Z"/><path class="cls-1" d="M57.86,61.47c-.32.09-.91,1.25-.84.16C57.33,61.54,57.6,60.68,57.86,61.47Z"/><polygon class="cls-1" points="59.31 74.41 59.33 74.19 61.21 74.22 59.31 74.41"/><path class="cls-1" d="M54.81,85.81c-.45-1,1.16-.24.6-1.16.44-.24.46.75.84.5C55.78,85.77,56.05,86.09,54.81,85.81Z"/><path class="cls-1" d="M56.25,85.15a2.68,2.68,0,0,1,.29-.31A1,1,0,0,1,56.25,85.15Z"/><polygon class="cls-1" points="64.32 213.84 64.72 214.5 64.08 214.08 64.32 213.84"/><path class="cls-1" d="M62.93,215.1l1.2.15-1.09.4C63.09,215.5,63.2,215.21,62.93,215.1Z"/><path class="cls-1" d="M53.34,125.71l.29,0c.31.1.34.25.39.56Z"/><polygon class="cls-1" points="54.24 134.58 54.22 134.43 55.3 134.71 54.24 134.58"/><path class="cls-1" d="M52.86,142c0-.31.2-.66.15-1C52.81,141.72,54.21,142.11,52.86,142Z"/><path class="cls-1" d="M55.3,204.1c.07.29-.7.19-.84.23C54.63,203.84,55.51,204.11,55.3,204.1Z"/><polygon class="cls-1" points="57.06 199.29 56.74 199.38 57.52 198.67 57.06 199.29"/><path class="cls-1" d="M57.05,194.79c1.31.43-.22,1.63.25,2.43l.3.14-1.06.36C56.71,196.74,57.41,195.48,57.05,194.79Z"/><path class="cls-1" d="M54.19,192.39c.52.15.45-.52.17.56l-.13-.1A2.38,2.38,0,0,0,54.19,192.39Z"/><path class="cls-1" d="M54.23,192.85c0,.48-.44-.31,0,0Z"/><path class="cls-1" d="M54.52,190.66l-.46.63c-.3-.13-.37-.69-.59-.48C53.72,190.17,54,190.3,54.52,190.66Z"/><path class="cls-1" d="M55.48,190.07l-.19.33C55.16,190.34,55.12,190.25,55.48,190.07Z"/><path class="cls-1" d="M54.88,191.08l.41-.68c.21.09.64.1-.15.31C55.53,190.65,55.16,190.79,54.88,191.08Z"/><path class="cls-1" d="M55.08,191.47c.29.35.47.8.92.18C55.82,192.84,54.89,192.66,55.08,191.47Z"/><path class="cls-1" d="M58.41,194.56l.39.47-.45.41C58.57,195.23,58,194.53,58.41,194.56Z"/><path class="cls-1" d="M53.84,186.78c.28,0,.74.21,1.1.25l-.32.46C54.43,187.26,54.25,186.81,53.84,186.78Z"/><path class="cls-1" d="M54.94,187l.48-.69C55.48,187,55.25,187.07,54.94,187Z"/><polygon class="cls-1" points="56.95 189.96 55.93 191.09 56.96 189.74 56.95 189.96"/><polygon class="cls-1" points="53.8 184.14 53.15 184.53 54.13 183.84 53.8 184.14"/><path class="cls-1" d="M53.92,182.4c-.54.29-.91-.4-1.25-.09a2.68,2.68,0,0,1,1-1.25C53.42,181.45,53.48,181.86,53.92,182.4Z"/><path class="cls-1" d="M54.25,180.45a4.23,4.23,0,0,1-.6.61A1.9,1.9,0,0,1,54.25,180.45Z"/><path class="cls-1" d="M55.29,185.17a1.19,1.19,0,0,1-.8-.54l.78.27C55.28,185,55.28,185.07,55.29,185.17Z"/><path class="cls-1" d="M55.3,184.91h0c0-.3,0-.5,0-.59Z"/><path class="cls-1" d="M55.29,185.24v-.07C55.36,185.2,55.39,185.21,55.29,185.24Z"/><path class="cls-1" d="M56.23,188.15c.44-.4.92-1.25,1.59-.43C57.28,188,56.89,187.54,56.23,188.15Z"/><path class="cls-1" d="M56.28,185.57l.18.74c-.21,0-.52-.15-.73.05Z"/><polygon class="cls-1" points="56.53 185.22 56.28 185.57 56.21 185.3 56.53 185.22"/><path class="cls-1" d="M55,181.7a1.54,1.54,0,0,0,.43-1,3.8,3.8,0,0,1,.24,1.26C55.41,182,55,182.15,55,181.7Z"/><path class="cls-1" d="M55.21,183.26l0-.07C55.32,183.23,55.34,183.27,55.21,183.26Z"/><path class="cls-1" d="M55.41,176.8l.15.06-.14,0Z"/><path class="cls-1" d="M55.8,182c.16.32,0,.51-.28.69a2.69,2.69,0,0,0,.14-.76C55.77,181.89,55.84,181.88,55.8,182Z"/><path class="cls-1" d="M54.62,179.37a3.32,3.32,0,0,1,.44.55C54.81,179.76,54.42,179.43,54.62,179.37Z"/><path class="cls-1" d="M55,183.08l0,0C54.83,183,54.92,183,55,183.08Z"/><path class="cls-1" d="M55,183.08a1.93,1.93,0,0,1,.48-.41,1.81,1.81,0,0,1-.26.52Z"/><path class="cls-1" d="M60.48,175.63c-.73.06-1.41.89-.62,1.6-.55.71-3,.25-4.3-.37.32,0,.61,0,1-.74.4.25.94,1.6,1.6,1,.38-1-.26-.78-.65-1.25.91.4,1.33-1.22,2.67-1l-.47.84C60,175.71,60.29,175.4,60.48,175.63Z"/><path class="cls-1" d="M55.63,178.24l-.09.3c-.13-.34-.42-.58-1-1,.36-.5.63-.6.87-.63l.1,1.46Z"/><path class="cls-1" d="M55.54,179.88c.79-.24,1.13-.95,2-.51-.05.87-.66.61-1,1.13.2-1.41-.44.41-.89-.61a2.18,2.18,0,0,0-.21.76,5,5,0,0,0-.36-.73l0,0h0c.1.06.16.08.11,0s0,0,0,0a2.27,2.27,0,0,0,.3-.06c-.16-.41-.2-.07-.3.06l-.12,0h0l.44-1.41A2.91,2.91,0,0,1,55.54,179.88Z"/><path class="cls-1" d="M59.53,187a.36.36,0,0,0-.19-.05C59.44,186.83,59.51,186.8,59.53,187Z"/><path class="cls-1" d="M59.05,186.39c-.11.1-.43.18-.35.52.24.29.38,0,.64,0-.21.2-.57.71-1,.08l.11-.1c-.28-.57-1.27-1.3-1.38-1.2A6.58,6.58,0,0,1,59.05,186.39Z"/><path class="cls-1" d="M57.5,183.09l.39-1.18.69.6-.42,0C58.32,183.15,57.81,183,57.5,183.09Z"/><polygon class="cls-1" points="55.02 176.67 54.18 176.82 55.36 176.14 55.02 176.67"/><polygon class="cls-1" points="55.12 175.14 54.39 175.19 54.83 174.79 55.12 175.14"/><path class="cls-1" d="M64.19,88.85l.2-.34A1,1,0,0,1,64.19,88.85Z"/><path class="cls-1" d="M64.24,91.36l-.36.06C64.07,91.3,64.22,91.26,64.24,91.36Z"/><path class="cls-1" d="M55.2,137.59c-.68-.51-1.74-1.07-.92-1l.8.15A.83.83,0,0,0,55.2,137.59Z"/><path class="cls-1" d="M60,111.87l.25.14-.77.34C59.63,112.21,59.8,112,60,111.87Z"/><path class="cls-1" d="M63.3,111.51l-.52-.66A2.17,2.17,0,0,1,63.3,111.51Z"/><path class="cls-1" d="M65,75.18l.81-.4C65.85,75.41,65.44,75.13,65,75.18Z"/><path class="cls-1" d="M55.41,159.48a2.42,2.42,0,0,1-.48-1.09C55.39,158.92,56.08,159.34,55.41,159.48Z"/><path class="cls-1" d="M55.68,89.84a.6.6,0,0,1,.49-.3C56,89.76,55.88,89.88,55.68,89.84Z"/><path class="cls-1" d="M54.93,157.14a2.11,2.11,0,0,1,.19.23,1.94,1.94,0,0,0-.19,1C54.59,158,54.38,157.56,54.93,157.14Z"/><path class="cls-1" d="M64.37,25.61a.48.48,0,0,0-.09-.11C64.38,25.48,64.39,25.53,64.37,25.61Z"/><path class="cls-1" d="M56.29,11.16a2.58,2.58,0,0,0-.06.6C56.17,11.65,56.18,11.47,56.29,11.16Z"/><path class="cls-1" d="M54.77,169c-.05.32-.09,0,0,0Z"/><path class="cls-1" d="M57.94,170.56a.64.64,0,0,1,.39-.13A.79.79,0,0,0,57.94,170.56Z"/><path class="cls-1" d="M59.92,153.91v0C60.07,154,60,154,59.92,153.91Z"/><path class="cls-1" d="M55.13,169.47a1.52,1.52,0,0,1-.24-.41A1.44,1.44,0,0,1,55.13,169.47Z"/><path class="cls-1" d="M54.75,169.41a2.55,2.55,0,0,1,.08.28C54.7,169.73,54.61,169.7,54.75,169.41Z"/><path class="cls-1" d="M54.81,168.53a1.55,1.55,0,0,0,.08.53c0-.07-.09-.09-.12-.07S54.8,168.76,54.81,168.53Z"/><path class="cls-1" d="M62.23,52.17s0-.05-.08-.07C62.48,51.77,62.43,51.92,62.23,52.17Z"/><path class="cls-1" d="M63.52,129.15l0,0,0-.05Z"/><path class="cls-1" d="M64.12,128c-1,.5-.88.78-.67,1.15l-2.31-.38Z"/><path class="cls-1" d="M64.27,83.83c-1.06-1.08.27-2.09.93-2.67-.36-.41-1.89.32-1.47-.84.49-1.65,1.83.31,2.12-.68l-1.29-.72c1-1.27.1-2.21-.06-3.28a.72.72,0,0,1,.37-.42c-.56-1.13,1.27-2.38.85-3.24-.27.2-.82-.49-1.13-.59l.8-1.54c-.34.68-1.09.65-1.81.77.07-.48.48-.71.58-1-.26.2-.53.4-.87.14l1.24-1.62a.83.83,0,0,1,.21.44c0-.41.47-1.28-.13-1.86-.29,0-.56.25-.85.3.82.48.12.76-.44,1,.13-1.12-.19-.28-.72-.81,0-.79,1-1.12,1.65-.91-.29-.89-.48-1.18.27-2.09l-1,.18.32-.84-1.24.68c-.69-1.61,1.74-.3,1.17-2.08h-.89c.34-.69,1.84-.92.77-1.46.54-.66,1.26,1.14,1.44-.42a2.8,2.8,0,0,1-1-1.32c.4-.5,1,.38.93.7.42-2.36-3.05-1.47-1.87-3.57.64.72,1.72-.61,1.69,1.1.53-.81-1.29-1.6-.32-2.46l-1.13.56c0-.31.39-.65.53-.82l-.88.07c1.54-1-.73-2,1.28-2.58-1.58.43.1-.79-.52-1.2-1.12.86,0,2.48-1.44,2.59-.44-.4.28-.76-.15-1.15a2.71,2.71,0,0,1-.9.77c-.83-1.33.88-2.08,1.26-2.89l-.34,1.42c1.47-.11.25-.64,1.4-1-.79-.71.35-1.27-.13-1.85,0,.15-.14.16-.13.32,0-1.55-2.34-2-2.39-2.6s.61-1.76,1.23-1.34c.41-.5-.44,2.06,1.46,1.17-2.19-.88.82-1.82-.68-3.75-.78.84-1.23-.5-1.82.26.18-.92.5-1,1.12-1.37L61.63,41c1.53-1.2,1.36-.28,2.18-2.1-.54.61-1-.73-1.48-.27a1.64,1.64,0,0,1,.57-1.36l-.09.07c.35-1.85-.87-1.51-.1-3.19l.41.16c1.11-2.2.39-5,.9-7.25l.34.8c-.21-.24.66-1.53,0-2.24,0,.14-.22.38-.17.52-.46,0-1.15-.3-1.26-.85l.7-.21-.54-.22c0-.83,1,.25,1-.59-2-.48-.27-3.59-2-4.31,1.46-.56.21,1.58,1.53,1-.21-.25-.49-.37-.61-.91l.88.19c-.5-2.53-1.25-3.49-1.06-5.74l-.19.09c-.34-.79-.18-1.23.58-1.58-.41-.17-.62.41-1,.1,2.24-1.41-1.65-2.82-.08-3.68-1.77.11-3.46-1.73-4.83-1l.21-.58c-1.17.19,0,1.81-1.25,2.15l1.22,1.82c-.44-.06-1.09.24-1.24-.05,0,.45-.09.84-.72.25,3,4.35.1,8.82,1.68,13.11-.11.28-.52.12-.79,0,1.13.79-.59.75-.75,1.18l1.63,1.16c-.49.47-1,.1-1.31.14-.32,2.18,1.26,4.31.3,6.08.58.57,1.31-.13,1.51.61-1.68-1-.79,2.17-2,1.52,1.78.72.38,2.68,2.85,2.35.15.9-1,.74-1.27.48a3.11,3.11,0,0,1-.67,2.72c.58.56-.62,4.72,1.25,5.64-1.21-.63-.63.05-1.15.65l-1.07-.55.11,1.37c-.1.27,0,.35,0,.35.06.23.62-.06.89.53.07.93-.52,1-1.07,1.48l-.16-.14-.1.63c0,.46,1.06-1.64,1.61-.13-.3,0-1.7.91-.94,1.31-.05-.77.69-.67,1-.39l.08,1.08-1.35-.35c.07,3.09,1,6.32,1,9.62,1.18,0,.06,2.34,1.8,2l-.17-.12c.17-.82,1.37.23,1.18.89-.55-.69-1.74,1.24-2-.44l-.82,1.3c-3.34.72.28,3.46-.8,5.43a.71.71,0,0,1,.41-.19c-1.06,1.75.9,3.92.37,4.33l.92.15c-1.41,1.5-1.53,1.67-1,3.46.15,0,.41-.23.6.05-.67.43-1.35.86-1.16,2.08l.28,0-.15,1.91c2.82,0-1.72,3.27,1.34,3.84-.83.38-1.09,1.77-1.48,2.39a.71.71,0,0,1,.38.15c-1.52.73.47,2.12.3,2.93-.36.53-.84.3-1.33.07,1.21,1-1.33,2.89-.83,3.27.12.77,1.09.29,1.71.5-.27,1.14-2.55-.19-1.43,1.34.12-.18.22-.51.39-.38.24.58,3.48,1.63,2.83,2.21l-.51-.39c-.73,1.07,2.3,2.53.4,2.7l-.89-.1c1.17,1.83-.34.78.68,2.64l.15,0c-.17.82.93,1.26-.49,1.65l-.19-.28A8,8,0,0,0,57.4,108c-.13.12-.35.61,0,.76-1.18,0-.54,2.38-.47,2.83.17-.81.68-.42,1.16-.19-1,.48-1.07.81-.37,1.47-1.47.09-3,.23-3.13,1.53.22-.2.35-.52.65-.39s0,.44-.14.54c.31.13.54-.29,1.05-.14-1.4.88-.1,1.53-.6,2.81.45-.41.73-.06,1.24.08-1.67.1,1.45,1.76-.7,1.27,1.29,2.51.09,6.36,1.48,7.34.61.26-.37,1-.4,1.4l.73-.06c-1.33,1.22-.49,1-1.83,2.39.87-.6,1.27-.35,2,.25l-1.52,1,1.13.19c-.44.4-.27.85-.09,1.31,0-.22.11-.1.32-.09-1.57.22-1.39,2-2.13,2.25,1.53.44-.39,1.18,1,1.51a2.05,2.05,0,0,0-.53.53c-.67-.21-1.42-.29-1.09.11a.47.47,0,0,0,0,.09l.89.18a3,3,0,0,0-.33,1.09,1.61,1.61,0,0,0-.44-.41c.13.17.3.33.44.49a.57.57,0,0,0,0,.14.1.1,0,0,0,0-.09.57.57,0,0,1,0,.86c1.37,1.42-1.86,3.15,0,4.72-.19-.24-.28-.57,0-.66-.09,1.31,1.18,2.61.5,3.44l-.83-.06a5.75,5.75,0,0,0-.58,2.47l-.94,0c.34,1.12-1.17,3.53.76,4.22-.74.27.22,1.55,0,2.19l.72.16a2.43,2.43,0,0,1-.23,1.85c1.5,1.69,0,3.25.12,4.73h.21l-.51,1.5c.65-.39-.45.3-.27.75a1.57,1.57,0,0,0,.3,1.81l0,1c.48-1.06,1,.08,1.86.14l-.66.61c.4.24.65-.39.82.06-.44.4-.41,1.61-1.27,2a1.33,1.33,0,0,1-.57-.39c.05-.05,0-.05,0,0l0-.05,0,.05a1.14,1.14,0,0,1-.33.17c.19.76-.16.48-.53.45,1.3.87.42,1.35,1.94,2-1.71-.9,0,2-1.64,1.42,1.31.64.06.43,1.18.85-.36-.91.84-1.81,1.41-2.53l.79.71c1.48-.47-.56-1.6,0-2-.35.29,0,.93.33,1l-1.14-.19c-.45-1,.44-1.83,1-2.55.37.68.68-.83,1.48-.34l-.14.54c.4.25.74-.27,1.08-.58-.83-1.7-.11-4.83-1-5.44.29.35,0,1-.29,1.29l-.47-.8c0,.65,1,1.17.59,2.13-.72-.17-1.7.53-2.69-.2-1.13-1.84,1.87-1.51,1.6-3.72.22-.21-1.18.46-.79-.72a4.58,4.58,0,0,1,3.91-2.56c-.45.62-1.37,1.87-.24,2.06.46-.62.74-1.7,1.47-1.75-1.31-.65-.39,1.17-1.48.33,0-.44.46-.63.68-.83-.54.29-.91-.4-1.21-.53,0-1.41-.59-2.23-.7-3.75a2.09,2.09,0,0,0-.93-.21c.36-.74,2.32-1.8,3.13-1.52.05-.87-.56-.92-.2-1.66,1.17,1.18-.2-.23,1.06-.36.15-.76-.61-.27-.9-.61a1.82,1.82,0,0,1,.89-.45c-.95-.47-2.49.9-3.6.35a11.32,11.32,0,0,1-2-2.12,17.9,17.9,0,0,1,6.86.28c.74-.05-.78-.71-.86-1.05-1.19-1,.93-1.46.46-2.27l-.67.61c-.3-.13.09-1.31.52-1.49-.42,0-2.13.61-2.63.24-.22-1.44,2.07-2.8,3.31-2.72L63,143.14c1,.08,1-1.57,2.28-1.47l-.37-2c0,.26-.32,1-.89.74,0-.88-.18-.46-.67-1a38.93,38.93,0,0,1-6.28,3.49l.7-1-.61-.26c.82-1.37,4.87-2.6,5.93-3-.26-.79-2.47-.52-2.9-.33-.11-1.54,3.13-1.52,2.81-3.08l.49.58c.2-.36-.24-1.7.16-1.56-.58-.31-2-.59-2.34-.24l2.07-1.38a14.16,14.16,0,0,1-2.31.15c-.06-.55,2-.94,2.34-.59-1.28-1.08-.58-.81-2.08-1.69.12-.32,1.88,0,2.07.26a1.22,1.22,0,0,0,.06-1.49c-.76,1.2-4,.33-5.32.55l5.28-2.57a19.36,19.36,0,0,1-2.21.28c1.57-.21,1.78-3.16,1.56-4.6v.22c-.54.29-1-1-.43-1.46-.32.09-.22.21-.24.42-1.18-1,2.39-1.24,1-2.23.15.89-.48,1.07-1.1,1,.57-.73,0-2.41,1.8-2.06-.39-.47-.16-.89-1.09-.85l1.1-1.79a.54.54,0,0,1-.86-.27c.24,1-1.48,2-.27,2.5-1.14,0-1.76-.35-2.72.13.54-1.94,2.49-3,3.82-4.22l-.83-1.7.53-.07-1.32-.3c.3-.21.56-.35.44-.39a.75.75,0,0,0-.49.1.91.91,0,0,1,.32-.43,4.68,4.68,0,0,0-2.2.55l.73.47c-.66.34-1.35.58-1.78.11a2.78,2.78,0,0,0,.28-.24c-.49.22-.9.35-1.09.19l.63-1.3c.18.15.56.37,1,.63.87-.82,1.92-1.75,2.8-1l-.77-1a7.94,7.94,0,0,0,2-2.39c-.46-.08-.85.3-1.18,0,1.47-1-1.73-2.53-.43-2.75.32-.84,1.14-.35,1.5-.88-.14,0-.43.07-.46-.08l1-.63c-.34-.26-.66.58-1.06-.13.7-1.22,1.19-1.94.73-3,.23-1.45,1.88.62,1.69-.61-.77-.18-1.68-.33-1.8-1.1.53-.4,1.14-.35,1.48-1l-1.19,0c.06-.63.27-1.14-.62-1.14.51-.52.42-.88.23-1.15.62-1,2.39.71,2.86.93-.89-1-.37-1.6-1.8-2.14l-.31.84c-1.47-1.79,1.67-1.69-.84-2.52.1.61-.53,1.34-1.18,1l.6-.88c-.31-.11-.22.5-.57.1a7.39,7.39,0,0,1,1.26-1H63.8l.2-1.6a.22.22,0,1,1-.43.07l.62-1.05c-.3.33-.67,0-.86-.47C63,87,66,87.29,64.79,86.25c0,.15-.12.17-.1.33L64.16,86c2.51-.12.26-3.18,2.77-3.29-1-.77-.61-.06-1.79.93l-.72-.82C64.32,83.19,64.51,83.47,64.27,83.83ZM64.08,94.2c.53.18,0,.65-.24.89C63.55,94.68,63.06,94.47,64.08,94.2Zm-2.57,18.71c.34.31.48.58.19.76A.76.76,0,0,1,61.51,112.91Zm-6,52.5,0,0C55.33,165.06,55.19,164.88,55.54,165.41Zm.15.57c.06.28,0,.53-.18.6a.32.32,0,0,0,.37-.05C56.08,166.2,55.92,166.06,55.69,166Zm.77-117.06-.23-.21C56.49,48.57,56.72,48.44,56.46,48.92Z"/><path class="cls-1" d="M62.92,111.56a1.38,1.38,0,0,0-.49-.1A.35.35,0,0,1,62.92,111.56Z"/><path class="cls-1" d="M64.88,75.26a.06.06,0,0,0,0,0l.17,0Z"/><path class="cls-1" d="M63.43,149.53a1,1,0,0,0-.46-.43C63.19,149.09,63.38,149.19,63.43,149.53Z"/><path class="cls-1" d="M54.37,172.34l.23-.7c-.05.34.15.46.29.63C54.68,172.26,54.38,172.12,54.37,172.34Z"/><path class="cls-1" d="M59.88,178.44c-.11.1,0,.22-.12.32l-.42,0C59.37,178.3,59.7,178,59.88,178.44Z"/><path class="cls-1" d="M57.33,173c.75.06.49.5.35,1a.14.14,0,0,0,0-.09C56.63,174,57,173.51,57.33,173Z"/><path class="cls-1" d="M57.66,174.1a.86.86,0,0,0,0,.45C57.22,174.61,57.55,174.37,57.66,174.1Z"/><path class="cls-1" d="M55.38,167.92c.2.23-1,.15-.65.28C53.78,168.46,55.88,166.64,55.38,167.92Z"/><polygon class="cls-1" points="59.8 173.39 58.87 173.21 59.62 172.94 59.8 173.39"/><path class="cls-1" d="M59.12,169.5l.25.79a.34.34,0,0,0-.31.21C59,170,58.84,169.49,59.12,169.5Z"/><path class="cls-1" d="M59.06,170.5a.77.77,0,0,1-.16.63A1.57,1.57,0,0,1,59.06,170.5Z"/><polygon class="cls-1" points="60.07 172.32 59.88 172.08 59.81 171.53 60.07 172.32"/><path class="cls-1" d="M58.94,161.05l.26-.86c.32-.09.51.15.39.47S59.24,161.18,58.94,161.05Z"/><path class="cls-1" d="M61.47,163.64c-.19-.23-.4-.24-.7-.37l1.15,0Z"/><path class="cls-1" d="M61.74,161.14c.32-.08.91-1.25.84-.16C62.27,161.07,62,161.93,61.74,161.14Z"/><polygon class="cls-1" points="60.29 148.21 60.27 148.42 58.39 148.39 60.29 148.21"/><path class="cls-1" d="M64.79,136.8c.45,1-1.16.25-.6,1.17-.44.23-.46-.76-.84-.51C63.82,136.84,63.55,136.52,64.79,136.8Z"/><path class="cls-1" d="M63.35,137.46a2.68,2.68,0,0,1-.29.31A1,1,0,0,1,63.35,137.46Z"/><polygon class="cls-1" points="55.28 8.77 54.88 8.11 55.52 8.54 55.28 8.77"/><path class="cls-1" d="M56.67,7.51l-1.2-.15L56.56,7C56.51,7.11,56.4,7.4,56.67,7.51Z"/><path class="cls-1" d="M66.26,96.9,66,97c-.31-.1-.34-.25-.39-.56Z"/><polygon class="cls-1" points="65.36 88.03 65.38 88.18 64.3 87.9 65.36 88.03"/><path class="cls-1" d="M66.74,80.58c.05.31-.2.67-.15,1C66.79,80.89,65.39,80.5,66.74,80.58Z"/><path class="cls-1" d="M9.53,153.59c-.21-.12.41-.59.49-.71C10.16,153.27,9.38,153.72,9.53,153.59Z"/><polygon class="cls-1" points="10.86 157.54 11.04 157.28 10.86 158.22 10.86 157.54"/><path class="cls-1" d="M13.3,160.1c-1.18.67-.73-1.08-1.5-1.21l-.29.13.57-.94C12.49,158.76,12.66,160,13.3,160.1Z"/><path class="cls-1" d="M16.67,159.51c-.45.27,0,.6-.42-.21l.15,0A1.43,1.43,0,0,0,16.67,159.51Z"/><path class="cls-1" d="M16.4,159.27c-.23-.3.48-.12,0,0Z"/><path class="cls-1" d="M17.37,160.72v-.67c.29-.14.65.13.69-.14C18.22,160.45,17.93,160.58,17.37,160.72Z"/><path class="cls-1" d="M17,161.72l0-.32C17.08,161.34,17.16,161.36,17,161.72Z"/><path class="cls-1" d="M16.88,160.73l.08.67c-.21.09-.52.38-.07-.28C16.64,161.42,16.84,161.08,16.88,160.73Z"/><path class="cls-1" d="M16.53,160.64c-.4,0-.78-.13-.77.54C15.25,160.37,16,159.84,16.53,160.64Z"/><path class="cls-1" d="M12.44,161.17H11.9l.11-.54C12,160.9,12.75,160.9,12.44,161.17Z"/><path class="cls-1" d="M20,162.47a9.07,9.07,0,0,1-.94.61l0-.48C19.28,162.6,19.65,162.74,20,162.47Z"/><path class="cls-1" d="M19,163.08l0,.73C18.68,163.49,18.78,163.27,19,163.08Z"/><polygon class="cls-1" points="15.99 162.79 16.11 161.45 16.1 162.92 15.99 162.79"/><polygon class="cls-1" points="21.42 163.95 21.68 163.28 21.34 164.35 21.42 163.95"/><path class="cls-1" d="M22.28,165c.24-.53.88-.4.95-.8a2.25,2.25,0,0,1,0,1.38C23.16,165.22,22.89,165,22.28,165Z"/><path class="cls-1" d="M23.09,166.37a3.54,3.54,0,0,1,.11-.77A1.81,1.81,0,0,1,23.09,166.37Z"/><path class="cls-1" d="M19.79,164.38a1.29,1.29,0,0,1,.87-.24l-.72.39Z"/><path class="cls-1" d="M19.92,164.54h0l.35.3Z"/><path class="cls-1" d="M19.75,164.35l0,0C19.72,164.42,19.69,164.43,19.75,164.35Z"/><path class="cls-1" d="M17.49,163.33c-.1.53,0,1.34-.92,1.34C16.8,164.13,17.33,164.13,17.49,163.33Z"/><path class="cls-1" d="M18.85,164.83l-.53-.29c.16-.14.45-.27.5-.54Z"/><polygon class="cls-1" points="18.86 165.21 18.85 164.83 19.05 164.94 18.86 165.21"/><path class="cls-1" d="M21.88,166.16a1.07,1.07,0,0,0,.26.89,2.25,2.25,0,0,1-.86-.56C21.43,166.29,21.65,165.88,21.88,166.16Z"/><path class="cls-1" d="M20.88,165.42v.07C20.81,165.51,20.77,165.51,20.88,165.42Z"/><path class="cls-1" d="M24.22,169.25l-.13.06.09-.1Z"/><path class="cls-1" d="M21.14,166.56c-.28-.08-.25-.32-.17-.59a1.53,1.53,0,0,0,.31.52C21.21,166.59,21.16,166.64,21.14,166.56Z"/><path class="cls-1" d="M23.41,167.23a3.1,3.1,0,0,1-.61,0C23.06,167.14,23.52,167.06,23.41,167.23Z"/><path class="cls-1" d="M21.1,165.4v-.05C21.28,165.29,21.21,165.34,21.1,165.4Z"/><path class="cls-1" d="M21.1,165.4A2.11,2.11,0,0,1,21,166a1.28,1.28,0,0,1-.09-.48A1.28,1.28,0,0,0,21.1,165.4Z"/><path class="cls-1" d="M21.18,173.4c.5-.54.54-1.48-.41-1.34,0-.78,2-2.18,3.32-2.75a1.14,1.14,0,0,0-.36,1.14c-.43.13-1.55-.27-1.7.53.25.81.62.27,1.15.27-.88.41-.3,1.61-1.39,2.42l-.11-.81C21.52,173,21.44,173.4,21.18,173.4Z"/><path class="cls-1" d="M23.29,168.57l-.1-.23a2.49,2.49,0,0,0,1.28-.09,1.3,1.3,0,0,1-.29,1l-.87-.77Z"/><path class="cls-1" d="M22.47,167.58c-.45.68-.31,1.32-1.17,1.66-.44-.54.15-.81.12-1.34.62.94.1-.54,1-.27a1.64,1.64,0,0,0-.26-.58,2.66,2.66,0,0,0,.66.17h-.07c-.1,0-.16.06-.08.06v0a1.33,1.33,0,0,0-.19.24c.34.12.19-.1.19-.24l.07-.09h0l.45,1.11C23,168.25,22.76,168,22.47,167.58Z"/><path class="cls-1" d="M15.73,166.28a.41.41,0,0,0,.16-.11C15.87,166.29,15.84,166.36,15.73,166.28Z"/><path class="cls-1" d="M16.4,166.28c0-.14.21-.41,0-.54s-.28.26-.48.43c0-.26,0-.79.66-.7l0,.13a2.6,2.6,0,0,0,1.65-.26A8.31,8.31,0,0,1,16.4,166.28Z"/><path class="cls-1" d="M19.31,167.09l.35.94-.82.13.31-.27C18.67,167.62,19.12,167.36,19.31,167.09Z"/><polygon class="cls-1" points="24.58 169.05 25.11 168.38 24.62 169.59 24.58 169.05"/><polygon class="cls-1" points="25.34 169.99 25.84 169.46 25.74 169.99 25.34 169.99"/><path class="cls-1" d="M71.4,209.72l.33-.09A1,1,0,0,1,71.4,209.72Z"/><path class="cls-1" d="M70.21,211.29l-.31-.19C70.11,211.15,70.25,211.22,70.21,211.29Z"/><path class="cls-1" d="M45.6,191.48c.77-.18,1.84-.59,1.21-.06l-.66.47A.54.54,0,0,0,45.6,191.48Z"/><path class="cls-1" d="M56.06,209.46l-.25.09c.12-.27.24-.51.36-.74A5.48,5.48,0,0,0,56.06,209.46Z"/><path class="cls-1" d="M54.05,212.16l.86.15A1.75,1.75,0,0,1,54.05,212.16Z"/><path class="cls-1" d="M78.75,201.82l.84.26C79.27,202.47,79.09,202,78.75,201.82Z"/><path class="cls-1" d="M33.6,179.13a1.73,1.73,0,0,1,.94.29C33.92,179.44,33.19,179.67,33.6,179.13Z"/><path class="cls-1" d="M64.26,205a.61.61,0,0,1,.52.12A.49.49,0,0,1,64.26,205Z"/><path class="cls-1" d="M35.22,180.14c-.1,0-.17,0-.27,0a1.18,1.18,0,0,0-.41-.72C35,179.4,35.39,179.51,35.22,180.14Z"/><path class="cls-1" d="M102.49,170.88a.59.59,0,0,1,0-.13C102.56,170.81,102.54,170.84,102.49,170.88Z"/><path class="cls-1" d="M103.22,157a1.72,1.72,0,0,0-.34.33C102.89,157.18,103,157.07,103.22,157Z"/><path class="cls-1" d="M28.92,173.26c-.14-.22,0-.09,0,0Z"/><path class="cls-1" d="M25.77,174.54a.84.84,0,0,1-.21.35A1,1,0,0,0,25.77,174.54Z"/><path class="cls-1" d="M33.34,185.41l0,0C33.2,185.48,33.23,185.47,33.34,185.41Z"/><path class="cls-1" d="M28.39,173.24a1.05,1.05,0,0,1,.4.07A1.82,1.82,0,0,1,28.39,173.24Z"/><path class="cls-1" d="M28.7,173l-.21-.11C28.57,172.79,28.65,172.75,28.7,173Z"/><path class="cls-1" d="M29.14,173.55a.92.92,0,0,0-.35-.24c.07,0,.12,0,.13-.05Z"/><path class="cls-1" d="M87.81,185.9a.47.47,0,0,0,0-.09C88.21,185.82,88.09,185.87,87.81,185.9Z"/><path class="cls-1" d="M44.13,202s0,0,0,0h0Z"/><path class="cls-1" d="M44.33,203.1c.46-1,.21-1-.14-1.12l1.88-1.37Z"/><path class="cls-1" d="M73.92,206.67c-.3-1.32,1.24-1.11,2-1.06-.08-.48-1.63-1-.73-1.44,1.19-.71,1.28,1.33,2,.91l-.66-1.25c1.39-.17,1.16-1.3,1.55-2.06a.7.7,0,0,1,.51,0c.11-1.05,2.15-.68,2.24-1.47-.31,0-.4-.81-.6-1.07l1.39-.45c-.6.21-1.17-.28-1.8-.65.3-.25.73-.14,1-.28-.3,0-.61-.08-.75-.45l1.76-.23a.51.51,0,0,1,0,.4c.21-.24,1-.49.81-1.23-.25-.14-.56-.19-.81-.34.41.81-.28.55-.84.36.65-.61,0-.29-.16-1,.41-.47,1.34-.06,1.73.46.21-.73.2-1,1.23-1.11l-.87-.53.66-.31-1.3-.36c.24-1.41,1.5.9,1.93-.55l-.7-.56c.6-.21,1.89.58,1.32-.41.75-.07.43,1.48,1.33.63a2.35,2.35,0,0,1-.11-1.42c.56,0,.64.9.38,1,1.49-1.2-1.66-2.8.29-3.37.14.84,1.64.7.78,1.74.81-.18-.22-1.79.95-1.72l-1.16-.36c.13-.2.63-.16.82-.18l-.72-.5c1.72.31.38-1.66,2.27-.79-1.46-.72.45-.42.17-1.07-1.29-.16-1.19,1.55-2.39.71-.15-.52.59-.3.44-.81a2.46,2.46,0,0,1-1.08-.08c0-1.34,1.71-.74,2.4-1l-1,.67c1.2.84.51-.24,1.6.23-.26-.93.9-.57.81-1.22-.07.1-.19,0-.26.11.79-.93-.86-2.68-.59-3.09s1.33-.7,1.61-.06c.56-.05-1.35,1,.57,1.63-1.28-1.9,1.53-.61,1.3-2.73-1,0-.72-1.07-1.55-1,.59-.46.86-.28,1.55-.15l-.4-.59c1.79.21,1.2.67,2.73.06-.71,0-.41-1.07-1-1.08a1.17,1.17,0,0,1,1.12-.49l-.11,0c1.17-.92.06-1.47,1.48-2l.24.36c2-.66,2.74-2.82,4.26-3.9l-.13.7c0-.28,1.26-.54,1.11-1.37-.11.06-.37.1-.39.21-.35-.3-.76-.9-.58-1.3l.66.3-.32-.47c.39-.52.67.78,1.07.26-1.35-1.56,1.54-2.38.5-3.93,1.42.56-.61,1.1.74,1.54a1.34,1.34,0,0,1,0-.94l.6.66c.84-1.86.73-2.92,2-4.19l-.19-.06c.13-.7.46-.87,1.23-.62-.24-.36-.69-.13-.82-.55,2.45.53.09-2.75,1.74-2.31-1.44-1-1.86-3.21-3.31-3.6l.44-.22c-1-.61-.91,1.1-2,.54l.07,1.88c-.32-.31-1-.53-1-.8-.24.26-.48.47-.68-.29.2,4.53-4.24,5.49-5.1,9.12-.22.11-.46-.25-.62-.49.49,1.19-.83.1-1.17.27l.71,1.72c-.61,0-.82-.55-1.09-.73-1.32,1.15-1.13,3.44-2.74,3.94.18.71,1.09.73.88,1.31-.82-1.66-1.68.84-2.29-.29,1,1.55-1,1.89,1.09,3.23-.32.64-1.19-.2-1.23-.5a2.07,2.07,0,0,1-1.86,1.25c.18.71-2.79,2.53-1.78,4.25-.64-1.13-.51-.36-1.22-.31l-.57-1-.57.91c-.22.11-.22.18-.15.24s.51.35.44.88c-.4.61-.88.28-1.57.25l0-.19-.39.32c-.2.31,1.63-.34,1.32.93-.24-.17-1.77-.5-1.37.22.33-.51.87,0,1,.39l-.46.71-.89-1.06c-1.45,1.95-2.28,4.54-4,6.52,1,.71-1.1,1.48.41,2.37l-.07-.18c.53-.39,1,1,.48,1.29-.09-.77-2-.32-1.35-1.52l-1.28.29c-3-1.63-1.47,2.31-3.28,2.85a.8.8,0,0,1,.42.14c-1.69.41-1.21,3-1.83,2.89l.64.67c-1.83,0-2,.08-2.44,1.53.13.08.44.11.45.41-.74-.16-1.48-.32-1.93.55l.25.15-1,1.08c2.21,1.75-3,.94-.84,3.2-.83-.28-1.72.42-2.33.55a.84.84,0,0,1,.23.33c-.78-.25-.94.15-1,.66a1.43,1.43,0,0,0,.07.66c0,.18,0,.33,0,.38-.41-.08-.65-.54-.95-.94.31.57-.11.56-.46.32s-.67-.65-.58-.36a11,11,0,0,0,.69,1.89c-.39,0-1-2.81-.84-1.24.07.11.16.15.2.36s.22,1.32.32,2.42.09,2.14-.1,1.85l0-.83c-.25-.24-.32.64-.47,1.49s-.29,1.59-.39.69l0-.45V211l0,.09c-.28.5-.38.25-.45,0s-.11-.43-.53-.13v.2c-.27-.54-.73.58-.54-1.29l.15-.12c-.33-.51-.38-.41-.78-.73,0-.19-.07-.57-.25-.33.51-1.18-.46-1.28-.69-1.42.14.4-.28.69-.7,1,.42-1,.52-1-.39-1,1-1.07,2.08-2.22,1.43-3,0,.27,0,.54-.26.67s-.21-.27-.19-.4c-.29.13-.23.53-.68.8.54-1.47-.75-.94-1.08-2-.11.54-.5.54-.95.81,1.16-1.21-2,0-.18-1.21-2.29-.54-3.51-3.57-5.05-3.17-.58.27-.24-.81-.46-1.07l-.5.53c.3-1.61-.16-.88,0-2.62-.31.94-.74,1.07-1.56,1.2l.57-1.6-.93.66c.11-.53-.27-.67-.64-.8.11.13,0,.13-.18.26,1-1.2-.07-2.08.32-2.75-1.35.8-.35-.94-1.57-.14a2,2,0,0,0,.1-.67c.6-.34,1.19-.81.73-.81l0-.07-.74.51a2.13,2.13,0,0,0-.35-.85,1.47,1.47,0,0,0,.54-.07,5.63,5.63,0,0,0-.58,0,.22.22,0,0,0-.09-.08.11.11,0,0,0,0,.08c-.29,0-.5-.07-.47-.48-1.76.12-.35-3.09-2.56-2.69.27,0,.51.13.33.4-.65-.81-2.27-.68-2.23-1.62l.63-.53a3.71,3.71,0,0,0-.91-1.82l.66-.67c-.86-.4-1.07-2.82-2.84-1.88.39-.67-1-.74-1.17-1.27l-.6.4a1.59,1.59,0,0,1-.84-1.21c-2,.06-1.77-1.85-2.65-2.62l-.15.14-.44-1.21c-.26.67.16-.48-.21-.61,0-.52-.56-.83-1.2-.83l-.54-.52c.22.94-.79.67-1.43,1.21l.15-.81c-.42.13-.26.67-.63.54.1-.54-.57-1.21-.15-2a1.31,1.31,0,0,1,.62-.17c0,.07,0,.06,0,0h0a1.81,1.81,0,0,1,.14-.33c-.54-.3-.14-.38.14-.62-1.4.4-1-.48-2.49.19,1.73-.67-1.06-1.14.43-1.94-1.3.54-.29-.21-1.32.33.75.27.36,1.61.34,2.42l-.95.13c-.83,1.28,1.27.53,1.13,1.12.1-.4-.5-.53-.75-.32l.92-.67c.88.28.68,1.35.67,2.15-.65-.13-.05.94-.9,1.21l-.19-.41c-.43.14-.39.67-.47,1.07,1.52.41,2.69,2.69,3.67,2.43-.4,0-.56-.54-.49-.94l.78.13c-.33-.4-1.34,0-1.58-.8.61-.4.94-1.48,2.06-1.74,1.81.27-.54,2.14.85,3.22-.05.27.6-1.07,1-.13a4.8,4.8,0,0,1-1.45,4.15c0-.67,0-2-.94-1.34,0,.67.38,1.47-.12,2,1.3-.53-.35-.94.9-1.21.21.28,0,.68-.05.95.24-.54.88-.41,1.17-.54.77.8,1.63.87,2.53,1.66a2.28,2.28,0,0,0,.79-.52,4.28,4.28,0,0,1-1.45,3c.44.54.91.14,1,.81-1.49.13.27,0-.58.94.3.54.59-.27,1-.27a1.93,1.93,0,0,1-.41.87c1-.39,1.32-2.23,2.42-2.68a10.14,10.14,0,0,1,2.64-.2,22.52,22.52,0,0,1-5.13,4.56c-.5.54,1-.13,1.19,0,1.38-.26.13,1.48.9,1.62l.15-.81c.29-.13.65.81.44,1.21.31-.27,1.21-1.82,1.77-2,.94.67,0,3-.93,3.83l-.26-2.15c-.79.67.1,1.61-.85,2.41l1.36.91c-.11-.17-.32-.82.26-1,.43.54.37.14,1,.14a42.54,42.54,0,0,1,2.67-6.31l.06,1.07.58-.26c.15,1.34-2.12,4.83-2.7,5.77.62.27,2.07-1.41,2.28-1.81.92.8-1.44,3-.37,3.69h-.67c.05.35,1.1.81.73,1,.59-.23,1.75-1,1.83-1.48L42.38,200c0-.27,1.41-1.41,1.59-1.68.35.27-1,1.95-1.37,1.95a8.41,8.41,0,0,0,2.43-.47c.08.27-1.39,1.28-1.65,1.28,0,.74.44.82.76.89-.09-1.21,2.71-2.92,3.57-4l-2.45,5.1c.19-.27,1.3-1.55,1.46-1.68-1,1.21.42,3,1.36,3.7L48,205c.23-.54,1.22-.14,1.09.53.19-.26,0-.26-.05-.4,1.38-.26-1,2.35.49,1.95-.59-.4-.23-.94.25-1.34,0,.81,1.34,1.35-.19,2.42.53,0,.59.4,1.25-.27l.17,1.78c.06-.2.4-.65.77-.43-.72-.41,0-2.15-1.16-1.62.82-.8,1.47-1,1.91-1.94.65,1.48-.19,3.42-.49,5l1.52.41-.34.4a12.08,12.08,0,0,1,1.14-.71c-.06.37-.14.67,0,.62a.79.79,0,0,0,.26-.43,1,1,0,0,1,.1.56,6.79,6.79,0,0,0,1.14-2l-.8.22c.3-.65.66-1.25,1.23-1.29a3.2,3.2,0,0,0-.07.33c.24-.46.46-.81.69-.85l.18,1.11-1,.39c-.18,1.07-.08,2.7-1.15,2.85.41.06.8.1,1.18.12a10,10,0,0,0,.26,1.92c.12.45.28.87.71,2,.22-.42.06-1.16.39-1.3.14,1.22.83,1.32,1.32,1.19s.88-.43.86.5c.59,1.08.12,1.77.53,2.73,0-.22,0-.66.1-.56l.49,1.89c.22-.26-.47-1.44.14-1.4.34.74.67,1.41,1,2,.5-.15,1-.58,1.41-1.62.59-.56.59.2.52,1s-.18,1.5.35.68a6.83,6.83,0,0,1,.43-3.45c.49.25.64,1,1.36.66l-.48-1.29c.52-.57,1-.87.63-1.79a1,1,0,0,0,1-.88c.54-.17.76.52.78,1.42s-.15,2-.15,2.39c.46-2,1.35-2.29,1-4.09l-.89.6c.31-1.55.86-1.58,1.31-1.69s.74-.21.15-1.48c-.41.67-1.37.86-1.54,0,.34-.1.69-.21,1-.34-.16-.31-.52.3-.49-.31a12.25,12.25,0,0,1,1.66-.07l-.06,0,.94-.86c-.12.22-.49,0-.38-.22l1-.26c-.39,0-.52-.42-.44-.83.38-1,2.61,1,2.18-.41,0,.11-.18,0-.23.15l-.15-.66c2,1.49,1.75-1.8,3.77-.31-.42-1.11-.45-.41-1.86-.54l-.16-1C74.27,206.31,74.29,206.6,73.92,206.67Zm-6,7.29c.17.63-.54.6-.82.64C67.23,213.93,67.08,213.34,67.89,214Zm-13.51-4.05c-.41.05-.66,0-.55-.31C54.15,209.61,54.31,209.73,54.38,209.91ZM30.3,175.83l0,0C30.64,175.88,30.84,175.9,30.3,175.83Zm-.42-.22c-.19-.12-.32-.27-.19-.47a.4.4,0,0,0-.24.29C29.48,175.76,29.67,175.73,29.88,175.61Zm55,4.71-.08-.28C85.08,180.12,85.32,180.18,84.89,180.32Z"/><path class="cls-1" d="M54.27,211.84a1.24,1.24,0,0,0,.4-.29A.31.31,0,0,1,54.27,211.84Z"/><path class="cls-1" d="M78.6,201.78v0l.14.07Z"/><path class="cls-1" d="M33.16,190.33a1,1,0,0,0,.57-.07A.4.4,0,0,1,33.16,190.33Z"/><path class="cls-1" d="M27.4,171.07l.21.56c-.15-.22-.36-.16-.55-.16C27.21,171.34,27.51,171.21,27.4,171.07Z"/><path class="cls-1" d="M20.1,171.38c0-.13-.11-.13-.09-.26l.32-.27C20.54,171.12,20.47,171.52,20.1,171.38Z"/><path class="cls-1" d="M24.9,172.74c-.58.48-.63,0-.8-.32,0,0,0,0,0,.05C24.83,171.66,24.87,172.2,24.9,172.74Z"/><path class="cls-1" d="M24.06,172.33a.68.68,0,0,0-.23-.27C24.1,171.74,24,172.11,24.06,172.33Z"/><path class="cls-1" d="M29.05,174.29c-.26,0,.62-.74.33-.6C29.93,172.88,29.38,175.37,29.05,174.29Z"/><polygon class="cls-1" points="22.89 174.21 23.66 173.67 23.27 174.34 22.89 174.21"/><path class="cls-1" d="M25.49,176l-.62-.27a.34.34,0,0,0,.12-.34C25.27,175.6,25.7,175.78,25.49,176Z"/><path class="cls-1" d="M25,175.35a.5.5,0,0,1-.23-.47A1.15,1.15,0,0,1,25,175.35Z"/><polygon class="cls-1" points="23.27 175.01 23.54 175.01 23.89 175.28 23.27 175.01"/><path class="cls-1" d="M30.19,180.66l.27.67c-.18.27-.45.27-.53,0S29.9,180.8,30.19,180.66Z"/><path class="cls-1" d="M27,180.92a1.72,1.72,0,0,0,.71-.26l-.81.8Z"/><path class="cls-1" d="M28.11,182.54c-.19.26,0,1.34-.53.67C27.77,182.94,27.49,182.27,28.11,182.54Z"/><polygon class="cls-1" points="36.16 188.92 36.05 188.79 37.44 187.51 36.16 188.92"/><path class="cls-1" d="M39.07,198.53c-.88-.28.71-.94-.2-1.08.2-.44.74.11.89-.29C39.75,197.83,40.12,197.83,39.07,198.53Z"/><path class="cls-1" d="M39.76,197.16a1.89,1.89,0,0,1,0-.38A.92.92,0,0,1,39.76,197.16Z"/><polygon class="cls-1" points="103.6 154.85 103.62 154.2 103.9 154.85 103.6 154.85"/><path class="cls-1" d="M105.31,154.94l-.86-.84,1,.43C105.37,154.59,105.15,154.71,105.31,154.94Z"/><path class="cls-1" d="M66.67,219l-.17-.26a1.47,1.47,0,0,1,.35-1.05Z"/><polygon class="cls-1" points="72.72 209.94 72.66 210.05 71.95 209.2 72.72 209.94"/><path class="cls-1" d="M77.44,206.21c-.11.22-.47.29-.59.5C77.33,206.43,76.43,205.32,77.44,206.21Z"/><path class="cls-1" d="M58,217.74c.13,0-.5.5-.6.6C57.42,218.08,58.17,217.62,58,217.74Z"/><polygon class="cls-1" points="58.25 215.23 58.02 215.45 58.47 214.76 58.25 215.23"/><path class="cls-1" d="M57.19,213.9c1.13-.69.21.62.77.56l.26-.14-.74.76C57.38,214.69,57.63,213.88,57.19,213.9Z"/><path class="cls-1" d="M54.39,215c.43-.27.22-.42.25.07l-.12.05A.38.38,0,0,0,54.39,215Z"/><path class="cls-1" d="M54.52,215.08c.08.16-.41.18,0,0Z"/><path class="cls-1" d="M54.24,214.25l-.22.47c-.26.15-.45,0-.57.22C53.49,214.6,53.76,214.45,54.24,214.25Z"/><path class="cls-1" d="M54.85,213.48l-.07.21C54.66,213.75,54.61,213.76,54.85,213.48Z"/><path class="cls-1" d="M54.62,214.15l.16-.46c.18-.1.52-.37-.05.19C55,213.62,54.76,213.89,54.62,214.15Z"/><path class="cls-1" d="M54.86,214.14c.31-.07.56,0,.77-.52C55.77,214.08,55,214.61,54.86,214.14Z"/><path class="cls-1" d="M58.2,213l.41-.1-.25.39C58.49,213.09,57.87,213.24,58.2,213Z"/><path class="cls-1" d="M52.79,213.52c.21-.18.63-.4.93-.61l-.15.34A1.53,1.53,0,0,0,52.79,213.52Z"/><path class="cls-1" d="M53.72,212.91l.21-.5C54.12,212.55,54,212.73,53.72,212.91Z"/><polygon class="cls-1" points="55.97 212.53 55.45 213.5 55.93 212.46 55.97 212.53"/><polygon class="cls-1" points="52.14 212.76 51.73 213.28 52.33 212.47 52.14 212.76"/><path class="cls-1" d="M51.82,212.18c-.35.41-.8.44-1,.74,0-.2.23-.61.47-1C51.21,212.2,51.35,212.29,51.82,212.18Z"/><path class="cls-1" d="M51.63,211.39a4.9,4.9,0,0,1-.33.56A2.11,2.11,0,0,1,51.63,211.39Z"/><path class="cls-1" d="M53.55,212.15a2.11,2.11,0,0,1-.76.33l.68-.41Z"/><path class="cls-1" d="M53.5,212.06h0l-.17-.14Z"/><path class="cls-1" d="M53.57,212.16h0C53.61,212.1,53.64,212.09,53.57,212.16Z"/><path class="cls-1" d="M55,212.44c.25-.39.42-.94,1.14-1.11C55.78,211.75,55.37,211.85,55,212.44Z"/><path class="cls-1" d="M54.42,211.65l.31.11a2.06,2.06,0,0,0-.56.47Z"/><polygon class="cls-1" points="54.53 211.39 54.42 211.65 54.3 211.61 54.53 211.39"/><path class="cls-1" d="M52.5,211.3a.53.53,0,0,0,.09-.58.71.71,0,0,1,.48.23C52.89,211.12,52.59,211.45,52.5,211.3Z"/><path class="cls-1" d="M53,211.63l0,0C53.12,211.55,53.15,211.55,53,211.63Z"/><path class="cls-1" d="M51.68,209.59l.13-.07-.1.09Z"/><path class="cls-1" d="M53.2,210.88c.2,0,.09.18-.06.38a.45.45,0,0,0-.07-.31C53.15,210.87,53.21,210.83,53.2,210.88Z"/><path class="cls-1" d="M51.67,210.84c.16-.05.32-.08.46-.11C51.9,210.84,51.52,211,51.67,210.84Z"/><path class="cls-1" d="M52.86,211.68v0C52.69,211.79,52.76,211.74,52.86,211.68Z"/><path class="cls-1" d="M52.86,211.68a2.78,2.78,0,0,1,.28-.42.88.88,0,0,1-.08.32Z"/><path class="cls-1" d="M55.38,206.1c-.56.47-.9,1.13-.11.86a13.11,13.11,0,0,1-3.46,2.56,1.75,1.75,0,0,0,.64-.87c.38-.18,1.11-.11,1.49-.7.07-.52-.39-.07-.8,0,.81-.45.75-1.19,1.85-2l-.17.55C55,206.44,55.18,206.14,55.38,206.1Z"/><path class="cls-1" d="M52.19,209.88V210a2.86,2.86,0,0,0-1,.31,1.88,1.88,0,0,1,.54-.72l.42.37Z"/><path class="cls-1" d="M52.5,210.42c.57-.56.67-1,1.45-1.39.16.29-.38.6-.53,1-.18-.54-.25.4-.84.38a.5.5,0,0,0,0,.35,2.4,2.4,0,0,0-.46,0l0,0h0c.09-.05.14-.08.08-.06v0l.22-.21c-.23,0-.18.11-.22.21l-.09.08h0V210C52.35,210,52.42,210.17,52.5,210.42Z"/><path class="cls-1" d="M57.3,210a1.12,1.12,0,0,0-.16.1C57.19,210.06,57.24,210,57.3,210Z"/><path class="cls-1" d="M56.78,210.17c-.06.1-.29.32-.15.37s.3-.24.51-.4a1,1,0,0,1-.73.62l.06-.1a3.59,3.59,0,0,0-1.36.5A15.6,15.6,0,0,1,56.78,210.17Z"/><path class="cls-1" d="M54.79,210.16l0-.59.68-.25-.33.24C55.45,209.66,55,209.93,54.79,210.16Z"/><polygon class="cls-1" points="51.34 209.79 50.72 210.36 51.49 209.42 51.34 209.79"/><polygon class="cls-1" points="51.06 209.28 50.5 209.75 50.75 209.35 51.06 209.28"/><path class="cls-1" d="M37.92,178.09l.08-.24A.62.62,0,0,1,37.92,178.09Z"/><path class="cls-1" d="M38.54,178.8l-.27.24C38.4,178.88,38.51,178.78,38.54,178.8Z"/><path class="cls-1" d="M42.31,198.1c-.65.28-1.61.77-1,.28l.67-.46C42,198.12,42.12,198.14,42.31,198.1Z"/><path class="cls-1" d="M40,187.51l.23-.1-.52.57Z"/><path class="cls-1" d="M42.54,185.35l-.56.12A2,2,0,0,1,42.54,185.35Z"/><path class="cls-1" d="M35.37,173.51l.55-.63C36.06,173.07,35.68,173.25,35.37,173.51Z"/><path class="cls-1" d="M47.62,204.46a.92.92,0,0,1-.64,0C47.47,204.3,48.11,204,47.62,204.46Z"/><path class="cls-1" d="M31.48,183.66a1,1,0,0,1,.32-.39A.79.79,0,0,1,31.48,183.66Z"/><path class="cls-1" d="M46.69,204.06l.2-.05c0,.18,0,.34.09.42C46.62,204.53,46.35,204.53,46.69,204.06Z"/><path class="cls-1" d="M23.22,159.23l-.11,0C23.2,159.19,23.21,159.2,23.22,159.23Z"/><path class="cls-1" d="M13.49,160c0,.07,0,.14.09.21S13.47,160.14,13.49,160Z"/><path class="cls-1" d="M49.34,207.67c0,.13-.05.07,0,0Z"/><path class="cls-1" d="M52.2,206.17a1.62,1.62,0,0,1,.27-.28A2,2,0,0,0,52.2,206.17Z"/><path class="cls-1" d="M49.84,200h0C50,199.93,50,200,49.84,200Z"/><path class="cls-1" d="M49.74,207.59a.71.71,0,0,1-.28,0A.94.94,0,0,1,49.74,207.59Z"/><path class="cls-1" d="M49.43,207.81l.13,0C49.46,207.94,49.39,208,49.43,207.81Z"/><path class="cls-1" d="M49.27,207.51a.26.26,0,0,0,.19.11.23.23,0,0,0-.12,0A1.28,1.28,0,0,0,49.27,207.51Z"/><path class="cls-1" d="M27.77,168.44l-.08,0C27.88,168.16,27.87,168.23,27.77,168.44Z"/><path class="cls-1" d="M46.85,190.44l0,0h0Z"/><path class="cls-1" d="M47.05,189.72c-.67.77-.51.77-.25.75l-1.9,1.32Z"/><path class="cls-1" d="M36.8,176.55c-1.08.33-.27-.79.1-1.37-.38.1-1.4,1.26-1.35.66,0-.79,1.51-1,1.51-1.52l-1.19.59c.48-1-.43-.72-.81-.93a.65.65,0,0,1,.2-.36c-.71,0,.43-1.49-.1-1.48-.17.22-.76.36-1,.52l.27-.95c-.11.41-.7.87-1.24,1.35,0-.19.21-.51.21-.67a1.48,1.48,0,0,1-.64.59l.58-1.25a.31.31,0,0,1,.27,0c-.09-.13.07-.68-.54-.47-.21.19-.38.42-.59.61.76-.36.27.15-.1.58-.17-.42-.22,0-.76.2-.16-.25.54-1,1.08-1.29-.44-.09-.66-.05-.28-.79l-.75.68.05-.44-.81,1c-.92-.05,1.29-1.17.43-1.34l-.7.55c.11-.42,1.23-1.42.27-.92.26-.53,1.25-.44,1-1a2.07,2.07,0,0,1-1.07.22c.2-.4.92-.54.89-.37-.22-1-2.73,1.46-2.3.1.67-.18,1.21-1.25,1.59-.72.22-.57-1.39.32-.83-.53l-.76.87c-.09-.08.15-.44.22-.57l-.67.56c1-1.26-1-.12.4-1.56-1.14,1.11-.11-.29-.69,0-.67.95.6.72-.52,1.66-.44.15,0-.4-.39-.24a3.92,3.92,0,0,1-.52.78c-1,.12.2-1.16.31-1.64l.07.63c1.12-.94,0-.34.85-1.17-.79.27,0-.6-.54-.47,0,0-.07.13,0,.17-.34-.48-2.31.87-2.49.72s.07-.9.65-1.16c.2-.4.14.88,1.42-.56-1.93,1.1.21-1.05-1.41-.69-.42.73-1.09.62-1.37,1.21-.08-.39.17-.6.56-1.11l-.6.35c.92-1.31,1-.93,1.21-2-.28.51-.95.4-1.22.84-.15-.12-.11-.4.13-.76l-.06.08c-.16-.77-1,.09-.83-.88l.36-.21c.36-1.34-.85-1.72-1-2.71l.45,0c-.22.05.16-.87-.51-.68,0,.07-.09.26,0,.26-.37.29-1,.63-1.19.54l.5-.5-.48.27c-.21-.24.85-.55.64-.79-1.69,1.11-1.05-.9-2.61,0,1-1.07.53.34,1.43-.67-.24.06-.48.2-.7.11l.73-.49c-1-.43-1.79-.26-2.17-1l-.13.15c-.45,0-.43-.25.08-.83-.36.2-.39.51-.74.64,1.42-1.81-1.95.18-.93-1-1.36,1.13-3.11,1.63-4,2.71l0-.3c-.87.78.4.56-.48,1.41l1.39-.22c-.36.26-.8.75-1,.76.09.15.13.3-.5.52,3.35-.56,2.14,2.55,4.39,2.84,0,.15-.38.36-.62.49,1.07-.46-.28.59-.3.82l1.54-.67a3.51,3.51,0,0,1-1,.85c.26.85,2,.5,1.66,1.62.59-.19,1-.85,1.33-.76-1.55.75-.11,1.14-1.19,1.68,1.57-.89.93.55,2.79-1.08.33.17-.65.87-.88.94.31.24.52.48.11,1.21.58-.19.62,1.79,2.3.9-1.09.57-.48.4-.75.91l-1,.5.41.33c0,.15,0,.14.11.08s.47-.39.82-.39c.27.23-.18.61-.49,1.1l-.16.06.07.25c.13.12.44-1.14,1.23-1-.23.19-1.12,1.33-.43,1-.22-.19.38-.62.7-.73l.31.27-1.14.73c.78.87,2.29,1.23,3,2.26.92-.75.6.66,1.89-.51l-.16.06c-.06-.34,1.13-.78,1.13-.46-.59.14-1.07,1.45-1.67,1.11l-.34.9c-2.44,2.28,1,.85.65,2.1a1.42,1.42,0,0,1,.28-.31c-.42,1.18,1.63.6,1.31,1l.75-.52c-.75,1.31-.8,1.44.06,1.61.11-.09.27-.32.49-.35-.43.54-.86,1.09-.43,1.34l.21-.2.33.66c2.21-1.75-.58,2,1.95.31-.56.63-.43,1.2-.59,1.63a1.06,1.06,0,0,1,.33-.19c-1,1.16.86.33.92.68a2.07,2.07,0,0,1-1,.84c1.18-.43-.37,1.69.11,1.49.28.15.92-.59,1.46-.92.06.51-2.05,1.53-.81,1.29.06-.13.06-.29.22-.36.32,0,3.11-1.67,2.73-1.1l-.48.2c-.32.77,2.39-.68.94.56l-.72.52c1.35-.19-.09.44,1.15.36l.11-.1c.06.34,1-.21,0,.79l-.22,0c.15.36.25.33.55.59-.08.12-.13.39.14.25-.92.75.13,1,.29,1.14,0-.35.43-.55.87-.78-.65.74-.65.9,0,.66-1.13.94-2.33,2-2.09,2.4.13-.2.15-.37.42-.52s.08.15,0,.25c.27-.15.35-.42.79-.7-.9,1.14.28.52.18,1.21.26-.4.56-.47,1-.75-1.29,1.07,1.54-.38-.26.81,1.6-.05,1.57,1.83,2.89,1.26.53-.3-.07.52,0,.66l.56-.47c-.75,1.19-.16.59-.87,1.84a2.88,2.88,0,0,1,1.59-1.14l-1,1.24.93-.65c-.25.4,0,.42.24.44,0-.07.07-.09.23-.22-1.18,1-.62,1.45-1.14,2,1.3-.82,0,.6,1.17-.2a2.4,2.4,0,0,0-.29.49c-.58.35-1.18.8-.83.71,0,0,0,0,0,0l.74-.5a.77.77,0,0,0,0,.53,2.09,2.09,0,0,0-.45.15,4,4,0,0,0,.46-.13s0,0,0,0a.06.06,0,0,0,0,0c.22-.06.36-.05.21.25,1.4-.43-.73,2.09,1.1,1.39-.2.05-.34,0-.12-.22.24.44,1.54,0,1.21.71l-.67.49c-.07.52-.1.91.12,1.1l-.72.6c.53.12-.09,1.77,1.59.77-.52.55.54.33.49.67l.6-.4c.38.1.3.41.25.69,1.57-.43.78,1,1.21,1.33l.17-.13-.06.76c.42-.51-.28.37,0,.39-.16.36.16.47.66.35l.25.26c.13-.61.83-.62,1.5-1.11l-.38.59c.37-.18.42-.52.66-.5-.25.4.05.74-.53,1.38a2.3,2.3,0,0,1-.54.24s0,0,0,0h0c-.06.06-.14.17-.22.25.32.11,0,.24-.31.47,1.22-.55.64.13,2-.61-1.55.79.45.59-1,1.44,1.18-.63.16.09,1.13-.49-.49,0,.24-1.05.51-1.62l.79-.28c1-1.06-.81-.13-.52-.57-.2.3.22.28.48.08l-.93.65c-.59,0-.09-.82.18-1.38.45,0,.34-.67,1.08-1l0,.25a2,2,0,0,0,.71-.84c-1,0-1.22-1.37-2.06-1,.31-.07.26.27.07.57l-.55,0c.12.22,1-.25,1,.26A11.54,11.54,0,0,1,50,205.42c-1.31.15,1.11-1.61.38-2.1.13-.19-.81.87-.78.28a7.31,7.31,0,0,1,2.46-3.19c-.21.47-.63,1.41.3.76.21-.47.18-1,.74-1.43-1.18.62,0,.59-1.08,1-.08-.15.21-.47.33-.67a2.55,2.55,0,0,1-1.07.6c-.34-.42-1-.3-1.43-.68a4.6,4.6,0,0,0-.77.51,7.26,7.26,0,0,1,2.09-2.39c-.16-.29-.66.08-.55-.37,1.2-.37-.21.06.75-.76-.06-.32-.54.3-.85.37a3.88,3.88,0,0,1,.6-.69c-.86.46-1.74,1.82-2.74,2.35a11.94,11.94,0,0,1-2.11.64,48.36,48.36,0,0,1,5.44-4.17c.57-.48-.78.27-.92.22-1.15.45.38-1-.17-1l-.38.6c-.27.14-.24-.45.05-.77a16.1,16.1,0,0,1-2,1.7c-.51-.29,1-2.11,2-2.85l-.49,1.45c.82-.62.44-1.11,1.44-1.85l-.77-.38a.8.8,0,0,1-.53.78c-.16-.29-.25,0-.76.1-.8,1.11-3,3.75-4.11,4.94l.3-.75-.54.3c.32-.91,3.21-3.79,4-4.56-.39-.07-2.06,1.39-2.35,1.71-.45-.39,2.09-2.4,1.48-2.66l.51-.13c.08-.23-.58-.35-.23-.56a7.77,7.77,0,0,0-1.9,1.38l1.31-1.7c-.13.2-1.55,1.26-1.78,1.48-.18-.12,1.39-1.55,1.7-1.62a11.05,11.05,0,0,0-2,.79A7.09,7.09,0,0,1,47.13,191c.21-.51-.07-.5-.3-.48-.32.83-3,2.57-4,3.47l3.54-4c-.23.22-1.51,1.33-1.67,1.45,1.18-1,.65-2,.14-2.33l0,.07c-.36.43-1,.33-.68-.16-.22.22-.12.19-.08.27-1.16.45,1.57-1.85.25-1.28.33.17-.13.62-.63,1,.28-.57-.6-.68.93-1.73-.41.11-.33-.16-1.05.43l.44-1.22c-.12.16-.52.53-.74.46.43.14-.7,1.5.38.91a14.15,14.15,0,0,0-2.11,1.73c0-.92,1.26-2.44,2-3.63H42.51l.39-.35-1.1.73c.19-.25.36-.45.25-.38a1.7,1.7,0,0,0-.35.33.65.65,0,0,1,.15-.33,11,11,0,0,0-1.6,1.54l.68-.32a3.57,3.57,0,0,1-1.37,1.14l.17-.25a3.63,3.63,0,0,1-.81.74l.19-.78c.17-.07.52-.24.91-.43a4.77,4.77,0,0,1,2-2l-.84.19a7,7,0,0,0,1-1.95c-.37.26-.59.61-.91.74.91-1.22-2,.33-1-.55.06-.45.81-.81,1-1.19-.11.1-.32.29-.38.26l.59-.77c-.32.13-.37.58-.86.62.27-.8.48-1.31-.11-1.33-.17-.57,1.61-1,1.18-1.23-.65.42-1.4.94-1.67.79.32-.45.8-.81.91-1.22l-.91.75c-.11-.22-.06-.51-.76,0,.27-.46.12-.51-.09-.48.26-.67,2-1.28,2.46-1.5-.92.27-.67-.24-1.91.48l0,.45c-1.57.38.91-1.54-1.25-.23.22.12-.1.73-.7,1l.27-.64c-.27.16-.05.28-.43.39a11.39,11.39,0,0,1,.75-1.08l-.05.05-.22-.6c.11.06-.21.35-.32.29l.24-.69a.84.84,0,0,1-.79.38c-.59-.17,1.83-2,.65-1.53,0,0-.06.13,0,.16l-.54.17c1.93-1.59-.55-1.1,1.39-2.69-1,.4-.49.35-1.18,1.38l-.76.21C36.69,176.33,36.91,176.29,36.8,176.55Zm2.29,3.19c.45-.28.11.22,0,.41C38.78,180.21,38.35,180.45,39.09,179.74Zm2.37,7.14c.34-.12.52-.13.33.1C41.54,187,41.46,187,41.46,186.88Zm7.64,19.25s0,0,0,0C48.86,206.16,48.71,206.19,49.1,206.13Zm.26.08c.11,0,.16.13,0,.29a.75.75,0,0,0,.28-.25C49.72,206,49.56,206.09,49.36,206.21ZM22.49,171.05l-.23.08C22.43,170.93,22.58,170.75,22.49,171.05Z"/><path class="cls-1" d="M42.25,185.6a4.68,4.68,0,0,0-.4.27A.72.72,0,0,1,42.25,185.6Z"/><path class="cls-1" d="M35.27,173.62h0l.11-.11Z"/><path class="cls-1" d="M51.57,196.53a1.38,1.38,0,0,0-.46.15C51.27,196.55,51.44,196.46,51.57,196.53Z"/><path class="cls-1" d="M49.82,208.92v-.36c.05.13.23.05.38,0C50,208.7,49.77,208.84,49.82,208.92Z"/><path class="cls-1" d="M55.57,207.3c-.06.1,0,.07,0,.17l-.33.25C55.13,207.57,55.32,207.27,55.57,207.3Z"/><path class="cls-1" d="M52.29,207.27c.6-.45.5-.16.51.07l0,0C52,208,52.14,207.64,52.29,207.27Z"/><path class="cls-1" d="M52.81,207.39a.15.15,0,0,0,.09.15C52.58,207.82,52.79,207.54,52.81,207.39Z"/><path class="cls-1" d="M49.57,207c.21-.05-.71.64-.44.49C48.44,208.13,49.67,206.28,49.57,207Z"/><polygon class="cls-1" points="54.32 205.86 53.55 206.38 54.07 205.83 54.32 205.86"/><path class="cls-1" d="M52.87,205.13l.39.07a.49.49,0,0,0-.2.26C52.92,205.33,52.65,205.29,52.87,205.13Z"/><path class="cls-1" d="M53.06,205.46a.2.2,0,0,1,0,.28A.34.34,0,0,1,53.06,205.46Z"/><polygon class="cls-1" points="54.28 205.37 54.08 205.42 53.89 205.29 54.28 205.37"/><path class="cls-1" d="M50.75,202.73v-.42c.23-.22.44-.27.42-.1S51,202.58,50.75,202.73Z"/><path class="cls-1" d="M53.34,201.93a2.91,2.91,0,0,0-.64.32l.9-.72Z"/><path class="cls-1" d="M53,201c.22-.22.42-.94.62-.57C53.36,200.67,53.36,201.09,53,201Z"/><polygon class="cls-1" points="48.79 198.09 48.83 198.16 47.35 199.32 48.79 198.09"/><path class="cls-1" d="M49.64,191.92c.59,0-.85.79-.19.71-.3.35-.54.06-.78.38C48.89,192.53,48.61,192.6,49.64,191.92Z"/><path class="cls-1" d="M48.67,193c0,.07-.08.16-.15.27A.92.92,0,0,1,48.67,193Z"/><polygon class="cls-1" points="12.13 159.89 11.67 159.94 12.27 159.68 12.13 159.89"/><path class="cls-1" d="M12.93,158.66l-1,.69.76-.79C12.71,158.64,12.7,158.79,12.93,158.66Z"/><path class="cls-1" d="M41.43,179.18l-.22.2c-.27.16-.32.13-.43.07Z"/><polygon class="cls-1" points="38.64 177.11 38.7 177.14 37.78 177.73 38.64 177.11"/><path class="cls-1" d="M38,174.05c.1.06,0,.32.11.38C38.08,174.11,36.9,174.86,38,174.05Z"/></svg>