<svg id="Layer_1" data-name="Layer 1" xmlns="http://www.w3.org/2000/svg" viewBox="0 0 228.11 117.96"><title>Flecha nueva</title><path d="M18.3,54.06c-.29.07-.18-.71-.23-.85C18.56,53.38,18.29,54.26,18.3,54.06Z"/><polygon points="23.11 55.81 23.03 55.5 23.74 56.27 23.11 55.81"/><path d="M27.61,55.8c-.42,1.32-1.63-.21-2.43.26l-.13.3-.36-1.06C25.66,55.46,26.92,56.17,27.61,55.8Z"/><path d="M30,53c-.15.51.52.44-.56.16l.1-.13A1.64,1.64,0,0,0,30,53Z"/><path d="M29.55,53c-.47,0,.31-.43,0,0Z"/><path d="M31.74,53.27l-.63-.45c.14-.31.69-.38.48-.6C32.23,52.47,32.1,52.78,31.74,53.27Z"/><path d="M32.33,54.24,32,54C32.06,53.91,32.15,53.87,32.33,54.24Z"/><path d="M31.32,53.63,32,54c-.09.21-.1.64-.32-.15C31.75,54.28,31.61,53.91,31.32,53.63Z"/><path d="M30.93,53.83c-.35.29-.8.47-.17.93C29.56,54.58,29.74,53.65,30.93,53.83Z"/><path d="M27.84,57.16l-.47.39-.4-.44C27.17,57.33,27.87,56.75,27.84,57.16Z"/><path d="M35.63,52.59a7.25,7.25,0,0,1-.26,1.11l-.46-.32C35.15,53.18,35.59,53,35.63,52.59Z"/><path d="M35.37,53.7l.69.48C35.44,54.24,35.33,54,35.37,53.7Z"/><polygon points="32.44 55.7 31.31 54.69 32.66 55.71 32.44 55.7"/><polygon points="38.26 52.56 37.87 51.91 38.56 52.89 38.26 52.56"/><path d="M40,52.67c-.29-.54.39-.91.09-1.24a2.64,2.64,0,0,1,1.24,1C41,52.17,40.54,52.23,40,52.67Z"/><path d="M42,53a3.88,3.88,0,0,1-.61-.61A1.85,1.85,0,0,1,42,53Z"/><path d="M37.23,54a1.23,1.23,0,0,1,.55-.8l-.27.79Z"/><path d="M37.5,54.05v0l.58-.05Z"/><path d="M37.17,54h.06C37.21,54.12,37.19,54.14,37.17,54Z"/><path d="M34.25,55c.4.45,1.25.92.43,1.59C34.39,56,34.86,55.65,34.25,55Z"/><path d="M36.83,55l-.73.18c0-.21.14-.51-.06-.73Z"/><polygon points="37.19 55.28 36.83 55.03 37.1 54.96 37.19 55.28"/><path d="M40.7,53.74a1.47,1.47,0,0,0,1,.43,3.56,3.56,0,0,1-1.26.24C40.43,54.16,40.25,53.72,40.7,53.74Z"/><path d="M39.14,54l.07,0C39.17,54.08,39.14,54.1,39.14,54Z"/><path d="M45.6,54.17l-.06.14c0-.05,0-.09,0-.14Z"/><path d="M40.42,54.56c-.32.15-.5,0-.68-.29a2.56,2.56,0,0,0,.75.14C40.52,54.52,40.52,54.6,40.42,54.56Z"/><path d="M43,53.38a3.87,3.87,0,0,1-.55.43C42.64,53.56,43,53.17,43,53.38Z"/><path d="M39.32,53.79s0,0,0,0C39.38,53.59,39.36,53.67,39.32,53.79Z"/><path d="M39.32,53.79a2.19,2.19,0,0,1,.42.48,1.64,1.64,0,0,1-.53-.26A1.13,1.13,0,0,0,39.32,53.79Z"/><path d="M46.77,59.23c-.06-.73-.89-1.4-1.6-.62-.7-.55-.24-3,.37-4.3,0,.32,0,.61.75,1-.26.4-1.61.93-1,1.59,1,.38.79-.26,1.25-.64-.39.91,1.22,1.32,1,2.66l-.84-.47C46.7,58.71,47,59,46.77,59.23Z"/><path d="M44.16,54.39l-.3-.1c.34-.12.59-.42,1-1a1.28,1.28,0,0,1,.64.87l-1.47.11Z"/><path d="M42.53,54.29c.23.8.94,1.14.51,2-.88-.06-.62-.67-1.14-1,1.41.19-.4-.45.61-.9a2.64,2.64,0,0,0-.76-.21,3.3,3.3,0,0,0,.73-.36l0,0h0c-.07.1-.09.16,0,.1l0,0a1.46,1.46,0,0,0,.07.3c.4-.17.06-.21-.07-.3s0-.08,0-.12h0l1.41.43A2.87,2.87,0,0,1,42.53,54.29Z"/><path d="M35.44,58.28a.31.31,0,0,0,0-.18C35.57,58.2,35.61,58.26,35.44,58.28Z"/><path d="M36,57.8c-.11-.11-.19-.43-.53-.34s0,.38,0,.64c-.2-.21-.7-.57-.07-1l.1.11c.57-.27,1.3-1.27,1.2-1.38A6.88,6.88,0,0,1,36,57.8Z"/><path d="M39.31,56.25l1.18.39-.6.69,0-.41C39.25,57.08,39.4,56.57,39.31,56.25Z"/><polygon points="45.74 53.77 45.58 52.93 46.26 54.12 45.74 53.77"/><polygon points="47.27 53.87 47.21 53.14 47.61 53.58 47.27 53.87"/><path d="M133.55,62.94l.34.21A1.25,1.25,0,0,1,133.55,62.94Z"/><path d="M131.05,63l-.07-.36C131.1,62.83,131.15,63,131.05,63Z"/><path d="M84.82,54c.5-.68,1.06-1.74,1-.91l-.15.8A.8.8,0,0,0,84.82,54Z"/><path d="M110.54,58.74l-.15.24c-.12-.27-.24-.53-.34-.77C110.19,58.38,110.36,58.55,110.54,58.74Z"/><path d="M110.89,62.05l.66-.51A2,2,0,0,1,110.89,62.05Z"/><path d="M147.22,63.79l.4.82C147,64.6,147.27,64.19,147.22,63.79Z"/><path d="M62.93,54.17A2.32,2.32,0,0,1,64,53.68C63.49,54.14,63.06,54.83,62.93,54.17Z"/><path d="M132.56,54.44a.56.56,0,0,1,.3.48C132.64,54.79,132.52,54.63,132.56,54.44Z"/><path d="M65.26,53.69a1.74,1.74,0,0,1-.22.18,2,2,0,0,0-1-.19C64.4,53.34,64.84,53.13,65.26,53.69Z"/><path d="M196.8,63.13a1.09,1.09,0,0,1,.11-.1C196.92,63.14,196.87,63.14,196.8,63.13Z"/><path d="M211.24,55a2.49,2.49,0,0,0-.59-.06C210.75,54.92,210.93,54.93,211.24,55Z"/><path d="M53.42,53.52c-.33-.05-.05-.09,0,0Z"/><path d="M51.84,56.69a.67.67,0,0,1,.13.39A.83.83,0,0,0,51.84,56.69Z"/><path d="M68.49,58.67h0C68.43,58.83,68.44,58.8,68.49,58.67Z"/><path d="M52.93,53.89a1.52,1.52,0,0,1,.41-.24A1.53,1.53,0,0,1,52.93,53.89Z"/><path d="M53,53.51l-.29.08C52.67,53.45,52.71,53.37,53,53.51Z"/><path d="M53.87,53.57a1.18,1.18,0,0,0-.53.08c.07-.06.09-.1.08-.13Z"/><path d="M170.23,61l.07-.07C170.63,61.24,170.48,61.18,170.23,61Z"/><path d="M93.26,62.27s0,0,0,0l0,0Z"/><path d="M94.42,62.87c-.49-1-.78-.87-1.15-.66l.38-2.31Z"/><path d="M138.58,63c1.07-1.05,2.08.28,2.66.93.41-.36-.32-1.88.85-1.47,1.65.49-.32,1.83.67,2.13l.72-1.3c1.27,1,2.21.1,3.28-.06a.73.73,0,0,1,.42.38c1.14-.56,2.38,1.27,3.24.84-.2-.27.49-.82.59-1.13l1.55.8c-.69-.34-.66-1.08-.78-1.81.48.08.71.49,1,.58-.2-.26-.41-.53-.15-.86l1.62,1.23a.68.68,0,0,1-.44.21c.41,0,1.29.48,1.87-.13-.06-.29-.25-.56-.3-.85-.49.82-.77.12-1-.43,1.12.12.28-.19.82-.72.79,0,1.11,1,.9,1.64.89-.28,1.18-.48,2.09.28l-.17-1,.83.32-.68-1.23c1.61-.7.3,1.73,2.08,1.16v-.89c.68.34.92,1.84,1.45.78.67.54-1.14,1.25.43,1.44a2.75,2.75,0,0,1,1.31-1c.5.41-.38,1.06-.7.93,2.36.42,1.47-3,3.58-1.87-.73.64.6,1.72-1.11,1.7.82.52,1.61-1.29,2.46-.32l-.56-1.14c.31,0,.66.39.82.53l-.07-.88c1.05,1.54,2-.73,2.58,1.29-.43-1.59.79.09,1.21-.53-.87-1.11-2.49,0-2.6-1.43.4-.44.76.27,1.15-.16a2.61,2.61,0,0,1-.77-.9c1.33-.83,2.09.88,2.9,1.27L170.93,61c.12,1.46.64.25,1,1.39.71-.78,1.27.36,1.85-.13-.15,0-.16-.13-.32-.12,1.56,0,2-2.35,2.61-2.39s1.75.6,1.33,1.22c.5.41-2.06-.43-1.17,1.46.89-2.19,1.82.82,3.76-.68-.85-.77.49-1.23-.26-1.82.92.18.95.51,1.36,1.13l.28-.69c1.2,1.54.28,1.36,2.1,2.18-.61-.53.73-1,.27-1.47a1.6,1.6,0,0,1,1.36.57l-.06-.1c1.84.35,1.51-.86,3.19-.1l-.17.41c2.2,1.11,5,.4,7.25.91l-.8.34c.25-.21,1.54.65,2.25,0-.15,0-.39-.23-.52-.17,0-.47.29-1.15.84-1.27l.21.71.22-.55c.83,0-.24,1,.59,1,.49-2,3.59-.27,4.31-2.05.57,1.46-1.58.21-1,1.54.26-.22.37-.49.91-.61l-.18.87c2.52-.5,3.48-1.24,5.73-1.06l-.09-.19c.8-.34,1.23-.18,1.59.58.16-.41-.41-.62-.1-1,1.41,2.24,2.81-1.64,3.67-.08-.11-1.77,1.73-3.45,1-4.83l.58.21c-.19-1.17-1.81,0-2.14-1.25l-1.83,1.22c.06-.44-.24-1.09.06-1.24-.45,0-.85-.09-.26-.72-4.35,3-8.82.1-13.1,1.68-.29-.1-.13-.51,0-.79-.79,1.13-.76-.59-1.19-.75L194.93,56c-.46-.48-.1-1-.13-1.31-2.19-.32-4.32,1.26-6.09.3-.56.59.14,1.31-.61,1.51,1-1.67-2.16-.79-1.52-2-.72,1.78-2.68.38-2.35,2.86-.89.15-.74-1.05-.48-1.28a3.06,3.06,0,0,1-2.71-.67c-.57.58-4.72-.61-5.64,1.25.62-1.21-.05-.63-.66-1.15l.55-1.07-1.36.12c-.28-.1-.36-.06-.36,0-.23.05.06.61-.53.88-.92.07-1-.52-1.48-1.07l.14-.16-.62-.1c-.47,0,1.63,1.06.12,1.61,0-.29-.91-1.7-1.31-.93.77-.06.67.68.39,1L169.2,56l.35-1.35c-3.09.08-6.31,1-9.62,1,0,1.19-2.34.06-2,1.8l.13-.16c.81.17-.24,1.37-.9,1.17.69-.55-1.24-1.74.44-2l-1.3-.82c-.72-3.33-3.46.28-5.43-.79a.63.63,0,0,1,.19.41c-1.74-1.07-3.92.9-4.32.36l-.16.92c-1.49-1.41-1.67-1.53-3.45-1,0,.15.23.41-.06.61A1.86,1.86,0,0,0,141,54.93l.05.29-1.91-.15c0,2.82-3.27-1.73-3.84,1.33-.37-.82-1.77-1.08-2.39-1.48a.64.64,0,0,1-.15.38c-.73-1.52-2.11.48-2.93.31-.53-.37-.3-.85-.07-1.33-1,1.2-2.89-1.34-3.27-.83-.77.11-.29,1.08-.5,1.71-1.14-.27.2-2.56-1.33-1.43.17.12.5.22.37.38-.58.24-1.62,3.48-2.21,2.83l.39-.5c-1.07-.73-2.52,2.3-2.69.39l.1-.88c-1.84,1.17-.78-.35-2.64.68l0,.14c-.81-.17-1.25.94-1.65-.49l.28-.19a8,8,0,0,0-2.12.07c-.12-.14-.62-.35-.76,0,0-1.18-2.38-.55-2.84-.48.81.18.43.68.2,1.16-.48-1-.81-1.06-1.48-.37-.09-1.47-.22-3-1.53-3.12.2.22.52.34.39.65s-.44,0-.54-.14c-.13.3.29.53.14,1-.88-1.41-1.52-.1-2.8-.6.4.44.05.73-.09,1.24-.1-1.67-1.75,1.44-1.27-.71-2.5,1.29-6.36.1-7.34,1.49-.26.6-1-.38-1.4-.41l.06.73c-1.22-1.32-1-.49-2.38-1.83.59.87.34,1.27-.26,2l-1-1.52-.2,1.13c-.4-.44-.85-.26-1.3-.08.22,0,.1.11.08.31-.21-1.57-2-1.38-2.25-2.13-.44,1.53-1.18-.39-1.5,1.05a2.31,2.31,0,0,0-.54-.54c.21-.67.29-1.42-.11-1.09l-.09,0-.17.89a2.84,2.84,0,0,0-1.1-.33,1.69,1.69,0,0,0,.42-.45c-.18.14-.34.3-.49.44h-.15a.14.14,0,0,0,.09.05.58.58,0,0,1-.86,0c-1.42,1.36-3.15-1.87-4.72,0,.24-.19.57-.27.66,0-1.31-.08-2.61,1.19-3.44.51l.06-.83a5.78,5.78,0,0,0-2.47-.59l0-.94c-1.13.35-3.54-1.16-4.23.77-.27-.75-1.55.22-2.19,0l-.16.71A2.41,2.41,0,0,1,65,53.87c-1.69,1.5-3.26,0-4.74.13v.21l-1.5-.52c.39.65-.29-.45-.74-.27a1.58,1.58,0,0,0-1.82.3l-.95,0c1.06.49-.08,1-.14,1.86L54.53,55c-.24.4.4.65-.05.83-.41-.45-1.62-.42-2-1.28a1.2,1.2,0,0,1,.38-.56c.05,0,.05,0,0,0s0,0,0,0l0,0a2.4,2.4,0,0,1-.17-.32c-.76.18-.48-.16-.45-.53-.86,1.29-1.35.42-2,1.93.89-1.71-2,0-1.42-1.64-.65,1.31-.44.06-.85,1.18.9-.36,1.8.85,2.53,1.42l-.72.78c.47,1.48,1.61-.55,2,0-.28-.34-.93,0-.95.33l.19-1.13c1-.46,1.83.43,2.56,1-.69.38.83.68.33,1.48l-.54-.14c-.25.4.28.75.58,1.08,1.71-.82,4.83-.1,5.45-1-.35.28-1,0-1.3-.3l.8-.47c-.65,0-1.16,1-2.12.59.16-.71-.54-1.69.19-2.69,1.84-1.12,1.51,1.87,3.72,1.6.21.22-.46-1.17.72-.79A4.64,4.64,0,0,1,64,60.16c-.63-.46-1.88-1.37-2.07-.24.63.45,1.7.73,1.76,1.46.64-1.31-1.18-.39-.33-1.48.43,0,.62.46.83.68-.3-.54.39-.91.52-1.21,1.42,0,2.23-.58,3.75-.7a1.92,1.92,0,0,0,.21-.92c.74.35,1.8,2.31,1.52,3.12.88.06.92-.56,1.66-.2-1.18,1.17.24-.2.36,1.06.76.16.27-.6.62-.89a1.82,1.82,0,0,1,.45.89c.46-1-.91-2.49-.36-3.6a11.79,11.79,0,0,1,2.12-2.06,17.74,17.74,0,0,1-.28,6.87c.06.73.72-.79,1-.87,1-1.18,1.47.93,2.27.46l-.61-.66c.13-.3,1.31.08,1.5.51,0-.41-.61-2.13-.25-2.62,1.44-.22,2.81,2.06,2.72,3.3l-2.21-1.28c-.08,1,1.57,1,1.48,2.28l2-.37c-.26,0-1-.33-.73-.9.87.05.45-.18,1-.66a38.55,38.55,0,0,1-3.48-6.28l1,.69.27-.61c1.36.82,2.6,4.87,3,5.94.78-.26.51-2.47.32-2.9,1.55-.11,1.53,3.12,3.08,2.81l-.58.48c.37.21,1.7-.24,1.56.17.31-.59.59-2,.25-2.35l1.38,2.08c-.21-.22-.07-2-.16-2.31.55-.07.94,2,.59,2.34,1.08-1.28.82-.59,1.69-2.09.32.13,0,1.88-.26,2.08a1.23,1.23,0,0,0,1.49.06c-1.19-.77-.32-4-.55-5.33l2.57,5.29A19.64,19.64,0,0,1,95,60c.22,1.57,3.16,1.77,4.6,1.55h-.22c-.29-.54,1-1,1.46-.43-.09-.31-.2-.22-.42-.23,1-1.18,1.25,2.38,2.23,1-.89.15-1.07-.49-1-1.11.73.57,2.42,0,2.06,1.8.47-.39.89-.15.85-1.09l1.79,1.1c-.13-.19-.25-.73.27-.86-1,.25-2-1.48-2.5-.27,0-1.14.35-1.75-.13-2.72,1.94.55,3,2.5,4.22,3.82l1.7-.82.08.52.29-1.32c.22.31.35.57.4.44a.86.86,0,0,0-.1-.48.8.8,0,0,1,.42.31,4.68,4.68,0,0,0-.55-2.2c-.16.25-.31.5-.47.73-.34-.66-.58-1.34-.11-1.78a2,2,0,0,0,.24.28c-.22-.49-.35-.89-.19-1.09l1.3.64a9.43,9.43,0,0,0-.62,1c.81.86,1.74,1.91,1,2.8l1-.78a7.65,7.65,0,0,0,2.38,2c.08-.46-.3-.85,0-1.18,1,1.48,2.52-1.73,2.75-.42.83.32.34,1.13.88,1.5,0-.15-.08-.44.08-.46l.63.94c.25-.34-.58-.65.13-1.06,1.21.71,1.93,1.19,3,.74,1.44.22-.62,1.88.6,1.69.18-.77.34-1.69,1.1-1.8.4.53.35,1.13,1,1.47L125,63c.64.05,1.14.27,1.15-.62.52.5.87.41,1.14.22,1,.63-.7,2.4-.93,2.86,1-.89,1.6-.37,2.14-1.79l-.84-.32c1.79-1.46,1.7,1.67,2.52-.83-.61.09-1.34-.54-1-1.19l.89.61c.1-.31-.51-.22-.1-.58a8.24,8.24,0,0,1,1,1.26v-.07l1.6.2a.22.22,0,1,1-.07-.44l1.05.62c-.32-.3,0-.66.48-.85,1.35-.36,1.08,2.65,2.13,1.45-.16,0-.18-.12-.34-.1l.54-.52c.12,2.5,3.18.25,3.3,2.76.77-1,.05-.6-.94-1.79l.82-.72C139.21,63.07,138.93,63.27,138.58,63Zm-10.38-.19c-.17.53-.65,0-.88-.23C127.72,62.3,127.93,61.81,128.2,62.83Zm-18.71-2.57c-.31.34-.58.48-.75.19A.76.76,0,0,1,109.49,60.26ZM57,54.29l0,0C57.34,54.08,57.53,53.94,57,54.29Zm-.58.15c-.28.06-.52.05-.6-.18a.32.32,0,0,0,0,.37C56.2,54.83,56.34,54.67,56.42,54.44Zm117.06.78.22-.24C173.83,55.24,174,55.47,173.48,55.22Z"/><path d="M110.84,61.67a1.34,1.34,0,0,0,.1-.49A.34.34,0,0,1,110.84,61.67Z"/><path d="M147.14,63.64h0a.94.94,0,0,1,0,.16Z"/><path d="M72.87,62.19a1.07,1.07,0,0,0,.44-.46C73.32,62,73.22,62.13,72.87,62.19Z"/><path d="M50.06,53.12l.7.23c-.34,0-.46.15-.63.29C50.15,53.44,50.28,53.13,50.06,53.12Z"/><path d="M44,58.63c-.1-.11-.22,0-.32-.12l0-.41C44.11,58.12,44.41,58.46,44,58.63Z"/><path d="M49.41,56.08c-.06.75-.5.5-1,.36a.27.27,0,0,0,.09,0C48.36,55.39,48.89,55.73,49.41,56.08Z"/><path d="M48.31,56.41a1.19,1.19,0,0,0-.46,0C47.79,56,48,56.3,48.31,56.41Z"/><path d="M54.48,54.14c-.23.19-.14-1-.28-.66C53.94,52.53,55.76,54.64,54.48,54.14Z"/><polygon points="49.01 58.55 49.19 57.62 49.46 58.37 49.01 58.55"/><path d="M52.9,57.87l-.79.26a.34.34,0,0,0-.21-.32C52.39,57.78,52.92,57.6,52.9,57.87Z"/><path d="M51.9,57.81a.76.76,0,0,1-.63-.15A1.72,1.72,0,0,1,51.9,57.81Z"/><polygon points="50.09 58.83 50.32 58.63 50.88 58.57 50.09 58.83"/><path d="M61.35,57.69l.86.27c.09.31-.14.51-.46.38S61.22,58,61.35,57.69Z"/><path d="M58.76,60.23c.23-.2.25-.4.38-.71l0,1.15Z"/><path d="M61.26,60.49c.09.32,1.25.92.16.84C61.33,61,60.47,60.75,61.26,60.49Z"/><polygon points="74.2 59.04 73.98 59.03 74.01 57.15 74.2 59.04"/><path d="M85.6,63.54c-1,.45-.24-1.16-1.16-.6-.24-.44.75-.45.5-.84C85.56,62.57,85.88,62.31,85.6,63.54Z"/><path d="M84.94,62.1a2.44,2.44,0,0,1-.31-.28A.87.87,0,0,1,84.94,62.1Z"/><polygon points="213.63 54.03 214.29 53.64 213.87 54.27 213.63 54.03"/><path d="M214.89,55.43l.16-1.2.39,1.08C215.29,55.26,215,55.16,214.89,55.43Z"/><path d="M125.5,65l0-.29c.1-.31.25-.33.56-.38Z"/><polygon points="134.37 64.11 134.22 64.14 134.5 63.05 134.37 64.11"/><path d="M141.82,65.5c-.31,0-.66-.2-1-.16C141.51,65.54,141.9,64.14,141.82,65.5Z"/><path d="M203.89,63.05c.29-.07.19.71.23.84C203.63,63.72,203.9,62.85,203.89,63.05Z"/><polygon points="199.08 61.29 199.17 61.61 198.46 60.84 199.08 61.29"/><path d="M194.58,61.31c.43-1.32,1.63.21,2.43-.26l.14-.3.36,1.06C196.53,61.64,195.27,60.94,194.58,61.31Z"/><path d="M192.18,64.16c.15-.51-.51-.44.56-.16a.91.91,0,0,0-.1.13A1.65,1.65,0,0,0,192.18,64.16Z"/><path d="M192.64,64.13c.48,0-.31.43,0,0Z"/><path d="M190.45,63.83l.63.46c-.13.31-.69.37-.48.59C190,64.63,190.09,64.33,190.45,63.83Z"/><path d="M189.86,62.87l.33.2C190.13,63.19,190,63.24,189.86,62.87Z"/><path d="M190.87,63.48l-.68-.41c.09-.22.1-.64.31.14C190.45,62.82,190.58,63.2,190.87,63.48Z"/><path d="M191.26,63.27c.35-.28.8-.46.18-.92C192.63,62.53,192.45,63.46,191.26,63.27Z"/><path d="M194.35,59.94l.47-.38.41.44C195,59.78,194.32,60.36,194.35,59.94Z"/><path d="M186.57,64.52c0-.28.21-.75.25-1.11l.47.32C187.05,63.92,186.6,64.1,186.57,64.52Z"/><path d="M186.82,63.41l-.69-.48C186.75,62.87,186.86,63.1,186.82,63.41Z"/><polygon points="189.75 61.41 190.88 62.42 189.53 61.4 189.75 61.41"/><polygon points="183.93 64.55 184.32 65.2 183.63 64.22 183.93 64.55"/><path d="M182.19,64.44c.29.54-.4.91-.09,1.24a2.72,2.72,0,0,1-1.25-1C181.24,64.94,181.65,64.88,182.19,64.44Z"/><path d="M180.24,64.1a3.88,3.88,0,0,1,.61.61A2.06,2.06,0,0,1,180.24,64.1Z"/><path d="M185,63.07a1.21,1.21,0,0,1-.54.8l.27-.79Z"/><path d="M184.7,63.05v0l-.59,0A5.56,5.56,0,0,0,184.7,63.05Z"/><path d="M185,63.06H185C185,63,185,63,185,63.06Z"/><path d="M187.94,62.12c-.4-.44-1.25-.91-.43-1.58C187.8,61.08,187.33,61.46,187.94,62.12Z"/><path d="M185.37,62.08l.73-.18c0,.21-.15.51.05.73Z"/><polygon points="185.01 61.83 185.37 62.08 185.09 62.14 185.01 61.83"/><path d="M181.49,63.36a1.48,1.48,0,0,0-1.05-.42,3.56,3.56,0,0,1,1.26-.24C181.76,63,181.94,63.39,181.49,63.36Z"/><path d="M183.05,63.14l-.07,0C183,63,183.06,63,183.05,63.14Z"/><path d="M176.59,62.94l.06-.14s0,.09,0,.13Z"/><path d="M181.77,62.55c.32-.15.51,0,.69.29a2.38,2.38,0,0,0-.76-.14C181.68,62.59,181.67,62.51,181.77,62.55Z"/><path d="M179.17,63.73a3.78,3.78,0,0,1,.54-.43C179.55,63.55,179.22,63.94,179.17,63.73Z"/><path d="M182.87,63.32l0,0C182.82,63.52,182.83,63.44,182.87,63.32Z"/><path d="M182.87,63.32a2.41,2.41,0,0,1-.41-.48,1.59,1.59,0,0,1,.52.26A.9.9,0,0,0,182.87,63.32Z"/><path d="M175.43,57.87c0,.74.88,1.41,1.59.63.71.55.25,3-.37,4.3,0-.32,0-.62-.74-1,.25-.4,1.6-.93,1-1.59-1-.38-.78.25-1.25.64.4-.91-1.22-1.33-1-2.67l.84.48C175.5,58.4,175.19,58.06,175.43,57.87Z"/><path d="M178,62.72l.3.09c-.34.13-.58.42-1,1-.5-.36-.6-.63-.63-.88l1.46-.1Z"/><path d="M179.67,62.82c-.23-.8-.95-1.14-.51-2,.87.06.61.67,1.13,1-1.41-.2.41.44-.61.9a2.82,2.82,0,0,0,.76.21,3.54,3.54,0,0,0-.73.36l0,0h0c.06-.1.08-.16,0-.1l0,0a1.33,1.33,0,0,0-.06-.3c-.41.16-.07.21.06.3a.5.5,0,0,1,0,.12h0l-1.41-.44A2.94,2.94,0,0,1,179.67,62.82Z"/><path d="M186.76,58.82a.36.36,0,0,0,0,.19C186.62,58.91,186.59,58.84,186.76,58.82Z"/><path d="M186.18,59.3c.1.12.19.43.52.35.29-.24,0-.38,0-.64.2.21.71.57.08,1l-.1-.11c-.57.27-1.3,1.26-1.2,1.37A6.79,6.79,0,0,1,186.18,59.3Z"/><path d="M182.88,60.86l-1.17-.39.59-.69,0,.41C182.94,60,182.8,60.54,182.88,60.86Z"/><polygon points="176.46 63.34 176.61 64.18 175.93 62.99 176.46 63.34"/><polygon points="174.93 63.24 174.99 63.97 174.58 63.53 174.93 63.24"/><path d="M88.65,54.17,88.3,54A1,1,0,0,1,88.65,54.17Z"/><path d="M91.15,54.12l.06.36C91.09,54.28,91.05,54.13,91.15,54.12Z"/><path d="M137.38,63.15c-.51.69-1.07,1.74-1,.92l.16-.8A.8.8,0,0,0,137.38,63.15Z"/><path d="M111.66,58.37l.15-.24.34.76Z"/><path d="M111.3,55.05l-.66.52A2.33,2.33,0,0,1,111.3,55.05Z"/><path d="M75,53.32l-.41-.82C75.2,52.51,74.93,52.92,75,53.32Z"/><path d="M159.27,62.94a2.31,2.31,0,0,1-1.09.48C158.71,63,159.13,62.27,159.27,62.94Z"/><path d="M89.63,62.67a.6.6,0,0,1-.3-.49C89.55,62.32,89.68,62.47,89.63,62.67Z"/><path d="M156.93,63.42c.08-.08.15-.12.23-.19a1.77,1.77,0,0,0,1,.19C157.8,63.77,157.35,64,156.93,63.42Z"/><path d="M25.4,54a1.09,1.09,0,0,0-.11.1C25.28,54,25.33,54,25.4,54Z"/><path d="M11,62.07a2.43,2.43,0,0,0,.59.06A.81.81,0,0,1,11,62.07Z"/><path d="M168.78,63.59c.32,0,.05.08,0,0Z"/><path d="M170.35,60.42a.67.67,0,0,1-.13-.39A1,1,0,0,0,170.35,60.42Z"/><path d="M153.7,58.43h0C153.77,58.28,153.75,58.31,153.7,58.43Z"/><path d="M169.26,63.22a1.52,1.52,0,0,1-.41.24A1.73,1.73,0,0,1,169.26,63.22Z"/><path d="M169.2,63.6l.28-.08C169.52,63.66,169.49,63.74,169.2,63.6Z"/><path d="M168.32,63.54a1.34,1.34,0,0,0,.53-.08c-.06,0-.09.1-.07.13Z"/><path d="M52,56.13l-.07.07C51.57,55.87,51.71,55.92,52,56.13Z"/><path d="M128.94,54.83l0,0,0,0Z"/><path d="M127.77,54.24c.5,1,.78.87,1.16.66l-.39,2.31Z"/><path d="M83.62,54.09c-1.08,1-2.09-.28-2.67-.93-.41.36.33,1.88-.84,1.46-1.65-.48.31-1.83-.68-2.12l-.72,1.3c-1.26-1-2.21-.11-3.28.06a.76.76,0,0,1-.42-.38c-1.13.56-2.38-1.27-3.24-.84.21.26-.48.81-.59,1.13L69.64,53c.68.34.65,1.09.78,1.82-.49-.08-.71-.49-1-.59.2.27.4.54.14.87L67.9,53.83a.7.7,0,0,1,.44-.21c-.41,0-1.28-.48-1.86.13,0,.29.25.55.3.84.49-.82.76-.12,1,.44-1.11-.13-.27.19-.81.72-.79,0-1.12-1-.91-1.64-.89.28-1.17.47-2.08-.28l.17,1-.84-.32L64,55.76c-1.6.69-.29-1.74-2.08-1.16v.89c-.69-.34-.92-1.85-1.46-.78-.66-.54,1.14-1.26-.42-1.44a2.82,2.82,0,0,1-1.32,1c-.5-.41.38-1.06.7-.94-2.36-.42-1.47,3-3.57,1.88.72-.64-.61-1.73,1.1-1.7-.81-.53-1.6,1.29-2.45.32L55.05,55c-.31,0-.65-.39-.82-.53l.07.87c-1-1.53-2,.74-2.58-1.28.43,1.59-.78-.09-1.2.53.86,1.11,2.48,0,2.59,1.43-.4.44-.76-.27-1.15.16a2.53,2.53,0,0,1,.77.9c-1.33.82-2.08-.89-2.89-1.27l1.42.34c-.11-1.46-.64-.25-1-1.4-.71.79-1.27-.35-1.85.13.16,0,.17.14.32.13-1.55,0-2,2.35-2.6,2.39s-1.76-.61-1.34-1.23c-.5-.4,2.06.44,1.17-1.45-.88,2.19-1.82-.82-3.75.67.84.78-.5,1.24.26,1.82-.92-.17-1-.5-1.37-1.12l-.28.69c-1.2-1.54-.28-1.36-2.1-2.18.61.53-.73,1-.26,1.47a1.62,1.62,0,0,1-1.37-.57l.07.1c-1.85-.36-1.51.86-3.19.1l.16-.41c-2.19-1.12-5-.4-7.25-.91l.8-.34c-.24.21-1.53-.65-2.24,0,.14,0,.39.23.52.17a1.34,1.34,0,0,1-.85,1.27l-.21-.71-.22.55c-.83,0,.25-1-.59-1-.48,2-3.59.27-4.31,2.05-.56-1.47,1.58-.21,1-1.54a1.66,1.66,0,0,1-.91.61L20,54.5c-2.53.5-3.49,1.25-5.73,1.07l.09.18c-.8.34-1.24.19-1.59-.57-.17.41.41.62.1,1-1.41-2.25-2.82,1.64-3.68.07.11,1.77-1.73,3.46-1,4.84l-.58-.21c.19,1.17,1.82,0,2.15,1.25l1.82-1.22c-.06.44.24,1.09,0,1.24.45,0,.84.08.25.71,4.35-3,8.82-.09,13.11-1.67.29.1.12.51,0,.79.79-1.13.75.58,1.18.74l1.16-1.62c.47.48.1,1,.14,1.3,2.18.33,4.31-1.25,6.08-.3.57-.58-.13-1.3.61-1.5-1,1.67,2.17.78,1.52,2,.72-1.78,2.68-.38,2.36-2.85.89-.15.73,1.05.48,1.27a3.12,3.12,0,0,1,2.71.67c.56-.57,4.72.62,5.64-1.24-.63,1.2.05.62.65,1.15l-.54,1.07,1.36-.12c.27.1.35.06.35,0,.23-.05,0-.61.53-.88.93-.07,1,.51,1.48,1.07l-.14.15.63.1c.46,0-1.64-1.06-.13-1.6,0,.29.91,1.7,1.32.93-.77.06-.68-.68-.39-1L53,61.14l-.36,1.35c3.1-.07,6.32-1,9.62-1,0-1.18,2.34-.06,2-1.8l-.12.17c-.81-.17.23-1.37.89-1.18-.69.56,1.24,1.75-.44,2l1.3.82c.72,3.33,3.46-.28,5.43.79a.71.71,0,0,1-.19-.41c1.75,1.07,3.92-.9,4.33-.37l.15-.91c1.5,1.4,1.67,1.52,3.46,1,0-.14-.23-.41,0-.6.43.68.86,1.35,2.08,1.17l0-.29L83.1,62c0-2.82,3.27,1.73,3.84-1.33.38.82,1.77,1.08,2.39,1.47a.68.68,0,0,1,.15-.37c.73,1.52,2.12-.48,2.93-.31.53.36.3.85.07,1.33,1-1.2,2.89,1.34,3.27.83.77-.12.29-1.08.5-1.71,1.14.27-.19,2.56,1.34,1.43-.18-.12-.51-.22-.38-.39.58-.23,1.63-3.48,2.21-2.82l-.38.5c1.06.73,2.52-2.3,2.69-.39l-.1.88c1.83-1.17.78.35,2.64-.68l0-.14c.82.17,1.26-.94,1.65.48l-.28.2a8.48,8.48,0,0,0,2.13-.07c.12.14.61.35.76,0,0,1.18,2.38.55,2.83.48-.81-.18-.42-.68-.19-1.16.48,1,.81,1.06,1.47.36.09,1.48.23,3,1.53,3.13-.2-.22-.52-.35-.39-.65s.44,0,.54.14c.13-.3-.29-.54-.14-1,.88,1.41,1.53.1,2.81.6-.41-.44-.06-.73.09-1.24.1,1.67,1.75-1.45,1.26.71,2.51-1.3,6.37-.1,7.34-1.49.27-.6,1,.38,1.4.41L127,60.5c1.22,1.33,1,.5,2.39,1.83-.6-.87-.35-1.27.25-1.95l1,1.52.19-1.14c.4.45.86.27,1.31.09-.22,0-.1-.11-.09-.32.22,1.58,2,1.39,2.25,2.14.45-1.53,1.19.39,1.51-1.05a2.26,2.26,0,0,0,.53.54c-.21.67-.29,1.41.11,1.09l.1,0,.17-.89a3,3,0,0,0,1.09.33,1.78,1.78,0,0,0-.41.44c.17-.13.33-.3.49-.44H138a.13.13,0,0,0-.09,0,.58.58,0,0,1,.86,0c1.42-1.36,3.16,1.87,4.72,0-.24.19-.57.27-.66,0,1.31.08,2.61-1.19,3.44-.51l-.06.83a5.78,5.78,0,0,0,2.47.59l.05.93c1.12-.34,3.53,1.17,4.22-.76.27.75,1.55-.22,2.19,0l.16-.72a2.48,2.48,0,0,1,1.85.23c1.69-1.49,3.25,0,4.73-.12V62.9l1.5.52c-.39-.65.3.44.75.26a1.55,1.55,0,0,0,1.81-.3l.95,0c-1.06-.49.08-1,.14-1.87l.61.67c.24-.4-.39-.65.06-.83.4.44,1.61.42,2,1.27a1.27,1.27,0,0,1-.39.57s0,0,0,0l-.05,0,.06,0a1.45,1.45,0,0,1,.16.33c.76-.18.48.16.46.53.86-1.29,1.34-.42,2-1.94-.9,1.71,2,0,1.42,1.65.64-1.31.44-.07.85-1.18-.91.35-1.81-.85-2.53-1.42l.71-.78c-.46-1.49-1.6.55-2,0,.29.34.93,0,.95-.33l-.19,1.13c-1,.45-1.83-.43-2.55-1,.68-.38-.83-.69-.34-1.49l.54.14c.25-.4-.27-.74-.58-1.07-1.7.82-4.83.1-5.44,1,.35-.29,1,0,1.29.29l-.8.47c.65,0,1.17-1,2.13-.59-.17.72.53,1.7-.2,2.69-1.84,1.13-1.51-1.86-3.72-1.59-.21-.22.46,1.17-.72.78A4.58,4.58,0,0,1,158.17,57c.62.46,1.87,1.37,2.06.24-.62-.46-1.7-.73-1.75-1.46-.65,1.3,1.17.38.33,1.47-.44,0-.63-.45-.83-.68.29.54-.39.91-.53,1.22-1.41,0-2.23.58-3.75.69a2.13,2.13,0,0,0-.21.93c-.74-.36-1.8-2.31-1.52-3.13-.87,0-.92.57-1.66.21,1.18-1.17-.23.19-.36-1.07-.76-.15-.26.61-.61.9a1.74,1.74,0,0,1-.45-.89c-.47.95.9,2.49.35,3.6A11.47,11.47,0,0,1,147.12,61a17.76,17.76,0,0,1,.29-6.87c-.06-.73-.72.79-1,.87-1,1.18-1.47-.93-2.28-.46l.62.66c-.14.3-1.32-.09-1.5-.51,0,.41.61,2.13.24,2.62-1.44.22-2.8-2.07-2.71-3.3l2.2,1.28c.08-1-1.56-1-1.47-2.28l-2,.37c.26,0,1,.33.74.9-.88-.06-.46.18-1,.66a39.36,39.36,0,0,1,3.49,6.28l-1.05-.69-.26.6c-1.37-.81-2.6-4.87-3-5.93-.79.26-.51,2.47-.33,2.9-1.54.11-1.52-3.12-3.08-2.81l.58-.48c-.36-.21-1.7.24-1.56-.17-.3.59-.59,2-.24,2.35L132.33,55a14.16,14.16,0,0,1,.15,2.31c-.55.07-.94-2-.59-2.34-1.08,1.28-.81.58-1.69,2.09-.32-.13,0-1.89.26-2.08a1.23,1.23,0,0,0-1.49-.06c1.2.76.33,4,.55,5.33L127,54.91a19.48,19.48,0,0,1,.27,2.21c-.21-1.57-3.16-1.77-4.6-1.56l.22,0c.29.54-.95,1-1.46.42.09.32.21.22.42.24-1,1.18-1.24-2.38-2.22-1,.88-.15,1.06.48,1,1.11-.72-.57-2.41,0-2.06-1.8-.47.38-.89.15-.85,1.08l-1.79-1.1a.55.55,0,0,1-.27.87c1-.25,2,1.48,2.5.26,0,1.15-.35,1.76.13,2.73-1.93-.55-3-2.5-4.22-3.82l-1.7.82-.07-.52-.3,1.31c-.21-.3-.35-.56-.39-.44a.74.74,0,0,0,.1.49.79.79,0,0,1-.43-.32,4.62,4.62,0,0,0,.56,2.21c.15-.25.31-.5.47-.73.33.66.57,1.34.1,1.78-.06-.09-.15-.19-.23-.29.21.5.34.9.18,1.1l-1.3-.64a10.29,10.29,0,0,0,.63-1c-.82-.86-1.75-1.91-1-2.8l-1,.78a7.8,7.8,0,0,0-2.39-2c-.07.45.3.84,0,1.18-1-1.48-2.53,1.72-2.75.42-.84-.32-.35-1.13-.88-1.5,0,.15.07.44-.08.46L103,54c-.26.33.58.65-.13,1.06-1.22-.71-1.93-1.19-3-.74-1.45-.22.62-1.88-.61-1.69-.18.77-.33,1.69-1.1,1.8-.4-.53-.35-1.13-1-1.47l0,1.18c-.63-.05-1.14-.27-1.14.62-.52-.5-.88-.41-1.15-.22-1-.63.71-2.4.93-2.86-.94.88-1.6.37-2.14,1.79l.84.32c-1.79,1.46-1.69-1.67-2.52.83.61-.09,1.35.54,1,1.19l-.88-.61c-.11.31.5.22.1.58a8.94,8.94,0,0,1-1-1.26v.07l-1.6-.2a.22.22,0,1,1,.07.44l-1-.62c.32.3,0,.66-.48.85-1.35.36-1.08-2.66-2.13-1.45.15,0,.17.12.33.09l-.54.53c-.11-2.5-3.18-.25-3.29-2.76-.77,1-.06.6.93,1.79l-.82.72C83,54,83.26,53.84,83.62,54.09ZM94,54.27c.18-.52.65.06.89.24C94.47,54.81,94.26,55.29,94,54.27Zm18.71,2.58c.31-.34.58-.49.76-.19A.78.78,0,0,1,112.7,56.85Zm52.5,6a.05.05,0,0,0,0,0C164.86,63,164.67,63.16,165.2,62.82Zm.57-.15c.28-.06.53-.05.6.18a.34.34,0,0,0-.05-.38C166,62.27,165.85,62.43,165.77,62.67ZM48.71,61.89l-.21.23C48.36,61.86,48.23,61.63,48.71,61.89Z"/><path d="M111.35,55.44a1.52,1.52,0,0,0-.1.48A.33.33,0,0,1,111.35,55.44Z"/><path d="M75.05,53.47h0a.45.45,0,0,1,0-.16Z"/><path d="M149.32,54.92a1,1,0,0,0-.43.46C148.88,55.16,149,55,149.32,54.92Z"/><path d="M172.13,64l-.7-.23c.34,0,.46-.15.63-.3C172.05,63.67,171.91,64,172.13,64Z"/><path d="M178.23,58.47c.11.11.22,0,.32.13l0,.41C178.09,59,177.78,58.65,178.23,58.47Z"/><path d="M172.78,61c.06-.75.5-.5,1-.36a.27.27,0,0,0-.09,0C173.83,61.72,173.31,61.37,172.78,61Z"/><path d="M173.89,60.7a1.14,1.14,0,0,0,.45,0C174.4,61.14,174.16,60.8,173.89,60.7Z"/><path d="M167.71,63c.23-.19.15,1,.28.65C168.25,64.58,166.43,62.47,167.71,63Z"/><polygon points="173.18 58.56 173 59.48 172.73 58.74 173.18 58.56"/><path d="M169.29,59.24l.79-.26a.34.34,0,0,0,.21.32C169.81,59.33,169.28,59.51,169.29,59.24Z"/><path d="M170.29,59.3a.8.8,0,0,1,.64.15A1.72,1.72,0,0,1,170.29,59.3Z"/><polygon points="172.11 58.28 171.87 58.47 171.32 58.54 172.11 58.28"/><path d="M160.84,59.42l-.86-.27c-.09-.32.15-.51.47-.38S161,59.11,160.84,59.42Z"/><path d="M163.44,56.88c-.24.19-.25.4-.38.71l0-1.15Z"/><path d="M160.93,56.61c-.08-.31-1.24-.91-.16-.84C160.86,56.09,161.72,56.35,160.93,56.61Z"/><polygon points="148 58.06 148.22 58.08 148.18 59.96 148 58.06"/><path d="M136.6,53.57c1-.46.24,1.16,1.16.59.24.45-.76.46-.51.85C136.64,54.54,136.31,54.8,136.6,53.57Z"/><path d="M137.25,55a1.91,1.91,0,0,1,.31.28A1.29,1.29,0,0,1,137.25,55Z"/><polygon points="8.56 63.08 7.9 63.47 8.33 62.84 8.56 63.08"/><path d="M7.3,61.68l-.15,1.2L6.76,61.8C6.9,61.85,7.19,62,7.3,61.68Z"/><path d="M96.69,52.1l0,.29c-.1.31-.25.33-.56.38Z"/><polygon points="87.82 52.99 87.97 52.97 87.69 54.05 87.82 52.99"/><path d="M80.38,51.61c.3,0,.66.2,1,.15C80.68,51.57,80.29,53,80.38,51.61Z"/><path d="M153.38,108.83c-.12.2-.59-.42-.71-.49C153.06,108.2,153.51,109,153.38,108.83Z"/><polygon points="157.33 107.5 157.07 107.31 158.01 107.49 157.33 107.5"/><path d="M159.89,105.05c.67,1.19-1.07.73-1.21,1.5l.13.29-.93-.57C158.55,105.86,159.75,105.69,159.89,105.05Z"/><path d="M159.3,101.68c.27.46.6,0-.21.42,0-.07,0-.1,0-.15A1.16,1.16,0,0,0,159.3,101.68Z"/><path d="M159.06,102c-.3.23-.12-.48,0,0Z"/><path d="M160.51,101h-.67c-.14-.29.13-.64-.14-.69C160.24,100.14,160.37,100.43,160.51,101Z"/><path d="M161.51,101.36l-.32,0C161.14,101.27,161.15,101.2,161.51,101.36Z"/><path d="M160.52,101.47l.67-.07c.1.2.38.52-.28.06C161.21,101.71,160.87,101.51,160.52,101.47Z"/><path d="M160.43,101.83c0,.39-.13.77.54.76C160.16,103.11,159.63,102.34,160.43,101.83Z"/><path d="M161,105.92v.53l-.54-.1C160.69,106.4,160.69,105.6,161,105.92Z"/><path d="M162.26,98.39a8.1,8.1,0,0,1,.61.94h-.48C162.39,99.07,162.53,98.7,162.26,98.39Z"/><path d="M162.87,99.33l.73,0C163.29,99.68,163.06,99.57,162.87,99.33Z"/><polygon points="162.58 102.36 161.24 102.24 162.71 102.26 162.58 102.36"/><polygon points="163.74 96.93 163.07 96.67 164.14 97.01 163.74 96.93"/><path d="M164.81,96.07c-.53-.23-.4-.87-.8-.95a2.25,2.25,0,0,1,1.38,0C165,95.2,164.81,95.46,164.81,96.07Z"/><path d="M166.16,95.26a3.54,3.54,0,0,1-.77-.11A1.81,1.81,0,0,1,166.16,95.26Z"/><path d="M164.17,98.57a1.32,1.32,0,0,1-.24-.88l.39.72Z"/><path d="M164.33,98.43v0l.3-.35Z"/><path d="M164.14,98.61l0,0C164.21,98.64,164.22,98.66,164.14,98.61Z"/><path d="M163.12,100.87c.53.1,1.34,0,1.34.91C163.92,101.55,163.92,101,163.12,100.87Z"/><path d="M164.62,99.5l-.29.53c-.14-.16-.27-.45-.54-.5Z"/><polygon points="165 99.49 164.62 99.5 164.73 99.31 165 99.49"/><path d="M166,96.48a1.09,1.09,0,0,0,.89-.26,2.32,2.32,0,0,1-.55.85C166.08,96.92,165.67,96.7,166,96.48Z"/><path d="M165.21,97.48h.07C165.3,97.54,165.3,97.58,165.21,97.48Z"/><path d="M169,94.13l.06.14-.1-.09Z"/><path d="M166.35,97.22c-.08.28-.32.24-.59.16a1.68,1.68,0,0,0,.53-.31C166.38,97.14,166.43,97.19,166.35,97.22Z"/><path d="M167,95a3.1,3.1,0,0,1,0,.61C166.93,95.29,166.85,94.83,167,95Z"/><path d="M165.19,97.26s0,0-.05,0C165.08,97.08,165.13,97.15,165.19,97.26Z"/><path d="M165.19,97.26a1.77,1.77,0,0,1,.57.12,1.28,1.28,0,0,1-.48.09A.74.74,0,0,0,165.19,97.26Z"/><path d="M173.19,97.17c-.54-.5-1.47-.54-1.34.42-.78,0-2.17-2-2.75-3.32a1.16,1.16,0,0,0,1.15.35c.13.43-.28,1.55.53,1.7.8-.25.27-.61.27-1.15.4.88,1.6.31,2.41,1.39l-.81.11C172.79,96.83,173.19,96.91,173.19,97.17Z"/><path d="M168.36,95.07l-.23.09a2.34,2.34,0,0,0-.09-1.27,1.28,1.28,0,0,1,1,.29l-.77.86Z"/><path d="M167.37,95.88c.68.46,1.32.31,1.66,1.18-.54.43-.81-.15-1.34-.12.94-.62-.54-.1-.27-1a1.48,1.48,0,0,0-.58.26,2.91,2.91,0,0,0,.17-.66l0,0h0c0,.11.06.16.06.08h0a1.88,1.88,0,0,0,.24.18c.12-.34-.1-.18-.24-.18l-.09-.08h0l1.1-.45C168,95.41,167.81,95.59,167.37,95.88Z"/><path d="M166.07,102.62a.55.55,0,0,0-.1-.16C166.08,102.48,166.15,102.51,166.07,102.62Z"/><path d="M166.07,102c-.14,0-.41-.21-.54,0s.26.27.44.47c-.26,0-.8,0-.71-.65l.14,0a2.68,2.68,0,0,0-.27-1.65A8.15,8.15,0,0,1,166.07,102Z"/><path d="M166.88,99.05l.94-.36.13.83-.27-.32C167.41,99.68,167.15,99.23,166.88,99.05Z"/><polygon points="168.84 93.77 168.17 93.24 169.38 93.74 168.84 93.77"/><polygon points="169.78 93.02 169.25 92.52 169.78 92.62 169.78 93.02"/><path d="M209.51,47l-.09-.33A1,1,0,0,1,209.51,47Z"/><path d="M211.08,48.14l-.19.31C210.94,48.24,211,48.1,211.08,48.14Z"/><path d="M191.27,72.75c-.18-.77-.59-1.84-.06-1.21l.47.66A.55.55,0,0,0,191.27,72.75Z"/><path d="M209.25,62.3l.09.25c-.27-.12-.51-.24-.73-.36C208.8,62.23,209,62.27,209.25,62.3Z"/><path d="M212,64.3l.14-.85A1.8,1.8,0,0,1,212,64.3Z"/><path d="M201.62,39.6l.25-.83C202.26,39.08,201.83,39.27,201.62,39.6Z"/><path d="M178.92,84.75a1.69,1.69,0,0,1,.29-.93C179.23,84.43,179.46,85.16,178.92,84.75Z"/><path d="M204.82,54.1a.6.6,0,0,1,.13-.53A.53.53,0,0,1,204.82,54.1Z"/><path d="M179.93,83.14a2.25,2.25,0,0,1,0,.26,1.19,1.19,0,0,0-.72.42C179.2,83.36,179.3,83,179.93,83.14Z"/><path d="M170.67,15.87a.59.59,0,0,0-.13,0C170.6,15.8,170.63,15.82,170.67,15.87Z"/><path d="M156.74,15.13a1.49,1.49,0,0,0,.33.34C157,15.46,156.86,15.37,156.74,15.13Z"/><path d="M173.05,89.43c-.22.14-.09,0,0,0Z"/><path d="M174.33,92.58a.83.83,0,0,1,.35.22A1.05,1.05,0,0,0,174.33,92.58Z"/><path d="M185.2,85l0,0C185.27,85.16,185.26,85.13,185.2,85Z"/><path d="M173,90a1.09,1.09,0,0,1,.07-.4A1.74,1.74,0,0,1,173,90Z"/><path d="M172.8,89.65l-.11.21C172.58,89.78,172.54,89.7,172.8,89.65Z"/><path d="M173.34,89.22a.81.81,0,0,0-.24.34c0-.07,0-.12,0-.13Z"/><path d="M185.69,30.54l-.09,0C185.61,30.15,185.67,30.26,185.69,30.54Z"/><path d="M201.82,74.22h0v0Z"/><path d="M202.89,74c-1-.45-1-.21-1.11.15l-1.37-1.89Z"/><path d="M206.46,44.43c-1.32.31-1.11-1.23-1.06-2-.48.08-1,1.63-1.44.74-.71-1.19,1.33-1.28.91-2l-1.25.67c-.16-1.4-1.3-1.17-2.06-1.56a.67.67,0,0,1,0-.5c-1-.12-.68-2.16-1.47-2.25,0,.31-.81.4-1.07.6l-.45-1.39c.21.61-.28,1.18-.65,1.8-.25-.29-.14-.72-.28-1,0,.3-.08.61-.45.75l-.23-1.76a.54.54,0,0,1,.4.05c-.24-.2-.49-1-1.23-.81-.14.25-.19.56-.34.81.81-.4.55.28.36.84-.61-.65-.29,0-.95.17-.47-.41-.06-1.35.46-1.74-.72-.21-1-.2-1.11-1.23l-.53.88-.31-.66-.35,1.3c-1.42-.25.89-1.51-.56-1.93l-.56.69c-.21-.6.58-1.89-.41-1.32-.07-.74,1.49-.42.64-1.33a2.36,2.36,0,0,1-1.42.12c-.06-.56.89-.64,1-.39-1.2-1.48-2.8,1.67-3.37-.28.84-.15.7-1.65,1.74-.79-.18-.81-1.79.23-1.72-1l-.36,1.16c-.2-.13-.16-.62-.17-.81l-.51.72c.31-1.72-1.66-.39-.79-2.27-.72,1.45-.42-.46-1.07-.18-.16,1.3,1.55,1.19.71,2.39-.52.15-.3-.58-.81-.44a2.5,2.5,0,0,1-.08,1.09c-1.33,0-.74-1.72-1-2.41l.67,1c.84-1.2-.24-.51.23-1.6-.93.27-.57-.9-1.22-.8.1.06,0,.18.11.25-.93-.79-2.68.87-3.08.6s-.71-1.34-.07-1.62c-.05-.56,1,1.35,1.63-.56-1.9,1.28-.61-1.54-2.73-1.31,0,1-1.07.72-1,1.55-.46-.59-.28-.86-.15-1.55l-.59.4c.21-1.79.67-1.2.06-2.73,0,.72-1.07.42-1.08,1a1.16,1.16,0,0,1-.49-1.11l0,.11c-.92-1.18-1.47-.06-2-1.48l.36-.25c-.66-1.94-2.82-2.74-3.9-4.25l.7.12c-.28.05-.53-1.26-1.37-1.1.06.1.1.36.21.39-.3.35-.89.75-1.3.57l.31-.65-.48.32c-.52-.4.78-.67.26-1.07-1.56,1.34-2.38-1.55-3.93-.51.56-1.42,1.1.61,1.54-.73a1.41,1.41,0,0,1-.94,0l.66-.59c-1.86-.85-2.92-.73-4.19-2l-.06.19c-.7-.12-.87-.46-.62-1.23-.35.24-.13.69-.55.82.53-2.45-2.75-.09-2.31-1.74-1,1.44-3.21,1.86-3.59,3.32l-.23-.45c-.61,1,1.1.91.54,2l1.88-.07c-.3.32-.53,1-.8,1,.26.24.47.48-.29.68,4.53-.2,5.49,4.25,9.12,5.1.11.23-.25.47-.49.63,1.19-.5.1.83.27,1.16l1.72-.7c0,.6-.55.81-.73,1.08,1.15,1.33,3.44,1.13,3.94,2.75.71-.18.73-1.09,1.31-.89-1.66.82.85,1.68-.29,2.29,1.56-1,1.89,1,3.23-1.08.64.32-.2,1.18-.5,1.23a2,2,0,0,1,1.25,1.85c.71-.18,2.53,2.79,4.25,1.78-1.13.64-.36.52-.31,1.22l-1,.57.91.58c.11.21.18.22.24.14s.35-.51.88-.43c.61.4.28.88.25,1.56l-.19,0,.33.39c.3.2-.35-1.63.92-1.32-.17.24-.5,1.78.23,1.37-.51-.33,0-.86.38-1l.71.47-1.06.88c1.95,1.46,4.54,2.28,6.52,4,.71-.94,1.48,1.1,2.38-.4l-.19.06c-.39-.53,1-1,1.29-.48-.77.1-.32,2-1.52,1.35l.29,1.28c-1.63,3,2.31,1.48,2.85,3.28a.8.8,0,0,1,.14-.42c.41,1.7,3,1.22,2.89,1.83l.67-.64c0,1.83.08,2,1.53,2.44.08-.13.11-.43.41-.45-.16.74-.31,1.49.55,1.94l.15-.25,1.08,1c1.75-2.22.94,3,3.2.84-.28.82.42,1.71.56,2.32a.7.7,0,0,1,.32-.22c-.25.77.15.94.66,1a1.56,1.56,0,0,0,.66-.08c.18,0,.34,0,.38.06-.08.4-.54.65-.94.94.57-.31.56.11.32.46s-.64.67-.36.58a10.76,10.76,0,0,0,1.89-.68c.05.38-2.81,1-1.24.84.11-.07.15-.17.36-.21s1.32-.22,2.42-.31,2.14-.09,1.85.09l-.83,0c-.24.25.64.33,1.49.47s1.59.3.69.4l-.45,0h-.57l-.79,0h.09c.5.28.25.39,0,.45s-.44.12-.14.53h.2c-.54.27.58.73-1.29.54l-.12-.14c-.51.32-.41.38-.73.77-.19,0-.57.07-.33.25-1.18-.51-1.28.46-1.42.7.4-.15.69.27.95.69-1-.41-1-.52-.95.4-1.07-1-2.22-2.09-3-1.44.27,0,.54,0,.67.26s-.27.22-.4.19c.13.29.53.23.8.68-1.47-.54-.94.76-2,1.09.53.1.53.5.8.95-1.21-1.16,0,2-1.21.17-.54,2.29-3.57,3.51-3.17,5.05.27.58-.81.25-1.07.46l.53.5c-1.61-.3-.88.16-2.62,0,.94.31,1.07.73,1.21,1.55L196,70l.66.92c-.53-.1-.67.27-.8.65.13-.11.13,0,.27.18-1.21-1-2.09.06-2.76-.33.8,1.35-.94.36-.14,1.57a2.27,2.27,0,0,0-.67-.1c-.34-.6-.81-1.18-.81-.73l-.07,0,.51.74a2,2,0,0,0-.85.36,1.51,1.51,0,0,0-.07-.55,5.83,5.83,0,0,0,0,.59.2.2,0,0,0-.08.08.11.11,0,0,0,.08,0c0,.28-.07.49-.48.47.13,1.75-3.09.35-2.69,2.55,0-.26.13-.5.4-.32-.81.64-.67,2.27-1.61,2.22l-.54-.63a3.8,3.8,0,0,0-1.82.91l-.67-.65c-.4.85-2.82,1.06-1.88,2.84-.67-.4-.74,1-1.27,1.16l.4.61a1.57,1.57,0,0,1-1.21.83c.06,2-1.85,1.77-2.62,2.65l.14.16-1.21.44c.67.25-.48-.17-.61.2-.51,0-.83.56-.83,1.2l-.52.55c.94-.22.67.79,1.21,1.42l-.81-.15c.14.42.67.26.54.63-.54-.1-1.21.57-2,.16A1.52,1.52,0,0,1,173,90c.07,0,.06,0,0,0v0a1.89,1.89,0,0,1-.33-.15c-.3.54-.38.15-.62-.14.4,1.41-.48,1,.19,2.49-.66-1.72-1.14,1.06-1.94-.42.54,1.29-.21.28.33,1.31.27-.74,1.61-.36,2.42-.34l.13,1c1.28.82.53-1.27,1.12-1.14-.4-.09-.53.5-.31.76l-.67-.93c.27-.88,1.34-.68,2.14-.66-.13.64.94,0,1.21.89l-.41.2c.14.42.67.39,1.08.46.4-1.52,2.68-2.69,2.42-3.67,0,.4-.54.57-.94.49l.13-.77c-.4.32,0,1.33-.8,1.58-.4-.61-1.48-1-1.74-2.06.27-1.81,2.14.54,3.22-.86.27,0-1.07-.6-.13-1a4.8,4.8,0,0,1,4.15,1.45c-.67,0-2,0-1.34,1,.67,0,1.48-.39,2,.11-.53-1.3-.94.36-1.2-.89.27-.22.67,0,.94,0-.54-.23-.41-.87-.54-1.16.8-.78.87-1.64,1.66-2.54a2.25,2.25,0,0,0-.52-.78,4.23,4.23,0,0,1,3,1.44c.54-.43.14-.91.81-1,.13,1.49,0-.26.94.58.54-.3-.27-.58-.27-1a2,2,0,0,1,.87.4c-.39-.94-2.23-1.32-2.68-2.42a10.58,10.58,0,0,1-.2-2.64,22.58,22.58,0,0,1,4.56,5.14c.54.5-.13-1,0-1.2-.26-1.38,1.48-.12,1.62-.89l-.81-.16c-.13-.29.81-.64,1.21-.43-.27-.32-1.81-1.22-1.95-1.78.68-.93,3,0,3.83.93l-2.15.26c.67.8,1.61-.09,2.41.86l.91-1.37c-.17.12-.82.33-1-.25.53-.44.13-.38.13-1A43.62,43.62,0,0,1,189.59,77l1.08-.07-.27-.58c1.34-.15,4.83,2.13,5.77,2.7.27-.61-1.41-2.07-1.81-2.28.81-.91,3,1.44,3.69.37v.67c.35,0,.81-1.1,1-.72-.23-.6-1-1.76-1.48-1.84l2.22.76c-.27,0-1.41-1.41-1.68-1.59.27-.35,1.95,1,1.95,1.37a8.28,8.28,0,0,0-.47-2.42c.27-.09,1.28,1.38,1.28,1.65.74,0,.82-.44.89-.77-1.21.1-2.92-2.71-4-3.56l5.1,2.44c-.27-.18-1.54-1.3-1.68-1.45,1.21,1,3-.42,3.7-1.36l-.13.11c-.54-.24-.13-1.23.53-1.1-.26-.18-.26-.05-.4.06-.26-1.38,2.35,1.05,2-.49-.41.59-.94.22-1.35-.25.81,0,1.35-1.35,2.42.19,0-.54.4-.6-.27-1.25l1.78-.17c-.2-.07-.64-.4-.43-.78-.41.72-2.15,0-1.62,1.16-.8-.81-1-1.46-1.94-1.9,1.48-.66,3.42.19,5,.49l.41-1.52.4.34c-.25-.37-.49-.75-.71-1.14.37.06.68.13.62,0a.79.79,0,0,0-.43-.26,1.13,1.13,0,0,1,.56-.1,6.56,6.56,0,0,0-2-1.13l.22.79c-.64-.3-1.25-.66-1.29-1.23l.34.08c-.47-.25-.82-.47-.86-.69l1.11-.18.39,1c1.07.17,2.7.07,2.85,1.15.06-.42.1-.81.12-1.18a9.07,9.07,0,0,0,1.92-.27c.45-.12.87-.27,2-.7-.43-.23-1.17-.07-1.31-.39,1.22-.14,1.32-.83,1.19-1.33s-.43-.87.5-.86c1.08-.58,1.77-.12,2.73-.52-.22,0-.66,0-.55-.11l1.88-.48c-.26-.23-1.44.46-1.4-.14.74-.35,1.41-.67,2-1-.16-.49-.59-1-1.63-1.41-.56-.59.2-.59.95-.52s1.5.19.68-.34c-1.22,0-2.57.11-3.45-.44.25-.48,1-.64.66-1.36l-1.29.48c-.57-.52-.87-1-1.79-.63a1,1,0,0,0-.88-1c-.17-.54.52-.75,1.42-.78s2,.15,2.4.16c-2-.46-2.3-1.35-4.1-1l.6.88c-1.55-.3-1.58-.86-1.69-1.31s-.21-.74-1.48-.15c.68.42.87,1.37,0,1.54-.1-.33-.21-.68-.34-1-.3.15.3.51-.31.48a14,14,0,0,1-.07-1.66l0,.07-.86-.94c.22.11,0,.49-.22.38l-.26-1c0,.39-.42.51-.83.43-1.05-.38,1-2.61-.41-2.18.11,0,0,.18.15.24l-.66.15c1.49-2-1.8-1.76-.31-3.78-1.1.42-.41.45-.54,1.86l-.95.16C206.1,44.08,206.39,44.07,206.46,44.43Zm7.29,6c.63-.17.6.55.65.82C213.72,51.12,213.13,51.27,213.75,50.46ZM209.7,64c.05.41,0,.67-.31.55C209.4,64.2,209.52,64,209.7,64ZM175.63,88.05l0,0C175.68,87.71,175.69,87.51,175.63,88.05Zm-.23.42c-.12.2-.27.32-.47.2a.42.42,0,0,0,.29.24C175.55,88.88,175.52,88.68,175.4,88.47Zm4.71-55-.28.07C179.91,33.28,180,33,180.11,33.47Z"/><path d="M211.63,64.08a1.36,1.36,0,0,0-.29-.4A.31.31,0,0,1,211.63,64.08Z"/><path d="M201.57,39.76h0a1.09,1.09,0,0,1,.08-.15Z"/><path d="M190.12,85.19a1,1,0,0,0-.07-.57A.4.4,0,0,1,190.12,85.19Z"/><path d="M170.86,91l.56-.22c-.22.16-.16.36-.16.56C171.13,91.14,171,90.85,170.86,91Z"/><path d="M171.17,98.26c-.13,0-.13.11-.26.08l-.27-.31C170.91,97.81,171.31,97.89,171.17,98.26Z"/><path d="M172.53,93.46c.48.57.05.62-.32.79a.08.08,0,0,0,0,0C171.45,93.52,172,93.49,172.53,93.46Z"/><path d="M172.13,94.29a.6.6,0,0,0-.28.24C171.53,94.25,171.9,94.36,172.13,94.29Z"/><path d="M174.09,89.3c0,.27-.75-.62-.61-.32C172.67,88.43,175.16,89,174.09,89.3Z"/><polygon points="174 95.46 173.46 94.7 174.13 95.09 174 95.46"/><path d="M175.75,92.87l-.27.61a.36.36,0,0,0-.34-.12C175.4,93.08,175.57,92.66,175.75,92.87Z"/><path d="M175.14,93.36a.53.53,0,0,1-.47.24A1.15,1.15,0,0,1,175.14,93.36Z"/><polygon points="174.8 95.08 174.8 94.82 175.07 94.47 174.8 95.08"/><path d="M180.45,88.16l.68-.27c.26.18.26.45,0,.53S180.59,88.46,180.45,88.16Z"/><path d="M180.71,91.41c0-.27-.13-.43-.26-.72l.8.82Z"/><path d="M182.33,90.24c.27.19,1.34,0,.67.53C182.73,90.59,182.06,90.86,182.33,90.24Z"/><polygon points="188.71 82.19 188.58 82.3 187.3 80.92 188.71 82.19"/><path d="M198.32,79.29c-.27.87-.94-.72-1.08.19-.44-.19.12-.74-.29-.89C197.62,78.6,197.63,78.24,198.32,79.29Z"/><path d="M197,78.59l-.37,0A.93.93,0,0,1,197,78.59Z"/><polygon points="154.64 14.75 153.99 14.74 154.65 14.45 154.64 14.75"/><path d="M154.73,13l-.84.87.44-1C154.38,13,154.5,13.2,154.73,13Z"/><path d="M218.79,51.69l-.26.16a1.48,1.48,0,0,1-1.05-.34Z"/><polygon points="209.73 45.63 209.84 45.69 208.99 46.4 209.73 45.63"/><path d="M206,40.91c.22.11.29.48.5.59C206.22,41,205.11,41.93,206,40.91Z"/><path d="M217.53,60.35c.05-.12.5.51.6.61C217.88,60.94,217.41,60.19,217.53,60.35Z"/><polygon points="215.02 60.1 215.24 60.33 214.55 59.89 215.02 60.1"/><path d="M213.69,61.17c-.69-1.13.62-.22.56-.77l-.14-.27.76.75C214.48,61,213.67,60.72,213.69,61.17Z"/><path d="M214.75,64c-.27-.44-.42-.23.07-.26a.73.73,0,0,0,.05.12A.35.35,0,0,0,214.75,64Z"/><path d="M214.87,63.83c.16-.08.18.42,0,0Z"/><path d="M214,64.12l.47.21c.15.27,0,.45.22.58C214.39,64.86,214.24,64.59,214,64.12Z"/><path d="M213.27,63.5l.21.08C213.55,63.69,213.55,63.75,213.27,63.5Z"/><path d="M213.94,63.74l-.46-.16c-.1-.19-.36-.53.19,0C213.41,63.33,213.68,63.59,213.94,63.74Z"/><path d="M213.93,63.49c-.07-.31-.05-.55-.52-.77C213.88,62.59,214.4,63.35,213.93,63.49Z"/><path d="M212.78,60.15l-.1-.41.39.25C212.88,59.87,213,60.48,212.78,60.15Z"/><path d="M213.31,65.57c-.18-.22-.4-.64-.61-.93l.34.14A1.56,1.56,0,0,0,213.31,65.57Z"/><path d="M212.7,64.64l-.5-.22C212.35,64.23,212.52,64.39,212.7,64.64Z"/><polygon points="212.32 62.38 213.29 62.91 212.25 62.42 212.32 62.38"/><polygon points="212.55 66.21 213.07 66.63 212.26 66.02 212.55 66.21"/><path d="M212,66.53c.42.36.44.81.74,1-.2,0-.61-.24-1-.47C212,67.15,212.08,67,212,66.53Z"/><path d="M211.18,66.72a4,4,0,0,1,.56.34A2.22,2.22,0,0,1,211.18,66.72Z"/><path d="M211.94,64.81a1.84,1.84,0,0,1,.33.75l-.41-.68Z"/><path d="M211.85,64.86v0l-.14.17Z"/><path d="M212,64.79s0,0,0,0S211.88,64.72,212,64.79Z"/><path d="M212.23,63.37c-.39-.25-.93-.43-1.11-1.15C211.54,62.58,211.64,63,212.23,63.37Z"/><path d="M211.44,63.94l.11-.32a1.92,1.92,0,0,0,.47.56Z"/><polygon points="211.18 63.82 211.44 63.94 211.4 64.05 211.18 63.82"/><path d="M211.09,65.85a.56.56,0,0,0-.57-.09.68.68,0,0,1,.22-.48C210.91,65.46,211.24,65.77,211.09,65.85Z"/><path d="M211.42,65.31h0C211.34,65.23,211.34,65.21,211.42,65.31Z"/><path d="M209.38,66.67s0-.08-.07-.13l.09.11Z"/><path d="M210.67,65.15c0-.19.18-.09.38.06a.53.53,0,0,0-.31.07C210.67,65.2,210.62,65.14,210.67,65.15Z"/><path d="M210.63,66.69c0-.17-.08-.32-.11-.47C210.63,66.45,210.78,66.84,210.63,66.69Z"/><path d="M211.47,65.49l0,0C211.58,65.66,211.54,65.6,211.47,65.49Z"/><path d="M211.47,65.49a2.54,2.54,0,0,1-.42-.28.87.87,0,0,1,.32.09A1.82,1.82,0,0,0,211.47,65.49Z"/><path d="M205.89,63c.47.56,1.13.9.86.12.55.26,1.9,2.26,2.56,3.45a1.81,1.81,0,0,0-.87-.64c-.18-.37-.11-1.11-.7-1.48-.52-.08-.07.38,0,.79-.45-.8-1.18-.75-2-1.85l.54.17C206.23,63.37,205.94,63.18,205.89,63Z"/><path d="M209.67,66.16h.14a2.74,2.74,0,0,0,.32,1,1.94,1.94,0,0,1-.73-.53l.37-.43Z"/><path d="M210.21,65.85c-.56-.57-1-.66-1.39-1.44.3-.16.6.37,1,.52-.55.18.39.25.37.85a.59.59,0,0,0,.36,0,1.77,1.77,0,0,0,0,.46s0,0,0,0h0c0-.09-.08-.14-.06-.08a0,0,0,0,0,0,0,2.3,2.3,0,0,0-.2-.22c0,.22.1.17.2.22l.08.08h-.69C209.83,66,210,65.94,210.21,65.85Z"/><path d="M209.83,61.06a.58.58,0,0,0,.11.15C209.85,61.16,209.8,61.12,209.83,61.06Z"/><path d="M210,61.57c.1.06.32.29.37.15s-.24-.3-.39-.51a1,1,0,0,1,.61.74l-.1-.06a4.14,4.14,0,0,0,.5,1.36A15.74,15.74,0,0,1,210,61.57Z"/><path d="M210,63.56l-.59,0-.25-.68.24.33C209.45,62.9,209.73,63.33,210,63.56Z"/><polygon points="209.58 67.01 210.15 67.64 209.21 66.86 209.58 67.01"/><polygon points="209.07 67.29 209.54 67.85 209.15 67.6 209.07 67.29"/><path d="M177.88,80.44l-.23-.08A.63.63,0,0,1,177.88,80.44Z"/><path d="M178.59,79.81l.24.27C178.67,80,178.57,79.85,178.59,79.81Z"/><path d="M197.89,76c.28.66.77,1.62.28,1l-.46-.66C197.91,76.36,197.93,76.23,197.89,76Z"/><path d="M187.3,78.33c0-.07-.07-.15-.1-.23l.57.53C187.63,78.53,187.47,78.43,187.3,78.33Z"/><path d="M185.14,75.81l.12.57A2.14,2.14,0,0,1,185.14,75.81Z"/><path d="M173.3,83l-.63-.54C172.86,82.29,173,82.68,173.3,83Z"/><path d="M204.25,70.74a1,1,0,0,1,0,.63C204.09,70.89,203.79,70.25,204.25,70.74Z"/><path d="M183.45,86.87a1,1,0,0,1-.39-.31A.76.76,0,0,1,183.45,86.87Z"/><path d="M203.85,71.66a1.94,1.94,0,0,1,0-.2c.18,0,.34,0,.43-.09C204.32,71.73,204.32,72,203.85,71.66Z"/><path d="M159,95.14s0,.06,0,.1S159,95.14,159,95.14Z"/><path d="M159.77,104.86a.32.32,0,0,0,.21-.09C160,104.84,159.93,104.88,159.77,104.86Z"/><path d="M207.46,69c.13,0,.07.06,0,0Z"/><path d="M206,66.16a1.79,1.79,0,0,1-.28-.28A2.34,2.34,0,0,0,206,66.16Z"/><path d="M199.8,68.51h0C199.72,68.38,199.74,68.4,199.8,68.51Z"/><path d="M207.38,68.61a.72.72,0,0,1,0,.28A.94.94,0,0,1,207.38,68.61Z"/><path d="M207.6,68.92l0-.12C207.73,68.89,207.77,69,207.6,68.92Z"/><path d="M207.3,69.08c.07,0,.09-.1.11-.19a.23.23,0,0,0,.05.12Z"/><path d="M168.23,90.58s0,0,0,.08C168,90.48,168,90.48,168.23,90.58Z"/><path d="M190.23,71.5l0,0v0Z"/><path d="M189.51,71.31c.77.66.77.5.75.25l1.32,1.9Z"/><path d="M176.34,81.55c.34,1.08-.79.28-1.37-.1.1.38,1.26,1.4.66,1.35-.79,0-1-1.51-1.52-1.51l.59,1.19c-1-.48-.72.44-.93.82a.86.86,0,0,1-.36-.2c0,.7-1.49-.44-1.48.1.22.16.36.75.53,1l-1-.26c.41.1.87.7,1.35,1.23-.19.06-.51-.21-.66-.21a1.49,1.49,0,0,1,.58.65L171.52,85a.31.31,0,0,1,0-.27c-.12.09-.68-.07-.47.54.19.22.42.38.61.6-.36-.76.16-.28.58.1-.41.16,0,.21.2.75-.25.17-1-.53-1.29-1.07-.09.43-.05.65-.79.27l.68.76-.44-.06,1,.81c0,.92-1.17-1.29-1.34-.42l.55.7c-.42-.11-1.42-1.23-.91-.27-.54-.27-.45-1.25-1-1a2.17,2.17,0,0,1,.21,1.07c-.4-.2-.54-.91-.37-.89-1,.22,1.46,2.73.1,2.31-.18-.68-1.24-1.21-.72-1.59-.57-.22.32,1.38-.53.82l.87.77c-.08.08-.44-.16-.57-.23l.56.67c-1.26-1-.12,1-1.56-.4,1.11,1.14-.29.11,0,.7.95.67.72-.61,1.66.51.16.44-.4,0-.24.39a3.59,3.59,0,0,1,.78.53c.12,1-1.16-.2-1.64-.31l.63-.07c-.94-1.12-.34,0-1.17-.85.27.78-.6,0-.47.53,0,0,.13.07.17,0-.48.33.87,2.3.72,2.48s-.9-.06-1.16-.65c-.4-.2.88-.14-.56-1.41,1.1,1.92-1.05-.22-.69,1.41.73.41.62,1.08,1.21,1.37-.39.07-.6-.18-1.11-.57l.35.61c-1.31-.92-.93-1-2-1.22.51.28.4,1,.84,1.22-.12.16-.4.11-.76-.13l.08.07c-.77.15.09,1-.88.82l-.21-.36c-1.34-.36-1.72.86-2.71,1l0-.45c.05.22-.86-.15-.67.52.06,0,.25.08.25,0,.29.37.63,1,.54,1.19l-.5-.51.27.49c-.24.2-.55-.86-.79-.65,1.11,1.7-.9,1,0,2.62-1.07-1,.34-.54-.67-1.43.06.23.2.47.11.69l-.49-.73c-.43,1-.26,1.79-1,2.18l.15.12c0,.46-.25.43-.83-.08.21.36.51.39.64.75-1.81-1.43.19,1.95-1,.92,1.13,1.36,1.63,3.12,2.71,4l-.3,0c.78.87.56-.41,1.41.47l-.21-1.38c.25.36.74.8.75,1,.15-.08.3-.13.52.5-.56-3.35,2.56-2.14,2.84-4.39.15,0,.36.38.49.62-.46-1.07.59.28.82.31l-.67-1.55a3.66,3.66,0,0,1,.85,1c.85-.26.5-2,1.62-1.66-.19-.59-.85-1-.75-1.32.74,1.55,1.13.1,1.67,1.18-.89-1.56.56-.93-1.08-2.79.18-.32.87.65.94.89.24-.32.48-.53,1.22-.11-.2-.59,1.78-.63.89-2.31.57,1.1.41.48.91.75l.5,1,.33-.41c.15,0,.14,0,.08-.11s-.39-.47-.39-.82c.23-.27.61.17,1.1.49l.06.15.25-.06c.12-.14-1.14-.45-1-1.23.19.22,1.33,1.12,1,.42-.19.23-.62-.38-.73-.69l.27-.32.73,1.15c.87-.79,1.23-2.3,2.26-3-.75-.91.66-.6-.51-1.89l.07.16c-.35.06-.79-1.13-.47-1.13.14.6,1.45,1.07,1.11,1.67l.9.34c2.28,2.44.85-1,2.1-.65a1.42,1.42,0,0,1-.31-.28c1.18.43.6-1.62,1.05-1.3l-.52-.76c1.31.76,1.44.81,1.62-.06-.1-.11-.33-.27-.36-.48.54.43,1.09.86,1.34.42l-.2-.21.66-.33c-1.75-2.21,2,.59.31-2,.63.56,1.2.44,1.63.6a1.5,1.5,0,0,1-.19-.33c1.16,1,.33-.87.68-.93a2.05,2.05,0,0,1,.84,1c-.43-1.19,1.69.37,1.49-.12.15-.27-.59-.92-.92-1.46.51,0,1.53,2,1.29.81-.13,0-.29,0-.35-.21,0-.33-1.68-3.11-1.11-2.74l.2.49c.77.32-.68-2.4.56-.95l.52.72c-.19-1.35.44.09.36-1.15l-.1-.11c.35-.06-.21-1,.79,0l0,.21c.37-.15.33-.25.59-.55.12.08.39.13.25-.14.75.92,1-.13,1.14-.29-.35.06-.55-.43-.78-.86.74.64.9.64.66-.06.95,1.13,2,2.33,2.4,2.09-.2-.13-.37-.15-.52-.42s.15-.08.25,0c-.15-.27-.42-.36-.7-.79,1.14.89.52-.28,1.21-.19-.4-.25-.47-.56-.75-1,1.07,1.28-.38-1.55.82.25-.06-1.6,1.82-1.57,1.25-2.88-.3-.54.52.06.66,0l-.47-.56c1.19.76.59.17,1.85.88a2.87,2.87,0,0,1-1.15-1.6l1.24,1-.65-.93c.4.25.42,0,.44-.24-.07,0-.09-.06-.22-.23,1,1.19,1.45.63,2,1.15-.82-1.31.59,0-.21-1.18a2.49,2.49,0,0,0,.49.3c.36.57.8,1.18.71.83,0,0,0,0,0,0l-.5-.74a.77.77,0,0,0,.53,0,2.05,2.05,0,0,0,.15.44,4.61,4.61,0,0,0-.13-.46s0,0,0,0,0,0-.05,0c-.06-.22-.05-.37.25-.21-.43-1.4,2.09.72,1.39-1.11.05.2,0,.35-.22.12.44-.24,0-1.54.71-1.2l.49.66c.52.07.91.1,1.1-.12l.6.73c.12-.54,1.77.08.77-1.59.55.52.33-.54.67-.5l-.4-.6c.1-.38.42-.3.69-.25-.43-1.57.95-.78,1.33-1.21l-.13-.16.77,0c-.52-.42.36.28.38,0,.36.16.48-.17.35-.67l.26-.25c-.61-.13-.62-.83-1.11-1.49l.59.38c-.18-.37-.52-.42-.5-.67.4.26.74,0,1.38.53a2,2,0,0,1,.24.54c-.05,0,0,0,0,0s0,0,0,0v0a1.64,1.64,0,0,1,.25.22c.11-.33.24,0,.47.31-.55-1.22.13-.65-.61-2,.79,1.55.59-.46,1.44.95-.63-1.18.09-.15-.48-1.13,0,.5-1.06-.23-1.63-.51l-.28-.78c-1.06-1.05-.13.81-.57.51.3.21.28-.21.08-.48l.65.93c0,.6-.82.1-1.38-.18,0-.45-.67-.33-1-1.08l.25,0c-.18-.37-.55-.51-.84-.7,0,1-1.37,1.21-1,2.05-.07-.3.27-.26.57-.07l.05.56c.22-.13-.25-1,.27-1a12,12,0,0,1,1.61,2.16c.15,1.31-1.61-1.11-2.1-.38-.19-.12.87.81.28.79a7.34,7.34,0,0,1-3.19-2.47c.47.21,1.41.64.76-.29-.47-.22-1-.18-1.43-.74.62,1.17.59,0,1,1.08-.15.08-.47-.21-.67-.34a2.64,2.64,0,0,1,.6,1.08c-.41.34-.3,1-.68,1.42a4.62,4.62,0,0,0,.51.78,7.3,7.3,0,0,1-2.39-2.1c-.29.17.08.66-.37.55-.37-1.19.06.21-.76-.75-.32.06.3.54.37.85a3.13,3.13,0,0,1-.68-.59c.45.85,1.81,1.74,2.34,2.74a11.46,11.46,0,0,1,.64,2.11,47.62,47.62,0,0,1-4.17-5.45c-.48-.56.27.78.22.92.45,1.16-1-.38-1,.17l.6.38c.15.27-.45.24-.77-.05a17.91,17.91,0,0,1,1.71,2c-.29.51-2.12-1-2.86-1.95l1.45.49c-.62-.83-1.11-.45-1.85-1.44l-.37.76c.09,0,.51,0,.77.54-.29.16,0,.24.1.76,1.11.79,3.75,3,4.94,4.1l-.74-.3.3.54c-.92-.32-3.8-3.21-4.57-4-.07.39,1.39,2.06,1.71,2.35-.39.45-2.39-2.09-2.66-1.48l-.13-.51c-.23-.07-.35.59-.56.23A7.59,7.59,0,0,0,193,72.1l-1.7-1.3c.2.12,1.26,1.54,1.48,1.77-.12.18-1.55-1.38-1.62-1.69a11.05,11.05,0,0,0,.79,2,7,7,0,0,1-1.21-1.69c-.51-.2-.5.07-.48.3.83.32,2.57,3,3.47,4l-4-3.54c.22.23,1.33,1.5,1.45,1.67-1-1.18-2-.65-2.33-.14l.07,0c.43.36.33,1-.16.68.22.23.2.12.27.09.45,1.15-1.85-1.58-1.28-.26.18-.32.62.13,1,.63-.57-.27-.68.61-1.73-.92.11.41-.16.32.43,1l-1.21-.45c.15.12.53.52.45.74.14-.42,1.5.7.91-.37a13.55,13.55,0,0,0,1.73,2.1c-.92,0-2.44-1.25-3.63-2v1l-.34-.39.72,1.1c-.25-.19-.45-.36-.38-.25a2,2,0,0,0,.33.36.74.74,0,0,1-.33-.15,11,11,0,0,0,1.54,1.59l-.32-.68A3.57,3.57,0,0,1,188,78.79l-.25-.16a3.24,3.24,0,0,1,.74.81l-.78-.19c-.07-.18-.24-.52-.43-.92a4.75,4.75,0,0,1-2-2l.19.84a7.21,7.21,0,0,0-1.95-1c.26.38.61.59.74.92-1.22-.92.33,1.94-.55,1-.44,0-.81-.8-1.19-1,.1.11.29.33.26.38l-.77-.59c.13.33.58.38.62.86-.8-.27-1.31-.48-1.33.12-.57.16-1-1.62-1.23-1.19.42.65.95,1.4.79,1.68-.45-.33-.81-.81-1.22-.92l.75.92c-.22.11-.51.05,0,.75-.46-.27-.51-.11-.48.1-.67-.27-1.28-2-1.5-2.46.27.91-.24.66.48,1.91l.45,0c.38,1.56-1.54-.92-.23,1.24.12-.21.73.11,1,.7l-.64-.27c.16.27.29.06.39.43a11.39,11.39,0,0,1-1.08-.75l0,0-.6.22c.06-.11.35.22.29.33l-.69-.24a.87.87,0,0,1,.39.78c-.18.6-2-1.83-1.54-.64,0-.06.13,0,.16,0l.17.54c-1.59-1.94-1.1.54-2.69-1.4.4,1,.36.49,1.38,1.19l.21.75C176.12,81.66,176.08,81.45,176.34,81.55Zm3.19-2.28c-.28-.46.22-.12.41,0C180,79.57,180.24,80,179.53,79.27Zm7.14-2.38c-.12-.34-.13-.51.1-.32C186.83,76.81,186.78,76.9,186.67,76.89Zm19.26-7.64,0,0C206,69.49,206,69.65,205.93,69.25ZM206,69c.05-.12.13-.16.29,0a.81.81,0,0,0-.24-.28C205.82,68.64,205.88,68.8,206,69ZM170.84,95.86l.08.24C170.72,95.93,170.54,95.78,170.84,95.86Z"/><path d="M185.39,76.1a4.81,4.81,0,0,0,.27.41A.74.74,0,0,1,185.39,76.1Z"/><path d="M173.42,83.08s0,0,0,0L173.3,83Z"/><path d="M196.32,66.78a1.2,1.2,0,0,0,.16.47C196.34,67.08,196.25,66.91,196.32,66.78Z"/><path d="M208.71,68.54l-.35,0c.12,0,0-.22,0-.38C208.49,68.31,208.63,68.58,208.71,68.54Z"/><path d="M207.09,62.79c.1.06.07,0,.17,0l.25.33C207.36,63.22,207.07,63,207.09,62.79Z"/><path d="M207.06,66.07c-.45-.6-.16-.51.07-.52l0,0C207.8,66.36,207.43,66.21,207.06,66.07Z"/><path d="M207.18,65.55c.07,0,.13,0,.15-.09C207.61,65.77,207.33,65.57,207.18,65.55Z"/><path d="M206.77,68.78c-.05-.21.63.72.48.45C207.92,69.91,206.08,68.69,206.77,68.78Z"/><polygon points="205.65 64.04 206.17 64.8 205.62 64.28 205.65 64.04"/><path d="M204.92,65.48l.07-.38a.47.47,0,0,0,.26.19C205.12,65.43,205.08,65.7,204.92,65.48Z"/><path d="M205.25,65.29a.19.19,0,0,1,.28,0A.39.39,0,0,1,205.25,65.29Z"/><polygon points="205.16 64.07 205.21 64.28 205.08 64.46 205.16 64.07"/><path d="M202.52,67.61h-.42c-.22-.23-.27-.44-.1-.41S202.37,67.33,202.52,67.61Z"/><path d="M201.72,65a2.71,2.71,0,0,0,.32.64l-.72-.89Z"/><path d="M200.81,65.39c-.22-.23-.94-.43-.57-.62C200.46,65,200.88,65,200.81,65.39Z"/><polygon points="197.88 69.56 197.95 69.52 199.11 71 197.88 69.56"/><path d="M191.71,68.71c0-.59.79.85.71.2.35.29.07.53.38.78C192.32,69.46,192.39,69.75,191.71,68.71Z"/><path d="M192.8,69.69l.27.15A.92.92,0,0,1,192.8,69.69Z"/><polygon points="159.69 106.22 159.74 106.68 159.47 106.08 159.69 106.22"/><path d="M158.45,105.42l.7,1-.79-.76C158.43,105.64,158.58,105.66,158.45,105.42Z"/><path d="M179,76.93l.19.21c.16.27.13.32.07.43Z"/><polygon points="176.9 79.71 176.94 79.66 177.52 80.57 176.9 79.71"/><path d="M173.84,80.38c.06-.11.32,0,.38-.11C173.9,80.27,174.66,81.45,173.84,80.38Z"/></svg>