<svg id="Layer_1" data-name="Layer 1" xmlns="http://www.w3.org/2000/svg" viewBox="0 0 228.11 117.96"><defs><style>.cls-1{fill:#ec1c24;}</style></defs><title>Flecha Izquierda roja</title><path class="cls-1" d="M210,64.5c.29-.06.19.71.23.85C209.74,65.18,210,64.3,210,64.5Z"/><polygon class="cls-1" points="205.18 62.75 205.27 63.06 204.56 62.29 205.18 62.75"/><path class="cls-1" d="M200.68,62.76c.43-1.32,1.63.21,2.44-.25l.13-.3.36,1.06C202.64,63.1,201.37,62.39,200.68,62.76Z"/><path class="cls-1" d="M198.29,65.61c.14-.51-.52-.44.56-.16-.06.06-.07.09-.11.13A2.07,2.07,0,0,0,198.29,65.61Z"/><path class="cls-1" d="M198.74,65.58c.48,0-.31.43,0,0Z"/><path class="cls-1" d="M196.56,65.29l.62.46c-.13.3-.68.37-.48.59C196.06,66.09,196.19,65.79,196.56,65.29Z"/><path class="cls-1" d="M196,64.33l.32.19C196.23,64.65,196.15,64.69,196,64.33Z"/><path class="cls-1" d="M197,64.93l-.68-.41c.09-.21.1-.64.31.15C196.55,64.28,196.68,64.65,197,64.93Z"/><path class="cls-1" d="M197.36,64.73c.35-.29.8-.47.18-.93C198.73,64,198.56,64.91,197.36,64.73Z"/><path class="cls-1" d="M200.46,61.4l.46-.39.41.44C201.13,61.23,200.43,61.81,200.46,61.4Z"/><path class="cls-1" d="M192.67,66a6.23,6.23,0,0,1,.26-1.11l.46.33C193.15,65.38,192.7,65.56,192.67,66Z"/><path class="cls-1" d="M192.93,64.86l-.69-.48C192.85,64.33,193,64.56,192.93,64.86Z"/><polygon class="cls-1" points="195.85 62.86 196.99 63.87 195.64 62.85 195.85 62.86"/><polygon class="cls-1" points="190.04 66.01 190.43 66.66 189.73 65.67 190.04 66.01"/><path class="cls-1" d="M188.29,65.89c.29.54-.4.91-.09,1.24a2.66,2.66,0,0,1-1.25-1C187.34,66.39,187.75,66.33,188.29,65.89Z"/><path class="cls-1" d="M186.34,65.56a3.09,3.09,0,0,1,.61.6A2,2,0,0,1,186.34,65.56Z"/><path class="cls-1" d="M191.06,64.52a1.17,1.17,0,0,1-.54.8l.27-.79Z"/><path class="cls-1" d="M190.8,64.51v0l-.59,0Z"/><path class="cls-1" d="M191.13,64.52h-.07C191.09,64.44,191.1,64.42,191.13,64.52Z"/><path class="cls-1" d="M194.05,63.58c-.41-.44-1.25-.92-.44-1.59C193.9,62.53,193.44,62.91,194.05,63.58Z"/><path class="cls-1" d="M191.47,63.53l.73-.18c0,.21-.15.51.05.73Z"/><polygon class="cls-1" points="191.11 63.28 191.47 63.53 191.2 63.6 191.11 63.28"/><path class="cls-1" d="M187.6,64.82a1.49,1.49,0,0,0-1.06-.43,3.57,3.57,0,0,1,1.27-.24C187.86,64.4,188.05,64.84,187.6,64.82Z"/><path class="cls-1" d="M189.15,64.6l-.07,0C189.13,64.49,189.16,64.46,189.15,64.6Z"/><path class="cls-1" d="M182.69,64.39s0-.09.07-.14a.66.66,0,0,0,0,.14Z"/><path class="cls-1" d="M187.88,64c.31-.15.5,0,.68.29a2.69,2.69,0,0,0-.75-.14C187.78,64,187.78,64,187.88,64Z"/><path class="cls-1" d="M185.27,65.19a3.25,3.25,0,0,1,.54-.44C185.65,65,185.33,65.39,185.27,65.19Z"/><path class="cls-1" d="M189,64.77l0,0C188.92,65,188.93,64.89,189,64.77Z"/><path class="cls-1" d="M189,64.77a2,2,0,0,1-.42-.48,1.81,1.81,0,0,1,.52.26A.74.74,0,0,0,189,64.77Z"/><path class="cls-1" d="M181.53,59.33c.05.73.88,1.41,1.6.62.7.55.24,3-.37,4.3,0-.32,0-.61-.75-1,.25-.4,1.61-.94,1-1.6-1-.38-.79.26-1.26.64.4-.91-1.22-1.32-1-2.66l.84.47C181.6,59.85,181.29,59.52,181.53,59.33Z"/><path class="cls-1" d="M184.13,64.18l.3.09c-.34.12-.58.42-1,1-.49-.36-.6-.63-.63-.87l1.47-.1Z"/><path class="cls-1" d="M185.77,64.27c-.23-.8-1-1.13-.51-2,.87.06.61.67,1.13,1-1.41-.19.41.45-.61.9a2.5,2.5,0,0,0,.76.21,5,5,0,0,0-.73.36l0,0h0v0c.06-.1.08-.16,0-.1s0,0,0,0a1.45,1.45,0,0,0-.06-.3c-.41.17-.06.21.06.3a.5.5,0,0,1,0,.12h0l-1.42-.43A2.91,2.91,0,0,1,185.77,64.27Z"/><path class="cls-1" d="M192.86,60.28a.33.33,0,0,0,0,.18C192.72,60.37,192.69,60.3,192.86,60.28Z"/><path class="cls-1" d="M192.28,60.76c.1.11.19.43.52.35.29-.24,0-.39,0-.65.2.21.7.57.07,1l-.1-.11c-.57.28-1.3,1.27-1.2,1.38A6.58,6.58,0,0,1,192.28,60.76Z"/><path class="cls-1" d="M189,62.31l-1.17-.39.6-.69,0,.42C189.05,61.48,188.9,62,189,62.31Z"/><polygon class="cls-1" points="182.56 64.79 182.72 65.63 182.04 64.44 182.56 64.79"/><polygon class="cls-1" points="181.03 64.69 181.09 65.42 180.68 64.98 181.03 64.69"/><path class="cls-1" d="M94.75,55.62l-.35-.21A1.18,1.18,0,0,1,94.75,55.62Z"/><path class="cls-1" d="M97.25,55.57l.06.36C97.2,55.73,97.15,55.59,97.25,55.57Z"/><path class="cls-1" d="M143.48,64.61c-.51.68-1.07,1.74-1,.92l.16-.8A.82.82,0,0,0,143.48,64.61Z"/><path class="cls-1" d="M117.76,59.82l.15-.24c.12.27.24.53.34.77Z"/><path class="cls-1" d="M117.41,56.51l-.67.51A2.09,2.09,0,0,1,117.41,56.51Z"/><path class="cls-1" d="M81.08,54.77,80.67,54C81.31,54,81,54.37,81.08,54.77Z"/><path class="cls-1" d="M165.37,64.39a2.32,2.32,0,0,1-1.08.49C164.81,64.42,165.23,63.73,165.37,64.39Z"/><path class="cls-1" d="M95.73,64.12a.54.54,0,0,1-.29-.48C95.65,63.77,95.78,63.93,95.73,64.12Z"/><path class="cls-1" d="M163,64.88a1.28,1.28,0,0,1,.23-.19,2,2,0,0,0,1,.19C163.9,65.22,163.46,65.43,163,64.88Z"/><path class="cls-1" d="M31.5,55.44a.48.48,0,0,0-.11.09C31.38,55.42,31.43,55.42,31.5,55.44Z"/><path class="cls-1" d="M17.06,63.52a2.43,2.43,0,0,0,.59.06C17.54,63.64,17.36,63.63,17.06,63.52Z"/><path class="cls-1" d="M174.88,65c.32,0,.05.09,0,0Z"/><path class="cls-1" d="M176.46,61.87a.58.58,0,0,1-.13-.39A.73.73,0,0,0,176.46,61.87Z"/><path class="cls-1" d="M159.8,59.89h0C159.87,59.73,159.85,59.76,159.8,59.89Z"/><path class="cls-1" d="M175.37,64.67a1.47,1.47,0,0,1-.42.24A1.65,1.65,0,0,1,175.37,64.67Z"/><path class="cls-1" d="M175.3,65.05l.28-.07C175.62,65.11,175.59,65.19,175.3,65.05Z"/><path class="cls-1" d="M174.43,65a1.33,1.33,0,0,0,.52-.09c-.06.06-.09.1-.07.13Z"/><path class="cls-1" d="M58.06,57.58l-.07.08C57.67,57.32,57.81,57.38,58.06,57.58Z"/><path class="cls-1" d="M135,56.29l0,0-.05,0Z"/><path class="cls-1" d="M133.87,55.69c.5,1,.78.87,1.16.66l-.39,2.31Z"/><path class="cls-1" d="M89.72,55.54c-1.07,1.06-2.08-.28-2.66-.93-.41.36.32,1.88-.85,1.47-1.65-.49.31-1.83-.68-2.13l-.72,1.3c-1.26-1-2.21-.1-3.28.06a.73.73,0,0,1-.42-.38c-1.13.56-2.38-1.27-3.23-.84.2.27-.49.82-.6,1.13l-1.54-.8c.68.34.65,1.09.78,1.81-.49-.08-.71-.49-1-.58.2.26.4.53.15.86L74,55.28a.73.73,0,0,1,.44-.21c-.4,0-1.28-.48-1.86.13,0,.29.25.56.3.85.49-.82.76-.12,1,.43-1.12-.12-.28.19-.82.72-.79,0-1.11-1-.91-1.64-.89.28-1.17.48-2.08-.27l.17,1L69.42,56l.68,1.24c-1.6.69-.29-1.74-2.08-1.17v.89c-.69-.34-.92-1.84-1.45-.78-.67-.53,1.13-1.25-.43-1.44a2.82,2.82,0,0,1-1.32,1c-.5-.4.38-1.05.7-.93-2.36-.42-1.46,3-3.57,1.87.72-.64-.61-1.72,1.1-1.69-.81-.53-1.6,1.28-2.45.32l.55,1.13c-.3,0-.65-.39-.82-.53l.07.88c-1-1.54-1.95.73-2.58-1.29.44,1.59-.78-.09-1.2.53.87,1.11,2.48,0,2.6,1.43-.41.45-.77-.27-1.16.16a2.65,2.65,0,0,1,.78.9c-1.33.83-2.09-.88-2.9-1.26l1.42.33c-.11-1.46-.64-.25-1-1.39-.71.78-1.27-.35-1.85.13.16,0,.17.13.32.13-1.55,0-2,2.34-2.6,2.38-.61.19-1.76-.6-1.34-1.22-.5-.41,2.06.43,1.18-1.46-.89,2.19-1.83-.82-3.76.68.85.77-.5,1.23.26,1.82-.92-.18-1-.51-1.37-1.13l-.27.69c-1.21-1.53-.29-1.36-2.11-2.18.61.54-.73,1-.26,1.48a1.63,1.63,0,0,1-1.37-.58l.07.1c-1.85-.35-1.51.87-3.19.1l.17-.41c-2.2-1.11-5-.39-7.26-.91l.8-.33c-.24.21-1.53-.66-2.24,0,.14,0,.39.22.52.17a1.35,1.35,0,0,1-.84,1.26L31,56.16l-.23.55c-.83,0,.25-1-.58-1-.49,2-3.59.27-4.31,2-.57-1.46,1.57-.21.95-1.54-.25.22-.37.5-.91.61l.19-.87c-2.52.5-3.49,1.24-5.73,1.06l.09.19c-.8.34-1.23.18-1.59-.58-.17.41.41.62.1,1-1.41-2.24-2.82,1.65-3.68.08.12,1.77-1.72,3.45-1,4.83l-.57-.21c.19,1.17,1.81,0,2.14,1.25l1.82-1.22c-.06.44.24,1.09-.05,1.24.45,0,.84.09.25.72,4.35-3,8.82-.1,13.11-1.68.29.1.12.52,0,.79.79-1.13.75.59,1.19.75l1.15-1.63c.47.49.1,1,.14,1.31,2.19.32,4.31-1.26,6.08-.3.57-.58-.13-1.31.61-1.51-1,1.68,2.17.79,1.53,2,.72-1.78,2.67-.38,2.35-2.86.89-.14.73,1.06.48,1.28a3.06,3.06,0,0,1,2.71.67c.56-.58,4.72.61,5.64-1.25-.63,1.21.05.63.65,1.15L53,64.06l1.36-.12c.28.11.35.06.35,0,.23,0,0-.61.53-.88.93-.07,1,.52,1.48,1.07l-.14.16.63.1c.46,0-1.63-1.06-.13-1.61,0,.29.91,1.7,1.32.94-.77,0-.68-.69-.39-1l1.08-.07L58.74,64c3.1-.08,6.32-1,9.62-1,0-1.19,2.34-.06,2-1.8l-.13.17c-.81-.18.23-1.38.9-1.18-.7.55,1.23,1.74-.45,2L72,63c.72,3.33,3.47-.28,5.43.79a.72.72,0,0,1-.19-.41c1.75,1.07,3.92-.9,4.33-.36l.15-.92c1.5,1.41,1.68,1.53,3.46,1,0-.15-.23-.41.05-.61.43.68.86,1.36,2.08,1.17l0-.29,1.91.15c0-2.82,3.27,1.73,3.85-1.33.37.83,1.77,1.08,2.39,1.48a.62.62,0,0,1,.14-.38c.74,1.52,2.12-.48,2.93-.3.53.36.3.84.07,1.32,1-1.2,2.89,1.34,3.27.83.77-.11.29-1.08.5-1.7,1.14.27-.19,2.55,1.34,1.43-.18-.13-.51-.23-.38-.39.59-.24,1.63-3.48,2.21-2.83l-.38.5c1.06.73,2.52-2.3,2.69-.39l-.1.89c1.84-1.18.78.34,2.64-.68l0-.15c.81.17,1.25-.94,1.65.49l-.28.19a8.4,8.4,0,0,0,2.12-.06c.12.13.62.34.76,0,0,1.19,2.38.55,2.84.48-.82-.17-.43-.68-.2-1.16.48,1,.81,1.06,1.47.37.1,1.47.23,3,1.54,3.12-.21-.22-.52-.34-.39-.64s.43,0,.54.13c.13-.3-.29-.53-.15-1,.89,1.4,1.53.09,2.81.6-.41-.45-.06-.74.09-1.24.1,1.66,1.75-1.45,1.26.7,2.51-1.29,6.37-.09,7.34-1.48.27-.61,1,.37,1.4.4l-.06-.73c1.22,1.32.95.49,2.39,1.83-.59-.87-.35-1.27.25-2l1,1.52.19-1.13c.41.44.86.26,1.31.08-.22,0-.1-.11-.09-.31.22,1.57,2,1.38,2.26,2.13.44-1.53,1.18.39,1.5-1.05a2.13,2.13,0,0,0,.54.54c-.22.67-.29,1.42.1,1.09l.1,0,.17-.89a3,3,0,0,0,1.09.32,2.08,2.08,0,0,0-.41.45c.17-.14.33-.3.49-.44h.14a.1.1,0,0,0-.08,0,.56.56,0,0,1,.85,0c1.42-1.36,3.16,1.87,4.72,0-.23.19-.57.28-.65,0,1.3.08,2.6-1.18,3.43-.5l-.06.82a5.78,5.78,0,0,0,2.48.59l0,.94c1.12-.34,3.53,1.17,4.22-.77.28.75,1.56-.22,2.19,0l.17-.71a2.42,2.42,0,0,1,1.84.23c1.69-1.5,3.25,0,4.73-.13l0-.2,1.49.51c-.39-.65.3.45.75.27a1.57,1.57,0,0,0,1.81-.3l1,0c-1.07-.49.07-1,.13-1.86l.61.66c.25-.4-.39-.65.06-.83.41.45,1.61.42,2,1.28a1.33,1.33,0,0,1-.39.57c0-.06,0-.05,0,0s0,0,0,0l0,0a1.45,1.45,0,0,1,.16.33c.76-.19.48.15.46.53.86-1.3,1.34-.42,2-1.94-.89,1.71,2,0,1.42,1.64.64-1.31.44-.06.85-1.18-.9.36-1.8-.85-2.53-1.41l.71-.79c-.46-1.48-1.6.55-2,.05.29.35.93,0,1-.33l-.19,1.13c-1,.46-1.84-.43-2.56-1,.68-.37-.83-.68-.34-1.48l.55.14c.24-.4-.28-.75-.58-1.08-1.71.82-4.84.1-5.45,1,.35-.28,1,0,1.3.3l-.81.47c.65,0,1.17-1,2.13-.59-.16.71.53,1.7-.2,2.69-1.83,1.12-1.51-1.87-3.72-1.6-.2-.22.46,1.17-.71.79a4.61,4.61,0,0,1-2.57-3.91c.62.45,1.87,1.37,2.06.24-.62-.46-1.7-.74-1.75-1.47-.65,1.31,1.18.39.33,1.48-.44,0-.63-.46-.83-.68.29.54-.39.91-.52,1.21-1.42,0-2.24.58-3.76.7a2,2,0,0,0-.2.93c-.75-.36-1.81-2.32-1.53-3.13-.87-.06-.92.56-1.66.2,1.19-1.17-.23.2-.36-1.06-.76-.16-.26.61-.61.9a1.82,1.82,0,0,1-.45-.9c-.47,1,.9,2.49.36,3.6a11.46,11.46,0,0,1-2.13,2.06,17.9,17.9,0,0,1,.29-6.86c-.06-.74-.72.78-1,.86-1,1.18-1.47-.93-2.27-.46l.61.66c-.13.31-1.31-.08-1.5-.51,0,.41.61,2.13.24,2.62-1.44.22-2.8-2.06-2.71-3.3l2.2,1.29c.08-1-1.56-1-1.47-2.28l-2,.36c.25,0,1,.33.73.9-.87-.05-.45.18-1,.66a38.59,38.59,0,0,1,3.49,6.28L147.66,62l-.26.61c-1.37-.82-2.6-4.87-3-5.94-.79.26-.51,2.48-.33,2.9-1.54.11-1.52-3.12-3.08-2.81l.59-.48c-.37-.2-1.71.24-1.56-.17-.31.59-.6,2-.25,2.35l-1.38-2.08a15.42,15.42,0,0,1,.16,2.31c-.56.07-1-2.05-.6-2.33-1.08,1.28-.81.58-1.69,2.08-.32-.12,0-1.88.27-2.07a1.2,1.2,0,0,0-1.49-.06c1.19.76.32,4,.55,5.32l-2.57-5.29a19.37,19.37,0,0,1,.27,2.22c-.21-1.58-3.16-1.78-4.6-1.56H129c.29.54-.95,1-1.45.43.08.31.2.22.42.23-1,1.19-1.25-2.38-2.23-1,.89-.15,1.06.49,1,1.11-.73-.57-2.42,0-2.07-1.8-.46.39-.88.15-.84,1.09L122,56a.54.54,0,0,1-.28.86c1-.25,2,1.48,2.5.27,0,1.14-.35,1.75.13,2.72-1.93-.54-3-2.5-4.21-3.82l-1.71.82-.07-.52-.3,1.32c-.21-.3-.35-.57-.39-.44a.75.75,0,0,0,.1.49,1,1,0,0,1-.43-.32,4.7,4.7,0,0,0,.56,2.2c.15-.25.31-.5.47-.73.33.66.57,1.34.11,1.78a3,3,0,0,0-.24-.28c.21.49.34.9.19,1.09l-1.31-.63a10.76,10.76,0,0,0,.63-1c-.82-.86-1.75-1.91-1-2.8l-1,.78a7.9,7.9,0,0,0-2.38-2c-.08.46.3.85,0,1.18-1-1.48-2.53,1.73-2.75.43-.84-.32-.35-1.14-.88-1.51,0,.15.07.44-.08.46l-.63-.94c-.26.34.58.65-.13,1.06-1.22-.71-1.93-1.19-3-.74-1.45-.22.62-1.87-.6-1.69-.18.77-.34,1.69-1.11,1.81-.4-.54-.34-1.14-1-1.48l0,1.18c-.63,0-1.14-.27-1.14.63-.52-.51-.88-.42-1.15-.23-1-.63.71-2.4.93-2.86-.94.89-1.6.37-2.13,1.79l.83.32c-1.78,1.46-1.69-1.67-2.52.83.61-.09,1.35.54,1,1.19l-.89-.61c-.1.32.51.22.1.58a8.4,8.4,0,0,1-1-1.26V56l-1.6-.2a.22.22,0,1,1,.08.43l-1-.62c.32.3,0,.66-.48.86-1.35.35-1.08-2.66-2.13-1.46.15,0,.18.12.33.1l-.54.53c-.11-2.51-3.18-.26-3.29-2.77-.77,1-.06.61.93,1.79l-.82.72C89.09,55.49,89.36,55.3,89.72,55.54Zm10.38.19c.17-.53.64.05.88.24C100.57,56.26,100.37,56.75,100.1,55.73Zm18.7,2.57c.31-.34.58-.48.76-.19A.78.78,0,0,1,118.8,58.3Zm52.5,6s0,0,0,0C171,64.48,170.77,64.62,171.3,64.27Zm.57-.15c.28-.06.53-.05.61.18a.34.34,0,0,0-.06-.37C172.09,63.73,172,63.89,171.87,64.12ZM54.81,63.34l-.21.24C54.47,63.32,54.33,63.09,54.81,63.34Z"/><path class="cls-1" d="M117.45,56.89a1.94,1.94,0,0,0-.1.49A.36.36,0,0,1,117.45,56.89Z"/><path class="cls-1" d="M81.15,54.92h0a.41.41,0,0,1,0-.16Z"/><path class="cls-1" d="M155.43,56.37a1,1,0,0,0-.44.46C155,56.62,155.08,56.43,155.43,56.37Z"/><path class="cls-1" d="M178.23,65.44l-.7-.23c.34,0,.46-.15.63-.29C178.15,65.13,178,65.43,178.23,65.44Z"/><path class="cls-1" d="M184.33,59.93c.11.11.22,0,.32.12l0,.41C184.19,60.44,183.88,60.1,184.33,59.93Z"/><path class="cls-1" d="M178.89,62.48c.05-.75.49-.49,1-.36h-.08C179.93,63.17,179.41,62.83,178.89,62.48Z"/><path class="cls-1" d="M180,62.15a.86.86,0,0,0,.45,0C180.5,62.59,180.26,62.26,180,62.15Z"/><path class="cls-1" d="M173.81,64.42c.24-.19.15,1,.28.66C174.35,66,172.53,63.92,173.81,64.42Z"/><polygon class="cls-1" points="179.28 60.01 179.11 60.94 178.83 60.19 179.28 60.01"/><path class="cls-1" d="M175.4,60.69l.78-.26a.34.34,0,0,0,.21.32C175.91,60.78,175.38,61,175.4,60.69Z"/><path class="cls-1" d="M176.39,60.75a.78.78,0,0,1,.64.15A1.77,1.77,0,0,1,176.39,60.75Z"/><polygon class="cls-1" points="178.21 59.73 177.98 59.93 177.42 59.99 178.21 59.73"/><path class="cls-1" d="M166.94,60.87l-.86-.27c-.08-.31.15-.51.47-.38S167.07,60.56,166.94,60.87Z"/><path class="cls-1" d="M169.54,58.34c-.23.19-.25.39-.38.7l0-1.15Z"/><path class="cls-1" d="M167,58.07c-.08-.32-1.24-.92-.15-.84C167,57.54,167.82,57.81,167,58.07Z"/><polygon class="cls-1" points="154.1 59.52 154.32 59.53 154.28 61.41 154.1 59.52"/><path class="cls-1" d="M142.7,55c1-.45.24,1.16,1.16.6.24.44-.75.46-.51.84C142.74,56,142.42,56.26,142.7,55Z"/><path class="cls-1" d="M143.35,56.46a2,2,0,0,1,.32.29A1,1,0,0,1,143.35,56.46Z"/><polygon class="cls-1" points="14.66 64.53 14.01 64.92 14.43 64.29 14.66 64.53"/><path class="cls-1" d="M13.4,63.14l-.15,1.19-.39-1.08C13,63.3,13.29,63.41,13.4,63.14Z"/><path class="cls-1" d="M102.8,53.55l0,.29c-.11.31-.26.34-.57.38Z"/><polygon class="cls-1" points="93.92 54.45 94.08 54.42 93.79 55.51 93.92 54.45"/><path class="cls-1" d="M86.48,53.07c.3,0,.66.19,1,.15C86.78,53,86.39,54.42,86.48,53.07Z"/><path class="cls-1" d="M24.4,55.51c-.29.07-.18-.7-.23-.84C24.66,54.84,24.39,55.71,24.4,55.51Z"/><polygon class="cls-1" points="29.21 57.27 29.13 56.95 29.84 57.73 29.21 57.27"/><path class="cls-1" d="M33.71,57.25c-.42,1.32-1.63-.21-2.43.26l-.13.3-.36-1.06C31.76,56.92,33,57.62,33.71,57.25Z"/><path class="cls-1" d="M36.11,54.4c-.15.52.52.44-.56.16a.5.5,0,0,0,.1-.13A1.64,1.64,0,0,0,36.11,54.4Z"/><path class="cls-1" d="M35.65,54.43c-.47,0,.31-.43,0,0Z"/><path class="cls-1" d="M37.84,54.73l-.62-.46c.13-.3.68-.37.48-.59C38.34,53.93,38.2,54.23,37.84,54.73Z"/><path class="cls-1" d="M38.43,55.69l-.32-.19C38.17,55.37,38.25,55.32,38.43,55.69Z"/><path class="cls-1" d="M37.42,55.09l.69.41c-.09.21-.1.64-.32-.15C37.85,55.74,37.71,55.36,37.42,55.09Z"/><path class="cls-1" d="M37,55.29c-.35.28-.81.46-.18.92C35.67,56,35.84,55.1,37,55.29Z"/><path class="cls-1" d="M33.94,58.62l-.47.38-.4-.44C33.27,58.78,34,58.2,33.94,58.62Z"/><path class="cls-1" d="M41.73,54a6.23,6.23,0,0,1-.26,1.11L41,54.83C41.25,54.64,41.7,54.46,41.73,54Z"/><path class="cls-1" d="M41.47,55.15l.69.48C41.55,55.69,41.43,55.46,41.47,55.15Z"/><polygon class="cls-1" points="38.54 57.15 37.41 56.14 38.76 57.17 38.54 57.15"/><polygon class="cls-1" points="44.36 54.01 43.97 53.36 44.67 54.34 44.36 54.01"/><path class="cls-1" d="M46.11,54.12c-.29-.53.39-.91.09-1.24a2.66,2.66,0,0,1,1.24,1C47.06,53.62,46.64,53.68,46.11,54.12Z"/><path class="cls-1" d="M48.06,54.46a3.8,3.8,0,0,1-.62-.6A1.92,1.92,0,0,1,48.06,54.46Z"/><path class="cls-1" d="M43.34,55.49a1.17,1.17,0,0,1,.54-.8l-.27.79Z"/><path class="cls-1" d="M43.6,55.51v0l.58,0Z"/><path class="cls-1" d="M43.27,55.5h.07C43.31,55.57,43.29,55.6,43.27,55.5Z"/><path class="cls-1" d="M40.35,56.44c.41.44,1.25.91.43,1.59C40.49,57.49,41,57.1,40.35,56.44Z"/><path class="cls-1" d="M42.93,56.48l-.73.18c0-.2.14-.51-.06-.73Z"/><polygon class="cls-1" points="43.29 56.73 42.93 56.48 43.2 56.42 43.29 56.73"/><path class="cls-1" d="M46.8,55.2a1.56,1.56,0,0,0,1.06.43,3.83,3.83,0,0,1-1.27.23C46.53,55.62,46.35,55.17,46.8,55.2Z"/><path class="cls-1" d="M45.24,55.42l.07,0C45.27,55.53,45.24,55.55,45.24,55.42Z"/><path class="cls-1" d="M51.7,55.62l-.06.14s0-.09,0-.13Z"/><path class="cls-1" d="M46.52,56c-.31.15-.5,0-.68-.28a2.27,2.27,0,0,0,.75.13C46.62,56,46.62,56.05,46.52,56Z"/><path class="cls-1" d="M49.13,54.83a3.37,3.37,0,0,1-.55.43C48.74,55,49.07,54.62,49.13,54.83Z"/><path class="cls-1" d="M45.42,55.24l-.05,0C45.48,55,45.46,55.12,45.42,55.24Z"/><path class="cls-1" d="M45.42,55.24a2.26,2.26,0,0,1,.42.49,2,2,0,0,1-.53-.27A.9.9,0,0,0,45.42,55.24Z"/><path class="cls-1" d="M52.87,60.69c-.06-.73-.88-1.41-1.6-.63-.7-.54-.24-3,.37-4.3,0,.32,0,.62.75,1.05-.26.4-1.61.93-1,1.6,1,.37.79-.26,1.25-.65-.39.91,1.22,1.33,1,2.67L52.81,60C52.8,60.16,53.1,60.5,52.87,60.69Z"/><path class="cls-1" d="M50.26,55.84,50,55.75c.33-.13.58-.42,1-1a1.25,1.25,0,0,1,.63.87l-1.47.1Z"/><path class="cls-1" d="M48.63,55.75c.23.79.95,1.13.51,2-.88-.05-.61-.66-1.14-1,1.41.2-.4-.44.62-.89a2.24,2.24,0,0,0-.76-.21,4.08,4.08,0,0,0,.72-.37l0,.05h0c-.06.1-.08.16,0,.1l0,0a1.32,1.32,0,0,0,.07.3c.41-.16.06-.21-.07-.3s0-.08,0-.12h0l1.42.44A2.91,2.91,0,0,1,48.63,55.75Z"/><path class="cls-1" d="M41.54,59.74a.34.34,0,0,0,0-.19C41.67,59.65,41.71,59.72,41.54,59.74Z"/><path class="cls-1" d="M42.12,59.26c-.1-.11-.19-.43-.52-.35-.29.24,0,.38,0,.64-.2-.21-.7-.57-.07-1l.1.11c.57-.27,1.3-1.26,1.2-1.37A7.11,7.11,0,0,1,42.12,59.26Z"/><path class="cls-1" d="M45.41,57.7l1.18.39-.6.69,0-.41C45.35,58.53,45.5,58,45.41,57.7Z"/><polygon class="cls-1" points="51.84 55.23 51.68 54.38 52.36 55.57 51.84 55.23"/><polygon class="cls-1" points="53.37 55.33 53.31 54.59 53.72 55.03 53.37 55.33"/><path class="cls-1" d="M139.65,64.39l.35.21A.87.87,0,0,1,139.65,64.39Z"/><path class="cls-1" d="M137.15,64.44l-.06-.36C137.2,64.28,137.25,64.43,137.15,64.44Z"/><path class="cls-1" d="M90.92,55.41c.5-.68,1.07-1.74,1-.92l-.15.8A.82.82,0,0,0,90.92,55.41Z"/><path class="cls-1" d="M116.64,60.19l-.15.24c-.12-.27-.24-.52-.34-.76C116.3,59.83,116.46,60,116.64,60.19Z"/><path class="cls-1" d="M117,63.51l.67-.52A2.4,2.4,0,0,1,117,63.51Z"/><path class="cls-1" d="M153.32,65.24l.4.82C153.09,66.05,153.37,65.64,153.32,65.24Z"/><path class="cls-1" d="M69,55.62a2.39,2.39,0,0,1,1.08-.48C69.59,55.6,69.17,56.29,69,55.62Z"/><path class="cls-1" d="M138.67,55.89a.56.56,0,0,1,.29.49C138.74,56.24,138.62,56.09,138.67,55.89Z"/><path class="cls-1" d="M71.37,55.14c-.08.08-.15.12-.23.19a1.87,1.87,0,0,0-1-.19C70.5,54.79,70.94,54.58,71.37,55.14Z"/><path class="cls-1" d="M202.9,64.58s.08,0,.11-.1C203,64.59,203,64.6,202.9,64.58Z"/><path class="cls-1" d="M217.34,56.49a2.43,2.43,0,0,0-.59-.06A.81.81,0,0,1,217.34,56.49Z"/><path class="cls-1" d="M59.52,55c-.32-.06-.05-.09,0,0Z"/><path class="cls-1" d="M57.94,58.14a.67.67,0,0,1,.13.39A.77.77,0,0,0,57.94,58.14Z"/><path class="cls-1" d="M74.6,60.13h0C74.53,60.28,74.55,60.25,74.6,60.13Z"/><path class="cls-1" d="M59,55.34a1.44,1.44,0,0,1,.42-.24A1.87,1.87,0,0,1,59,55.34Z"/><path class="cls-1" d="M59.1,55l-.29.08C58.77,54.91,58.81,54.82,59.1,55Z"/><path class="cls-1" d="M60,55a1.29,1.29,0,0,0-.52.08c.06-.05.09-.1.07-.12Z"/><path class="cls-1" d="M176.33,62.44l.07-.08C176.73,62.69,176.59,62.64,176.33,62.44Z"/><path class="cls-1" d="M99.36,63.73s0,0,0,0l.05,0Z"/><path class="cls-1" d="M100.52,64.33c-.49-1-.77-.88-1.15-.67l.39-2.31Z"/><path class="cls-1" d="M144.68,64.48c1.07-1.06,2.08.27,2.66.93.41-.37-.32-1.89.85-1.47,1.65.49-.31,1.83.68,2.12l.71-1.3c1.27,1,2.22.11,3.28-.06a.73.73,0,0,1,.42.38c1.14-.56,2.38,1.27,3.24.85-.2-.27.49-.82.59-1.14l1.55.81c-.68-.34-.65-1.09-.78-1.82.48.08.71.49,1,.59-.2-.27-.4-.53-.15-.87l1.62,1.24a.72.72,0,0,1-.43.2c.4,0,1.28.48,1.86-.13,0-.28-.25-.55-.3-.84-.49.82-.77.12-1-.44,1.12.13.28-.19.82-.72.79,0,1.11,1,.9,1.65.9-.29,1.18-.48,2.09.27l-.17-1L165,64l-.67-1.23c1.6-.69.29,1.74,2.07,1.17v-.9c.68.35.92,1.85,1.45.78.67.54-1.14,1.26.43,1.44a2.77,2.77,0,0,1,1.32-1c.5.41-.38,1.06-.7.94,2.36.42,1.46-3,3.57-1.88-.72.64.6,1.73-1.11,1.7.82.53,1.61-1.29,2.46-.32l-.55-1.14c.3,0,.65.4.81.53l-.07-.87c1.06,1.53,2-.73,2.59,1.28-.44-1.58.78.09,1.2-.52-.87-1.12-2.48,0-2.6-1.44.4-.44.76.28,1.15-.15a2.83,2.83,0,0,1-.77-.9c1.33-.83,2.09.88,2.9,1.26L177,62.46c.12,1.46.64.25,1,1.4.72-.79,1.27.35,1.85-.13-.15,0-.16-.14-.31-.13,1.55,0,2-2.35,2.6-2.39s1.75.61,1.34,1.23c.49.4-2.07-.44-1.18,1.46.89-2.19,1.83.82,3.76-.68-.85-.78.49-1.23-.26-1.82.92.17.95.5,1.36,1.12l.28-.68c1.2,1.53.28,1.35,2.1,2.17-.61-.53.74-1,.27-1.47a1.63,1.63,0,0,1,1.37.57l-.07-.1c1.84.36,1.51-.86,3.19-.1l-.17.42c2.2,1.11,5,.39,7.26.9l-.81.34c.25-.21,1.54.65,2.25,0-.14,0-.39-.23-.52-.17,0-.46.29-1.15.84-1.26l.21.7.22-.55c.84,0-.24,1,.59,1,.49-2,3.59-.27,4.31-2,.57,1.47-1.58.22-1,1.54.25-.22.36-.49.91-.61l-.19.88c2.52-.5,3.48-1.25,5.73-1.06l-.09-.19c.8-.34,1.23-.18,1.59.57.16-.41-.41-.61-.1-1,1.41,2.25,2.81-1.64,3.67-.07-.11-1.77,1.73-3.46,1-4.84l.58.21c-.19-1.16-1.81,0-2.14-1.25l-1.82,1.23c.05-.44-.24-1.1.05-1.25-.45,0-.85-.08-.26-.71-4.35,3-8.82.09-13.1,1.68-.29-.11-.12-.52,0-.79-.79,1.12-.76-.59-1.19-.75L201,57.48c-.47-.48-.11-1-.14-1.3-2.19-.33-4.32,1.26-6.09.3-.56.58.14,1.31-.61,1.51,1-1.68-2.16-.79-1.52-2-.72,1.78-2.68.38-2.35,2.85-.89.15-.74-1-.48-1.27a3.08,3.08,0,0,1-2.71-.67c-.57.58-4.72-.62-5.64,1.25.63-1.21-.05-.63-.65-1.16l.54-1.06-1.36.11c-.28-.1-.36-.06-.35,0-.24,0,0,.62-.54.89-.92.06-1-.52-1.48-1.07l.15-.16-.63-.1c-.47,0,1.63,1.06.12,1.6,0-.29-.9-1.7-1.31-.93.77-.06.67.69.39,1l-1.08.08.36-1.35c-3.1.07-6.32,1-9.63,1,.05,1.18-2.34.06-2,1.8l.13-.17c.81.17-.24,1.37-.9,1.18.69-.56-1.24-1.74.44-2l-1.3-.83c-.72-3.33-3.46.28-5.43-.79a.74.74,0,0,1,.2.41c-1.75-1.07-3.93.9-4.33.37l-.16.91c-1.49-1.4-1.67-1.52-3.45-.95,0,.15.23.41-.05.6-.43-.68-.86-1.35-2.08-1.17l.05.29-1.91-.15c0,2.82-3.27-1.73-3.85,1.33-.37-.82-1.77-1.08-2.39-1.47a.6.6,0,0,1-.15.38c-.73-1.52-2.11.47-2.92.3-.53-.36-.3-.85-.07-1.33-1,1.2-2.89-1.34-3.28-.83-.76.12-.28,1.08-.49,1.71-1.14-.27.19-2.55-1.34-1.43.18.12.5.22.38.39-.59.24-1.63,3.48-2.21,2.83l.38-.51c-1.07-.73-2.52,2.3-2.69.4l.1-.89c-1.84,1.17-.78-.35-2.64.68l0,.15c-.81-.18-1.25.93-1.65-.49l.28-.2a8.39,8.39,0,0,0-2.12.07c-.12-.14-.62-.35-.76,0,0-1.18-2.38-.54-2.84-.47.81.17.43.67.2,1.15-.48-1-.81-1.06-1.47-.36-.1-1.47-.23-3-1.54-3.13.2.22.52.35.39.65s-.44,0-.54-.14c-.13.3.29.54.15,1.05-.89-1.41-1.53-.1-2.81-.6.41.44.06.73-.09,1.24-.1-1.67-1.75,1.45-1.27-.7-2.5,1.29-6.36.09-7.34,1.48-.26.6-1-.38-1.39-.4l0,.73c-1.22-1.33-1-.5-2.38-1.83.59.87.34,1.27-.26,2l-1-1.52-.19,1.13c-.41-.45-.86-.27-1.31-.09.22,0,.1.11.08.32-.21-1.57-2-1.39-2.25-2.14-.44,1.54-1.18-.38-1.5,1a2.09,2.09,0,0,0-.54-.53c.21-.67.29-1.42-.11-1.09a.32.32,0,0,0-.09,0l-.17.89a3,3,0,0,0-1.09-.33,2,2,0,0,0,.41-.44c-.17.13-.34.3-.49.44h-.15a.18.18,0,0,0,.09,0,.58.58,0,0,1-.86,0c-1.41,1.36-3.15-1.87-4.71,0,.23-.19.56-.27.65.05-1.31-.09-2.61,1.18-3.43.5l.06-.83A6,6,0,0,0,79.6,55l0-.93c-1.12.34-3.54-1.17-4.22.76-.28-.75-1.56.22-2.2,0l-.16.72a2.45,2.45,0,0,1-1.84-.23c-1.69,1.5-3.26,0-4.73.12l0,.21-1.5-.51c.4.64-.29-.45-.74-.27a1.55,1.55,0,0,0-1.81.3l-1,0c1.06.49-.07,1-.13,1.87l-.61-.66c-.25.39.39.64-.06.82-.41-.44-1.62-.41-2-1.27A1.25,1.25,0,0,1,59,55.4c.06.05.05,0,0,0l0,0-.05,0a2,2,0,0,1-.17-.33c-.76.18-.48-.16-.45-.53-.86,1.29-1.34.42-2,1.94.89-1.71-2,0-1.42-1.64-.64,1.3-.44.06-.85,1.18.9-.36,1.8.84,2.53,1.41l-.72.78c.47,1.49,1.61-.55,2,0-.28-.34-.93,0-1,.33l.19-1.13c1-.45,1.84.43,2.56,1-.68.37.83.68.33,1.48l-.54-.14c-.25.4.28.74.58,1.08,1.71-.83,4.84-.11,5.45-1-.35.29-1,0-1.3-.29l.8-.47c-.65,0-1.16,1-2.12.59.16-.72-.53-1.7.19-2.69,1.84-1.13,1.51,1.87,3.73,1.59.2.23-.47-1.17.71-.78a4.61,4.61,0,0,1,2.57,3.91c-.63-.46-1.87-1.37-2.07-.24.63.46,1.7.73,1.76,1.47.64-1.31-1.18-.39-.33-1.48.44,0,.62.46.83.68-.29-.54.39-.91.52-1.22,1.42,0,2.24-.58,3.76-.69a2.1,2.1,0,0,0,.2-.93c.74.36,1.8,2.31,1.53,3.13.87.05.91-.57,1.66-.21-1.19,1.17.23-.19.36,1.07.75.15.26-.61.61-.9a1.74,1.74,0,0,1,.45.89c.46-1-.91-2.49-.36-3.6a11,11,0,0,1,2.13-2,17.91,17.91,0,0,1-.29,6.86c.06.73.72-.79,1-.86,1-1.19,1.47.92,2.27.46l-.61-.67c.13-.3,1.31.09,1.5.52,0-.42-.61-2.13-.25-2.63,1.44-.22,2.81,2.07,2.72,3.31l-2.21-1.29c-.07,1,1.57,1,1.48,2.28l2-.37c-.26,0-1-.33-.73-.9.87.06.45-.18,1-.66a38.55,38.55,0,0,1-3.48-6.28l1,.69.26-.6c1.37.82,2.6,4.87,3,5.93.79-.26.51-2.47.32-2.9,1.55-.11,1.53,3.13,3.09,2.81l-.59.48c.37.21,1.7-.24,1.56.17.31-.59.59-2,.25-2.35L96,63.61a15.33,15.33,0,0,1-.16-2.31c.56-.07,1,2.05.6,2.34,1.08-1.28.81-.58,1.69-2.08.32.12,0,1.88-.27,2.07a1.22,1.22,0,0,0,1.49.06c-1.19-.76-.32-4-.55-5.32l2.57,5.28a19.64,19.64,0,0,1-.28-2.21c.22,1.57,3.16,1.78,4.6,1.56l-.21,0c-.29-.54.94-1,1.45-.42-.08-.32-.2-.22-.42-.24,1-1.18,1.25,2.38,2.23,1-.89.15-1.06-.48-1-1.1.73.56,2.42-.05,2.06,1.8.47-.39.89-.16.85-1.09l1.79,1.1c-.13-.19-.25-.74.28-.86-1,.24-2-1.48-2.51-.27,0-1.15.35-1.76-.13-2.72,1.94.54,3,2.49,4.22,3.82l1.71-.83.07.52.29-1.31c.22.3.35.56.4.44a.81.81,0,0,0-.1-.49.89.89,0,0,1,.43.32,4.86,4.86,0,0,0-.56-2.21c-.15.25-.31.5-.47.73-.33-.66-.57-1.34-.11-1.77l.24.28c-.21-.49-.34-.9-.19-1.09l1.31.63a10.29,10.29,0,0,0-.63,1c.81.86,1.75,1.91,1,2.8l1-.77a7.87,7.87,0,0,0,2.38,2c.08-.45-.3-.84,0-1.18,1,1.48,2.52-1.72,2.75-.42.83.32.35,1.14.88,1.5,0-.15-.08-.44.08-.46l.63.94c.25-.33-.58-.65.13-1.06,1.22.71,1.93,1.19,3,.74,1.45.22-.62,1.88.6,1.69.18-.77.34-1.68,1.1-1.8.41.53.35,1.13,1,1.47l-.05-1.18c.64.05,1.14.27,1.15-.62.52.5.88.41,1.15.23,1,.62-.71,2.39-.94,2.86.95-.89,1.6-.38,2.14-1.8l-.83-.32c1.78-1.46,1.69,1.68,2.52-.83-.62.09-1.35-.54-1-1.19l.89.61c.1-.31-.51-.22-.1-.58a8.94,8.94,0,0,1,1,1.26l0-.07,1.6.2a.22.22,0,1,1-.07-.44l1.05.62c-.32-.29,0-.66.48-.85,1.35-.36,1.08,2.66,2.13,1.46-.15,0-.18-.13-.33-.1l.54-.53c.11,2.51,3.17.25,3.29,2.76.77-1,.05-.6-.93-1.79l.81-.72C145.31,64.53,145,64.72,144.68,64.48Zm-10.38-.19c-.17.52-.64-.05-.88-.24C133.82,63.76,134,63.27,134.3,64.29Zm-18.71-2.57c-.3.33-.58.48-.75.18A.76.76,0,0,1,115.59,61.72Zm-52.49-6,0,0C63.44,55.53,63.63,55.4,63.1,55.74Zm-.58.15c-.28.07-.52,0-.6-.17a.33.33,0,0,0,.06.37C62.3,56.29,62.45,56.13,62.52,55.89Zm117.06.78.22-.23C179.93,56.7,180.07,56.93,179.58,56.67Z"/><path class="cls-1" d="M116.94,63.12a1.53,1.53,0,0,0,.11-.48A.34.34,0,0,1,116.94,63.12Z"/><path class="cls-1" d="M153.25,65.09h0a1.24,1.24,0,0,1,0,.16Z"/><path class="cls-1" d="M79,63.64a1.07,1.07,0,0,0,.44-.46C79.42,63.4,79.32,63.58,79,63.64Z"/><path class="cls-1" d="M56.16,54.57l.71.24c-.34-.05-.47.15-.64.29C56.25,54.89,56.38,54.59,56.16,54.57Z"/><path class="cls-1" d="M50.06,60.09c-.1-.11-.21,0-.32-.13l0-.41C50.21,59.58,50.52,59.91,50.06,60.09Z"/><path class="cls-1" d="M55.51,57.53c0,.75-.49.5-1,.36h.09C54.47,56.84,55,57.19,55.51,57.53Z"/><path class="cls-1" d="M54.41,57.86a1,1,0,0,0-.46,0C53.9,57.43,54.14,57.76,54.41,57.86Z"/><path class="cls-1" d="M60.59,55.59c-.24.19-.15-1-.28-.65C60.05,54,61.86,56.09,60.59,55.59Z"/><polygon class="cls-1" points="55.11 60 55.29 59.08 55.57 59.82 55.11 60"/><path class="cls-1" d="M59,59.32l-.79.26a.32.32,0,0,0-.21-.32C58.49,59.23,59,59.05,59,59.32Z"/><path class="cls-1" d="M58,59.26a.76.76,0,0,1-.63-.15A1.68,1.68,0,0,1,58,59.26Z"/><polygon class="cls-1" points="56.19 60.28 56.42 60.09 56.98 60.02 56.19 60.28"/><path class="cls-1" d="M67.46,59.15l.86.26c.08.32-.15.51-.47.39S67.32,59.45,67.46,59.15Z"/><path class="cls-1" d="M64.86,61.68c.23-.19.25-.4.38-.7l0,1.14Z"/><path class="cls-1" d="M67.36,62c.09.32,1.25.91.16.84C67.43,62.47,66.57,62.21,67.36,62Z"/><polygon class="cls-1" points="80.3 60.5 80.08 60.48 80.11 58.6 80.3 60.5"/><path class="cls-1" d="M91.7,65c-1,.45-.24-1.16-1.16-.6-.24-.45.75-.46.51-.84C91.66,64,92,63.76,91.7,65Z"/><path class="cls-1" d="M91.05,63.56a2.71,2.71,0,0,1-.32-.29A1.18,1.18,0,0,1,91.05,63.56Z"/><polygon class="cls-1" points="219.74 55.48 220.39 55.09 219.97 55.72 219.74 55.48"/><path class="cls-1" d="M221,56.88l.16-1.2.39,1.09C221.39,56.71,221.11,56.61,221,56.88Z"/><path class="cls-1" d="M131.6,66.46l0-.28c.1-.32.26-.34.56-.39Z"/><polygon class="cls-1" points="140.47 65.57 140.32 65.59 140.61 64.51 140.47 65.57"/><path class="cls-1" d="M147.92,67c-.3,0-.66-.2-1-.15C147.62,67,148,65.6,147.92,67Z"/><path class="cls-1" d="M74.92,9.74c.12-.21.59.41.71.48C75.23,10.36,74.78,9.58,74.92,9.74Z"/><polygon class="cls-1" points="70.96 11.06 71.23 11.25 70.29 11.07 70.96 11.06"/><path class="cls-1" d="M68.4,13.51c-.66-1.19,1.08-.73,1.22-1.5l-.14-.29.94.57C69.75,12.7,68.54,12.87,68.4,13.51Z"/><path class="cls-1" d="M69,16.88c-.27-.46-.6,0,.21-.42a.57.57,0,0,0,0,.15A1,1,0,0,0,69,16.88Z"/><path class="cls-1" d="M69.24,16.61c.29-.23.12.48,0,0Z"/><path class="cls-1" d="M67.79,17.58h.67c.13.29-.14.64.13.69C68.05,18.43,67.92,18.14,67.79,17.58Z"/><path class="cls-1" d="M66.79,17.2l.31,0C67.16,17.29,67.14,17.37,66.79,17.2Z"/><path class="cls-1" d="M67.78,17.09l-.68.07c-.09-.2-.38-.51.29-.06C67.09,16.85,67.42,17.05,67.78,17.09Z"/><path class="cls-1" d="M67.86,16.73c0-.39.14-.77-.53-.76C68.13,15.45,68.67,16.22,67.86,16.73Z"/><path class="cls-1" d="M67.33,12.64v-.53l.53.1C67.61,12.16,67.6,13,67.33,12.64Z"/><path class="cls-1" d="M66,20.18a7.84,7.84,0,0,1-.62-.95h.49C65.9,19.49,65.77,19.86,66,20.18Z"/><path class="cls-1" d="M65.42,19.23l-.72,0C65,18.88,65.23,19,65.42,19.23Z"/><polygon class="cls-1" points="65.72 16.2 67.06 16.32 65.58 16.31 65.72 16.2"/><polygon class="cls-1" points="64.56 21.63 65.23 21.89 64.16 21.55 64.56 21.63"/><path class="cls-1" d="M63.48,22.49c.54.23.4.88.81,1a2.25,2.25,0,0,1-1.38,0C63.29,23.37,63.48,23.1,63.48,22.49Z"/><path class="cls-1" d="M62.14,23.3a3.63,3.63,0,0,1,.77.11A1.78,1.78,0,0,1,62.14,23.3Z"/><path class="cls-1" d="M64.12,20a1.22,1.22,0,0,1,.24.88L64,20.15Z"/><path class="cls-1" d="M64,20.13l0,0-.31.35Z"/><path class="cls-1" d="M64.16,20l0,0C64.08,19.92,64.08,19.9,64.16,20Z"/><path class="cls-1" d="M65.18,17.69c-.54-.1-1.35,0-1.34-.91C64.37,17,64.37,17.54,65.18,17.69Z"/><path class="cls-1" d="M63.67,19.06l.3-.53c.13.16.27.45.53.5Z"/><polygon class="cls-1" points="63.3 19.07 63.67 19.06 63.56 19.25 63.3 19.07"/><path class="cls-1" d="M62.35,22.08a1.11,1.11,0,0,0-.9.26,2.29,2.29,0,0,1,.56-.85C62.21,21.64,62.62,21.86,62.35,22.08Z"/><path class="cls-1" d="M63.09,21.08H63C63,21,63,21,63.09,21.08Z"/><path class="cls-1" d="M59.26,24.43l-.06-.14.1.1Z"/><path class="cls-1" d="M62,21.34c.07-.28.31-.24.58-.16a1.75,1.75,0,0,0-.52.31C61.92,21.42,61.86,21.37,62,21.34Z"/><path class="cls-1" d="M61.27,23.61a2.48,2.48,0,0,1,0-.61C61.37,23.27,61.45,23.73,61.27,23.61Z"/><path class="cls-1" d="M63.1,21.3h0C63.21,21.48,63.16,21.42,63.1,21.3Z"/><path class="cls-1" d="M63.1,21.3a1.82,1.82,0,0,1-.57-.12,1.36,1.36,0,0,1,.48-.09C63,21.15,63.07,21.23,63.1,21.3Z"/><path class="cls-1" d="M55.11,21.39c.53.5,1.47.54,1.34-.42.78,0,2.17,2,2.75,3.32a1.17,1.17,0,0,0-1.15-.35c-.13-.43.27-1.55-.53-1.7-.81.25-.27.62-.27,1.15-.4-.88-1.61-.3-2.41-1.39l.8-.11C55.51,21.73,55.11,21.65,55.11,21.39Z"/><path class="cls-1" d="M59.93,23.49l.23-.09a2.53,2.53,0,0,0,.1,1.28,1.35,1.35,0,0,1-1-.29l.76-.87Z"/><path class="cls-1" d="M60.93,22.68c-.68-.46-1.32-.31-1.67-1.18.54-.43.81.16,1.35.12-.94.62.53.11.26,1a1.48,1.48,0,0,0,.58-.26,2.89,2.89,0,0,0-.16.66l0-.05h0c0-.11-.07-.16-.07-.08h0l-.25-.18c-.12.34.11.18.25.18l.09.08h0l-1.11.45C60.26,23.16,60.49,23,60.93,22.68Z"/><path class="cls-1" d="M62.23,15.94a.32.32,0,0,0,.1.16C62.21,16.08,62.15,16.05,62.23,15.94Z"/><path class="cls-1" d="M62.23,16.61c.13,0,.4.21.54,0s-.27-.28-.44-.48c.26,0,.8,0,.7.66l-.13,0a2.69,2.69,0,0,0,.26,1.65A8.28,8.28,0,0,1,62.23,16.61Z"/><path class="cls-1" d="M61.42,19.52l-.94.35-.14-.82.27.31C60.88,18.88,61.15,19.33,61.42,19.52Z"/><polygon class="cls-1" points="59.45 24.79 60.12 25.32 58.92 24.82 59.45 24.79"/><polygon class="cls-1" points="58.51 25.55 59.05 26.05 58.51 25.95 58.51 25.55"/><path class="cls-1" d="M18.79,71.6l.08.34A.79.79,0,0,1,18.79,71.6Z"/><path class="cls-1" d="M17.22,70.42l.18-.31C17.35,70.32,17.29,70.46,17.22,70.42Z"/><path class="cls-1" d="M37,45.81c.18.77.59,1.84.06,1.21l-.46-.66A.53.53,0,0,0,37,45.81Z"/><path class="cls-1" d="M19.05,56.27,19,56c.27.12.51.25.73.36C19.5,56.33,19.28,56.3,19.05,56.27Z"/><path class="cls-1" d="M16.34,54.26l-.15.85A2,2,0,0,1,16.34,54.26Z"/><path class="cls-1" d="M26.68,79l-.26.83C26,79.48,26.46,79.3,26.68,79Z"/><path class="cls-1" d="M49.37,33.81a1.77,1.77,0,0,1-.28.94C49.07,34.13,48.83,33.4,49.37,33.81Z"/><path class="cls-1" d="M23.47,64.46a.6.6,0,0,1-.12.53A.51.51,0,0,1,23.47,64.46Z"/><path class="cls-1" d="M48.37,35.42a2.25,2.25,0,0,1,0-.26,1.26,1.26,0,0,0,.72-.41C49.1,35.2,49,35.6,48.37,35.42Z"/><path class="cls-1" d="M57.63,102.69a.69.69,0,0,0,.13,0C57.7,102.76,57.66,102.74,57.63,102.69Z"/><path class="cls-1" d="M71.55,103.43a1.64,1.64,0,0,0-.32-.34C71.32,103.1,71.43,103.19,71.55,103.43Z"/><path class="cls-1" d="M55.24,29.13c.22-.14.09,0,0,0Z"/><path class="cls-1" d="M54,26a.8.8,0,0,1-.34-.22A1.15,1.15,0,0,0,54,26Z"/><path class="cls-1" d="M43.09,33.55v0C43,33.4,43,33.43,43.09,33.55Z"/><path class="cls-1" d="M55.27,28.6a1.34,1.34,0,0,1-.07.4A1.06,1.06,0,0,1,55.27,28.6Z"/><path class="cls-1" d="M55.49,28.91l.11-.21C55.72,28.78,55.75,28.86,55.49,28.91Z"/><path class="cls-1" d="M55,29.34A.84.84,0,0,0,55.2,29c0,.07,0,.12,0,.13Z"/><path class="cls-1" d="M42.6,88a.32.32,0,0,0,.09,0C42.69,88.41,42.63,88.3,42.6,88Z"/><path class="cls-1" d="M26.48,44.34h.05v0Z"/><path class="cls-1" d="M25.4,44.54c1,.45,1.05.21,1.12-.14l1.37,1.88Z"/><path class="cls-1" d="M21.83,74.13c1.32-.3,1.12,1.23,1.07,2,.47-.08,1-1.63,1.43-.74.71,1.19-1.33,1.28-.9,2l1.25-.67c.16,1.4,1.29,1.17,2.05,1.56a.63.63,0,0,1,0,.5c1,.12.67,2.16,1.47,2.25,0-.31.81-.4,1.07-.6l.45,1.39c-.21-.6.27-1.18.65-1.8.25.29.13.72.27,1,0-.3.09-.61.45-.75L31.35,82a.55.55,0,0,1-.4,0c.25.2.5,1,1.23.81.15-.25.19-.56.34-.81-.81.4-.54-.28-.35-.84.61.65.29,0,.95-.16.47.4.05,1.34-.47,1.73.73.21,1,.2,1.12,1.23l.52-.88.32.66.35-1.3c1.42.25-.9,1.51.55,1.93l.56-.69c.21.6-.58,1.89.41,1.32.08.74-1.48.42-.63,1.33a2.36,2.36,0,0,1,1.42-.12c.06.57-.89.64-1,.39,1.19,1.48,2.8-1.67,3.36.28-.84.15-.7,1.65-1.73.79.17.81,1.79-.22,1.71,1L40,87.43c.2.13.15.63.17.81l.5-.72c-.31,1.72,1.66.39.79,2.27.72-1.45.43.46,1.07.18.16-1.3-1.55-1.19-.71-2.39.53-.15.3.58.81.44a2.62,2.62,0,0,1,.09-1.08c1.33,0,.73,1.71,1,2.4l-.66-1c-.84,1.2.23.51-.23,1.6.93-.26.56.9,1.22.81-.1-.07,0-.19-.12-.26.94.79,2.68-.87,3.09-.6s.7,1.34.06,1.62c.06.56-1-1.35-1.63.57,1.91-1.29.61,1.53,2.74,1.3,0-1,1.07-.72,1-1.55.46.59.27.86.14,1.55l.6-.4c-.22,1.79-.67,1.2-.06,2.73,0-.72,1.07-.42,1.08-1a1.18,1.18,0,0,1,.49,1.11v-.11c.92,1.18,1.47.07,2,1.49l-.36.24c.66,1.94,2.82,2.74,3.91,4.26l-.71-.13c.28,0,.54,1.26,1.38,1.1-.07-.1-.1-.36-.22-.38.3-.36.9-.76,1.31-.58l-.31.65.48-.32c.52.4-.78.68-.26,1.08,1.55-1.35,2.38,1.54,3.93.5-.56,1.42-1.11-.61-1.55.74a1.34,1.34,0,0,1,.94,0l-.66.6c1.87.84,2.92.73,4.19,2l.06-.19c.71.12.87.46.62,1.23.36-.24.14-.69.55-.82-.53,2.45,2.76.09,2.31,1.74,1-1.44,3.22-1.86,3.6-3.32l.23.45c.6-1-1.1-.91-.55-2l-1.88.07c.31-.32.53-1,.81-1-.27-.24-.47-.48.28-.68-4.53.2-5.49-4.24-9.11-5.1-.11-.22.24-.47.48-.63-1.18.5-.1-.82-.26-1.16l-1.72.71c0-.61.54-.82.72-1.09-1.14-1.33-3.44-1.13-3.93-2.75-.71.18-.73,1.09-1.31.89,1.66-.82-.85-1.68.28-2.29-1.55,1-1.88-1-3.22,1.09-.64-.32.2-1.19.49-1.24A2.07,2.07,0,0,1,52.68,89c-.71.18-2.52-2.79-4.25-1.78,1.14-.64.36-.52.32-1.22l1-.57-.91-.58c-.11-.21-.19-.22-.25-.14-.17-.07-.35.51-.87.43-.62-.4-.28-.88-.25-1.56l.18,0-.32-.39c-.3-.2.35,1.63-.92,1.32.17-.24.5-1.77-.23-1.37.51.33,0,.86-.38,1l-.72-.47,1.06-.88c-2-1.46-4.53-2.28-6.51-4-.71.94-1.48-1.1-2.38.41l.18-.07c.4.53-1,1-1.28.48.77-.1.32-2,1.51-1.35l-.28-1.28c1.62-3-2.31-1.47-2.86-3.28a.8.8,0,0,1-.13.42c-.42-1.69-3-1.22-2.9-1.83l-.66.64c0-1.83-.08-2-1.53-2.44-.08.13-.12.43-.41.45.16-.74.31-1.48-.56-1.93l-.15.25L27.1,68.15c-1.74,2.22-.94-3-3.2-.83.29-.83-.41-1.72-.55-2.33a.76.76,0,0,1-.32.22c.24-.77-.16-.94-.67-1a1.47,1.47,0,0,0-.66.07c-.18,0-.33,0-.37-.06.07-.4.54-.65.94-.94-.57.31-.56-.11-.33-.46s.65-.67.36-.58a11.32,11.32,0,0,0-1.88.68c-.06-.38,2.81-1,1.24-.84-.11.07-.15.17-.37.21s-1.31.22-2.41.32-2.15.09-1.86-.1l.84,0c.24-.25-.65-.33-1.5-.47s-1.59-.3-.68-.4l.45,0h.57l.78,0h-.09c-.49-.28-.25-.39,0-.45s.44-.11.14-.53h-.2c.54-.27-.59-.73,1.28-.54l.13.14c.5-.32.41-.38.72-.77.19,0,.58-.07.34-.25,1.17.51,1.27-.46,1.42-.7-.41.15-.69-.27-1-.69,1,.41,1,.52,1-.4,1.06,1,2.22,2.09,3,1.44-.26,0-.53,0-.66-.26s.26-.21.4-.19c-.13-.29-.54-.23-.8-.68,1.47.54.94-.76,2-1.09-.54-.1-.54-.5-.8-.94,1.2,1.15,0-2,1.2-.18.55-2.29,3.57-3.51,3.17-5.05-.26-.58.81-.25,1.08-.46l-.54-.5c1.61.3.88-.16,2.62,0-.93-.31-1.07-.74-1.2-1.56l1.61.57-.67-.93c.54.1.67-.27.81-.64-.14.1-.14,0-.27-.19,1.2,1,2.08-.06,2.75.33-.8-1.35.94-.36.14-1.57a2.33,2.33,0,0,0,.68.1c.34.6.81,1.18.81.73l.07,0-.51-.74a2,2,0,0,0,.84-.35,2.13,2.13,0,0,0,.07.54,5.52,5.52,0,0,0,0-.58l.08-.09a.07.07,0,0,0-.08,0c0-.29.07-.5.48-.48-.13-1.75,3.08-.35,2.69-2.55,0,.27-.14.51-.4.32.8-.64.67-2.27,1.61-2.22l.54.63A3.76,3.76,0,0,0,43.73,40l.67.66c.41-.86,2.82-1.07,1.89-2.84.67.39.73-1,1.27-1.17l-.4-.61a1.57,1.57,0,0,1,1.21-.83c-.07-2,1.84-1.77,2.61-2.65l-.13-.16,1.21-.43c-.67-.26.47.16.61-.21.51,0,.82-.56.82-1.2L54,30c-.94.23-.66-.79-1.2-1.42l.8.15c-.13-.42-.67-.26-.53-.63.54.1,1.21-.57,2-.15a1.31,1.31,0,0,1,.17.62c-.06,0,0,0,0,0v0a1.82,1.82,0,0,1,.32.15c.31-.54.38-.14.62.14-.39-1.4.48-1-.19-2.49.67,1.73,1.14-1.06,1.94.42-.53-1.29.21-.28-.32-1.31-.27.75-1.61.36-2.42.34l-.13-1C53.81,24,54.56,26.11,54,26c.4.1.54-.5.32-.76l.67.93c-.27.88-1.34.68-2.14.66.13-.64-1,0-1.21-.89l.4-.19c-.13-.43-.67-.39-1.07-.47-.41,1.52-2.69,2.69-2.42,3.67,0-.4.54-.56.94-.49l-.14.77c.4-.32,0-1.33.81-1.57.4.6,1.47.94,1.74,2.05-.28,1.81-2.15-.54-3.22.86-.27-.05,1.07.6.13,1a4.82,4.82,0,0,1-4.16-1.45c.67,0,2,0,1.35-.94-.67,0-1.48.38-2-.12.53,1.3.93-.35,1.2.89-.27.22-.67,0-.94,0,.54.23.4.87.54,1.16-.81.78-.88,1.64-1.67,2.54a2.74,2.74,0,0,0,.52.79,4.28,4.28,0,0,1-3-1.45c-.53.43-.14.91-.81,1-.13-1.49,0,.27-.93-.58-.54.3.26.58.26,1a2.11,2.11,0,0,1-.87-.4c.39.94,2.23,1.32,2.69,2.42a10.58,10.58,0,0,1,.2,2.64,22.5,22.5,0,0,1-4.56-5.13c-.54-.51.13,1,0,1.19.27,1.38-1.47.12-1.61.9l.8.15c.14.29-.8.64-1.2.44.26.31,1.81,1.21,1.94,1.77-.67.94-3,0-3.82-.93l2.14-.26c-.67-.79-1.61.09-2.41-.86l-.91,1.37c.17-.12.82-.33,1,.25-.54.44-.13.38-.14,1A42,42,0,0,1,38.7,41.6l-1.07.07.27.58c-1.34.15-4.84-2.12-5.78-2.7-.26.61,1.41,2.07,1.82,2.28-.81.91-3-1.44-3.7-.37v-.67c-.35.05-.8,1.1-1,.72.23.6,1,1.76,1.47,1.84l-2.21-.76c.26,0,1.41,1.41,1.67,1.59-.27.35-1.94-1-1.94-1.37a7.68,7.68,0,0,0,.47,2.42c-.27.09-1.28-1.38-1.28-1.64-.74,0-.83.43-.89.76,1.2-.09,2.92,2.71,4,3.56L25.4,45.47c.27.18,1.55,1.3,1.68,1.45-1.2-1-3,.43-3.69,1.36l.13-.1c.54.23.13,1.22-.54,1.09.27.18.27,0,.4-.05.27,1.38-2.35-1.06-1.95.48.4-.59.94-.22,1.34.26-.8,0-1.34,1.34-2.41-.19,0,.53-.4.59.26,1.24l-1.78.17c.21.07.65.4.44.78.4-.72,2.14,0,1.61-1.16.8.82,1,1.46,1.95,1.9-1.48.66-3.43-.18-5-.49l-.4,1.52-.4-.34c.25.37.48.75.71,1.15-.38-.07-.68-.14-.62,0s.22.19.43.26a1.19,1.19,0,0,1-.57.1A6.74,6.74,0,0,0,19,56l-.22-.79c.64.3,1.25.66,1.28,1.23l-.33-.08c.46.25.82.47.86.7l-1.11.18-.39-1c-1.07-.18-2.7-.08-2.86-1.16-.06.42-.1.81-.12,1.18a9.18,9.18,0,0,0-1.92.27c-.44.12-.86.27-2,.71.43.22,1.16.06,1.31.38-1.23.15-1.33.84-1.19,1.33s.43.87-.5.86c-1.08.58-1.78.12-2.74.52.23,0,.66,0,.56.11L7.69,61c.25.22,1.43-.47,1.39.13-.73.35-1.4.67-2,1,.16.5.58,1,1.62,1.41.56.59-.19.59-1,.52s-1.5-.19-.68.35c1.22,0,2.57-.12,3.45.43-.24.49-1,.64-.66,1.36l1.3-.48c.57.52.86,1,1.79.63a1,1,0,0,0,.87,1c.17.54-.51.75-1.42.78s-2-.15-2.39-.15c2,.45,2.3,1.34,4.09.95l-.6-.88c1.56.3,1.58.86,1.69,1.31s.21.74,1.48.15c-.67-.42-.86-1.37,0-1.54.09.34.21.68.33,1,.31-.15-.29-.51.32-.48a12.29,12.29,0,0,1,.06,1.66l0-.07.86.94c-.21-.11,0-.49.23-.37l.26,1c0-.39.42-.51.83-.43,1.05.38-1,2.61.4,2.18-.11,0,0-.18-.14-.24l.66-.15c-1.49,2,1.8,1.76.31,3.78,1.1-.42.41-.45.54-1.86l.95-.16C22.19,74.48,21.9,74.49,21.83,74.13Zm-7.28-6c-.63.17-.61-.55-.65-.82C14.57,67.44,15.17,67.29,14.55,68.1ZM18.6,54.59c-.06-.41,0-.67.3-.55C18.9,54.36,18.78,54.52,18.6,54.59ZM52.67,30.51l0,0C52.62,30.85,52.61,31.05,52.67,30.51Zm.23-.42c.11-.2.26-.32.46-.2a.42.42,0,0,0-.29-.24C52.75,29.69,52.78,29.88,52.9,30.09Zm-4.71,55,.27-.08C48.39,85.28,48.32,85.53,48.19,85.1Z"/><path class="cls-1" d="M16.67,54.48a1.38,1.38,0,0,0,.28.4A.31.31,0,0,1,16.67,54.48Z"/><path class="cls-1" d="M26.73,78.8h0a1.09,1.09,0,0,1-.08.15Z"/><path class="cls-1" d="M38.18,33.37a1.07,1.07,0,0,0,.06.57A.4.4,0,0,1,38.18,33.37Z"/><path class="cls-1" d="M57.43,27.6l-.56.22c.23-.15.16-.36.16-.56C57.17,27.42,57.3,27.71,57.43,27.6Z"/><path class="cls-1" d="M57.12,20.3c.14,0,.13-.11.27-.08l.27.31C57.39,20.75,57,20.68,57.12,20.3Z"/><path class="cls-1" d="M55.77,25.1c-.49-.57-.06-.62.32-.79,0,0,0,0-.05.05C56.84,25,56.3,25.07,55.77,25.1Z"/><path class="cls-1" d="M56.17,24.27a.63.63,0,0,0,.27-.24C56.77,24.31,56.4,24.2,56.17,24.27Z"/><path class="cls-1" d="M54.21,29.26c0-.27.74.62.61.32C55.62,30.13,53.14,29.59,54.21,29.26Z"/><polygon class="cls-1" points="54.3 23.1 54.83 23.86 54.16 23.47 54.3 23.1"/><path class="cls-1" d="M52.55,25.69l.27-.61a.36.36,0,0,0,.34.12C52.9,25.48,52.72,25.9,52.55,25.69Z"/><path class="cls-1" d="M53.16,25.2a.49.49,0,0,1,.46-.23A1.16,1.16,0,0,1,53.16,25.2Z"/><polygon class="cls-1" points="53.49 23.48 53.49 23.74 53.22 24.09 53.49 23.48"/><path class="cls-1" d="M47.84,30.4l-.67.27c-.27-.18-.27-.45,0-.53S47.71,30.11,47.84,30.4Z"/><path class="cls-1" d="M47.58,27.16a1.61,1.61,0,0,0,.27.71L47,27.05Z"/><path class="cls-1" d="M46,28.32c-.27-.19-1.34,0-.67-.53C45.57,28,46.24,27.7,46,28.32Z"/><polygon class="cls-1" points="39.58 36.37 39.72 36.26 40.99 37.65 39.58 36.37"/><path class="cls-1" d="M30,39.28c.27-.88.94.71,1.07-.2.45.19-.11.74.29.89C30.67,40,30.67,40.33,30,39.28Z"/><path class="cls-1" d="M31.34,40a1.89,1.89,0,0,1,.38,0A1,1,0,0,1,31.34,40Z"/><polygon class="cls-1" points="73.66 103.81 74.3 103.82 73.65 104.11 73.66 103.81"/><path class="cls-1" d="M73.56,105.52l.84-.87-.43,1C73.91,105.58,73.8,105.36,73.56,105.52Z"/><path class="cls-1" d="M9.51,66.88l.26-.17a1.45,1.45,0,0,1,1,.34Z"/><polygon class="cls-1" points="18.57 72.93 18.46 72.87 19.31 72.16 18.57 72.93"/><path class="cls-1" d="M22.29,77.65c-.21-.11-.28-.48-.5-.59C22.08,77.54,23.18,76.63,22.29,77.65Z"/><path class="cls-1" d="M10.76,58.21c0,.12-.49-.51-.59-.61C10.42,57.62,10.88,58.37,10.76,58.21Z"/><polygon class="cls-1" points="13.28 58.46 13.06 58.23 13.75 58.67 13.28 58.46"/><path class="cls-1" d="M14.6,57.39c.69,1.14-.61.22-.56.77l.15.27-.77-.75C13.82,57.59,14.63,57.84,14.6,57.39Z"/><path class="cls-1" d="M13.54,54.6c.28.43.43.22-.06.25a1.34,1.34,0,0,0-.06-.12A.26.26,0,0,0,13.54,54.6Z"/><path class="cls-1" d="M13.42,54.73c-.16.08-.17-.41,0,0Z"/><path class="cls-1" d="M14.26,54.44l-.47-.21c-.15-.27,0-.45-.23-.58C13.91,53.7,14.05,54,14.26,54.44Z"/><path class="cls-1" d="M15,55.06,14.81,55C14.75,54.87,14.75,54.82,15,55.06Z"/><path class="cls-1" d="M14.35,54.82l.46.16c.11.19.37.53-.18,0C14.89,55.23,14.61,55,14.35,54.82Z"/><path class="cls-1" d="M14.36,55.07c.08.31.06.56.53.77C14.42,56,13.9,55.21,14.36,55.07Z"/><path class="cls-1" d="M15.52,58.41l.1.41-.4-.25C15.42,58.69,15.27,58.08,15.52,58.41Z"/><path class="cls-1" d="M15,53c.19.21.41.63.61.92l-.33-.14A1.54,1.54,0,0,0,15,53Z"/><path class="cls-1" d="M15.59,53.92l.51.22C16,54.33,15.77,54.18,15.59,53.92Z"/><polygon class="cls-1" points="15.97 56.18 15.01 55.65 16.04 56.14 15.97 56.18"/><polygon class="cls-1" points="15.74 52.35 15.22 51.93 16.04 52.54 15.74 52.35"/><path class="cls-1" d="M16.33,52c-.42-.35-.45-.81-.74-1,.2,0,.6.23,1,.47C16.3,51.42,16.21,51.56,16.33,52Z"/><path class="cls-1" d="M17.12,51.84a4.9,4.9,0,0,1-.56-.33A2.11,2.11,0,0,1,17.12,51.84Z"/><path class="cls-1" d="M16.36,53.75A1.85,1.85,0,0,1,16,53l.41.68Z"/><path class="cls-1" d="M16.45,53.7l0,0a1.35,1.35,0,0,0,.15-.17Z"/><path class="cls-1" d="M16.34,53.77s0,0,0,0S16.41,53.85,16.34,53.77Z"/><path class="cls-1" d="M16.06,55.2c.4.25.94.42,1.12,1.14C16.75,56,16.66,55.57,16.06,55.2Z"/><path class="cls-1" d="M16.85,54.63l-.1.31a2.3,2.3,0,0,0-.47-.56Z"/><polygon class="cls-1" points="17.12 54.74 16.85 54.63 16.89 54.51 17.12 54.74"/><path class="cls-1" d="M17.2,52.71a.55.55,0,0,0,.58.09.69.69,0,0,1-.23.48C17.38,53.1,17.05,52.79,17.2,52.71Z"/><path class="cls-1" d="M16.88,53.25l.05,0C17,53.33,17,53.35,16.88,53.25Z"/><path class="cls-1" d="M18.92,51.89,19,52l-.09-.11Z"/><path class="cls-1" d="M17.62,53.41c0,.2-.17.09-.37-.06a.44.44,0,0,0,.3-.07C17.63,53.36,17.68,53.42,17.62,53.41Z"/><path class="cls-1" d="M17.66,51.87a2.26,2.26,0,0,1,.11.47C17.66,52.11,17.52,51.73,17.66,51.87Z"/><path class="cls-1" d="M16.82,53.07l0,0C16.71,52.9,16.76,53,16.82,53.07Z"/><path class="cls-1" d="M16.82,53.07a2.58,2.58,0,0,1,.43.28.79.79,0,0,1-.32-.08Z"/><path class="cls-1" d="M22.41,55.59c-.47-.56-1.14-.9-.86-.12A12.66,12.66,0,0,1,19,52a1.76,1.76,0,0,0,.87.64c.17.37.1,1.11.69,1.49.52.07.08-.39,0-.8.45.8,1.19.75,2,1.85L21.94,55C22.06,55.19,22.36,55.38,22.41,55.59Z"/><path class="cls-1" d="M18.63,52.4h-.15a2.86,2.86,0,0,0-.31-1,1.94,1.94,0,0,1,.73.53l-.37.43Z"/><path class="cls-1" d="M18.08,52.71c.57.57,1,.67,1.39,1.44-.29.17-.59-.37-1-.52.54-.18-.39-.25-.37-.85a.58.58,0,0,0-.36,0,1.8,1.8,0,0,0,0-.46l0,0h0c0,.09.07.14.06.08s0,0,0,0l.2.22c0-.23-.11-.18-.2-.22l-.08-.09h.68C18.46,52.55,18.34,52.63,18.08,52.71Z"/><path class="cls-1" d="M18.46,57.5a.56.56,0,0,0-.1-.15C18.45,57.4,18.5,57.45,18.46,57.5Z"/><path class="cls-1" d="M18.34,57c-.1-.06-.33-.29-.37-.15s.23.3.39.51a1,1,0,0,1-.62-.74l.1.07a3.59,3.59,0,0,0-.5-1.36A15.68,15.68,0,0,1,18.34,57Z"/><path class="cls-1" d="M18.35,55l.59,0,.25.68-.25-.33C18.84,55.66,18.57,55.23,18.35,55Z"/><polygon class="cls-1" points="18.71 51.55 18.14 50.93 19.08 51.7 18.71 51.55"/><polygon class="cls-1" points="19.23 51.27 18.76 50.71 19.15 50.96 19.23 51.27"/><path class="cls-1" d="M50.42,38.12l.23.08A.57.57,0,0,1,50.42,38.12Z"/><path class="cls-1" d="M49.71,38.75l-.24-.27C49.62,38.61,49.73,38.71,49.71,38.75Z"/><path class="cls-1" d="M30.4,42.52c-.27-.65-.76-1.62-.27-1l.45.67C30.39,42.2,30.36,42.33,30.4,42.52Z"/><path class="cls-1" d="M41,40.23c0,.07.07.15.11.23l-.58-.52Z"/><path class="cls-1" d="M43.16,42.75,43,42.19A2,2,0,0,1,43.16,42.75Z"/><path class="cls-1" d="M55,35.58l.62.55C55.43,36.27,55.26,35.88,55,35.58Z"/><path class="cls-1" d="M24.05,47.82a.86.86,0,0,1,0-.63C24.2,47.67,24.5,48.31,24.05,47.82Z"/><path class="cls-1" d="M44.85,31.69a1,1,0,0,1,.39.31A.72.72,0,0,1,44.85,31.69Z"/><path class="cls-1" d="M24.44,46.9a1.94,1.94,0,0,1,0,.2c-.17,0-.34,0-.42.09C24,46.83,24,46.56,24.44,46.9Z"/><path class="cls-1" d="M69.27,23.42a.54.54,0,0,0,0-.1C69.31,23.4,69.3,23.42,69.27,23.42Z"/><path class="cls-1" d="M68.53,13.7c-.08,0-.14,0-.22.09S68.37,13.68,68.53,13.7Z"/><path class="cls-1" d="M20.83,49.55c-.13,0-.07-.06,0,0Z"/><path class="cls-1" d="M22.33,52.4a1.45,1.45,0,0,1,.28.28A1.43,1.43,0,0,0,22.33,52.4Z"/><path class="cls-1" d="M28.5,50.05h0C28.57,50.19,28.56,50.16,28.5,50.05Z"/><path class="cls-1" d="M20.91,50a.94.94,0,0,1,0-.28A.73.73,0,0,1,20.91,50Z"/><path class="cls-1" d="M20.7,49.64s0,.09,0,.13S20.53,49.6,20.7,49.64Z"/><path class="cls-1" d="M21,49.48a.22.22,0,0,0-.1.19.33.33,0,0,0-.06-.12Z"/><path class="cls-1" d="M60.07,28a.26.26,0,0,0,0-.08C60.35,28.09,60.27,28.08,60.07,28Z"/><path class="cls-1" d="M38.07,47.06l0,0v0Z"/><path class="cls-1" d="M38.79,47.25C38,46.59,38,46.75,38,47l-1.32-1.9Z"/><path class="cls-1" d="M52,37c-.34-1.08.79-.28,1.37.1-.11-.38-1.27-1.4-.67-1.35.8,0,1.05,1.51,1.52,1.51l-.59-1.19c1,.48.72-.44.94-.82a.82.82,0,0,1,.35.2c0-.7,1.5.44,1.49-.1-.23-.16-.36-.75-.53-1l1,.27c-.42-.11-.87-.7-1.36-1.24.19-.06.51.21.67.21a1.46,1.46,0,0,1-.58-.64l1.25.58a.35.35,0,0,1,0,.27c.12-.09.67.07.47-.54-.2-.21-.42-.38-.62-.59.37.75-.15.27-.57-.11.41-.16,0-.21-.21-.75.26-.17,1,.53,1.29,1.07.09-.43.06-.65.79-.27l-.68-.76.45.06-1-.81c.05-.92,1.17,1.29,1.34.43l-.55-.7c.41.1,1.42,1.22.91.26.53.27.44,1.26,1,1A2.2,2.2,0,0,1,59.23,31c.4.2.55.91.38.89,1-.22-1.46-2.73-.11-2.3.19.67,1.25,1.2.73,1.58.57.23-.33-1.38.53-.82l-.87-.76c.07-.09.43.15.57.22l-.57-.67c1.27,1,.13-1,1.56.4-1.11-1.14.29-.11,0-.69-.94-.68-.71.6-1.65-.52-.16-.44.39,0,.24-.39a3.64,3.64,0,0,1-.79-.53c-.12-1,1.17.2,1.64.31l-.63.07c.94,1.12.35.05,1.18.85-.28-.78.59,0,.47-.53,0,0-.14-.07-.18,0,.48-.33-.87-2.3-.71-2.48s.9.06,1.16.65c.4.2-.88.14.56,1.42-1.1-1.93,1,.21.69-1.42-.74-.41-.62-1.08-1.21-1.36.38-.08.6.17,1.1.56L63,24.88c1.31.92.93,1,2,1.22-.51-.28-.39-1-.83-1.22.12-.15.39-.11.76.13L64.83,25c.76-.16-.09-1,.88-.83l.21.36c1.34.36,1.72-.86,2.71-1l0,.45c-.06-.22.86.16.67-.52-.07,0-.25-.08-.26,0-.28-.37-.62-1-.53-1.19l.5.51-.28-.48c.24-.21.56.85.8.64-1.11-1.7.89-1.05,0-2.62,1.08,1-.34.54.67,1.43-.06-.23-.19-.47-.11-.69l.49.73c.44-1,.26-1.79,1-2.18l-.14-.12c0-.46.25-.43.83.08-.21-.36-.51-.39-.64-.75,1.81,1.43-.19-1.95,1-.92-1.13-1.36-1.64-3.11-2.72-4l.3,0c-.78-.87-.55.41-1.41-.47l.22,1.38c-.26-.35-.75-.8-.76-1-.14.08-.3.13-.52-.5.56,3.35-2.55,2.14-2.84,4.39-.15,0-.35-.38-.49-.62.47,1.07-.59-.28-.81-.31l.66,1.55a3.66,3.66,0,0,1-.85-1c-.85.26-.5,2-1.62,1.66.2.59.86,1,.76,1.33-.74-1.55-1.13-.11-1.67-1.19.89,1.57-.56.93,1.07,2.79-.17.32-.87-.65-.93-.89-.25.32-.49.53-1.22.12.19.58-1.78.62-.9,2.3-.56-1.1-.4-.48-.91-.75l-.5-1-.33.41c-.14,0-.14,0-.08.12s.4.47.39.81c-.23.27-.61-.17-1.1-.49l-.06-.15-.24.06c-.12.14,1.14.45,1,1.24-.19-.23-1.32-1.12-1-.43.2-.22.63.38.74.69l-.27.32-.74-1.14c-.87.78-1.22,2.29-2.26,3,.75.92-.65.6.52,1.89l-.07-.16c.35-.06.78,1.13.47,1.13-.14-.6-1.45-1.07-1.12-1.67L52.56,27c-2.29-2.44-.85,1-2.1.65a1.42,1.42,0,0,1,.31.28c-1.18-.43-.6,1.62-1.05,1.3l.52.76c-1.32-.75-1.45-.81-1.62.06.1.11.32.27.36.48-.55-.43-1.1-.86-1.34-.42l.19.21-.66.33c1.76,2.21-2-.58-.31,2-.62-.56-1.2-.44-1.62-.6a1.77,1.77,0,0,1,.19.33c-1.16-1-.33.87-.68.93a2.12,2.12,0,0,1-.85-1c.44,1.19-1.68-.37-1.48.12-.16.27.59.92.91,1.46-.5,0-1.53-2.05-1.28-.81.13,0,.29.06.35.22,0,.32,1.68,3.11,1.1,2.73l-.2-.49c-.77-.32.68,2.4-.55.95l-.52-.72c.18,1.35-.45-.09-.36,1.15L42,37c-.35.06.21,1-.79,0l0-.21c-.37.15-.33.25-.59.55-.12-.08-.4-.13-.26.14-.74-.92-1,.13-1.13.29.35,0,.55.43.78.86-.74-.64-.9-.64-.67.06-.94-1.13-2-2.33-2.39-2.09.19.13.37.15.52.42s-.15.08-.25,0c.15.26.42.35.69.78-1.13-.89-.51.28-1.2.19.39.25.47.56.74,1-1.06-1.28.38,1.55-.81-.25.06,1.6-1.83,1.57-1.25,2.89.29.53-.52-.07-.67,0l.47.56c-1.18-.76-.58-.17-1.84-.88a2.88,2.88,0,0,1,1.14,1.6l-1.23-1,.64.93c-.39-.25-.42,0-.44.24.07,0,.1.06.22.23-1-1.18-1.45-.63-2-1.15.82,1.31-.59,0,.21,1.18a2.53,2.53,0,0,0-.5-.3c-.35-.57-.79-1.18-.71-.83h0l.5.73a.8.8,0,0,0-.52,0,3.18,3.18,0,0,0-.16-.44c0,.14.09.31.13.46l0,0s.05,0,.06,0c.05.23,0,.37-.25.21.43,1.4-2.1-.72-1.4,1.11,0-.2,0-.35.22-.12-.44.24,0,1.54-.7,1.2l-.5-.66c-.52-.07-.9-.1-1.1.12l-.59-.72c-.12.53-1.77-.09-.78,1.59-.54-.53-.32.53-.67.49l.4.6c-.1.38-.41.3-.69.25.43,1.57-.95.78-1.32,1.21l.12.16-.76,0c.52.42-.37-.28-.39,0-.36-.17-.47.16-.35.66l-.26.25c.62.13.62.83,1.12,1.49l-.59-.37c.17.37.52.41.49.66-.39-.25-.73.05-1.38-.53a2.3,2.3,0,0,1-.24-.54c.05,0,0,0,0,0s0,0,0,0a0,0,0,0,1,0,0l-.26-.21c-.11.32-.24,0-.46-.31.55,1.21-.14.64.61,2-.8-1.55-.59.45-1.44-1,.62,1.18-.09.15.48,1.13,0-.5,1.06.24,1.63.51l.27.78c1.06,1.06.14-.81.57-.51-.3-.21-.27.22-.07.48L21.6,52c0-.6.81-.09,1.37.18,0,.45.67.34,1,1.08l-.24,0c.17.37.54.52.84.71,0-1,1.37-1.22,1-2.06.08.3-.27.26-.56.07L25,51.4c-.21.12.26,1-.26,1a11.54,11.54,0,0,1-1.61-2.16c-.16-1.31,1.6,1.11,2.09.38.2.13-.86-.81-.27-.78a7.21,7.21,0,0,1,3.18,2.46c-.46-.21-1.4-.64-.76.3.47.21,1,.17,1.43.73-.62-1.17-.59,0-1-1.08.15-.08.47.21.67.34-.43-.36-.45-.81-.6-1.07.41-.35.3-1,.68-1.43a5.52,5.52,0,0,0-.52-.78,7.33,7.33,0,0,1,2.4,2.1c.29-.16-.08-.66.36-.55.38,1.19,0-.21.77.75.32-.06-.3-.54-.38-.85a3.74,3.74,0,0,1,.69.59c-.45-.85-1.81-1.74-2.34-2.74a12.87,12.87,0,0,1-.65-2.1A45.56,45.56,0,0,1,33,51.91c.47.56-.28-.78-.23-.92-.45-1.16,1,.38,1-.17l-.59-.38c-.15-.27.44-.24.76.05a17.85,17.85,0,0,1-1.7-2c.29-.51,2.11,1,2.86,1.95L33.61,50c.62.83,1.11.45,1.86,1.44l.37-.76c-.1,0-.51,0-.77-.53.29-.17,0-.25-.11-.77-1.11-.79-3.74-3-4.93-4.1l.74.3-.3-.54c.91.32,3.8,3.21,4.56,4,.07-.39-1.38-2.06-1.7-2.35.39-.45,2.39,2.09,2.66,1.48l.12.51c.24.08.36-.59.57-.23a7.36,7.36,0,0,0-1.39-1.9l1.7,1.3c-.19-.12-1.26-1.54-1.48-1.77.12-.18,1.55,1.38,1.63,1.69a12.49,12.49,0,0,0-.79-2,7,7,0,0,1,1.21,1.69c.51.2.49-.07.47-.3-.82-.32-2.56-3-3.47-4l4,3.54c-.22-.23-1.33-1.5-1.46-1.67,1,1.19,2,.66,2.33.15l-.07,0c-.42-.36-.33-1,.17-.68-.22-.23-.2-.12-.27-.08-.45-1.16,1.85,1.57,1.27.25-.17.32-.61-.13-1-.63.57.27.69-.61,1.73.93-.1-.42.17-.33-.42-1.06l1.21.45c-.16-.12-.53-.52-.45-.74-.15.42-1.51-.7-.91.37A14.15,14.15,0,0,0,39,41.76c.91,0,2.44,1.25,3.62,2V42.72l.35.39L42.25,42c.25.19.45.36.39.25a2.45,2.45,0,0,0-.33-.36.76.76,0,0,1,.32.15,11.44,11.44,0,0,0-1.53-1.59c.11.23.22.46.31.68a3.53,3.53,0,0,1-1.13-1.37l.24.17a3.11,3.11,0,0,1-.73-.82l.78.19c.06.18.23.52.42.92a4.66,4.66,0,0,1,2,2l-.19-.84a7.64,7.64,0,0,0,2,1c-.26-.38-.62-.59-.75-.91,1.23.91-.32-2,.55-1,.45.05.81.81,1.2,1-.1-.11-.3-.33-.27-.38l.78.59c-.14-.32-.58-.38-.62-.86.8.27,1.31.48,1.33-.12.57-.16,1,1.62,1.23,1.19-.43-.65-1-1.4-.8-1.67.45.32.81.8,1.23.91l-.75-.92c.22-.11.5,0,0-.75.47.27.52.12.48-.1.68.27,1.28,2.05,1.5,2.46-.27-.91.25-.66-.48-1.9l-.44-.06c-.38-1.56,1.54.92.23-1.24-.13.22-.74-.11-1-.7l.64.27c-.17-.27-.29,0-.39-.43.23.14.76.5,1.08.75l0,0,.6-.22c-.07.11-.36-.22-.3-.33l.7.24a.86.86,0,0,1-.39-.78c.18-.6,2,1.83,1.54.64,0,.06-.13,0-.16,0l-.17-.54c1.59,1.94,1.1-.54,2.69,1.4-.4-1-.36-.49-1.39-1.19l-.2-.75C52.18,36.9,52.22,37.12,52,37ZM48.77,39.3c.27.45-.22.11-.41,0C48.3,39,48.05,38.56,48.77,39.3Zm-7.14,2.37c.12.34.13.52-.11.33C41.46,41.75,41.52,41.67,41.63,41.67ZM22.37,49.31l0,0C22.34,49.07,22.31,48.92,22.37,49.31Zm-.08.25c0,.12-.12.16-.29,0a.92.92,0,0,0,.25.27C22.47,49.92,22.41,49.76,22.29,49.56ZM57.45,22.7l-.08-.24C57.57,22.64,57.75,22.79,57.45,22.7Z"/><path class="cls-1" d="M42.9,42.46a3.21,3.21,0,0,0-.27-.41A.74.74,0,0,1,42.9,42.46Z"/><path class="cls-1" d="M54.88,35.48v0l.12.12Z"/><path class="cls-1" d="M32,51.78a1.46,1.46,0,0,0-.16-.47C32,51.48,32,51.65,32,51.78Z"/><path class="cls-1" d="M19.59,50l.35,0c-.13,0,0,.23,0,.38C19.81,50.25,19.66,50,19.59,50Z"/><path class="cls-1" d="M21.2,55.78c-.09-.07-.07,0-.17,0l-.24-.33C20.93,55.34,21.23,55.53,21.2,55.78Z"/><path class="cls-1" d="M21.23,52.5c.45.6.16.5-.07.51l0,0C20.49,52.2,20.86,52.35,21.23,52.5Z"/><path class="cls-1" d="M21.11,53a.15.15,0,0,0-.14.1C20.69,52.79,21,53,21.11,53Z"/><path class="cls-1" d="M21.53,49.78c0,.21-.64-.71-.49-.44C20.37,48.65,22.22,49.88,21.53,49.78Z"/><polygon class="cls-1" points="22.65 54.52 22.13 53.76 22.67 54.28 22.65 54.52"/><path class="cls-1" d="M23.38,53.08l-.08.39a.43.43,0,0,0-.25-.2C23.17,53.13,23.21,52.86,23.38,53.08Z"/><path class="cls-1" d="M23.05,53.27a.21.21,0,0,1-.29,0A.37.37,0,0,1,23.05,53.27Z"/><polygon class="cls-1" points="23.14 54.49 23.09 54.28 23.21 54.1 23.14 54.49"/><path class="cls-1" d="M25.77,51h.42c.22.23.28.44.1.41S25.92,51.23,25.77,51Z"/><path class="cls-1" d="M26.58,53.55a3,3,0,0,0-.33-.64l.72.89Z"/><path class="cls-1" d="M27.49,53.17c.22.23.93.43.56.63C27.83,53.57,27.41,53.56,27.49,53.17Z"/><polygon class="cls-1" points="30.42 49 30.34 49.04 29.18 47.56 30.42 49"/><path class="cls-1" d="M36.59,49.85c0,.59-.79-.85-.72-.2-.34-.29-.06-.53-.37-.78C36,49.1,35.9,48.81,36.59,49.85Z"/><path class="cls-1" d="M35.5,48.87a1.54,1.54,0,0,1-.27-.15A1.53,1.53,0,0,1,35.5,48.87Z"/><polygon class="cls-1" points="68.61 12.34 68.56 11.88 68.83 12.48 68.61 12.34"/><path class="cls-1" d="M69.85,13.14l-.7-1,.79.75C69.86,12.92,69.71,12.9,69.85,13.14Z"/><path class="cls-1" d="M49.32,41.64l-.19-.22c-.17-.27-.14-.32-.08-.43Z"/><polygon class="cls-1" points="51.39 38.85 51.36 38.9 50.77 37.99 51.39 38.85"/><path class="cls-1" d="M54.46,38.19c-.07.1-.32,0-.38.1C54.39,38.29,53.64,37.11,54.46,38.19Z"/></svg>