<svg width="30" height="46" viewBox="0 0 30 46" fill="none" xmlns="http://www.w3.org/2000/svg">
<path fill-rule="evenodd" clip-rule="evenodd" d="M25 2H5C3.34315 2 2 3.34315 2 5V41C2 42.6569 3.34315 44 5 44H25C26.6569 44 28 42.6569 28 41V5C28 3.34315 26.6569 2 25 2ZM5 0C2.23858 0 0 2.23858 0 5V41C0 43.7614 2.23858 46 5 46H25C27.7614 46 30 43.7614 30 41V5C30 2.23858 27.7614 0 25 0H5Z" fill="white"/>
<path fill-rule="evenodd" clip-rule="evenodd" d="M29 8H2V6H29V8Z" fill="white"/>
<path fill-rule="evenodd" clip-rule="evenodd" d="M28 36H1V34H28V36Z" fill="white"/>
<path fill-rule="evenodd" clip-rule="evenodd" d="M10 40C10 39.4477 10.4477 39 11 39H19C19.5523 39 20 39.4477 20 40C20 40.5523 19.5523 41 19 41H11C10.4477 41 10 40.5523 10 40Z" fill="white"/>
</svg>
