<svg id="Layer_1" data-name="Layer 1" xmlns="http://www.w3.org/2000/svg" viewBox="0 0 1926.84 1341.76"><defs><style>.cls-1{fill:none;}.cls-2,.cls-3{fill:#ec1c24;}.cls-3{font-size:121.76px;font-family:Gotham-Bold, Gotham;font-weight:700;letter-spacing:-0.05em;}.cls-4{letter-spacing:-0.1em;}.cls-5{letter-spacing:-0.15em;}.cls-6{letter-spacing:-0.09em;}</style></defs><title>Innovacion 2-27</title><path class="cls-1" d="M1910.54,621.72h-.23a26.24,26.24,0,0,0-9.55,1.75,23.56,23.56,0,0,0-13.2,12.53,23.05,23.05,0,0,0-2,9.55,23.54,23.54,0,0,0,1.91,9.6,22.12,22.12,0,0,0,5.28,7.42,24.89,24.89,0,0,0,7.81,4.83,25.61,25.61,0,0,0,9.5,1.74h.22a26.08,26.08,0,0,0,9.56-1.74,24,24,0,0,0,7-4.17V627.46a25.1,25.1,0,0,0-6.81-4A25.77,25.77,0,0,0,1910.54,621.72Z"/><polygon class="cls-1" points="1926.84 1044.68 1926.84 1023.97 1899.64 1044.68 1926.84 1044.68"/><polygon class="cls-1" points="1891.21 876.69 1916.72 887.14 1916.72 866.24 1891.21 876.69"/><path class="cls-1" d="M1910.54,1089.63h-.23a26.23,26.23,0,0,0-9.55,1.74,23.65,23.65,0,0,0-13.2,12.53,23.09,23.09,0,0,0-2,9.55,23.55,23.55,0,0,0,1.91,9.61,22.12,22.12,0,0,0,5.28,7.42,24.89,24.89,0,0,0,7.81,4.83,25.82,25.82,0,0,0,9.5,1.74h.22a26.29,26.29,0,0,0,9.56-1.74,24,24,0,0,0,7-4.17v-35.77a25.13,25.13,0,0,0-6.81-4A25.76,25.76,0,0,0,1910.54,1089.63Z"/><path class="cls-2" d="M1925.82,1170.87c.36.39.68.77,1,1.16v-2.16Z"/><path class="cls-2" d="M1919.87,1212.68a27.12,27.12,0,0,1-9.56,1.68h-.22a26.63,26.63,0,0,1-9.5-1.68,24.8,24.8,0,0,1-7.81-4.72,21.78,21.78,0,0,1-7.19-16.41,23.92,23.92,0,0,1,2.36-10.73,41.41,41.41,0,0,1,6.52-9.38l-12.7-11a46.3,46.3,0,0,0-4.94,5.85,35.57,35.57,0,0,0-3.82,6.85,41.94,41.94,0,0,0-2.48,8.26,52.77,52.77,0,0,0-.9,10.06,42,42,0,0,0,3.21,16.63,38.88,38.88,0,0,0,8.76,12.92,40.57,40.57,0,0,0,12.92,8.43,41.08,41.08,0,0,0,15.79,3h.23a41.44,41.44,0,0,0,15.84-3c.16-.07.3-.15.46-.21v-20.48A25.31,25.31,0,0,1,1919.87,1212.68Z"/><path class="cls-2" d="M1919.87,1135.31a26.29,26.29,0,0,1-9.56,1.74h-.22a25.82,25.82,0,0,1-9.5-1.74,24.89,24.89,0,0,1-7.81-4.83,22.12,22.12,0,0,1-5.28-7.42,23.55,23.55,0,0,1-1.91-9.61,23.09,23.09,0,0,1,2-9.55,23.65,23.65,0,0,1,13.2-12.53,26.23,26.23,0,0,1,9.55-1.74h.23a25.76,25.76,0,0,1,9.49,1.74,25.13,25.13,0,0,1,6.81,4V1075c-.25-.11-.49-.25-.74-.36a39.85,39.85,0,0,0-15.79-3.14h-.22a40.38,40.38,0,0,0-15.79,3.09,38.61,38.61,0,0,0-12.81,8.65,41.58,41.58,0,0,0-8.65,13.21,42.76,42.76,0,0,0-3.21,16.74,43.21,43.21,0,0,0,3.21,16.8,40.22,40.22,0,0,0,21.68,22,39.88,39.88,0,0,0,15.79,3.14h.23a40.38,40.38,0,0,0,15.79-3.09l.51-.24v-20.67A24,24,0,0,1,1919.87,1135.31Z"/><polygon class="cls-2" points="1899.64 1044.68 1926.84 1023.97 1926.84 991.87 1870.98 991.87 1870.98 1008.95 1919.41 1008.95 1870.98 1045.81 1870.98 1061.76 1926.84 1061.76 1926.84 1044.68 1899.64 1044.68"/><polygon class="cls-2" points="1886.94 942.99 1886.94 919.05 1870.98 919.05 1870.98 984.23 1886.94 984.23 1886.94 960.29 1926.84 960.29 1926.84 942.99 1886.94 942.99"/><path class="cls-2" d="M1870.42,868.49v16l56.42,24v-64Zm20.79,8.2,25.51-10.45v20.9Z"/><path class="cls-2" d="M1925.82,770.16c.36.39.68.77,1,1.16v-2.16Z"/><path class="cls-2" d="M1919.87,812a27.12,27.12,0,0,1-9.56,1.68h-.22a26.63,26.63,0,0,1-9.5-1.68,24.8,24.8,0,0,1-7.81-4.72,21.78,21.78,0,0,1-7.19-16.41,23.92,23.92,0,0,1,2.36-10.73,41.41,41.41,0,0,1,6.52-9.38l-12.7-11a46.3,46.3,0,0,0-4.94,5.85,35.57,35.57,0,0,0-3.82,6.85,41.94,41.94,0,0,0-2.48,8.26,52.77,52.77,0,0,0-.9,10.06,42,42,0,0,0,3.21,16.63,39,39,0,0,0,8.76,12.92,40.57,40.57,0,0,0,12.92,8.43,41.08,41.08,0,0,0,15.79,3h.23a41.44,41.44,0,0,0,15.84-3c.16-.07.3-.15.46-.21V808A25.31,25.31,0,0,1,1919.87,812Z"/><polygon class="cls-2" points="1886.94 715.33 1886.94 691.39 1870.98 691.39 1870.98 756.57 1886.94 756.57 1886.94 732.63 1926.84 732.63 1926.84 715.33 1886.94 715.33"/><path class="cls-2" d="M1919.87,667.4a26.08,26.08,0,0,1-9.56,1.74h-.22a25.61,25.61,0,0,1-9.5-1.74,24.89,24.89,0,0,1-7.81-4.83,22.12,22.12,0,0,1-5.28-7.42,23.54,23.54,0,0,1-1.91-9.6,23.05,23.05,0,0,1,2-9.55,23.56,23.56,0,0,1,13.2-12.53,26.24,26.24,0,0,1,9.55-1.75h.23a25.77,25.77,0,0,1,9.49,1.75,25.1,25.1,0,0,1,6.81,4V607.13l-.74-.35a39.68,39.68,0,0,0-15.79-3.15h-.22a40.38,40.38,0,0,0-15.79,3.09,38.76,38.76,0,0,0-12.81,8.65,41.7,41.7,0,0,0-8.65,13.21,42.76,42.76,0,0,0-3.21,16.74,43.21,43.21,0,0,0,3.21,16.8,40.22,40.22,0,0,0,21.68,22,39.72,39.72,0,0,0,15.79,3.15h.23a40.38,40.38,0,0,0,15.79-3.09l.51-.25V663.23A24,24,0,0,1,1919.87,667.4Z"/><path class="cls-2" d="M1926.38,537h-.22a21.9,21.9,0,0,0-8.88,1.63,18.09,18.09,0,0,0-6.46,4.85,29.63,29.63,0,0,0-4.72,7.88,81,81,0,0,0-3.54,10.65q-1.35,5.07-2.36,8.4a25.46,25.46,0,0,1-2.13,5.24,6.73,6.73,0,0,1-2.53,2.64,7.07,7.07,0,0,1-3.32.74H1892a6,6,0,0,1-4.89-2.53q-2-2.54-2-7.59a26.52,26.52,0,0,1,2.08-10.11,57.13,57.13,0,0,1,5.68-10.34l-13-9a46.28,46.28,0,0,0-7.42,13.32,47.1,47.1,0,0,0-2.58,15.9,34.61,34.61,0,0,0,1.69,11.1,25.22,25.22,0,0,0,4.83,8.67,22.18,22.18,0,0,0,7.47,5.64,22.8,22.8,0,0,0,9.72,2h.23a22.79,22.79,0,0,0,9.77-1.86,17.92,17.92,0,0,0,6.57-5.24,30.14,30.14,0,0,0,4.44-8.23,97.2,97.2,0,0,0,3.26-10.81c.83-3.31,1.61-6,2.36-8.06a24.5,24.5,0,0,1,2.25-4.84,6.23,6.23,0,0,1,2.42-2.37,6.42,6.42,0,0,1,2-.52V537Z"/><path class="cls-2" d="M1925.93,588.91l.91.76v-1.93C1926.53,588.13,1926.25,588.52,1925.93,588.91Z"/><rect x="-25.28" y="-10.02" width="1962.89" height="1370.11"/><text class="cls-3" transform="translate(1090.95 1269.12)">+INN<tspan class="cls-4" x="286.87" y="0">O</tspan><tspan class="cls-5" x="378.79" y="0">V</tspan><tspan class="cls-6" x="451.85" y="0">A</tspan><tspan x="536.48" y="0">CIÓN</tspan></text></svg>