<?xml version="1.0" encoding="iso-8859-1"?>
<!-- Generator: Adobe Illustrator 18.0.0, SVG Export Plug-In . SVG Version: 6.00 Build 0)  -->
<!DOCTYPE svg PUBLIC "-//W3C//DTD SVG 1.1//EN" "http://www.w3.org/Graphics/SVG/1.1/DTD/svg11.dtd">
<svg version="1.1" id="Capa_1" xmlns="http://www.w3.org/2000/svg" xmlns:xlink="http://www.w3.org/1999/xlink" x="0px" y="0px"
	 viewBox="0 0 297 297" style="enable-background:new 0 0 297 297;" xml:space="preserve">
<g>
	<path d="M132.286,0H18.793c-5.427,0-9.826,4.399-9.826,9.826V269.24c0,5.427,4.399,9.826,9.826,9.826h14.493v8.107
		c0,5.426,4.4,9.826,9.827,9.826c5.426,0,9.826-4.4,9.826-9.826v-8.107h45.2v8.107c0,5.426,4.4,9.826,9.827,9.826
		c5.426,0,9.826-4.4,9.826-9.826v-8.107h14.493c5.427,0,9.827-4.399,9.827-9.826V9.826C142.113,4.399,137.713,0,132.286,0z
		 M122.46,259.414H28.619V19.652h93.841V259.414z"/>
	<path d="M43.113,68.293h64.854c5.426,0,9.826-4.4,9.826-9.826c0-5.427-4.4-9.826-9.826-9.826H43.113
		c-5.427,0-9.827,4.399-9.827,9.826C33.286,63.893,37.687,68.293,43.113,68.293z"/>
	<path d="M43.113,100.72h64.854c5.426,0,9.826-4.399,9.826-9.826c0-5.427-4.4-9.827-9.826-9.827H43.113
		c-5.427,0-9.827,4.4-9.827,9.827C33.286,96.32,37.687,100.72,43.113,100.72z"/>
	<path d="M43.11,165.573c2.584,0,5.119-1.052,6.946-2.88c1.838-1.827,2.88-4.362,2.88-6.946c0-2.585-1.042-5.12-2.88-6.948
		c-1.827-1.828-4.352-2.879-6.946-2.879c-2.585,0-5.12,1.051-6.948,2.879c-1.827,1.828-2.878,4.354-2.878,6.948
		c0,2.584,1.051,5.119,2.878,6.946C37.99,164.521,40.525,165.573,43.11,165.573z"/>
	<path d="M278.207,0H164.714c-5.427,0-9.827,4.399-9.827,9.826V269.24c0,5.427,4.4,9.826,9.827,9.826h14.493v8.107
		c0,5.426,4.399,9.826,9.826,9.826s9.826-4.4,9.826-9.826v-8.107h45.201v8.107c0,5.426,4.4,9.826,9.826,9.826
		c5.427,0,9.827-4.4,9.827-9.826v-8.107h14.493c5.427,0,9.826-4.399,9.826-9.826V9.826C288.033,4.399,283.634,0,278.207,0z
		 M268.381,259.414H174.54V19.652h93.841V259.414z"/>
	<path d="M189.033,68.293h64.854c5.427,0,9.827-4.4,9.827-9.826c0-5.427-4.4-9.826-9.827-9.826h-64.854
		c-5.427,0-9.826,4.399-9.826,9.826C179.207,63.893,183.606,68.293,189.033,68.293z"/>
	<path d="M189.033,100.72h64.854c5.427,0,9.827-4.399,9.827-9.826c0-5.427-4.4-9.827-9.827-9.827h-64.854
		c-5.427,0-9.826,4.4-9.826,9.827C179.207,96.32,183.606,100.72,189.033,100.72z"/>
	<path d="M189.03,165.573c2.584,0,5.12-1.052,6.947-2.88c1.837-1.827,2.879-4.362,2.879-6.946c0-2.585-1.042-5.12-2.879-6.948
		c-1.827-1.828-4.354-2.879-6.947-2.879c-2.584,0-5.119,1.051-6.947,2.879c-1.828,1.828-2.879,4.363-2.879,6.948
		c0,2.584,1.051,5.119,2.879,6.946C183.921,164.521,186.446,165.573,189.03,165.573z"/>
</g>
<g>
</g>
<g>
</g>
<g>
</g>
<g>
</g>
<g>
</g>
<g>
</g>
<g>
</g>
<g>
</g>
<g>
</g>
<g>
</g>
<g>
</g>
<g>
</g>
<g>
</g>
<g>
</g>
<g>
</g>
</svg>
