<svg width="488" height="105" viewBox="0 0 488 105" fill="none" xmlns="http://www.w3.org/2000/svg">
<g filter="url(#filter0_d)">
<path fill-rule="evenodd" clip-rule="evenodd" d="M272.06 43.881C275.1 35.041 271 30.041 260.41 30.041C249.82 30.041 242.29 35.041 239.24 43.881L231.17 67.331C228.04 76.431 234.41 80.401 243.09 80.401C251.77 80.401 260.86 76.401 263.99 67.331L272.06 43.881ZM253.32 42.411C253.93 40.611 255.19 38.981 257.32 38.981C259.45 38.981 259.59 40.611 258.97 42.411L250.18 68.041C249.56 69.851 248.31 71.481 246.18 71.481C244.05 71.481 243.9 69.851 244.52 68.041L253.32 42.411Z" fill="white"/>
<path fill-rule="evenodd" clip-rule="evenodd" d="M202.59 38.191L205.29 30.321C209.57 17.891 201.01 13.921 189.29 13.921C175.91 13.921 165.29 19.041 160.63 32.521C152.37 56.521 178.81 56.871 173.01 73.701C171.51 78.091 169.3 79.341 166.47 79.341C163.24 79.341 162.31 78.091 163.82 73.701L166.92 64.701C167.56 62.611 166.92 60.931 165.41 60.931H153.67C152.14 60.931 150.26 62.731 149.5 64.931L148.5 67.811L146.14 74.651C141.72 87.511 151.14 91.291 162.26 91.291C176.8 91.291 186.56 84.791 191.37 70.781C199.28 47.781 174 44.131 178.31 31.591C179.56 27.931 181.12 25.841 184.88 25.841C188.33 25.841 188.77 27.931 187.51 31.591L186.66 34.041C186.632 34.1027 186.609 34.1661 186.59 34.231L186 36.111L185.31 38.111C184.61 40.221 185.23 41.941 186.7 41.991H198.59C200.08 41.941 201.87 40.241 202.64 38.151" fill="white"/>
<path fill-rule="evenodd" clip-rule="evenodd" d="M207 33.711L189.37 84.901L188.78 86.611C188.19 88.321 188.69 89.721 189.9 89.721H199.08C200.23 89.721 201.62 88.461 202.26 86.851L206.91 73.331H207.07C206.74 77.811 209.29 80.401 214.27 80.401C221.14 80.401 225.32 75.741 227.39 69.731L236.73 42.581C238.86 36.401 238.81 30.041 231.33 30.041C226.33 30.041 222.01 31.931 219.54 37.091H219.38L220.21 34.661L220.47 33.891C221.06 32.181 220.56 30.781 219.36 30.781H210.17C209 30.781 207.6 32.081 206.98 33.711H207ZM216.82 44.561C217.048 43.6519 217.557 42.8382 218.276 42.2365C218.995 41.6347 219.885 41.2758 220.82 41.211C222.45 41.211 223.24 42.411 222.5 44.561L215.18 65.871C214.43 68.021 212.82 69.221 211.18 69.221C209.54 69.221 208.76 68.021 209.5 65.871L216.82 44.561Z" fill="white"/>
<path fill-rule="evenodd" clip-rule="evenodd" d="M278.14 34.771L264.53 74.351L263.91 76.201C263.32 77.911 263.82 79.311 265.02 79.311H274.21C275.37 79.311 276.78 78.011 277.41 76.381L288.12 45.251C288.8 43.251 290.12 41.251 292.34 41.251C294.56 41.251 294.46 43.311 293.79 45.251L291.52 51.821L290.81 53.911C290.21 55.631 290.71 57.031 291.92 57.031H301.11C302.26 57.031 303.64 55.771 304.28 54.181L309.28 39.661C311.04 34.591 310.28 30.041 303.41 30.041C298.41 30.041 294.47 32.791 291.2 37.091H290.93L292.15 33.561C292.56 32.001 292.05 30.781 290.93 30.781H281.73C280.53 30.781 279.06 32.181 278.46 33.891L278.17 34.771H278.14Z" fill="white"/>
<path fill-rule="evenodd" clip-rule="evenodd" d="M363.29 64.1711L360.08 73.291C359.08 76.291 357.08 79.1411 353.37 79.1411C349.81 79.1411 349.85 76.321 350.89 73.291L365.26 31.4911C366.26 28.4911 368.21 25.6411 371.77 25.6411C375.53 25.6411 375.5 28.4611 374.45 31.4911L372.29 37.771C371.67 39.851 372.29 41.5111 373.8 41.5111H385.56C387.09 41.5111 388.98 39.721 389.73 37.511L389.85 37.1411L391.09 33.5611C396.62 17.4711 388.51 13.701 375.86 13.701C364.37 13.701 352.41 18.411 346.55 35.441L334.9 69.3111C329 86.3511 337.77 91.041 349.26 91.041C363.89 91.041 373.62 84.331 378.4 70.431L380.61 64.041C381 62.191 380.34 60.7811 378.97 60.7811H367.23C365.83 60.7811 364.15 62.251 363.29 64.161" fill="white"/>
<path fill-rule="evenodd" clip-rule="evenodd" d="M393.83 73.4711L411.1 23.2411L411.58 21.8611C412.16 20.1511 411.67 18.7711 410.46 18.7711H401.33C400.2 18.7711 398.84 20.0111 398.2 21.5811L379.28 76.5811C378.88 78.1111 379.39 79.3111 380.5 79.3111H389.63C390.83 79.3111 392.29 77.9111 392.88 76.2111L393.82 73.4711H393.83Z" fill="white"/>
<path fill-rule="evenodd" clip-rule="evenodd" d="M429 74.5311L442.41 35.5311V35.4411L442.97 33.8311C443.52 32.1611 442.97 30.8311 441.83 30.8311H432.7C431.56 30.8311 430.19 32.0811 429.56 33.6611L418.92 64.5611C418.19 66.6911 417.05 69.0011 414.5 69.0011C411.95 69.0011 412.55 66.6911 413.29 64.5611L423.93 33.6311C424.36 32.0611 423.86 30.8311 422.72 30.8311H413.6C412.4 30.8311 410.94 32.2211 410.36 33.9311L409.79 35.5611L398.32 68.8611C395.91 75.8611 397.55 80.0611 403.6 80.0611C406.026 80.118 408.425 79.5307 410.55 78.359C412.676 77.1873 414.453 75.4731 415.7 73.3911H415.87L414.77 76.6211C414.39 78.1311 414.91 79.3111 416 79.3111H425.14C426.34 79.3111 427.79 77.9111 428.38 76.2111L428.97 74.5311H429Z" fill="white"/>
<path fill-rule="evenodd" clip-rule="evenodd" d="M444.77 76.4611L445.86 73.3011H446C445 78.1711 448 80.0611 453 80.0611C460.42 80.0611 464.82 73.7311 466.85 67.8411L476.11 40.8411C478.27 34.6511 477.3 30.0411 470.47 30.0411C465.47 30.0411 461.14 32.8511 458.42 37.2911H458.24L463.62 21.6511C464.1 20.0511 463.62 18.7711 462.45 18.7711H453.32C452.16 18.7711 450.76 20.0611 450.13 21.6811L431.34 76.3211C430.82 77.9711 431.34 79.3211 432.49 79.3211H441.63C442.76 79.3211 444.14 78.0611 444.77 76.4711V76.4611ZM455.77 44.4711C456 43.565 456.511 42.7549 457.229 42.1568C457.948 41.5586 458.837 41.2031 459.77 41.1411C461.4 41.1411 462.18 42.3411 461.44 44.4711L454.17 65.6411C453.937 66.5446 453.425 67.3517 452.707 67.9477C451.989 68.5437 451.101 68.8983 450.17 68.9611C448.55 68.9611 447.77 67.7711 448.5 65.6411L455.77 44.4711Z" fill="white"/>
<path fill-rule="evenodd" clip-rule="evenodd" d="M316.28 41.4111L306.68 69.5111C304.47 75.9711 304.79 79.7611 311.59 79.7611H321.28H322.78C324.18 79.7611 325.9 78.1311 326.59 76.1211L327.79 72.6411C328.43 70.7611 327.95 69.2111 326.72 69.0311H323.72C320.53 69.0311 320.99 67.4811 321.99 64.5511L329.87 41.4311H339.79C341.16 41.2211 342.72 39.6411 343.38 37.7511L344.6 34.2011C345.25 32.3111 344.78 30.7411 343.55 30.5211H333.7L335.79 24.4611C336.17 22.9311 335.65 21.7311 334.54 21.7311H325.32C324.13 21.7311 322.69 23.0911 322.07 24.7311L320.07 30.5111H316.77C315.34 30.5111 313.6 32.1711 312.9 34.2011L311.69 37.7211C311.03 39.6311 311.53 41.2211 312.78 41.3911H316.28V41.4111Z" fill="white"/>
<path d="M69.92 20.3211C102.84 12.2511 131.22 20.3211 131.22 40.8811C131.22 61.4411 104.77 82.5711 71.85 90.6511C38.93 98.7311 11.71 89.4711 11.71 70.1811C11.71 49.6911 37 28.3911 69.92 20.3211Z" fill="#393837"/>
<path fill-rule="evenodd" clip-rule="evenodd" d="M72.48 21.8811C99.35 15.8811 121.81 24.4911 121.18 43.6011C120.53 62.9711 98.07 82.0411 70.67 88.5411C43.27 95.0411 21.14 85.4111 21.75 67.2211C22.23 53.0411 34 38.8111 51.16 29.7211L53.49 28.6611L75.39 26.7111L72.48 21.8811Z" fill="#F2E500"/>
<path fill-rule="evenodd" clip-rule="evenodd" d="M69.87 19.781C103.74 11.491 132.93 19.561 132.93 40.371C132.93 61.181 105.72 82.681 71.85 90.971C37.98 99.261 10 90.041 10 70.471C10 49.731 36 28.041 69.87 19.781ZM70 21.261C101.38 13.391 128.43 21.191 128.43 41.131C128.43 61.071 103.21 81.611 71.82 89.481C40.43 97.351 14.5 88.411 14.5 69.701C14.5 49.821 38.64 29.131 70 21.261Z" fill="white"/>
<path d="M111.49 9.04106C112.966 8.91067 114.452 9.09164 115.854 9.57227C117.255 10.0529 118.54 10.8225 119.625 11.8311C120.71 12.8398 121.571 14.0651 122.152 15.4277C122.734 16.7903 123.023 18.2598 123 19.7411C122.946 22.853 121.739 25.8342 119.613 28.1067C117.486 30.3793 114.591 31.7813 111.49 32.0411C110.02 32.168 108.54 31.9862 107.144 31.5072C105.749 31.0282 104.469 30.2627 103.387 29.2598C102.305 28.2568 101.445 27.0387 100.862 25.6836C100.278 24.3285 99.985 22.8663 100 21.3911C100.043 18.2743 101.243 15.2847 103.366 13.0026C105.489 10.7204 108.384 9.30858 111.49 9.04106Z" fill="#393837"/>
<path d="M91.18 40.601C90.57 40.981 90.18 41.241 90.12 41.261C80.35 46.911 71.26 52.621 64.61 58.531C75.22 56.951 93 51.961 98.17 64.781C99.61 68.331 99.33 72.131 97.52 76.211C97.45 76.361 97.08 77.071 96.76 77.701C89.6573 82.1237 81.9503 85.4921 73.88 87.701C80.06 82.631 93.46 70.791 86 67.591C78.54 64.391 52 76.931 52.46 59.651C52.7 51.041 67.22 43.231 82.73 33.571C83.3993 33.5916 84.0669 33.6483 84.73 33.741L85.48 33.881L86.79 34.291C87.6279 34.664 88.3801 35.2052 89 35.881C89.5787 36.6338 90.053 37.4613 90.41 38.341C90.68 39.081 90.93 39.841 91.14 40.601" fill="#393837"/>
<path d="M51.6301 66.311C51.5001 66.541 51.4101 66.681 51.4001 66.711C45.8401 76.151 36.3367 78.721 22.8901 74.421H22.8101C24.8101 80.041 29.3701 84.421 35.8101 87.191C46.3101 86.721 54.8101 81.941 60.7601 71.311C60.7731 71.2792 60.7899 71.249 60.8101 71.221L59.2001 71.041L57.8601 70.761L56.5701 70.351L55.3401 69.811L54.1801 69.121L53.1801 68.261L52.2601 67.261L51.6301 66.311Z" fill="#393837"/>
<path d="M59.06 37.7311C73.76 31.1511 85.44 29.0611 90.37 33.8111C95.47 38.7311 93.56 52.0211 99.58 56.5911C108.74 63.5911 117.78 48.5011 121.8 41.1711L122.07 40.6711C122.98 39.1011 122.88 37.9411 121.81 38.0411L113.15 38.8211C112.15 38.9211 110.64 40.0611 109.55 41.4911C108.42 43.1911 107.23 44.8811 105.94 46.5511C104.17 29.6211 98.37 22.6311 87.56 20.7811C79.3 19.3711 68.4 22.4311 57.96 26.7811L57.15 27.1211C55.62 27.7511 54.15 28.4211 52.62 29.1211C51.9935 29.711 51.4931 30.422 51.1494 31.211C50.8056 32 50.6255 32.8505 50.62 33.7111L50.54 37.4511C50.54 39.6011 51.54 40.9111 52.89 40.3511L59.06 37.7311Z" fill="#393837"/>
</g>
<defs>
<filter id="filter0_d" x="0" y="-1" width="487.135" height="105.017" filterUnits="userSpaceOnUse" color-interpolation-filters="sRGB">
<feFlood flood-opacity="0" result="BackgroundImageFix"/>
<feColorMatrix in="SourceAlpha" type="matrix" values="0 0 0 0 0 0 0 0 0 0 0 0 0 0 0 0 0 0 127 0"/>
<feOffset/>
<feGaussianBlur stdDeviation="5"/>
<feColorMatrix type="matrix" values="0 0 0 0 0 0 0 0 0 0 0 0 0 0 0 0 0 0 0.4 0"/>
<feBlend mode="normal" in2="BackgroundImageFix" result="effect1_dropShadow"/>
<feBlend mode="normal" in="SourceGraphic" in2="effect1_dropShadow" result="shape"/>
</filter>
</defs>
</svg>
