<svg width="146" height="32" viewBox="0 0 146 32" fill="none" xmlns="http://www.w3.org/2000/svg">
<g clip-path="url(#clip0)">
<path fill-rule="evenodd" clip-rule="evenodd" d="M32.0879 16.3179C32.0879 7.52578 24.9644 0.723145 16.044 0.723145C7.12352 0.723145 0 7.52578 0 16.3179C0 25.11 7.12352 31.9126 16.044 31.9126C20.9855 31.9126 25.3495 29.859 28.3015 26.4576C30.9969 29.5381 34.9116 31.5275 39.3398 31.8484H41.0084V24.7891C36.3235 25.1741 32.0237 21.0027 32.0879 16.3179ZM24.451 16.3179C24.451 21.0669 20.4079 24.8533 16.044 24.8533C11.6158 24.8533 7.63692 21.0669 7.63692 16.3179C7.63692 11.5689 11.6158 7.78249 16.044 7.78249C20.4079 7.78249 24.451 11.5689 24.451 16.3179Z" fill="white"/>
<path fill-rule="evenodd" clip-rule="evenodd" d="M43.5753 16.8955L43.6395 31.7843H51.2122V16.9597H51.2764C51.2764 12.2107 55.3837 8.42433 59.7476 8.42433C59.9402 8.42433 60.0685 8.42433 60.261 8.42433V1.36499H58.5925C50.1213 1.8784 43.5753 8.48851 43.5753 16.8955Z" fill="white"/>
<path d="M87.279 8.48844V1.23657H63.0847V8.48844H71.4276V31.9768H78.9361V8.48844H87.279Z" fill="white"/>
<path fill-rule="evenodd" clip-rule="evenodd" d="M88.4341 16.8955L88.4983 31.7843H96.0711V16.9597H96.1352C96.1352 12.2107 100.178 8.42433 104.606 8.42433C104.735 8.42433 104.927 8.42433 105.12 8.42433V1.36499H103.323C94.9801 1.8784 88.4341 8.48851 88.4341 16.8955Z" fill="white"/>
<path fill-rule="evenodd" clip-rule="evenodd" d="M121.036 31.9768C112.115 31.9768 104.992 25.1742 104.992 16.3821C104.992 7.58999 112.115 0.787354 121.036 0.787354C125.977 0.787354 130.341 2.84098 133.293 6.2423C135.989 3.16186 139.903 1.17241 144.331 0.851529H146V7.91087C145.808 7.91087 145.679 7.91087 145.487 7.91087C141.123 7.91087 137.08 11.6972 137.08 16.4463C136.566 25.2383 130.213 31.9768 121.036 31.9768ZM129.443 16.3179C129.443 11.5689 125.4 7.78252 121.036 7.78252C116.608 7.78252 112.629 11.5689 112.629 16.3179C112.629 21.0669 116.672 24.8533 121.036 24.8533C125.4 24.8533 129.443 21.0669 129.443 16.3179Z" fill="white"/>
</g>
<defs>
<clipPath id="clip0">
<rect width="146" height="31.2536" fill="white" transform="translate(0 0.723145)"/>
</clipPath>
</defs>
</svg>
