<svg xmlns="http://www.w3.org/2000/svg" viewBox="0 0 316.33 103.5"><defs><style>.cls-1,.cls-2{fill:#fff;}.cls-1{fill-rule:evenodd;}</style></defs><g id="Capa_2" data-name="Capa 2"><g id="Capa_1-2" data-name="Capa 1"><path class="cls-1" d="M169.43,41.15c2.18-6.35-.78-9.92-8.34-9.92s-13,3.57-15.16,9.92l-5.78,16.79c-2.25,6.53,2.32,9.36,8.53,9.36s12.73-2.83,15-9.36ZM156,40.1a3.14,3.14,0,0,1,2.88-2.47c1.54,0,1.63,1.17,1.18,2.47l-6.31,18.33a3.12,3.12,0,0,1-2.87,2.46c-1.55,0-1.63-1.16-1.19-2.46Z"/><path class="cls-1" d="M119.67,37.07l1.94-5.64c3.06-8.9-3.07-11.75-11.45-11.75C100.57,19.68,93,23.35,89.63,33c-5.93,17.22,13,17.44,8.87,29.49-1.09,3.15-2.66,4-4.69,4-2.32,0-3-.9-1.9-4l2.22-6.44c.46-1.5,0-2.7-1.08-2.7H84.63c-1.1,0-2.44,1.29-3,2.85l-.71,2.07-1.69,4.9C76.09,72.39,82.87,75.1,90.8,75.1c10.4,0,17.4-4.65,20.85-14.69,5.66-16.47-12.45-19.09-9.36-28.07.9-2.63,2-4.12,4.71-4.12,2.47,0,2.78,1.49,1.88,4.12l-.62,1.78h0a.5.5,0,0,0,0,.13l-.46,1.33-.5,1.46c-.5,1.52-.06,2.75,1,2.78h8.51c1.07,0,2.35-1.25,2.9-2.75"/><path class="cls-1" d="M122.82,33.86,110.2,70.53h0l-.42,1.22c-.43,1.23-.07,2.23.8,2.23h6.58a3,3,0,0,0,2.27-2l3.33-9.69h.12c-.24,3.21,1.59,5.06,5.16,5.06,4.92,0,7.91-3.33,9.39-7.64l6.7-19.44c1.52-4.44,1.49-9-3.87-9-3.57,0-6.68,1.36-8.44,5.05h-.13l.6-1.74.18-.55c.43-1.22.06-2.23-.79-2.23H125.1c-.83,0-1.84.93-2.28,2.1m7,7.77a3.2,3.2,0,0,1,2.86-2.39c1.16,0,1.74.86,1.2,2.39l-5.24,15.26a3.22,3.22,0,0,1-2.86,2.41c-1.17,0-1.73-.87-1.21-2.41Z"/><path class="cls-1" d="M173.79,34.62,164,63l-.44,1.32c-.43,1.23-.07,2.24.79,2.24H171c.84,0,1.85-.93,2.29-2.11l7.68-22.29c.48-1.42,1.42-2.89,3-2.89s1.52,1.47,1,2.89l-1.63,4.71h0l-.51,1.49c-.42,1.23-.06,2.24.8,2.24h6.58c.82,0,1.81-.91,2.27-2l3.57-10.4c1.26-3.63.72-6.89-4.21-6.89-3.57,0-6.4,2-8.74,5.05h-.2l.88-2.53c.29-1.11-.08-2-.88-2h-6.58c-.86,0-1.92,1-2.34,2.23l-.22.63Z"/><path class="cls-1" d="M234.78,55.68l-2.3,6.53c-.74,2.18-2.11,4.19-4.8,4.19s-2.53-2-1.78-4.19l10.29-29.94c.75-2.17,2.12-4.19,4.66-4.19,2.7,0,2.68,2,1.93,4.19l-1.55,4.5c-.45,1.49,0,2.68,1.08,2.68h8.42c1.1,0,2.45-1.28,3-2.85l.09-.27.88-2.56c4-11.53-1.84-14.22-10.9-14.22-8.23,0-16.8,3.37-21,15.57l-8.34,24.24C210.25,71.57,216.5,75,224.73,75c10.48,0,17.45-4.81,20.88-14.76l1.58-4.6c.28-1.32-.19-2.33-1.18-2.33H237.6c-1,0-2.2,1.05-2.82,2.42"/><path class="cls-1" d="M256.66,62.34l12.37-36,.34-1c.42-1.23.06-2.22-.8-2.22H262a3,3,0,0,0-2.25,2l-13.55,39.4c-.28,1.1.09,2,.88,2h6.54c.86,0,1.91-1,2.32-2.22l.68-2Z"/><path class="cls-1" d="M281.83,63.1l9.61-27.95,0-.06.4-1.16c.39-1.19,0-2.17-.82-2.17h-6.53c-.82,0-1.8.9-2.26,2l-7.61,22.14c-.53,1.52-1.34,3.18-3.17,3.18s-1.39-1.66-.87-3.18l7.62-22.16c.31-1.12-.05-2-.86-2h-6.54c-.86,0-1.9,1-2.33,2.23l-.4,1.16L259.87,59c-1.72,5-.56,8,3.79,8a9.85,9.85,0,0,0,8.67-4.78h.12l-.79,2.32c-.28,1.08.09,1.92.88,1.92h6.54c.86,0,1.9-1,2.32-2.22l.42-1.2Z"/><path class="cls-1" d="M293.15,64.48l.78-2.26h.12c-.71,3.49,1.45,4.84,5,4.84,5.31,0,8.46-4.53,9.91-8.75L315.6,39c1.54-4.46.84-7.76-4.05-7.76a10.21,10.21,0,0,0-8.63,5.2h-.13l3.86-11.2c.34-1.15,0-2.07-.84-2.07h-6.54c-.84,0-1.83.92-2.28,2.08L283.53,64.38c-.38,1.18,0,2.14.82,2.14h6.54c.82,0,1.8-.9,2.26-2M301,41.56a3.19,3.19,0,0,1,2.84-2.38c1.16,0,1.72.86,1.19,2.38l-5.21,15.17A3.17,3.17,0,0,1,297,59.1c-1.16,0-1.71-.85-1.19-2.37Z"/><path class="cls-1" d="M201.11,39.38l-6.88,20.13c-1.58,4.62-1.35,7.34,3.52,7.34h8c1,0,2.24-1.17,2.74-2.62l.85-2.48c.46-1.35.12-2.47-.77-2.59h-2.13c-2.28,0-2-1.12-1.24-3.22l5.65-16.55H218a4,4,0,0,0,2.57-2.64l.86-2.54c.47-1.35.14-2.48-.74-2.64h-7.07l1.49-4.34c.28-1.1-.09-1.95-.89-1.95h-6.61c-.85,0-1.88,1-2.32,2.17l-1.44,4.15h-2.36c-1,0-2.27,1.18-2.77,2.64l-.87,2.52c-.47,1.37-.11,2.51.78,2.63h2.51Z"/><polygon class="cls-2" points="128.92 86.59 132.53 86.59 139.06 98.06 139.06 86.59 142.26 86.59 142.26 103.04 138.82 103.04 132.13 91.37 132.13 103.04 128.92 103.04 128.92 86.59"/><path class="cls-2" d="M146.61,86.59h3.49v10.1a5.69,5.69,0,0,0,.4,2.48,3.34,3.34,0,0,0,5.41,0,5.69,5.69,0,0,0,.4-2.48V86.59h3.5V96.7a8.35,8.35,0,0,1-.82,4.08c-1,1.79-2.93,2.68-5.78,2.68s-4.77-.89-5.79-2.68a8.47,8.47,0,0,1-.81-4.08Z"/><polygon class="cls-2" points="176.18 86.59 176.18 89.5 171.26 89.5 171.26 103.04 167.8 103.04 167.8 89.5 162.86 89.5 162.86 86.59 176.18 86.59"/><path class="cls-2" d="M189.88,87a4.16,4.16,0,0,1,1.54,1.15,5.36,5.36,0,0,1,.82,1.38,4.52,4.52,0,0,1,.31,1.73,5,5,0,0,1-.59,2.31,3.3,3.3,0,0,1-2,1.6,3.13,3.13,0,0,1,1.62,1.3,5.49,5.49,0,0,1,.47,2.57v1.11a8.43,8.43,0,0,0,.09,1.53,1.35,1.35,0,0,0,.64.93V103H189c-.1-.37-.18-.66-.22-.88a8.45,8.45,0,0,1-.15-1.42l0-1.53a3.08,3.08,0,0,0-.54-2.1,2.79,2.79,0,0,0-2-.52h-3.36V103h-3.36V86.59h7.87a7.16,7.16,0,0,1,2.6.42m-7.11,2.43v4.42h3.7a3.85,3.85,0,0,0,1.65-.27,1.83,1.83,0,0,0,1-1.85,2.11,2.11,0,0,0-.94-2,3.49,3.49,0,0,0-1.59-.29Z"/><rect class="cls-2" x="196.68" y="86.59" width="3.42" height="16.45"/><path class="cls-2" d="M206,88.31a6.74,6.74,0,0,1,5.05-2q4.11,0,6,2.73a5.9,5.9,0,0,1,1.12,3.07h-3.43a4.74,4.74,0,0,0-.84-1.79,3.42,3.42,0,0,0-2.73-1.07,3.33,3.33,0,0,0-2.89,1.51A7.38,7.38,0,0,0,207.26,95a6.53,6.53,0,0,0,1.11,4.15,3.52,3.52,0,0,0,2.85,1.38,3.23,3.23,0,0,0,2.7-1.19,5.28,5.28,0,0,0,.85-1.9h3.41a7.38,7.38,0,0,1-2.26,4.37,6.58,6.58,0,0,1-4.65,1.69,7,7,0,0,1-5.52-2.28,9.19,9.19,0,0,1-2-6.27A9.06,9.06,0,0,1,206,88.31"/><rect class="cls-2" x="221.8" y="86.59" width="3.42" height="16.45"/><path class="cls-2" d="M242.24,101.58a8.53,8.53,0,0,1-10.78,0c-1.67-1.57-2.5-3.84-2.5-6.79s.83-5.27,2.5-6.79a8.56,8.56,0,0,1,10.78,0q2.49,2.28,2.49,6.79c0,2.95-.83,5.22-2.49,6.79m-2.15-2.5a8.25,8.25,0,0,0,0-8.57A3.91,3.91,0,0,0,236.85,89a4,4,0,0,0-3.26,1.51,8.14,8.14,0,0,0,0,8.57,4,4,0,0,0,3.26,1.5,3.93,3.93,0,0,0,3.24-1.5m.56-17.65-3.39,3.34H235l2.15-3.34Z"/><polygon class="cls-2" points="248.44 86.59 252.04 86.59 258.57 98.06 258.57 86.59 261.77 86.59 261.77 103.04 258.34 103.04 251.64 91.37 251.64 103.04 248.44 103.04 248.44 86.59"/><path class="cls-1" d="M54.38,55.94c.44-2.65,1.48-5.17,1.85-7.84a23,23,0,0,0,.05-7.72c-1-5.08-5.6-7.84-11.07-6.81a25,25,0,0,0-9.84,4.07,2.66,2.66,0,0,1-3.56-.06A25.83,25.83,0,0,0,21.32,33c-5.18-1-9.44,2.28-9.63,7.56A35.51,35.51,0,0,0,20.5,65.44c2.17,2.56-5.88.18-5.88.18.08-.91-.73-1.3-1.16-1.9a41.13,41.13,0,0,1-7.64-21c-.5-7.25,3.34-15,12.47-15.75a20.33,20.33,0,0,1,12.53,3.45,5.74,5.74,0,0,0,6.09.42,20.39,20.39,0,0,1,12.56-1.79,12,12,0,0,1,9.84,13.28,31.63,31.63,0,0,1-4.43,13.2,2.46,2.46,0,0,1-.46.45Z"/><path class="cls-1" d="M36.28,21c2.71-4,5.33-8,6-13-.71,1.34-1.41,2.68-2.13,4a31.12,31.12,0,0,1-6,8.21,3.52,3.52,0,0,1-3.76.82c-4-1.15-5.73-4.12-6.3-7.89a30.06,30.06,0,0,1,.09-8.73c.16-1.09.59-1.06,1.38-.78a12.27,12.27,0,0,1,6.93,6.69A37.5,37.5,0,0,1,35.4,6.78,32.18,32.18,0,0,1,45.54.39c1.67-.71,2-.54,2.24,1.24.88,5.53-1,10.2-4.55,14.29a22.09,22.09,0,0,1-6.63,5.36L36.28,21"/><path class="cls-1" d="M37.4,26.36a10.09,10.09,0,0,0-1.08.62c-2,1.2-3.85.72-5.83-.36C25.74,24,20.73,22.4,15.18,22.81A15.41,15.41,0,0,0,1.12,34.15c-.09.32-.19.63-.27,1s-.29.17-.52.63c-.33.62-.17-.81-.1-1,.63-2.21.81-4.17,1.85-6.27A15.91,15.91,0,0,1,17.84,19.7,31.25,31.25,0,0,1,31.38,24a4.16,4.16,0,0,0,4.46.08,29.6,29.6,0,0,1,13.23-3.64c9.15-.16,15.42,5.78,15.83,15h-.49c-1.51-8.15-8.78-13-17.56-11.78a34.56,34.56,0,0,0-9.45,2.71"/><path class="cls-1" d="M64.81,39.75C64.33,47.34,61.3,54,57.37,60.33A52.37,52.37,0,0,1,45.71,73.76a12.28,12.28,0,0,1-10.48,2.81,5.67,5.67,0,0,0-2.94.21c-5.54,1.83-10.44.35-14.87-3C8.58,67,3.69,57.71,1.14,47.07c-.42-1.73-.63-3.51-1-5.43.54,0,.91,1.84,1,2.16A46.55,46.55,0,0,0,11.63,65.23c3.55,4.25,7.62,7.82,13.26,9.06a12.67,12.67,0,0,0,6.21-.24,13,13,0,0,1,5.37-.34,10.94,10.94,0,0,0,8.68-2.46c9.79-8.41,16.73-18.63,19.26-31.5h.4"/><path class="cls-1" d="M64.81,39.75h-.4V35.44h.49a13.9,13.9,0,0,1-.09,4.32"/><path class="cls-1" d="M36.6,21.28c-.14.29-.37.29-.62.17l.3-.44.32.27"/><path class="cls-1" d="M54.42,56l-.12.43a1.54,1.54,0,0,0-.17-.13c.08-.12.17-.23.25-.34Z"/><path class="cls-1" d="M.26,34.56a28.4,28.4,0,0,0,.26,9.23h.62a17.82,17.82,0,0,1-.23-8.92Z"/><path class="cls-2" d="M9.48,56.85s8.92,20.3,22.9,15.42c0,0,7.95,2.44,11.27-2.44,0,0-7.77,3.73-11.27-.4,0,0-8.68,5.74-17.76-13.36Z"/></g></g></svg>