<svg width="98" height="38" viewBox="0 0 98 38" fill="none" xmlns="http://www.w3.org/2000/svg">
<path fill-rule="evenodd" clip-rule="evenodd" d="M68.596 0.914592L66.2713 1.80198L66.1551 6.03136L66.0389 10.2607L64.8765 9.47806C61.794 7.40249 57.7421 7.1762 54.183 8.88093C53.3726 9.2691 52.2361 10.1064 51.4703 10.8792C47.7757 14.6079 46.9626 21.0157 49.5536 25.9844C51.1182 28.9844 54.0963 31.0841 57.5031 31.5892C60.3139 32.0057 63.3039 31.2696 65.4447 29.634C65.8852 29.2976 66.3139 29.0224 66.3973 29.0224C66.481 29.0224 66.7381 29.444 66.9687 29.9594L67.3881 30.8965H69.5612H71.7343V15.4351C71.7343 0.856026 71.7111 -0.024801 71.3275 0.000499327C71.1039 0.0150236 69.8746 0.426389 68.596 0.914592ZM31.9442 3.93728C30.3151 4.46227 29.326 5.07088 28.2245 6.22556C27.038 7.46973 26.3804 8.87038 26.2393 10.4538C26.0902 12.1271 26.4264 13.4338 27.3291 14.6895C28.5628 16.4059 30.0692 17.0527 36.1668 18.4843C38.7056 19.0802 39.5306 19.4506 39.9097 20.1647C40.1262 20.572 40.1008 20.8201 39.7823 21.4161C38.6923 23.4558 34.394 23.7025 32.2446 21.8488C31.7169 21.3934 31.2833 20.8974 31.2815 20.7463C31.2794 20.5952 31.1862 20.3261 31.0743 20.148C30.9121 19.8896 30.412 20.0794 28.6079 21.0837C27.3632 21.7766 26.2981 22.4663 26.2409 22.6164C25.9433 23.3979 28.122 25.894 29.8895 26.7966C31.7971 27.7707 33.5664 28.1666 35.9343 28.1488C38.6202 28.1289 40.6297 27.5495 42.4543 26.2693C43.8289 25.3048 45.081 23.6376 45.4578 22.2702C45.8479 20.8553 45.7507 18.8003 45.2467 17.8047C44.6756 16.6767 43.3793 15.5237 42.0024 14.919C41.4138 14.6604 39.3272 14.0368 37.3654 13.5329C35.4034 13.029 33.5727 12.4993 33.2972 12.356C31.4609 11.4004 31.563 9.92925 33.5362 8.90505C34.1834 8.56912 36.4727 8.56701 37.6669 8.90131C38.6623 9.17961 40.1187 10.4727 40.1187 11.0778C40.1187 11.284 40.1843 11.4527 40.2642 11.4527C40.4067 11.4527 44.3359 9.32696 44.9759 8.90365C45.2451 8.72561 45.2151 8.55038 44.8002 7.87383C44.5251 7.42545 43.8222 6.61467 43.2382 6.07212C41.3485 4.31679 38.8425 3.4882 35.4694 3.50319C34.0011 3.50975 32.8197 3.65523 31.9442 3.93728ZM8.54057 8.18048C6.34142 8.76098 4.6823 9.72942 3.24403 11.272C1.8111 12.809 1.23202 13.7597 0.6376 15.5523C-0.409434 18.7087 -0.15093 22.6186 1.29525 25.5058C1.71253 26.3389 2.63264 27.595 3.36886 28.3369C5.61055 30.5959 8.33042 31.6616 11.8693 31.6672C15.5964 31.673 18.2707 30.6411 20.61 28.2947C22.8111 26.087 23.8386 23.3745 23.8432 19.7596C23.8465 17.2846 23.4192 15.4267 22.4063 13.5116C21.5199 11.8357 19.4317 9.83554 17.713 9.01609C14.9023 7.67611 11.5933 7.37485 8.54057 8.18048ZM84.0551 7.86633C83.7354 7.92021 82.9509 8.12941 82.3116 8.33111C78.6918 9.47361 75.8369 12.5017 74.8403 16.255C74.3875 17.9614 74.4407 21.3505 74.9493 23.1995C76.1875 27.6988 79.8742 30.9194 84.5489 31.5857C85.966 31.7876 86.9112 31.796 88.0215 31.6166C89.9626 31.3029 91.8572 30.6465 93.0958 29.8584C94.4255 29.0125 95.7968 27.5894 96.3666 26.4637C96.8138 25.5803 96.8178 25.5138 96.4345 25.3271C96.2104 25.2182 95.0673 24.8279 93.894 24.4601L91.7609 23.7915L91.1519 24.5208C90.8169 24.9221 89.9461 25.5454 89.2168 25.9064C88.1405 26.4389 87.5844 26.5612 86.2635 26.5556C84.4122 26.5478 83.2647 26.0629 82.0329 24.7677C81.3468 24.0464 80.5681 22.5759 80.5681 22.002C80.5681 21.8401 83.4039 21.7602 89.1445 21.7602C96.7506 21.7602 97.737 21.7183 97.862 21.3896C98.1164 20.7215 98.0031 18.1587 97.653 16.6627C97.4645 15.8561 96.9893 14.5557 96.5972 13.7733C95.174 10.9319 92.7285 9.0004 89.5018 8.16877C87.8457 7.74194 85.5485 7.6145 84.0551 7.86633ZM89.2791 13.662C89.93 14.0464 90.6409 14.7389 91.0472 15.3843C91.4208 15.9781 91.7265 16.6013 91.7265 16.7695C91.7265 17.0122 90.5793 17.075 86.1473 17.075C83.0787 17.075 80.5681 17.018 80.5681 16.9485C80.5681 16.5467 81.5698 14.9748 82.2377 14.3289C83.3693 13.234 84.5619 12.8484 86.5295 12.9409C87.8294 13.0021 88.4269 13.1586 89.2791 13.662ZM14.7286 13.6964C16.9754 14.8246 18.108 16.8131 18.1208 19.6518C18.1268 20.985 18.0025 21.6913 17.6047 22.5801C16.9777 23.9813 15.9307 25.1334 14.6635 25.8162C13.9519 26.2 13.3245 26.3178 11.9902 26.3192C9.98651 26.3211 8.90368 25.8964 7.62418 24.6072C6.53623 23.5109 5.89764 21.9652 5.77188 20.1241C5.69051 18.9348 5.78048 18.2959 6.17916 17.2314C6.46068 16.4799 7.01953 15.4883 7.421 15.0275C9.11081 13.088 12.3444 12.4991 14.7286 13.6964ZM62.2694 13.6974C63.5294 14.1298 64.9356 15.4187 65.5828 16.7336C65.9352 17.45 66.0379 18.1395 66.0349 19.769C66.0316 21.4739 65.9347 22.0596 65.5286 22.8303C64.8017 24.2097 63.3599 25.4224 61.9423 25.8467C60.4055 26.3065 59.5809 26.3056 58.0324 25.8422C56.3763 25.3465 54.7549 23.7297 54.1874 22.0081C53.662 20.4141 53.795 18.0596 54.4871 16.6936C55.0782 15.5272 56.7862 13.9602 57.8362 13.6212C58.9939 13.2473 61.0627 13.283 62.2694 13.6974ZM24.7005 32.4077C23.9748 33.5066 23.3811 34.4971 23.3811 34.6083C23.3811 34.9766 27.5725 36.7814 29.8553 37.3958C31.8364 37.9293 32.5468 38 35.9343 38C39.3218 38 40.0322 37.9293 42.0133 37.3958C44.3308 36.772 48.4876 34.9747 48.4876 34.5966C48.4876 34.1799 45.8109 30.4464 45.5817 30.5434C41.3057 32.3538 38.7544 33.0048 35.9343 33.0048C33.1689 33.0048 29.667 32.1064 26.2697 30.5256C26.1325 30.4617 25.4263 31.3088 24.7005 32.4077Z" fill="white"/>
</svg>
