<svg width="174" height="24" viewBox="0 0 174 24" fill="none" xmlns="http://www.w3.org/2000/svg">
<path fill-rule="evenodd" clip-rule="evenodd" d="M2.97362 0.489236C2.91426 0.758206 2.18019 5.46204 1.3424 10.9417C-0.0272406 19.9001 -0.151398 20.9749 0.111484 21.5962C0.272389 21.9765 0.623551 22.4831 0.891652 22.7223C1.36219 23.1419 1.73183 23.1593 11.4487 23.2178L21.5185 23.2783L21.6405 22.6742C21.7074 22.3418 21.8677 21.385 21.9964 20.5479C22.1251 19.7108 22.2762 18.8056 22.3321 18.5366L22.4337 18.0474H14.6283C8.64462 18.0474 6.77248 17.9839 6.60658 17.7756C6.45893 17.5903 6.79335 14.841 7.65767 9.1324C8.35499 4.52815 8.92968 0.589692 8.9349 0.380517C8.94338 0.0365296 8.66332 0 6.01297 0C3.15018 0 3.0793 0.0115242 2.97362 0.489236ZM73.5233 0.230702C73.5233 0.357686 72.7406 5.45182 71.7838 11.5512C70.8271 17.6505 70.0443 22.7814 70.0443 22.9534C70.0443 23.2096 70.5692 23.2659 72.9565 23.2659C75.0878 23.2659 75.8954 23.193 75.9686 22.9941C76.0237 22.8447 76.5423 19.5203 77.1208 15.6068C77.6997 11.6932 78.2004 8.51857 78.2337 8.55184C78.2941 8.61229 80.2639 21.8682 80.2639 22.2141C80.2639 22.3141 80.4596 22.5918 80.6988 22.831C81.0684 23.2006 81.4235 23.2659 83.0665 23.2659C84.5968 23.2659 85.09 23.1865 85.4344 22.8854C85.6736 22.676 87.3637 19.3489 89.1906 15.492C91.0173 11.6349 92.5339 8.50378 92.5609 8.53401C92.5876 8.56401 92.1328 11.7199 91.55 15.5468C90.9671 19.3737 90.4887 22.6788 90.4868 22.8912C90.4837 23.2465 90.734 23.2728 93.5781 23.2174L96.6727 23.1571L98.4583 12.1765C99.4404 6.13719 100.25 0.926938 100.256 0.597955L100.268 0H95.4243C91.485 0 90.4939 0.0604481 90.1178 0.323983C89.8075 0.541421 88.8903 2.58469 87.3298 6.53553C86.0508 9.77362 84.954 12.3729 84.8925 12.3116C84.8312 12.25 84.5514 10.0176 84.2706 7.35027C83.6029 1.00587 83.5572 0.715154 83.1708 0.328766C82.898 0.0558818 82.0508 0 78.1828 0C75.0417 0 73.5233 0.0752337 73.5233 0.230702ZM28.1701 3.45422C27.8018 3.67883 27.346 4.1922 27.1575 4.5949C26.9688 4.9976 26.2464 9.01302 25.5524 13.5181C24.455 20.6397 24.3278 21.779 24.5776 22.2459C24.7357 22.5414 25.1034 22.8917 25.395 23.0245C25.7576 23.1898 28.9388 23.2659 35.4778 23.2659H45.0307L45.1338 22.7766C45.1905 22.5077 45.3436 21.5535 45.4738 20.6566C45.6041 19.7597 45.7572 18.8058 45.8139 18.5366L45.917 18.0474H38.3025H30.6881V17.5309C30.6881 17.247 30.7492 16.7088 30.824 16.335L30.9599 15.6555H37.9959H45.032L45.7067 15.0528C46.3505 14.4775 46.4106 14.2757 47.0137 10.6497C47.3616 8.55945 47.7082 6.20177 47.7843 5.41007C47.9078 4.12697 47.8726 3.92084 47.4593 3.50749C47.0011 3.04935 46.8931 3.04413 37.9179 3.045C29.4195 3.04565 28.797 3.07175 28.1701 3.45422ZM51.6136 3.47836C51.2233 3.71623 50.7615 4.2296 50.5871 4.61904C50.3181 5.2196 48.9528 13.2189 48.9528 14.1941C48.9528 14.3735 49.1398 14.7512 49.3682 15.0334L49.7837 15.5468L56.3805 15.6555L62.9776 15.7643L62.9195 16.4166C62.8876 16.7753 62.8123 17.2891 62.7523 17.5581L62.6432 18.0474H55.4914H48.3399L48.0953 19.5151C47.9607 20.3224 47.7709 21.4966 47.6732 22.1243L47.4958 23.2659H56.7152C66.3609 23.2659 66.644 23.2406 67.4166 22.3096C67.6769 21.996 69.1704 13.3657 69.1733 12.16C69.1739 11.8521 68.9497 11.3888 68.6749 11.1307C68.1889 10.674 67.9958 10.6595 61.6625 10.6034L55.1498 10.5457L55.2088 10.0021C55.2412 9.70317 55.3188 9.14044 55.3816 8.75188L55.4958 8.04521H62.6467C69.2713 8.04521 69.8056 8.01716 69.9047 7.66469C69.9639 7.4553 70.1215 6.55032 70.2555 5.65339C70.3892 4.75646 70.5451 3.80256 70.6018 3.53337L70.7049 3.04413L61.514 3.045C52.723 3.04565 52.2923 3.06457 51.6136 3.47836ZM102.225 3.09849C102.225 3.1285 101.54 7.55597 100.703 12.9376C99.8664 18.3192 99.1817 22.8447 99.1815 22.9941C99.1812 23.198 99.9129 23.2659 102.116 23.2659C104.319 23.2659 105.052 23.198 105.053 22.9941C105.054 22.7484 107.698 5.43856 107.992 3.75081L108.116 3.04413H105.17C103.55 3.04413 102.225 3.06849 102.225 3.09849ZM110.488 3.14698C110.488 3.20373 109.897 7.09305 109.174 11.7901C108.451 16.4875 107.843 20.6988 107.823 21.1489C107.794 21.7806 107.922 22.1032 108.381 22.5622L108.975 23.1571L117.753 23.2185L126.531 23.28L126.791 21.8051C126.934 20.9941 127.105 19.8166 127.171 19.1889L127.291 18.0474H120.738H114.184V17.3218C114.184 16.9228 114.625 13.5962 115.163 9.92931C115.701 6.26243 116.141 3.2133 116.141 3.15329C116.141 3.09327 114.869 3.04413 113.314 3.04413C111.76 3.04413 110.488 3.09045 110.488 3.14698ZM130.745 11.9047C130.005 16.778 129.4 21.0289 129.402 21.3511C129.404 21.6734 129.641 22.2115 129.93 22.547L130.454 23.1571L139.262 23.2185C147.555 23.2763 148.077 23.2572 148.183 22.8923C148.245 22.6792 148.407 21.7221 148.543 20.7653C148.679 19.8086 148.842 18.8056 148.906 18.5366L149.022 18.0474H142.468C136.756 18.0474 135.898 18.0041 135.785 17.7112C135.714 17.5262 136.11 14.2728 136.664 10.4814C137.218 6.68992 137.67 3.46553 137.67 3.31593C137.668 3.11263 136.964 3.04413 134.879 3.04413H132.09L130.745 11.9047ZM154.679 3.47836C154.289 3.71623 153.828 4.2296 153.656 4.61904C153.261 5.50988 151.951 14.0121 152.124 14.5588C152.425 15.5075 152.656 15.5418 159.499 15.6555L166.043 15.7643L165.981 16.634C165.947 17.1124 165.877 17.6262 165.825 17.7756C165.752 17.9856 164.099 18.0474 158.548 18.0474C154.598 18.0474 151.366 18.1208 151.365 18.2104C151.365 18.3 151.22 19.2541 151.043 20.3305C150.866 21.4068 150.72 22.5105 150.718 22.7834L150.714 23.2791L160.168 23.2183L169.621 23.1571L170.205 22.5738C170.738 22.0404 170.849 21.6027 171.509 17.464C171.905 14.9745 172.232 12.6194 172.235 12.2309C172.238 11.8086 172.065 11.3492 171.805 11.0893C171.39 10.6738 171.081 10.6545 164.847 10.6545H158.324V9.90756C158.324 9.49682 158.42 8.90974 158.536 8.60294L158.748 8.04521H165.816H172.884L172.992 7.55597C173.051 7.287 173.203 6.43073 173.33 5.65339C173.456 4.87605 173.613 3.97107 173.678 3.64209L173.797 3.04413L164.593 3.045C155.789 3.04565 155.358 3.06457 154.679 3.47836ZM41.7774 8.79211C41.7774 9.20285 41.6813 9.79189 41.5636 10.1009L41.3501 10.6629L36.6169 10.6045L31.884 10.5457L31.9425 9.56727C31.9748 9.02911 32.0451 8.4666 32.0988 8.317C32.1729 8.11065 33.3517 8.04521 36.987 8.04521H41.7774V8.79211Z" fill="white"/>
</svg>
