<svg id="Layer_1" data-name="Layer 1" xmlns="http://www.w3.org/2000/svg" viewBox="0 0 88.54 89.62"><defs><style>.cls-1{fill:#ec1c24;}</style></defs><title>Mail</title><path class="cls-1" d="M83.65,47.24c-.2,1.45-.36,2.91-.61,4.35A39,39,0,0,1,70.15,74.48a38.09,38.09,0,0,1-19.68,9.34,38.46,38.46,0,0,1-29-6.6C12.38,70.84,6.69,62.1,5,51.11,2.85,36.74,7.36,24.58,18.19,14.87A38.22,38.22,0,0,1,38.76,5.52c.94-.13,1.88-.23,2.82-.34h5c1.35.17,2.71.3,4,.53A39.74,39.74,0,0,1,83,37.94c.25,1.44.41,2.9.61,4.35ZM44.05,8.89a35.88,35.88,0,1,0,35.88,35.9A35.93,35.93,0,0,0,44.05,8.89Z"/><path class="cls-1" d="M44.06,30.31h16c2.86,0,4.45,1.58,4.45,4.45q0,10,0,20c0,2.85-1.6,4.46-4.46,4.46H28c-2.86,0-4.46-1.61-4.46-4.47v-20c0-2.86,1.6-4.44,4.46-4.44Zm-17.16,5c0,.36,0,.56,0,.76v18.7c0,1,.16,1.19,1.2,1.19H60c1.07,0,1.22-.15,1.22-1.24q0-9.31,0-18.63c0-.21.09-.45-.13-.67-.19.14-.37.27-.54.41l-15.18,12a1.76,1.76,0,0,1-2.68,0L32.38,39.63Zm3.22-1.64c4.65,3.69,9.13,7.25,13.6,10.82.33.25.52.12.77-.08L57.55,34c.11-.08.32-.13.24-.35Z"/></svg>