<svg id="Layer_1" data-name="Layer 1" xmlns="http://www.w3.org/2000/svg" viewBox="0 0 391.4 368.06"><defs><style>.cls-1{fill:#fff;}.cls-2{fill:#ec1c24;}</style></defs><title>Proyector TV</title><path class="cls-1" d="M367.49,274h-338a5.74,5.74,0,0,1-5.74-5.75V69a5.73,5.73,0,0,1,5.74-5.74H81.21a5.75,5.75,0,0,1,0,11.49H35.27V262.53H361.75V74.77H128.07a5.75,5.75,0,0,1,0-11.49H367.49A5.73,5.73,0,0,1,373.23,69V268.27A5.74,5.74,0,0,1,367.49,274Z"/><path class="cls-1" d="M227.62,315.31H174a5.74,5.74,0,0,1-5.75-5.74v-41.3a5.74,5.74,0,0,1,5.75-5.74h53.61a5.73,5.73,0,0,1,5.74,5.74v41.3A5.73,5.73,0,0,1,227.62,315.31Zm-47.87-11.48h42.13V274H179.75Z"/><path class="cls-2" d="M269,317.37H134.71a7.8,7.8,0,0,1,0-15.6H269a7.8,7.8,0,0,1,0,15.6Z"/></svg>