<svg id="Layer_1" data-name="Layer 1" xmlns="http://www.w3.org/2000/svg" viewBox="0 0 391.4 368.06"><defs><style>.cls-1{fill:#fff;}.cls-2{fill:#ec1c24;}</style></defs><title>Sala de reuniones</title><path class="cls-1" d="M357.78,318.67c-3-.3-3.71-2-4-3.77l-.16-.83c-1.5-7.75-3.05-15.78-4.75-23.62-.65-2.94.59-4.22,2.78-5.34,8-4.05,12.28-10.53,12.43-18.71.35-19,.22-38.28.1-57l0-2.67a13,13,0,0,0-9.56-12.69A13.89,13.89,0,0,0,342.24,196a14.42,14.42,0,0,0-5.51,11.68c-.09,15.27-.08,31.41,0,48a4.62,4.62,0,0,1-1,3.48,4.71,4.71,0,0,1-3.37,1c-6.94-.12-14-.1-20.82-.07h-7.49c-5.94,0-10.2,2.69-12.64,8-2.52,5.46-1.75,10.52,2.3,15a4.79,4.79,0,0,1,1.4,4.63c-2,8.7-4,18-6,27.3-.66,3.19-2.75,3.59-4.66,3.54-5.12-.1-10.92-.22-16.58,0-1.53.06-3.11,0-4.21-1a5.74,5.74,0,0,1-1.36-4.11c-.24-8.9-6.32-14.75-15.47-14.91l-1.7,0c-2.26-.05-4.59-.1-6.84.07a4.53,4.53,0,0,1-3.53-.88,5,5,0,0,1-1.16-3.79c.12-18.85.11-35.31,0-50.32a5,5,0,0,1,1.06-3.63c1-.95,2.32-1,3.77-1.07,16.63.11,33.26.09,49.87.06h3.12c6.38,0,10.15-3.69,10.36-10.11,0-1.31,0-2.61,0-3.92v-1.37c0-8.9-3.17-12.06-12-12.06H99c-.61,0-1.23,0-1.85,0a9.29,9.29,0,0,0-9.42,9.05c-.15,2.13-.12,4.32-.09,6.45l0,1.12c.08,7.29,3.66,10.83,10.93,10.84h9c14.56,0,29.11,0,43.67-.07a5,5,0,0,1,3.55,1,4.85,4.85,0,0,1,1,3.57c-.07,8.47-.06,16.94-.06,25.41,0,6,0,11.94,0,17.92a28.61,28.61,0,0,0,.23,3c.32,2.79.65,5.69-1.14,7.57-2.06,2.17-5.41,1.74-8.39,1.36-.86-.11-1.71-.22-2.5-.26A16.33,16.33,0,0,0,131.31,303,15,15,0,0,0,127,314.55a3.84,3.84,0,0,1-.83,3,4,4,0,0,1-3.14,1c-6.84-.11-12.82-.1-18.28,0h-.17c-2.41,0-3.72-1.07-4.22-3.46-1.93-9.11-3.94-18.2-6-27.29a4.48,4.48,0,0,1,1.09-4.45c4.27-4.49,5.14-9.61,2.6-15.22-2.46-5.44-6.8-8.09-13.25-8.09h-.31c-4,.05-8,0-12,0-4.89,0-9.76,0-14.64.08-1.48,0-3-.08-4-1.1a5.25,5.25,0,0,1-1.14-4c.15-13.75.17-28.34,0-47.3a14.46,14.46,0,0,0-5.9-12,13.81,13.81,0,0,0-12.72-1.45c-4.22,1.5-6.94,4.61-8.83,10.08V268.7c2.37,8.56,6.9,14.14,13.86,17.06,2.19.92,1.82,2.74,1.62,3.72L38.25,302.3q-1.3,6.49-2.6,13c-.23,1.24-.59,3.24-3.1,3.24h-.06c-3.27,0-5.49,1.63-7.15,5.28v16.81c1.6,3.65,4.1,5.36,7.85,5.36,1.49,0,3,0,4.46,0l11.78,0q4.23,0,8.48,0a5.3,5.3,0,0,0,3.89-1.33,3.34,3.34,0,0,0,.88-2.54c-.09-2.33-1.7-3.52-4.79-3.55q-6.44,0-12.88,0H39.57c-3.12,0-4.69,0-5.74-1.07s-1-2.67-1-5.58c0-.74,0-1.37,0-1.89,0-1.57-.05-2.52.67-3.26s1.78-.72,3.8-.73H349.94c3.13,0,4.69,0,5.75,1.06s1,2.66,1,5.57c0,.74,0,1.37,0,1.89,0,1.58.06,2.53-.67,3.27s-1.76.74-3.82.74H84.7c-1.1,0-2.22,0-3.33.1A3.22,3.22,0,0,0,78.14,342a3.3,3.3,0,0,0,3.15,3.78,26.77,26.77,0,0,0,3.79.19H353.74a27.25,27.25,0,0,0,3.85-.14c4-.47,6.43-3,6.55-6.92.12-4.08.13-8.42,0-13.26C364.05,321.61,361.73,319.06,357.78,318.67ZM32.83,264.27q0-9.67,0-19.36V207.65c0-3.81,2.07-5.49,3.82-6.23a6,6,0,0,1,6.59,1.08c2.12,1.83,2.12,4.42,2.12,6.14q0,26,0,51.95c0,5.79,1.19,7,7.07,7H63.83c6.85,0,13.7,0,20.55,0,4.69,0,7.45,2.2,7.58,6A5.9,5.9,0,0,1,90.4,278a8.1,8.1,0,0,1-6,2.1H82.61l-18.08,0q-8,0-16.1,0C39.14,280,32.86,273.67,32.83,264.27ZM92.31,317.5A3.85,3.85,0,0,1,89,318.55c-5-.08-10-.06-15-.05H62.48c-5.16,0-10.3,0-15.45.06h-.22a3.63,3.63,0,0,1-3-1,4,4,0,0,1-.39-3.39c1.47-6.83,3-14.28,4.72-23.46.41-2.17,1.61-3.15,3.88-3.15h0q15.66.08,31.31,0h0c2.38,0,3.54,1,4,3.34,1.61,7.83,3.34,15.69,5.16,23.35A3.8,3.8,0,0,1,92.31,317.5Zm8-86h0c-1.55,0-3.11-.15-4.13-1.2a5.22,5.22,0,0,1-1.07-3.89l0-.52c.22-6.46.8-7,7.66-7H288.7c5.07,0,5.65.56,5.66,5.49,0,3.22,0,4.84-1.08,5.94s-2.74,1.1-6,1.1h-113Q137.27,231.46,100.32,231.52ZM163.24,243a4.19,4.19,0,0,1,.94-3.12,3.77,3.77,0,0,1,3.11-1c17.67.08,36.15.08,54.93,0a3.93,3.93,0,0,1,3.11,1,4.14,4.14,0,0,1,.95,3.11c-.09,20.15-.09,36.44,0,51.26a3.7,3.7,0,0,1-4.35,4.34h-.23c-6.5-.07-13-.06-19.49-.05H187.3c-6.5,0-13,0-19.49.05a4.91,4.91,0,0,1-3.57-1,4.56,4.56,0,0,1-1-3.32C163.33,279.24,163.33,263.43,163.24,243Zm91,74.4c-1,1.09-2.53,1.11-3.82,1.21-13.91-.09-27.82-.07-41.72-.07H184.4q-22,0-44,0h0a7.62,7.62,0,0,0-1,.1,9.87,9.87,0,0,1-1.45.13,3,3,0,0,1-3.15-2,8.32,8.32,0,0,1,.94-7.19,7.18,7.18,0,0,1,6-3.44c1.49-.06,3-.05,4.49-.05h99.52c5.84,0,8.7,2.33,9.26,7.53A4.86,4.86,0,0,1,254.2,317.36Zm44-46.4a7.06,7.06,0,0,1,6.31-3.38c7.55-.05,15.11,0,22.67,0h10.3c5.36,0,6.67-1.32,6.68-6.7V209.44c0-.64,0-1.29,0-1.93.19-4,2.63-6.58,6.23-6.58h.11c3.71,0,6.13,2.72,6.15,6.78q.06,10.47,0,20.94v15.58c0,6.59,0,13.18,0,19.78,0,9.73-6.32,16-16,16.06l-19.09,0H305c-2.19,0-4.89-.35-6.52-3A5.93,5.93,0,0,1,298.22,271Zm47.46,46.56c-.76.93-2,1-3.26,1-5.08-.08-10.18-.07-15.25-.05H315.61c-5.05,0-10.1,0-15.14.05h-.23a3.65,3.65,0,0,1-3-1.05,3.86,3.86,0,0,1-.35-3.35c2.08-8.89,3.72-16.32,5.15-23.36.59-2.86,2.31-3.26,4.1-3.26h0q15.51.08,31,0c1.9.05,3.68.37,4.21,3.22,1.61,8.65,3.15,16.32,4.71,23.46A3.84,3.84,0,0,1,345.68,317.52Z"/><path class="cls-2" d="M107.52,160.84c2.82,2.24,6.26,2.54,9.26,2.54h17.44q19.44,0,38.88-.06h.05a6.2,6.2,0,0,1,5.85,3.21c3.19,5.12,6.59,10.24,9.88,15.19l.46.69c1.53,2.3,3.45,3.57,5.41,3.57h0c2,0,3.88-1.26,5.41-3.56l.79-1.19c3.14-4.68,6.38-9.52,9.37-14.39a6.66,6.66,0,0,1,6.41-3.53c15,.1,30,.08,45,.07h10.29c10.13,0,14.45-4.29,14.46-14.32v-112c0-10.63-3.92-14.58-14.42-14.59H251.42c-2.21,0-4.41,0-6.6.08s-3.36,1.19-3.5,3.43,1,3.48,3.42,3.83a20.26,20.26,0,0,0,2.81.13h24.67c5.85,0,6.8.94,6.8,6.71V149c0,5.88-1,6.92-7,6.92H258.19c-14.84,0-29.68,0-44.52,0h-.07a8.24,8.24,0,0,0-7.71,4.15c-1.49,2.4-3,4.75-4.61,7.1-1.38,2.09-2.77,4.19-4.11,6.31-.57.9-1.3,1.82-2.41,1.82h0c-1.11,0-1.82-.89-2.42-1.85-1.09-1.72-2.23-3.42-3.37-5.12-1.62-2.42-3.29-4.92-4.8-7.48-2-3.48-4.79-5-9.16-5h-.19c-14.61.14-29.47.11-43.83.1l-13.83,0c-5.54,0-6.66-1.12-6.66-6.61q0-56.32,0-112.65c0-5.74,1-6.68,6.83-6.68H219c2.85,0,4.76-.48,5.69-1.43a3.15,3.15,0,0,0,.78-2.42c0-1.83-.56-3.62-6.35-3.62H116.77c-9.5,0-13.74,4.29-13.75,13.91q0,15.27,0,30.56v31.5q0,25.62,0,51.25C103,154.9,104.37,158.33,107.52,160.84Z"/><path class="cls-1" d="M224.21,70.37C221,63.26,215.5,60,207.38,60c-5.88.08-11.74.06-17.62,0L174.1,60c-6,0-12,0-18,0-10.73.09-17.42,6.83-17.47,17.59q-.06,15.31,0,30.64c0,11,6.9,17.87,17.91,17.9h51c8,0,13.45-3.36,16.6-10.27,1.17-2.6,2.92-2.57,4.49-2.17l.81.2c3.48.85,7,1.71,10.48,2.46a7.54,7.54,0,0,0,6.39-1.13,7,7,0,0,0,2.4-5.65c.12-10.24.12-21,0-33a7.25,7.25,0,0,0-2.48-5.86,7.59,7.59,0,0,0-6.51-1.1c-3.62.8-7.46,1.67-11.26,2.71C226.33,73,225.1,72.37,224.21,70.37ZM218,108.19c0,6.83-3.66,10.45-10.52,10.46q-12.26,0-24.52,0l-26.45,0c-6.91,0-10.43-3.54-10.45-10.47q-.06-15.17,0-30.32c0-7,3.44-10.35,10.46-10.39q9,0,18,0h14.83q8.91,0,17.85,0c7.38,0,10.83,3.44,10.84,10.74Q218.06,93.2,218,108.19ZM229.73,79.7c.88-.21,1.76-.4,2.64-.6,1.7-.37,3.39-.75,5.06-1.23a3.27,3.27,0,0,1,2.87.24,3.47,3.47,0,0,1,1,3c0,2.83,0,5.66,0,8.48v6.91c0,2.84,0,5.69,0,8.53,0,.77,0,2.18-1,3a2.37,2.37,0,0,1-1.47.46,5.31,5.31,0,0,1-1.39-.23c-2.1-.62-4.29-1.11-6.42-1.58l-1.57-.36a4.7,4.7,0,0,1-4-5V99.7c0-4.94,0-9.87,0-14.81C225.48,83,226.2,80.54,229.73,79.7Z"/><path class="cls-1" d="M201.9,91.76q0-4.49,0-9v-.6c-.15-2.81-1.58-4.54-3.74-4.54h-.1c-2.18,0-3.56,1.72-3.59,4.37-.08,6.71-.08,13.41,0,19.91,0,3.78,1.89,4.34,3.49,4.39a3.23,3.23,0,0,0,2.8-.93,5,5,0,0,0,1.11-3.37c.09-2.37.07-4.74,0-7.1l0-3.16Z"/></svg>