<?xml version="1.0" encoding="iso-8859-1"?>
<!-- Generator: Adobe Illustrator 19.0.0, SVG Export Plug-In . SVG Version: 6.00 Build 0)  -->
<svg version="1.1" id="Capa_1" xmlns="http://www.w3.org/2000/svg" xmlns:xlink="http://www.w3.org/1999/xlink" x="0px" y="0px"
	 viewBox="0 0 289.389 289.389" style="enable-background:new 0 0 289.389 289.389;" xml:space="preserve">
<g>
	<path d="M44.456,268.939c-2.18,8.848,3.226,17.787,12.073,19.968c8.848,2.18,17.789-3.226,19.969-12.073l18.183-73.8l-32.111-7.611
		L44.456,268.939z"/>
	<path d="M244.933,268.939l-18.085-73.405l-32.112,7.611l18.155,73.689c2.18,8.848,11.121,14.253,19.969,12.073
		C241.707,286.726,247.112,277.786,244.933,268.939z"/>
	<path d="M190.485,188.116l32.105-7.91c0.56-0.138,1.105-0.304,1.637-0.495c7.847-2.813,12.45-11.162,10.412-19.433l-0.016-0.064
		c-2.176-8.831-11.098-14.226-19.928-12.05l-9.52,2.346c-0.021-0.434-0.07-0.87-0.165-1.309c-2.067-9.511-3.303-19.596-4.498-29.35
		c-1.529-12.485-3.08-25.146-6.474-36.438c7.425-10.882,10.836-23.512,9.665-36.151C201.685,25.46,184.887,0,144.194,0
		c-17.867,0-33.382,6.292-44.866,18.194C84.974,33.071,77.273,56.432,78.198,82.286c0.345,9.624,1.726,18.585,3.062,27.251
		c2.071,13.444,4.028,26.143,1.576,38.96c-0.105,0.551-0.15,1.099-0.142,1.638l-8.001-1.971c-8.83-2.176-17.752,3.219-19.928,12.05
		l-0.016,0.064c-1.979,8.03,2.314,16.118,9.748,19.157c0.74,0.303,1.501,0.573,2.301,0.771l32.105,7.91
		c1.394,0.343,2.787,0.478,4.158,0.46c7.318-0.093,13.938-5.072,15.77-12.509l0.017-0.064c2.176-8.831-3.218-17.753-12.05-19.929
		l-9.087-2.238c0.39-0.713,0.679-1.494,0.839-2.333c2.972-15.53,0.71-30.208-1.478-44.402c-1.266-8.211-2.574-16.701-2.885-25.387
		c-0.771-21.539,5.299-40.642,16.653-52.41C119.36,20.477,130.58,16,144.194,16c19.602,0,41.343,8.601,43.579,32.738
		c0.51,5.498-0.235,11.024-2.139,16.289c-5.207-7.616-12.457-13.637-22.814-17.164c-9.579-3.261-19.367-2.589-27.565,1.893
		c-7.665,4.19-13.252,11.417-15.328,19.827c-2.169,8.783,0.387,18.563,6.835,26.16c7.091,8.354,17.681,12.626,29.062,11.732
		c8.713-0.688,17.451-4.277,25.125-10.163c1.454,7.158,2.563,15.328,3.684,24.484c1.239,10.113,2.52,20.571,4.744,30.803
		c0.128,0.587,0.323,1.141,0.565,1.663l-7.352,1.812c-8.832,2.176-14.226,11.098-12.05,19.929l0.017,0.064
		c1.872,7.599,8.74,12.639,16.248,12.515C188.022,188.561,189.253,188.42,190.485,188.116z M154.564,91.524
		c-8.477,0.682-13.414-3.556-15.604-6.135c-3.084-3.635-4.426-8.222-3.5-11.972c1.005-4.07,3.728-7.577,7.469-9.622
		c1.874-1.024,4.533-1.981,7.929-1.981c2.013,0,4.285,0.337,6.805,1.195c8.832,3.008,14.407,8.855,18.236,17.417
		C169.647,86.858,161.853,90.949,154.564,91.524z"/>
</g>
<g>
</g>
<g>
</g>
<g>
</g>
<g>
</g>
<g>
</g>
<g>
</g>
<g>
</g>
<g>
</g>
<g>
</g>
<g>
</g>
<g>
</g>
<g>
</g>
<g>
</g>
<g>
</g>
<g>
</g>
</svg>
