<svg id="Layer_1" data-name="Layer 1" xmlns="http://www.w3.org/2000/svg" viewBox="0 0 88.54 89.62"><defs><style>.cls-1{fill:#ec1c24;}</style></defs><title>tick</title><path d="M5,41.72c.2-1.36.33-2.75.61-4.1C8.41,23.8,16.09,13.69,29.09,8.17,41.94,2.71,54.56,3.85,66.3,11.48c9.83,6.38,15.53,15.61,17.41,27.18A39.7,39.7,0,0,1,84,48.52a3.85,3.85,0,0,1-2.65,3.64,3.67,3.67,0,0,1-4-1,3.71,3.71,0,0,1-1-3.12,33.84,33.84,0,0,0-.44-9.84C73.43,25.75,63,15.39,50.55,13.28c-11.71-2-21.7,1.41-29.75,10.14a29.5,29.5,0,0,0-7.74,16.85c-1.33,11.25,2.17,20.82,10.7,28.31a30.69,30.69,0,0,0,23.72,7.64,31.66,31.66,0,0,0,14.06-4.73,3.83,3.83,0,0,1,6,2.68,3.6,3.6,0,0,1-1.76,3.76,38.66,38.66,0,0,1-14.22,5.52c-1.44.26-2.89.42-4.34.63H41.8a.74.74,0,0,0-.51-.14,35,35,0,0,1-9.92-2.15Q10.13,73.63,5.63,51.32C5.34,49.89,5.21,48.43,5,47Z"/><path class="cls-1" d="M63.94,33.85a3.72,3.72,0,0,1-1.13,2.71Q52.15,47.24,41.46,57.92a3.78,3.78,0,0,1-5.48,0q-4.83-4.79-9.61-9.62a3.86,3.86,0,1,1,5.46-5.45c2.13,2.08,4.24,4.2,6.33,6.33.45.47.68.45,1.14,0q8.89-9,17.85-17.87a3.87,3.87,0,0,1,5.47-.39A3.73,3.73,0,0,1,63.94,33.85Z"/></svg>