<svg width="21" height="20" viewBox="0 0 21 20" fill="none" xmlns="http://www.w3.org/2000/svg">
<path d="M19.29 3.88999L9.28998 13.89C8.89998 14.28 8.26998 14.28 7.87998 13.89L5.04998 11.06C4.65998 10.67 4.65998 10.04 5.04998 9.64999C5.43998 9.25999 6.06998 9.25999 6.45998 9.64999L8.57998 11.77L17.87 2.47999C18.26 2.08999 18.89 2.08999 19.28 2.47999C19.68 2.86999 19.68 3.49999 19.29 3.88999ZM13.77 0.739989C12.08 0.0499892 10.16 -0.190011 8.15998 0.169989C4.08998 0.899989 0.839977 4.17999 0.149977 8.24999C-0.990023 15 4.62998 20.78 11.34 19.91C15.3 19.4 18.62 16.45 19.66 12.6C20.06 11.13 20.1 9.70999 19.87 8.37999C19.74 7.57999 18.75 7.26999 18.17 7.83999C17.94 8.06999 17.84 8.40999 17.9 8.72999C18.12 10.06 18.02 11.48 17.38 12.99C16.22 15.7 13.7 17.69 10.77 17.96C5.66998 18.43 1.43998 14.11 2.06998 8.97999C2.49998 5.43999 5.34998 2.55999 8.87998 2.06999C10.61 1.82999 12.25 2.15999 13.65 2.87999C14.04 3.07999 14.51 3.00999 14.82 2.69999C15.3 2.21999 15.18 1.40999 14.58 1.09999C14.31 0.979989 14.04 0.849989 13.77 0.739989Z" fill="#25D366"/>
</svg>
