<?xml version="1.0" standalone="no"?>
<svg xmlns:xlink="http://www.w3.org/1999/xlink" id="wave" style="transform:rotate(180deg); transition: 0.3s" viewBox="0 0 1440 200" version="1.1" xmlns="http://www.w3.org/2000/svg"><defs><linearGradient id="sw-gradient-0" x1="0" x2="0" y1="1" y2="0"><stop stop-color="rgba(24, 25, 30, 1)" offset="0%"/><stop stop-color="rgba(255, 255, 255, 0)" offset="100%"/></linearGradient></defs><path style="transform:translate(0, 0px); opacity:1" fill="url(#sw-gradient-0)" d="M0,120L720,40L1440,100L2160,160L2880,80L3600,40L4320,100L5040,40L5760,0L6480,120L7200,60L7920,100L8640,140L9360,0L10080,120L10800,80L11520,0L12240,0L12960,180L13680,120L14400,120L15120,60L15840,160L16560,40L17280,120L17280,200L16560,200L15840,200L15120,200L14400,200L13680,200L12960,200L12240,200L11520,200L10800,200L10080,200L9360,200L8640,200L7920,200L7200,200L6480,200L5760,200L5040,200L4320,200L3600,200L2880,200L2160,200L1440,200L720,200L0,200Z"/></svg>