<?xml version="1.0" standalone="no"?>
<svg xmlns:xlink="http://www.w3.org/1999/xlink" id="wave" style="transform:rotate(0deg); transition: 0.3s" viewBox="0 0 1440 260" version="1.1" xmlns="http://www.w3.org/2000/svg"><defs><linearGradient id="sw-gradient-0" x1="0" x2="0" y1="1" y2="0"><stop stop-color="rgba(24, 25, 30, 1)" offset="0%"/><stop stop-color="rgba(0, 0, 0, 0)" offset="100%"/></linearGradient></defs><path style="transform:translate(0, 0px); opacity:1" fill="url(#sw-gradient-0)" d="M0,104L1440,156L2880,78L4320,156L5760,52L7200,208L8640,104L10080,104L11520,78L12960,0L14400,104L15840,208L17280,208L18720,52L20160,156L21600,104L23040,26L24480,104L25920,234L27360,78L28800,130L30240,182L31680,52L33120,104L34560,208L34560,260L33120,260L31680,260L30240,260L28800,260L27360,260L25920,260L24480,260L23040,260L21600,260L20160,260L18720,260L17280,260L15840,260L14400,260L12960,260L11520,260L10080,260L8640,260L7200,260L5760,260L4320,260L2880,260L1440,260L0,260Z"/></svg>