<svg id="Layer_1" data-name="Layer 1" xmlns="http://www.w3.org/2000/svg" viewBox="0 0 88.54 89.62"><defs><style>.cls-1{fill:#ec1c24;}</style></defs><title>Whatsapp</title><path class="cls-1" d="M53.38,7.57a37.33,37.33,0,0,0-6-.93,1.74,1.74,0,0,1-.7-.13H42l-1.37.18c-1,.13-2.1.27-3.14.43C22.27,9.59,9.15,22.37,6.25,37.52A38,38,0,0,0,10,62.67a2.18,2.18,0,0,1,.2,1.54Q8.22,72.93,6.32,81.64L5.8,84a.43.43,0,0,0,0,0h0l2.81-.64q8.52-1.94,17-3.9a2.87,2.87,0,0,1,2,.22,38.85,38.85,0,0,0,34.07-.29A38.41,38.41,0,0,0,53.38,7.57Zm5.33,67.72a34.72,34.72,0,0,1-14.39,3.25,34.73,34.73,0,0,1-16.43-4.32,1.17,1.17,0,0,0-.91-.15c-3.52.82-7,1.61-10.56,2.41l-2.64.59-.35.08-.16,0a.59.59,0,0,1-.51-.16.57.57,0,0,1-.14-.51l2-8.91c.34-1.55.68-3.1,1-4.65a.94.94,0,0,0-.19-.81,34.09,34.09,0,0,1-4.59-13,31.91,31.91,0,0,1,3.95-20.22A33.12,33.12,0,0,1,37.52,12.25a33.45,33.45,0,0,1,21.19,63Z"/><path class="cls-1" d="M61.89,52.92c-.39-.17-.77-.36-1.15-.55L60,52l-1.36-.66c-1.25-.61-2.49-1.22-3.76-1.79-1-.46-1.06-.4-1.74.48-.83,1-1.68,2.09-2.54,3.11a1.9,1.9,0,0,1-2.65.62A25.35,25.35,0,0,1,35.63,43.21c-.91-1.5-.85-2,.4-3.26a8.57,8.57,0,0,0,1.86-2.37,1.47,1.47,0,0,0,0-1.26c-.88-2.09-1.75-4.17-2.57-6.26-.58-1.48-1.26-1.95-2.43-1.66a.45.45,0,0,1-.23,0,4,4,0,0,0-.59,0,3.57,3.57,0,0,0-2.75,1.53,9.69,9.69,0,0,0-1.91,9.77,24.44,24.44,0,0,0,4.06,7.2l.21.29c5.17,7.19,11.56,11.6,19.54,13.5,3.31.79,6,.42,8.32-1.17,1.88-1.26,2.75-3,2.83-5.74A.75.75,0,0,0,61.89,52.92Z"/></svg>