<svg id="Layer_1" data-name="Layer 1" xmlns="http://www.w3.org/2000/svg" viewBox="0 0 391.4 368.06"><defs><style>.cls-1{fill:#fff;}.cls-2{fill:#ec1c24;}</style></defs><title>Wifi</title><path class="cls-1" d="M376,144.85c-.28.89-.58,1.77-.84,2.66-2.68,9-8.19,15.47-17.54,17.55-9.12,2-16.62-1.33-22.47-8.52a192.1,192.1,0,0,0-48.14-42.63c-64.64-40-145.41-34-203.48,15.11-9.74,8.23-19,16.95-26.66,27.16-10.3,13.8-24.6,12.8-33,6.18-10.82-8.56-12.76-24.79-4.05-36.09A228.16,228.16,0,0,1,50.64,93.72c30.67-26.8,65.74-44.86,105.92-52.27,46.87-8.64,91.76-2.19,134.56,18.79,3.65,1.79,4.9,4.73,3.44,7.68s-4.45,3.64-8.23,1.77c-30.08-14.88-61.9-22.42-95.43-21.18C123.75,51,70.53,80.89,28.57,132.35A15,15,0,0,0,26.14,148c3.68,9.75,14.31,11.49,20.94,3.34a210.91,210.91,0,0,1,25.27-26.57c38.3-33.19,82.57-50.24,133.45-47.43,48.93,2.7,90.05,23.25,124.39,57.81,4.39,4.42,8.45,9.17,12.5,13.92,4.86,5.7,9.82,7.43,15.05,4.94,5.51-2.63,8.75-9.68,7.45-16.14a18.25,18.25,0,0,0-4.15-8.06,232.71,232.71,0,0,0-49.83-45.59c-.69-.46-1.37-.92-2-1.39-3.21-2.3-4-5.13-2.23-7.81s4.84-3.08,8.05-1a227.81,227.81,0,0,1,29.77,23.18,281.65,281.65,0,0,1,22,22.9c4.23,4.86,7.6,10.07,9.27,16.32Z"/><path class="cls-1" d="M197.76,116c42.42.79,79.63,18.09,110.35,50.06,5,5.16,9.26,10.54,10.39,18,1.6,10.58-3.77,21.76-13,26.4s-19.23,2.43-27.05-6.19c-15.83-17.42-34.66-30-57.76-35.32-36.55-8.36-68.9.54-97.19,24.83A136.67,136.67,0,0,0,112,205.23c-7.76,8.42-17.58,10.66-26.75,6.19S70.38,196,71.89,185.54a27.22,27.22,0,0,1,6.7-14.5c25.65-28.91,57.07-47.49,95.55-53.43A162.86,162.86,0,0,1,197.76,116Zm-3,10.54c-3.86.24-8.69.33-13.48.87-38.53,4.36-69.82,22.27-95.18,51.18A15.12,15.12,0,0,0,82.34,190c.39,5.83,4,11,8.89,12.47,5.38,1.61,9.61-.41,13.15-4.5a142.35,142.35,0,0,1,12.43-12.5,117.91,117.91,0,0,1,147-8.4,152,152,0,0,1,23.07,20.69c6.76,7.3,16.8,5.14,20.26-4.22,2.13-5.77,1.34-11.26-2.76-15.85C275.42,145.23,239.57,127.4,194.77,126.51Z"/><path class="cls-1" d="M195.41,194.28c21.82.47,40.74,7.78,56.9,22,7.66,6.73,10.08,15.48,7.82,25.28-2,8.86-7.33,15.21-16.26,17.86a20.49,20.49,0,0,1-19.31-3.76c-5.21-4.13-10.65-7.67-17-9.8-3.17-1.06-4.52-3.9-3.6-6.66s3.61-4.19,6.83-3.27a43.73,43.73,0,0,1,17.59,9.39c7.57,6.83,14.7,4.48,18.37.17a15.4,15.4,0,0,0-1.47-21.32A73.32,73.32,0,0,0,206,205.71c-22.9-3.12-43,3.47-60.41,18.47a15.17,15.17,0,0,0-4.47,17c3.09,8.89,12.2,11.65,19.46,5.68,6.64-5.45,13.87-9.69,22.27-11.67,4.29-1,7.51,1.82,6.86,5.85a4.84,4.84,0,0,1-3.81,4.16c-7.43,1.94-13.7,5.88-19.67,10.64-6.78,5.42-14.53,6.59-22.51,2.88-8.8-4.09-13.2-11.48-14-20.93-.67-8.18,2-15.39,8.18-20.9C154.34,202.24,173.61,194.64,195.41,194.28Z"/><path class="cls-2" d="M195.31,277.58a27.44,27.44,0,1,1-27.48,27.34A27.48,27.48,0,0,1,195.31,277.58Zm.09,10.59a16.86,16.86,0,1,0,16.66,17A16.89,16.89,0,0,0,195.4,288.17Z"/></svg>